<?xml version="1.0" encoding="UTF-8"?>
<svg xmlns="http://www.w3.org/2000/svg" xmlns:xlink="http://www.w3.org/1999/xlink" width="64pt" height="64pt" viewBox="0 0 64 64" version="1.1">
<defs>
<linearGradient id="linear0" gradientUnits="userSpaceOnUse" x1="254" y1="233.5" x2="254" y2="254.666672" gradientTransform="matrix(0.125012,0,0,0.125012,0,26.877566)">
<stop offset="0" style="stop-color:rgb(0%,0%,0%);stop-opacity:0.27451;"/>
<stop offset="1" style="stop-color:rgb(0%,0%,0%);stop-opacity:0;"/>
</linearGradient>
<radialGradient id="radial0" gradientUnits="userSpaceOnUse" cx="456.200623" cy="186.933533" fx="456.200623" fy="186.933533" r="21.166656" gradientTransform="matrix(0.000000177035,0.250024,-0.250024,0.000000172202,102.305583,-60.63935)">
<stop offset="0" style="stop-color:rgb(0%,0%,0%);stop-opacity:0.313725;"/>
<stop offset="0.499999" style="stop-color:rgb(0%,0%,0%);stop-opacity:0.27451;"/>
<stop offset="1" style="stop-color:rgb(0%,0%,0%);stop-opacity:0;"/>
</radialGradient>
<radialGradient id="radial1" gradientUnits="userSpaceOnUse" cx="63.5" cy="212.333359" fx="63.5" fy="212.333359" r="21.166666" gradientTransform="matrix(-0.250024,0.0000000742719,-0.0000000742719,-0.250024,23.814791,106.510186)">
<stop offset="0" style="stop-color:rgb(0%,0%,0%);stop-opacity:0.313725;"/>
<stop offset="0.499999" style="stop-color:rgb(0%,0%,0%);stop-opacity:0.27451;"/>
<stop offset="1" style="stop-color:rgb(0%,0%,0%);stop-opacity:0;"/>
</radialGradient>
<linearGradient id="linear1" gradientUnits="userSpaceOnUse" x1="359.833313" y1="-94.583336" x2="359.833344" y2="-115.75" gradientTransform="matrix(0.125012,0,0,0.125012,-0.00000172247,25.554529)">
<stop offset="0" style="stop-color:rgb(0%,0%,0%);stop-opacity:0.196078;"/>
<stop offset="1" style="stop-color:rgb(0%,0%,0%);stop-opacity:0;"/>
</linearGradient>
<linearGradient id="linear2" gradientUnits="userSpaceOnUse" x1="254" y1="233.5" x2="254" y2="-105.166656" >
<stop offset="0" style="stop-color:rgb(71.764706%,73.333333%,77.647059%);stop-opacity:1;"/>
<stop offset="1" style="stop-color:rgb(80%,81.568627%,84.313725%);stop-opacity:1;"/>
</linearGradient>
<linearGradient id="linear3" gradientUnits="userSpaceOnUse" x1="365.125" y1="-105.166672" x2="365.125" y2="-136.916672" >
<stop offset="0" style="stop-color:rgb(32.54902%,33.333333%,36.470588%);stop-opacity:1;"/>
<stop offset="1" style="stop-color:rgb(36.470588%,37.647059%,40.784314%);stop-opacity:1;"/>
</linearGradient>
</defs>
<g id="surface1">
<path style=" stroke:none;fill-rule:nonzero;fill:url(#linear0);" d="M 7.9375 56.066406 L 55.566406 56.066406 L 55.566406 58.714844 L 7.9375 58.714844 Z M 7.9375 56.066406 "/>
<path style=" stroke:none;fill-rule:nonzero;fill:url(#radial0);" d="M 55.566406 53.421875 L 60.859375 53.421875 L 60.859375 58.714844 L 55.566406 58.714844 Z M 55.566406 53.421875 "/>
<path style=" stroke:none;fill-rule:nonzero;fill:url(#radial1);" d="M 2.644531 53.421875 L 7.9375 53.421875 L 7.9375 58.714844 L 2.644531 58.714844 Z M 2.644531 53.421875 "/>
<path style=" stroke:none;fill-rule:nonzero;fill:url(#linear1);" d="M 29.105469 11.085938 L 58.214844 11.085938 L 58.214844 13.730469 L 29.105469 13.730469 Z M 29.105469 11.085938 "/>
<path style="fill-rule:nonzero;fill:url(#linear2);stroke-width:2;stroke-linecap:butt;stroke-linejoin:miter;stroke:rgb(30.19608%,30.19608%,30.19608%);stroke-opacity:1;stroke-miterlimit:4;" d="M 31.746968 -105.166739 L 476.235772 -105.166739 C 482.110211 -105.166739 486.82851 -100.417192 486.82851 -94.574 L 486.82851 222.92693 C 486.82851 228.770122 482.110211 233.488421 476.235772 233.488421 L 31.746968 233.488421 C 25.903776 233.488421 21.15423 228.770122 21.15423 222.92693 L 21.15423 -94.574 C 21.15423 -100.417192 25.903776 -105.166739 31.746968 -105.166739 Z M 31.746968 -105.166739 " transform="matrix(0.125012,0,0,0.125012,0,26.877566)"/>
<path style=" stroke:none;fill-rule:nonzero;fill:rgb(100%,100%,100%);fill-opacity:0.196078;" d="M 3.96875 13.730469 C 3.234375 13.730469 2.644531 14.320312 2.644531 15.054688 L 2.644531 15.714844 C 2.644531 14.980469 3.234375 14.390625 3.96875 14.390625 L 59.535156 14.390625 C 60.269531 14.390625 60.859375 14.980469 60.859375 15.714844 L 60.859375 15.054688 C 60.859375 14.320312 60.269531 13.730469 59.535156 13.730469 Z M 3.96875 13.730469 "/>
<path style=" stroke:none;fill-rule:nonzero;fill:rgb(0%,0%,0%);fill-opacity:0.196078;" d="M 3.96875 56.066406 C 3.234375 56.066406 2.644531 55.476562 2.644531 54.746094 L 2.644531 54.082031 C 2.644531 54.816406 3.234375 55.40625 3.96875 55.40625 L 59.535156 55.40625 C 60.269531 55.40625 60.859375 54.816406 60.859375 54.082031 L 60.859375 54.746094 C 60.859375 55.476562 60.269531 56.066406 59.535156 56.066406 Z M 3.96875 56.066406 "/>
<path style=" stroke:none;fill-rule:nonzero;fill:rgb(100%,100%,100%);fill-opacity:0.27451;" d="M 30.429688 9.761719 C 29.695312 9.761719 29.105469 10.351562 29.105469 11.085938 L 29.105469 11.746094 C 29.105469 11.011719 29.695312 10.421875 30.429688 10.421875 L 56.890625 10.421875 C 57.625 10.421875 58.214844 11.011719 58.214844 11.746094 L 58.214844 11.085938 C 58.214844 10.351562 57.625 9.761719 56.890625 9.761719 Z M 30.429688 9.761719 "/>
<path style="fill-rule:nonzero;fill:url(#linear3);stroke-width:0.264583;stroke-linecap:butt;stroke-linejoin:miter;stroke:rgb(74.509805%,78.431374%,71.764708%);stroke-opacity:1;stroke-miterlimit:4;" d="M 243.414255 -136.913707 C 237.539816 -136.913707 232.821517 -132.195407 232.821517 -126.320968 L 232.821517 -105.166739 L 465.67428 -105.166739 L 465.67428 -126.320968 C 465.67428 -132.195407 460.955981 -136.913707 455.081542 -136.913707 Z M 243.414255 -136.913707 " transform="matrix(0.125012,0,0,0.125012,0,26.877566)"/>
<path style=" stroke:none;fill-rule:nonzero;fill:rgb(20%,20%,20%);fill-opacity:1;" d="M 31.753906 49.453125 C 32.484375 49.453125 33.074219 50.046875 33.074219 50.777344 C 33.074219 51.507812 32.484375 52.097656 31.753906 52.097656 C 31.023438 52.097656 30.429688 51.507812 30.429688 50.777344 C 30.429688 50.046875 31.023438 49.453125 31.753906 49.453125 Z M 31.753906 49.453125 "/>
<path style=" stroke:none;fill-rule:nonzero;fill:rgb(20%,20%,20%);fill-opacity:1;" d="M 37.046875 49.453125 C 37.777344 49.453125 38.367188 50.046875 38.367188 50.777344 C 38.367188 51.507812 37.777344 52.097656 37.046875 52.097656 C 36.316406 52.097656 35.722656 51.507812 35.722656 50.777344 C 35.722656 50.046875 36.316406 49.453125 37.046875 49.453125 Z M 37.046875 49.453125 "/>
<path style=" stroke:none;fill-rule:nonzero;fill:rgb(20%,20%,20%);fill-opacity:1;" d="M 26.460938 49.453125 C 27.191406 49.453125 27.785156 50.046875 27.785156 50.777344 C 27.785156 51.507812 27.191406 52.097656 26.460938 52.097656 C 25.730469 52.097656 25.136719 51.507812 25.136719 50.777344 C 25.136719 50.046875 25.730469 49.453125 26.460938 49.453125 Z M 26.460938 49.453125 "/>
<path style=" stroke:none;fill-rule:nonzero;fill:rgb(57.647061%,67.450982%,61.56863%);fill-opacity:1;" d="M 37.046875 52.429688 C 36.3125 52.429688 35.722656 51.839844 35.722656 51.105469 C 35.722656 51.050781 35.726562 50.996094 35.734375 50.941406 C 35.8125 51.59375 36.367188 52.097656 37.046875 52.097656 C 37.722656 52.097656 38.277344 51.59375 38.359375 50.941406 C 38.363281 50.996094 38.367188 51.050781 38.367188 51.105469 C 38.367188 51.839844 37.777344 52.429688 37.046875 52.429688 Z M 37.046875 52.429688 "/>
<path style=" stroke:none;fill-rule:nonzero;fill:rgb(100%,100%,100%);fill-opacity:0.196078;" d="M 37.046875 52.429688 C 36.3125 52.429688 35.722656 51.839844 35.722656 51.105469 C 35.722656 51.050781 35.726562 50.996094 35.734375 50.941406 C 35.8125 51.59375 36.367188 52.097656 37.046875 52.097656 C 37.722656 52.097656 38.277344 51.59375 38.359375 50.941406 C 38.363281 50.996094 38.367188 51.050781 38.367188 51.105469 C 38.367188 51.839844 37.777344 52.429688 37.046875 52.429688 Z M 37.046875 52.429688 "/>
<path style=" stroke:none;fill-rule:nonzero;fill:rgb(100%,100%,100%);fill-opacity:0.196078;" d="M 31.761719 52.429688 C 31.03125 52.429688 30.441406 51.839844 30.441406 51.105469 C 30.441406 51.050781 30.445312 50.996094 30.449219 50.941406 C 30.53125 51.59375 31.085938 52.097656 31.761719 52.097656 C 32.441406 52.097656 32.996094 51.59375 33.074219 50.941406 C 33.082031 50.996094 33.085938 51.050781 33.085938 51.105469 C 33.085938 51.839844 32.496094 52.429688 31.761719 52.429688 Z M 31.761719 52.429688 "/>
<path style=" stroke:none;fill-rule:nonzero;fill:rgb(100%,100%,100%);fill-opacity:0.196078;" d="M 26.460938 52.429688 C 25.726562 52.429688 25.136719 51.839844 25.136719 51.105469 C 25.136719 51.050781 25.140625 50.996094 25.148438 50.941406 C 25.230469 51.59375 25.785156 52.097656 26.460938 52.097656 C 27.136719 52.097656 27.691406 51.59375 27.773438 50.941406 C 27.78125 50.996094 27.785156 51.050781 27.785156 51.105469 C 27.785156 51.839844 27.195312 52.429688 26.460938 52.429688 Z M 26.460938 52.429688 "/>
<path style=" stroke:none;fill-rule:nonzero;fill:rgb(0%,0%,0%);fill-opacity:0.196078;" d="M 26.460938 49.453125 C 27.195312 49.453125 27.785156 50.042969 27.785156 50.777344 C 27.785156 50.832031 27.78125 50.886719 27.773438 50.941406 C 27.691406 50.285156 27.136719 49.785156 26.460938 49.785156 C 25.785156 49.785156 25.230469 50.285156 25.148438 50.941406 C 25.140625 50.886719 25.136719 50.832031 25.136719 50.777344 C 25.136719 50.042969 25.726562 49.453125 26.460938 49.453125 Z M 26.460938 49.453125 "/>
<path style=" stroke:none;fill-rule:nonzero;fill:rgb(0%,0%,0%);fill-opacity:0.196078;" d="M 31.742188 49.453125 C 32.476562 49.453125 33.066406 50.042969 33.066406 50.777344 C 33.066406 50.832031 33.0625 50.886719 33.054688 50.941406 C 32.972656 50.285156 32.417969 49.785156 31.742188 49.785156 C 31.066406 49.785156 30.511719 50.285156 30.429688 50.941406 C 30.421875 50.886719 30.417969 50.832031 30.417969 50.777344 C 30.417969 50.042969 31.007812 49.453125 31.742188 49.453125 Z M 31.742188 49.453125 "/>
<path style=" stroke:none;fill-rule:nonzero;fill:rgb(0%,0%,0%);fill-opacity:0.196078;" d="M 37.046875 49.453125 C 37.777344 49.453125 38.367188 50.042969 38.367188 50.777344 C 38.367188 50.832031 38.363281 50.886719 38.359375 50.941406 C 38.277344 50.285156 37.722656 49.785156 37.046875 49.785156 C 36.367188 49.785156 35.8125 50.285156 35.734375 50.941406 C 35.726562 50.886719 35.722656 50.832031 35.722656 50.777344 C 35.722656 50.042969 36.3125 49.453125 37.046875 49.453125 Z M 37.046875 49.453125 "/>
<path style=" stroke:none;fill-rule:nonzero;fill:rgb(100%,100%,100%);fill-opacity:0.196078;" d="M 30.429688 9.761719 C 29.695312 9.761719 29.105469 10.351562 29.105469 11.085938 L 29.105469 11.746094 C 29.105469 11.011719 29.695312 10.421875 30.429688 10.421875 L 56.890625 10.421875 C 57.625 10.421875 58.214844 11.011719 58.214844 11.746094 L 58.214844 11.085938 C 58.214844 10.351562 57.625 9.761719 56.890625 9.761719 Z M 30.429688 9.761719 "/>
<path style=" stroke:none;fill-rule:nonzero;fill:rgb(32.549021%,33.333334%,36.470589%);fill-opacity:1;" d="M 33.222656 25.988281 C 31.652344 25.929688 30.121094 26.367188 28.832031 27.199219 L 30.386719 29.347656 C 31.640625 28.589844 33.21875 28.394531 34.703125 28.953125 C 36.1875 29.507812 37.25 30.695312 37.691406 32.089844 L 40.277344 31.496094 C 39.855469 30.019531 38.988281 28.683594 37.769531 27.695312 C 37.058594 28.429688 35.957031 28.714844 34.9375 28.332031 C 33.917969 27.949219 33.273438 27.007812 33.222656 25.988281 Z M 40.53125 32.796875 L 37.921875 33.394531 C 37.945312 34.039062 37.847656 34.699219 37.605469 35.339844 C 36.71875 37.703125 34.242188 38.988281 31.851562 38.433594 L 30.914062 40.921875 C 32.757812 41.441406 34.652344 41.234375 36.273438 40.453125 C 36.105469 39.914062 36.113281 39.316406 36.328125 38.746094 C 36.835938 37.394531 38.316406 36.703125 39.671875 37.175781 C 39.828125 36.886719 39.964844 36.585938 40.082031 36.269531 C 40.515625 35.121094 40.652344 33.933594 40.53125 32.796875 Z M 27.785156 28.011719 C 26.945312 28.789062 26.269531 29.773438 25.839844 30.921875 C 25.71875 31.238281 25.625 31.554688 25.550781 31.875 C 26.882812 32.410156 27.542969 33.90625 27.035156 35.257812 C 26.824219 35.828125 26.433594 36.28125 25.953125 36.578125 C 26.660156 38.234375 27.949219 39.636719 29.675781 40.457031 L 30.613281 37.96875 C 28.449219 36.8125 27.429688 34.214844 28.316406 31.851562 C 28.558594 31.210938 28.914062 30.648438 29.355469 30.179688 Z M 27.785156 28.011719 "/>
<path style=" stroke:none;fill-rule:nonzero;fill:rgb(32.549021%,33.333334%,36.470589%);fill-opacity:1;" d="M 36.449219 24.304688 C 37.304688 24.628906 37.738281 25.582031 37.414062 26.4375 C 37.09375 27.292969 36.140625 27.722656 35.285156 27.402344 C 34.429688 27.082031 33.996094 26.128906 34.320312 25.273438 C 34.640625 24.417969 35.59375 23.984375 36.449219 24.304688 Z M 36.449219 24.304688 "/>
<path style=" stroke:none;fill-rule:nonzero;fill:rgb(32.549021%,33.333334%,36.470589%);fill-opacity:1;" d="M 25.140625 32.78125 C 25.996094 33.101562 26.429688 34.054688 26.109375 34.910156 C 25.785156 35.765625 24.832031 36.199219 23.976562 35.875 C 23.125 35.554688 22.691406 34.601562 23.011719 33.746094 C 23.332031 32.890625 24.285156 32.457031 25.140625 32.78125 Z M 25.140625 32.78125 "/>
<path style=" stroke:none;fill-rule:nonzero;fill:rgb(32.549021%,33.333334%,36.470589%);fill-opacity:1;" d="M 39.386719 38.128906 C 40.238281 38.449219 40.671875 39.402344 40.351562 40.257812 C 40.03125 41.113281 39.078125 41.546875 38.222656 41.226562 C 37.367188 40.902344 36.933594 39.949219 37.253906 39.09375 C 37.578125 38.238281 38.53125 37.808594 39.386719 38.128906 Z M 39.386719 38.128906 "/>
</g>
</svg>
