<?xml version="1.0" encoding="UTF-8"?>
<svg xmlns="http://www.w3.org/2000/svg" xmlns:xlink="http://www.w3.org/1999/xlink" width="64pt" height="64pt" viewBox="0 0 64 64" version="1.1">
<defs>
<linearGradient id="linear0" gradientUnits="userSpaceOnUse" x1="254" y1="233.5" x2="254" y2="254.666672" gradientTransform="matrix(0.125012,0,0,0.125012,0,26.877565)">
<stop offset="0" style="stop-color:rgb(0%,0%,0%);stop-opacity:0.27451;"/>
<stop offset="1" style="stop-color:rgb(0%,0%,0%);stop-opacity:0;"/>
</linearGradient>
<radialGradient id="radial0" gradientUnits="userSpaceOnUse" cx="456.200623" cy="186.933533" fx="456.200623" fy="186.933533" r="21.166656" gradientTransform="matrix(0.000000177035,0.250024,-0.250024,0.000000172202,102.305583,-60.639352)">
<stop offset="0" style="stop-color:rgb(0%,0%,0%);stop-opacity:0.313725;"/>
<stop offset="0.499999" style="stop-color:rgb(0%,0%,0%);stop-opacity:0.27451;"/>
<stop offset="1" style="stop-color:rgb(0%,0%,0%);stop-opacity:0;"/>
</radialGradient>
<radialGradient id="radial1" gradientUnits="userSpaceOnUse" cx="63.5" cy="212.333359" fx="63.5" fy="212.333359" r="21.166666" gradientTransform="matrix(-0.250024,0.0000000742719,-0.0000000742719,-0.250024,23.814791,106.510184)">
<stop offset="0" style="stop-color:rgb(0%,0%,0%);stop-opacity:0.313725;"/>
<stop offset="0.499999" style="stop-color:rgb(0%,0%,0%);stop-opacity:0.27451;"/>
<stop offset="1" style="stop-color:rgb(0%,0%,0%);stop-opacity:0;"/>
</radialGradient>
<linearGradient id="linear1" gradientUnits="userSpaceOnUse" x1="254" y1="233.5" x2="254" y2="254.666672" gradientTransform="matrix(0.125012,0,0,0.125012,0,21.585393)">
<stop offset="0" style="stop-color:rgb(0%,0%,0%);stop-opacity:0.196078;"/>
<stop offset="1" style="stop-color:rgb(0%,0%,0%);stop-opacity:0;"/>
</linearGradient>
<radialGradient id="radial2" gradientUnits="userSpaceOnUse" cx="63.5" cy="212.333359" fx="63.5" fy="212.333359" r="21.166666" gradientTransform="matrix(-0.250024,0.0000000742719,-0.0000000742719,-0.250024,23.814791,101.218008)">
<stop offset="0" style="stop-color:rgb(0%,0%,0%);stop-opacity:0.313725;"/>
<stop offset="0.499999" style="stop-color:rgb(0%,0%,0%);stop-opacity:0.196078;"/>
<stop offset="1" style="stop-color:rgb(0%,0%,0%);stop-opacity:0;"/>
</radialGradient>
<linearGradient id="linear2" gradientUnits="userSpaceOnUse" x1="254" y1="233.5" x2="254" y2="-105.166656" gradientTransform="matrix(1,0,0,1,-0.0000138509,-63.50013)">
<stop offset="0" style="stop-color:rgb(71.764706%,73.333333%,77.647059%);stop-opacity:1;"/>
<stop offset="1" style="stop-color:rgb(80%,81.568627%,84.313725%);stop-opacity:1;"/>
</linearGradient>
</defs>
<g id="surface1">
<path style=" stroke:none;fill-rule:nonzero;fill:url(#linear0);" d="M 7.9375 56.066406 L 55.566406 56.066406 L 55.566406 58.714844 L 7.9375 58.714844 Z M 7.9375 56.066406 "/>
<path style=" stroke:none;fill-rule:nonzero;fill:url(#radial0);" d="M 55.566406 53.421875 L 60.859375 53.421875 L 60.859375 58.714844 L 55.566406 58.714844 Z M 55.566406 53.421875 "/>
<path style=" stroke:none;fill-rule:nonzero;fill:url(#radial1);" d="M 2.644531 53.421875 L 7.9375 53.421875 L 7.9375 58.714844 L 2.644531 58.714844 Z M 2.644531 53.421875 "/>
<path style=" stroke:none;fill-rule:nonzero;fill:url(#linear1);" d="M 7.9375 50.777344 L 55.566406 50.777344 L 55.566406 53.421875 L 7.9375 53.421875 Z M 7.9375 50.777344 "/>
<path style=" stroke:none;fill-rule:nonzero;fill:url(#radial2);" d="M 2.644531 48.128906 L 7.9375 48.128906 L 7.9375 53.421875 L 2.644531 53.421875 Z M 2.644531 48.128906 "/>
<path style="fill-rule:nonzero;fill:url(#linear2);stroke-width:2;stroke-linecap:butt;stroke-linejoin:miter;stroke:rgb(30.19608%,30.19608%,30.19608%);stroke-opacity:1;stroke-miterlimit:4;" d="M 42.339707 -168.660675 L 465.67428 -168.660675 C 477.360664 -168.660675 486.82851 -159.192829 486.82851 -147.506445 L 486.82851 212.334192 C 486.82851 224.020576 477.360664 233.488421 465.67428 233.488421 L 42.339707 233.488421 C 30.653323 233.488421 21.15423 224.020576 21.15423 212.334192 L 21.15423 -147.506445 C 21.15423 -159.192829 30.653323 -168.660675 42.339707 -168.660675 Z M 42.339707 -168.660675 " transform="matrix(0.125012,0,0,0.125012,0,26.877566)"/>
<path style=" stroke:none;fill-rule:nonzero;fill:rgb(20%,20%,20%);fill-opacity:1;" d="M 5.292969 5.792969 C 3.828125 5.792969 2.644531 6.972656 2.644531 8.4375 L 2.644531 11.085938 L 60.859375 11.085938 L 60.859375 8.4375 C 60.859375 6.972656 59.679688 5.792969 58.214844 5.792969 Z M 5.292969 5.792969 "/>
<path style=" stroke:none;fill-rule:nonzero;fill:rgb(100%,100%,100%);fill-opacity:0.196078;" d="M 5.292969 5.792969 C 3.828125 5.792969 2.644531 6.972656 2.644531 8.4375 L 2.644531 9.101562 C 2.644531 7.632812 3.828125 6.453125 5.292969 6.453125 L 58.214844 6.453125 C 59.679688 6.453125 60.859375 7.632812 60.859375 9.101562 L 60.859375 8.4375 C 60.859375 6.972656 59.679688 5.792969 58.214844 5.792969 Z M 5.292969 5.792969 "/>
<path style=" stroke:none;fill-rule:nonzero;fill:rgb(0%,0%,0%);fill-opacity:0.0784314;" d="M 58.214844 56.066406 C 59.679688 56.066406 60.859375 54.886719 60.859375 53.421875 L 60.859375 50.777344 C 60.859375 52.609375 59.679688 54.746094 58.214844 54.746094 L 5.292969 54.746094 C 3.828125 54.746094 2.644531 52.609375 2.644531 50.777344 L 2.644531 53.421875 C 2.644531 54.886719 3.828125 56.066406 5.292969 56.066406 Z M 58.214844 56.066406 "/>
<path style=" stroke:none;fill-rule:nonzero;fill:rgb(20%,20%,20%);fill-opacity:1;" d="M 7.9375 15.054688 L 10.585938 15.054688 L 10.585938 17.699219 L 7.9375 17.699219 Z M 7.9375 15.054688 "/>
<path style=" stroke:none;fill-rule:nonzero;fill:rgb(20%,20%,20%);fill-opacity:1;" d="M 7.9375 21.667969 L 10.585938 21.667969 L 10.585938 24.316406 L 7.9375 24.316406 Z M 7.9375 21.667969 "/>
<path style=" stroke:none;fill-rule:nonzero;fill:rgb(20%,20%,20%);fill-opacity:1;" d="M 51.597656 46.804688 L 54.246094 46.804688 L 54.246094 49.453125 L 51.597656 49.453125 Z M 51.597656 46.804688 "/>
<path style=" stroke:none;fill-rule:nonzero;fill:rgb(100%,100%,100%);fill-opacity:0.196078;" d="M 15.875 -0.824219 C 14.410156 -0.824219 13.230469 0.355469 13.230469 1.824219 L 13.230469 4.46875 C 13.230469 2.636719 14.410156 0.5 15.875 0.5 L 68.796875 0.5 C 70.265625 0.5 71.445312 2.636719 71.445312 4.46875 L 71.445312 1.824219 C 71.445312 0.355469 70.265625 -0.824219 68.796875 -0.824219 Z M 15.875 -0.824219 "/>
</g>
</svg>
