<?xml version="1.0" encoding="UTF-8"?>
<svg xmlns="http://www.w3.org/2000/svg" xmlns:xlink="http://www.w3.org/1999/xlink" width="64pt" height="64pt" viewBox="0 0 64 64" version="1.1">
<defs>
<linearGradient id="linear0" gradientUnits="userSpaceOnUse" x1="254" y1="233.5" x2="254" y2="254.666672" gradientTransform="matrix(0.125012,0,0,0.125012,0,26.877565)">
<stop offset="0" style="stop-color:rgb(0%,0%,0%);stop-opacity:0.27451;"/>
<stop offset="1" style="stop-color:rgb(0%,0%,0%);stop-opacity:0;"/>
</linearGradient>
<radialGradient id="radial0" gradientUnits="userSpaceOnUse" cx="456.200623" cy="186.933533" fx="456.200623" fy="186.933533" r="21.166656" gradientTransform="matrix(0.000000177035,0.250024,-0.250024,0.000000172202,102.305583,-60.639352)">
<stop offset="0" style="stop-color:rgb(0%,0%,0%);stop-opacity:0.313725;"/>
<stop offset="0.499999" style="stop-color:rgb(0%,0%,0%);stop-opacity:0.27451;"/>
<stop offset="1" style="stop-color:rgb(0%,0%,0%);stop-opacity:0;"/>
</radialGradient>
<radialGradient id="radial1" gradientUnits="userSpaceOnUse" cx="63.5" cy="212.333359" fx="63.5" fy="212.333359" r="21.166666" gradientTransform="matrix(-0.250024,0.0000000742719,-0.0000000742719,-0.250024,23.814791,106.510184)">
<stop offset="0" style="stop-color:rgb(0%,0%,0%);stop-opacity:0.313725;"/>
<stop offset="0.499999" style="stop-color:rgb(0%,0%,0%);stop-opacity:0.27451;"/>
<stop offset="1" style="stop-color:rgb(0%,0%,0%);stop-opacity:0;"/>
</radialGradient>
<linearGradient id="linear1" gradientUnits="userSpaceOnUse" x1="254" y1="233.5" x2="254" y2="254.666672" gradientTransform="matrix(0.125012,0,0,0.125012,0,21.585393)">
<stop offset="0" style="stop-color:rgb(0%,0%,0%);stop-opacity:0.196078;"/>
<stop offset="1" style="stop-color:rgb(0%,0%,0%);stop-opacity:0;"/>
</linearGradient>
<radialGradient id="radial2" gradientUnits="userSpaceOnUse" cx="63.5" cy="212.333359" fx="63.5" fy="212.333359" r="21.166666" gradientTransform="matrix(-0.250024,0.0000000742719,-0.0000000742719,-0.250024,23.814791,101.218008)">
<stop offset="0" style="stop-color:rgb(0%,0%,0%);stop-opacity:0.313725;"/>
<stop offset="0.499999" style="stop-color:rgb(0%,0%,0%);stop-opacity:0.196078;"/>
<stop offset="1" style="stop-color:rgb(0%,0%,0%);stop-opacity:0;"/>
</radialGradient>
<linearGradient id="linear2" gradientUnits="userSpaceOnUse" x1="254" y1="233.5" x2="254" y2="-105.166656" gradientTransform="matrix(1,0,0,1,-0.0000138509,-63.50013)">
<stop offset="0" style="stop-color:rgb(71.764706%,73.333333%,77.647059%);stop-opacity:1;"/>
<stop offset="1" style="stop-color:rgb(80%,81.568627%,84.313725%);stop-opacity:1;"/>
</linearGradient>
</defs>
<g id="surface1">
<path style=" stroke:none;fill-rule:nonzero;fill:url(#linear0);" d="M 7.9375 56.066406 L 55.566406 56.066406 L 55.566406 58.714844 L 7.9375 58.714844 Z M 7.9375 56.066406 "/>
<path style=" stroke:none;fill-rule:nonzero;fill:url(#radial0);" d="M 55.566406 53.421875 L 60.859375 53.421875 L 60.859375 58.714844 L 55.566406 58.714844 Z M 55.566406 53.421875 "/>
<path style=" stroke:none;fill-rule:nonzero;fill:url(#radial1);" d="M 2.644531 53.421875 L 7.9375 53.421875 L 7.9375 58.714844 L 2.644531 58.714844 Z M 2.644531 53.421875 "/>
<path style=" stroke:none;fill-rule:nonzero;fill:url(#linear1);" d="M 7.9375 50.777344 L 55.566406 50.777344 L 55.566406 53.421875 L 7.9375 53.421875 Z M 7.9375 50.777344 "/>
<path style=" stroke:none;fill-rule:nonzero;fill:url(#radial2);" d="M 2.644531 48.128906 L 7.9375 48.128906 L 7.9375 53.421875 L 2.644531 53.421875 Z M 2.644531 48.128906 "/>
<path style="fill-rule:nonzero;fill:url(#linear2);stroke-width:2;stroke-linecap:butt;stroke-linejoin:miter;stroke:rgb(30.19608%,30.19608%,30.19608%);stroke-opacity:1;stroke-miterlimit:4;" d="M 42.339707 -168.660675 L 465.67428 -168.660675 C 477.360664 -168.660675 486.82851 -159.192829 486.82851 -147.506445 L 486.82851 212.334192 C 486.82851 224.020576 477.360664 233.488421 465.67428 233.488421 L 42.339707 233.488421 C 30.653323 233.488421 21.15423 224.020576 21.15423 212.334192 L 21.15423 -147.506445 C 21.15423 -159.192829 30.653323 -168.660675 42.339707 -168.660675 Z M 42.339707 -168.660675 " transform="matrix(0.125012,0,0,0.125012,0,26.877566)"/>
<path style=" stroke:none;fill-rule:nonzero;fill:rgb(100%,100%,100%);fill-opacity:0.196078;" d="M 5.292969 5.792969 C 3.828125 5.792969 2.644531 6.972656 2.644531 8.4375 L 2.644531 9.101562 C 2.644531 7.632812 3.828125 6.453125 5.292969 6.453125 L 58.214844 6.453125 C 59.679688 6.453125 60.859375 7.632812 60.859375 9.101562 L 60.859375 8.4375 C 60.859375 6.972656 59.679688 5.792969 58.214844 5.792969 Z M 5.292969 5.792969 "/>
<path style=" stroke:none;fill-rule:nonzero;fill:rgb(0%,0%,0%);fill-opacity:0.0784314;" d="M 58.214844 56.066406 C 59.679688 56.066406 60.859375 54.886719 60.859375 53.421875 L 60.859375 50.777344 C 60.859375 52.609375 59.679688 54.746094 58.214844 54.746094 L 5.292969 54.746094 C 3.828125 54.746094 2.644531 52.609375 2.644531 50.777344 L 2.644531 53.421875 C 2.644531 54.886719 3.828125 56.066406 5.292969 56.066406 Z M 58.214844 56.066406 "/>
<path style=" stroke:none;fill-rule:nonzero;fill:rgb(100%,100%,100%);fill-opacity:0.196078;" d="M 15.875 -0.824219 C 14.410156 -0.824219 13.230469 0.355469 13.230469 1.824219 L 13.230469 4.46875 C 13.230469 2.636719 14.410156 0.5 15.875 0.5 L 68.796875 0.5 C 70.265625 0.5 71.445312 2.636719 71.445312 4.46875 L 71.445312 1.824219 C 71.445312 0.355469 70.265625 -0.824219 68.796875 -0.824219 Z M 15.875 -0.824219 "/>
<path style=" stroke:none;fill-rule:nonzero;fill:rgb(32.549021%,33.333334%,36.470589%);fill-opacity:1;" d="M 22.492188 30.035156 C 22.492188 34.308594 25.257812 37.910156 29.105469 39.160156 L 29.105469 36.394531 C 26.757812 35.273438 25.136719 32.851562 25.136719 30.035156 C 25.136719 26.136719 28.234375 23 32.078125 23 C 35.925781 23 39.019531 26.136719 39.019531 30.035156 C 39.019531 32.28125 37.992188 34.273438 36.382812 35.5625 L 36.382812 38.617188 C 39.527344 37.046875 41.675781 33.800781 41.675781 30.035156 C 41.675781 24.722656 37.398438 20.441406 32.082031 20.441406 C 26.769531 20.441406 22.492188 24.722656 22.492188 30.035156 Z M 22.492188 30.035156 "/>
<path style=" stroke:none;fill-rule:nonzero;fill:rgb(32.549021%,33.333334%,36.470589%);fill-opacity:1;" d="M 31.089844 39.296875 L 28.777344 34.664062 L 25.800781 39.296875 Z M 31.089844 39.296875 "/>
<path style=" stroke:none;fill-rule:nonzero;fill:rgb(32.549021%,33.333334%,36.470589%);fill-opacity:1;" d="M 7.277344 12.40625 C 8.371094 12.40625 9.261719 13.296875 9.261719 14.390625 C 9.261719 15.488281 8.371094 16.375 7.277344 16.375 C 6.179688 16.375 5.292969 15.488281 5.292969 14.390625 C 5.292969 13.296875 6.179688 12.40625 7.277344 12.40625 Z M 7.277344 12.40625 "/>
<path style=" stroke:none;fill-rule:nonzero;fill:rgb(32.549021%,33.333334%,36.470589%);fill-opacity:1;" d="M 7.277344 45.484375 C 8.371094 45.484375 9.261719 46.371094 9.261719 47.46875 C 9.261719 48.5625 8.371094 49.453125 7.277344 49.453125 C 6.179688 49.453125 5.292969 48.5625 5.292969 47.46875 C 5.292969 46.371094 6.179688 45.484375 7.277344 45.484375 Z M 7.277344 45.484375 "/>
<path style=" stroke:none;fill-rule:nonzero;fill:rgb(32.549021%,33.333334%,36.470589%);fill-opacity:1;" d="M 7.277344 19.023438 C 8.371094 19.023438 9.261719 19.910156 9.261719 21.007812 C 9.261719 22.101562 8.371094 22.992188 7.277344 22.992188 C 6.179688 22.992188 5.292969 22.101562 5.292969 21.007812 C 5.292969 19.910156 6.179688 19.023438 7.277344 19.023438 Z M 7.277344 19.023438 "/>
<path style=" stroke:none;fill-rule:nonzero;fill:rgb(32.549021%,33.333334%,36.470589%);fill-opacity:1;" d="M 7.277344 38.867188 C 8.371094 38.867188 9.261719 39.757812 9.261719 40.851562 C 9.261719 41.949219 8.371094 42.835938 7.277344 42.835938 C 6.179688 42.835938 5.292969 41.949219 5.292969 40.851562 C 5.292969 39.757812 6.179688 38.867188 7.277344 38.867188 Z M 7.277344 38.867188 "/>
<path style=" stroke:none;fill-rule:nonzero;fill:rgb(32.549021%,33.333334%,36.470589%);fill-opacity:1;" d="M 7.277344 32.253906 C 8.371094 32.253906 9.261719 33.140625 9.261719 34.238281 C 9.261719 35.332031 8.371094 36.222656 7.277344 36.222656 C 6.179688 36.222656 5.292969 35.332031 5.292969 34.238281 C 5.292969 33.140625 6.179688 32.253906 7.277344 32.253906 Z M 7.277344 32.253906 "/>
<path style=" stroke:none;fill-rule:nonzero;fill:rgb(32.549021%,33.333334%,36.470589%);fill-opacity:1;" d="M 7.277344 25.636719 C 8.371094 25.636719 9.261719 26.527344 9.261719 27.621094 C 9.261719 28.71875 8.371094 29.605469 7.277344 29.605469 C 6.179688 29.605469 5.292969 28.71875 5.292969 27.621094 C 5.292969 26.527344 6.179688 25.636719 7.277344 25.636719 Z M 7.277344 25.636719 "/>
<path style=" stroke:none;fill-rule:nonzero;fill:rgb(32.549021%,33.333334%,36.470589%);fill-opacity:1;" d="M 56.230469 12.40625 C 57.324219 12.40625 58.214844 13.296875 58.214844 14.390625 C 58.214844 15.488281 57.324219 16.375 56.230469 16.375 C 55.132812 16.375 54.246094 15.488281 54.246094 14.390625 C 54.246094 13.296875 55.132812 12.40625 56.230469 12.40625 Z M 56.230469 12.40625 "/>
<path style=" stroke:none;fill-rule:nonzero;fill:rgb(32.549021%,33.333334%,36.470589%);fill-opacity:1;" d="M 56.230469 45.484375 C 57.324219 45.484375 58.214844 46.371094 58.214844 47.46875 C 58.214844 48.5625 57.324219 49.453125 56.230469 49.453125 C 55.132812 49.453125 54.246094 48.5625 54.246094 47.46875 C 54.246094 46.371094 55.132812 45.484375 56.230469 45.484375 Z M 56.230469 45.484375 "/>
<path style=" stroke:none;fill-rule:nonzero;fill:rgb(32.549021%,33.333334%,36.470589%);fill-opacity:1;" d="M 56.230469 19.023438 C 57.324219 19.023438 58.214844 19.910156 58.214844 21.007812 C 58.214844 22.101562 57.324219 22.992188 56.230469 22.992188 C 55.132812 22.992188 54.246094 22.101562 54.246094 21.007812 C 54.246094 19.910156 55.132812 19.023438 56.230469 19.023438 Z M 56.230469 19.023438 "/>
<path style=" stroke:none;fill-rule:nonzero;fill:rgb(32.549021%,33.333334%,36.470589%);fill-opacity:1;" d="M 56.230469 38.867188 C 57.324219 38.867188 58.214844 39.757812 58.214844 40.851562 C 58.214844 41.949219 57.324219 42.835938 56.230469 42.835938 C 55.132812 42.835938 54.246094 41.949219 54.246094 40.851562 C 54.246094 39.757812 55.132812 38.867188 56.230469 38.867188 Z M 56.230469 38.867188 "/>
<path style=" stroke:none;fill-rule:nonzero;fill:rgb(32.549021%,33.333334%,36.470589%);fill-opacity:1;" d="M 56.230469 32.253906 C 57.324219 32.253906 58.214844 33.140625 58.214844 34.238281 C 58.214844 35.332031 57.324219 36.222656 56.230469 36.222656 C 55.132812 36.222656 54.246094 35.332031 54.246094 34.238281 C 54.246094 33.140625 55.132812 32.253906 56.230469 32.253906 Z M 56.230469 32.253906 "/>
<path style=" stroke:none;fill-rule:nonzero;fill:rgb(32.549021%,33.333334%,36.470589%);fill-opacity:1;" d="M 56.230469 25.636719 C 57.324219 25.636719 58.214844 26.527344 58.214844 27.621094 C 58.214844 28.71875 57.324219 29.605469 56.230469 29.605469 C 55.132812 29.605469 54.246094 28.71875 54.246094 27.621094 C 54.246094 26.527344 55.132812 25.636719 56.230469 25.636719 Z M 56.230469 25.636719 "/>
</g>
</svg>
