<?xml version="1.0" encoding="UTF-8"?>
<svg xmlns="http://www.w3.org/2000/svg" xmlns:xlink="http://www.w3.org/1999/xlink" width="64pt" height="64pt" viewBox="0 0 64 64" version="1.1">
<defs>
<linearGradient id="linear0" gradientUnits="userSpaceOnUse" x1="365.125" y1="-105.166672" x2="365.125" y2="-136.916672" gradientTransform="matrix(1.818182,0,0,1,-381,227.477417)">
<stop offset="0" style="stop-color:rgb(32.54902%,33.333333%,36.470588%);stop-opacity:1;"/>
<stop offset="1" style="stop-color:rgb(36.470588%,37.647059%,40.784314%);stop-opacity:1;"/>
</linearGradient>
<linearGradient id="linear1" gradientUnits="userSpaceOnUse" x1="254" y1="233.5" x2="254" y2="254.666672" gradientTransform="matrix(0.125012,0,0,0.125012,0,26.877566)">
<stop offset="0" style="stop-color:rgb(0%,0%,0%);stop-opacity:0.27451;"/>
<stop offset="1" style="stop-color:rgb(0%,0%,0%);stop-opacity:0;"/>
</linearGradient>
<radialGradient id="radial0" gradientUnits="userSpaceOnUse" cx="456.200623" cy="186.933533" fx="456.200623" fy="186.933533" r="21.166656" gradientTransform="matrix(0.000000177035,0.250024,-0.250024,0.000000172202,102.305583,-60.63935)">
<stop offset="0" style="stop-color:rgb(0%,0%,0%);stop-opacity:0.313725;"/>
<stop offset="0.499999" style="stop-color:rgb(0%,0%,0%);stop-opacity:0.27451;"/>
<stop offset="1" style="stop-color:rgb(0%,0%,0%);stop-opacity:0;"/>
</radialGradient>
<radialGradient id="radial1" gradientUnits="userSpaceOnUse" cx="63.5" cy="212.333359" fx="63.5" fy="212.333359" r="21.166666" gradientTransform="matrix(-0.250024,0.0000000742719,-0.0000000742719,-0.250024,23.814791,106.510186)">
<stop offset="0" style="stop-color:rgb(0%,0%,0%);stop-opacity:0.313725;"/>
<stop offset="0.499999" style="stop-color:rgb(0%,0%,0%);stop-opacity:0.27451;"/>
<stop offset="1" style="stop-color:rgb(0%,0%,0%);stop-opacity:0;"/>
</radialGradient>
<linearGradient id="linear2" gradientUnits="userSpaceOnUse" x1="254" y1="233.5" x2="254" y2="-105.166656" gradientTransform="matrix(1,0,0,1,0.000019443,-0.0000178019)">
<stop offset="0" style="stop-color:rgb(71.764706%,73.333333%,77.647059%);stop-opacity:1;"/>
<stop offset="1" style="stop-color:rgb(80%,81.568627%,84.313725%);stop-opacity:1;"/>
</linearGradient>
<linearGradient id="linear3" gradientUnits="userSpaceOnUse" x1="365.125" y1="-105.166672" x2="365.125" y2="-136.916672" gradientTransform="matrix(1.818182,0,0,1,-381,79.375008)">
<stop offset="0" style="stop-color:rgb(32.54902%,33.333333%,36.470588%);stop-opacity:1;"/>
<stop offset="1" style="stop-color:rgb(36.470588%,37.647059%,40.784314%);stop-opacity:1;"/>
</linearGradient>
<linearGradient id="linear4" gradientUnits="userSpaceOnUse" x1="254" y1="233.5" x2="254" y2="254.666672" gradientTransform="matrix(0.125012,0,0,0.125012,0,-10.829159)">
<stop offset="0" style="stop-color:rgb(0%,0%,0%);stop-opacity:0.27451;"/>
<stop offset="1" style="stop-color:rgb(0%,0%,0%);stop-opacity:0;"/>
</linearGradient>
<radialGradient id="radial2" gradientUnits="userSpaceOnUse" cx="456.200623" cy="186.933533" fx="456.200623" fy="186.933533" r="21.166656" gradientTransform="matrix(0.000000177035,0.250024,-0.250024,0.000000172202,102.305583,-98.346076)">
<stop offset="0" style="stop-color:rgb(0%,0%,0%);stop-opacity:0.313725;"/>
<stop offset="0.499999" style="stop-color:rgb(0%,0%,0%);stop-opacity:0.27451;"/>
<stop offset="1" style="stop-color:rgb(0%,0%,0%);stop-opacity:0;"/>
</radialGradient>
<radialGradient id="radial3" gradientUnits="userSpaceOnUse" cx="63.5" cy="212.333359" fx="63.5" fy="212.333359" r="21.166666" gradientTransform="matrix(-0.250024,0.0000000742719,-0.0000000742719,-0.250024,23.814791,68.80346)">
<stop offset="0" style="stop-color:rgb(0%,0%,0%);stop-opacity:0.313725;"/>
<stop offset="0.499999" style="stop-color:rgb(0%,0%,0%);stop-opacity:0.27451;"/>
<stop offset="1" style="stop-color:rgb(0%,0%,0%);stop-opacity:0;"/>
</radialGradient>
<linearGradient id="linear5" gradientUnits="userSpaceOnUse" x1="254" y1="233.5" x2="254" y2="-105.166656" gradientTransform="matrix(1,0,0,1,0.000019443,-0.0000178019)">
<stop offset="0" style="stop-color:rgb(71.764706%,73.333333%,77.647059%);stop-opacity:1;"/>
<stop offset="1" style="stop-color:rgb(80%,81.568627%,84.313725%);stop-opacity:1;"/>
</linearGradient>
<linearGradient id="linear6" gradientUnits="userSpaceOnUse" x1="254" y1="233.5" x2="254" y2="254.666672" gradientTransform="matrix(0.125012,0,0,0.125012,0,8.354964)">
<stop offset="0" style="stop-color:rgb(0%,0%,0%);stop-opacity:0.27451;"/>
<stop offset="1" style="stop-color:rgb(0%,0%,0%);stop-opacity:0;"/>
</linearGradient>
<radialGradient id="radial4" gradientUnits="userSpaceOnUse" cx="456.200623" cy="186.933533" fx="456.200623" fy="186.933533" r="21.166656" gradientTransform="matrix(0.000000177035,0.250024,-0.250024,0.000000172202,102.305583,-79.161953)">
<stop offset="0" style="stop-color:rgb(0%,0%,0%);stop-opacity:0.313725;"/>
<stop offset="0.499999" style="stop-color:rgb(0%,0%,0%);stop-opacity:0.27451;"/>
<stop offset="1" style="stop-color:rgb(0%,0%,0%);stop-opacity:0;"/>
</radialGradient>
<radialGradient id="radial5" gradientUnits="userSpaceOnUse" cx="63.5" cy="212.333359" fx="63.5" fy="212.333359" r="21.166666" gradientTransform="matrix(-0.250024,0.0000000742719,-0.0000000742719,-0.250024,23.814791,87.987583)">
<stop offset="0" style="stop-color:rgb(0%,0%,0%);stop-opacity:0.313725;"/>
<stop offset="0.499999" style="stop-color:rgb(0%,0%,0%);stop-opacity:0.27451;"/>
<stop offset="1" style="stop-color:rgb(0%,0%,0%);stop-opacity:0;"/>
</radialGradient>
<linearGradient id="linear7" gradientUnits="userSpaceOnUse" x1="254" y1="233.5" x2="254" y2="-105.166656" gradientTransform="matrix(1,0,0,1,0.000019443,-0.0000178019)">
<stop offset="0" style="stop-color:rgb(71.764706%,73.333333%,77.647059%);stop-opacity:1;"/>
<stop offset="1" style="stop-color:rgb(80%,81.568627%,84.313725%);stop-opacity:1;"/>
</linearGradient>
</defs>
<g id="surface1">
<path style="fill-rule:nonzero;fill:url(#linear0);stroke-width:0.356764;stroke-linecap:butt;stroke-linejoin:miter;stroke:rgb(74.509805%,78.431374%,71.764708%);stroke-opacity:1;stroke-miterlimit:4;" d="M 61.587869 64.160841 C 50.901389 64.160841 42.339707 68.879141 42.339707 74.75358 L 42.339707 122.311538 L 465.67428 122.311538 L 465.67428 74.75358 C 465.67428 68.879141 457.081351 64.160841 446.426118 64.160841 Z M 61.587869 64.160841 " transform="matrix(0.125012,0,0,0.125012,0,26.877566)"/>
<path style=" stroke:none;fill-rule:nonzero;fill:url(#linear1);" d="M 7.9375 56.066406 L 55.566406 56.066406 L 55.566406 58.714844 L 7.9375 58.714844 Z M 7.9375 56.066406 "/>
<path style=" stroke:none;fill-rule:nonzero;fill:url(#radial0);" d="M 55.566406 53.421875 L 60.859375 53.421875 L 60.859375 58.714844 L 55.566406 58.714844 Z M 55.566406 53.421875 "/>
<path style=" stroke:none;fill-rule:nonzero;fill:url(#radial1);" d="M 2.644531 53.421875 L 7.9375 53.421875 L 7.9375 58.714844 L 2.644531 58.714844 Z M 2.644531 53.421875 "/>
<path style="fill-rule:nonzero;fill:url(#linear2);stroke-width:2;stroke-linecap:butt;stroke-linejoin:miter;stroke:rgb(30.19608%,30.19608%,30.19608%);stroke-opacity:1;stroke-miterlimit:4;" d="M 31.746968 122.374032 L 476.235772 122.374032 C 482.110211 122.374032 486.82851 127.123579 486.82851 132.966771 L 486.82851 222.92693 C 486.82851 228.770122 482.110211 233.488421 476.235772 233.488421 L 31.746968 233.488421 C 25.903776 233.488421 21.15423 228.770122 21.15423 222.92693 L 21.15423 132.966771 C 21.15423 127.123579 25.903776 122.374032 31.746968 122.374032 Z M 31.746968 122.374032 " transform="matrix(0.125012,0,0,0.125012,0,26.877566)"/>
<path style=" stroke:none;fill-rule:nonzero;fill:rgb(100%,100%,100%);fill-opacity:0.196078;" d="M 3.96875 42.175781 C 3.234375 42.175781 2.644531 42.765625 2.644531 43.5 L 2.644531 44.160156 C 2.644531 43.425781 3.234375 42.835938 3.96875 42.835938 L 59.535156 42.835938 C 60.269531 42.835938 60.859375 43.425781 60.859375 44.160156 L 60.859375 43.5 C 60.859375 42.765625 60.269531 42.175781 59.535156 42.175781 Z M 3.96875 42.175781 "/>
<path style=" stroke:none;fill-rule:nonzero;fill:rgb(0%,0%,0%);fill-opacity:0.196078;" d="M 3.96875 56.066406 C 3.234375 56.066406 2.644531 55.476562 2.644531 54.746094 L 2.644531 54.082031 C 2.644531 54.816406 3.234375 55.40625 3.96875 55.40625 L 59.535156 55.40625 C 60.269531 55.40625 60.859375 54.816406 60.859375 54.082031 L 60.859375 54.746094 C 60.859375 55.476562 60.269531 56.066406 59.535156 56.066406 Z M 3.96875 56.066406 "/>
<path style=" stroke:none;fill-rule:nonzero;fill:rgb(100%,100%,100%);fill-opacity:0.27451;" d="M 30.429688 9.761719 C 29.695312 9.761719 29.105469 10.351562 29.105469 11.085938 L 29.105469 11.746094 C 29.105469 11.011719 29.695312 10.421875 30.429688 10.421875 L 56.890625 10.421875 C 57.625 10.421875 58.214844 11.011719 58.214844 11.746094 L 58.214844 11.085938 C 58.214844 10.351562 57.625 9.761719 56.890625 9.761719 Z M 30.429688 9.761719 "/>
<path style="fill-rule:nonzero;fill:url(#linear3);stroke-width:0.356764;stroke-linecap:butt;stroke-linejoin:miter;stroke:rgb(74.509805%,78.431374%,71.764708%);stroke-opacity:1;stroke-miterlimit:4;" d="M 61.587869 -83.950015 C 50.901389 -83.950015 42.339707 -79.200468 42.339707 -73.357276 L 42.339707 -25.799318 L 465.67428 -25.799318 L 465.67428 -73.357276 C 465.67428 -79.200468 457.081351 -83.950015 446.426118 -83.950015 Z M 61.587869 -83.950015 " transform="matrix(0.125012,0,0,0.125012,0,26.877566)"/>
<path style=" stroke:none;fill-rule:nonzero;fill:url(#linear4);" d="M 7.9375 18.359375 L 55.566406 18.359375 L 55.566406 21.007812 L 7.9375 21.007812 Z M 7.9375 18.359375 "/>
<path style=" stroke:none;fill-rule:nonzero;fill:url(#radial2);" d="M 55.566406 15.714844 L 60.859375 15.714844 L 60.859375 21.007812 L 55.566406 21.007812 Z M 55.566406 15.714844 "/>
<path style=" stroke:none;fill-rule:nonzero;fill:url(#radial3);" d="M 2.644531 15.714844 L 7.9375 15.714844 L 7.9375 21.007812 L 2.644531 21.007812 Z M 2.644531 15.714844 "/>
<path style="fill-rule:nonzero;fill:url(#linear5);stroke-width:2;stroke-linecap:butt;stroke-linejoin:miter;stroke:rgb(30.19608%,30.19608%,30.19608%);stroke-opacity:1;stroke-miterlimit:4;" d="M 31.746968 122.371586 L 476.235772 122.371586 C 482.110211 122.371586 486.82851 127.121133 486.82851 132.964325 L 486.82851 222.924484 C 486.82851 228.767676 482.110211 233.485975 476.235772 233.485975 L 31.746968 233.485975 C 25.903776 233.485975 21.15423 228.767676 21.15423 222.924484 L 21.15423 132.964325 C 21.15423 127.121133 25.903776 122.371586 31.746968 122.371586 Z M 31.746968 122.371586 " transform="matrix(0.125012,0,0,0.125012,0,-10.829159)"/>
<path style=" stroke:none;fill-rule:nonzero;fill:rgb(100%,100%,100%);fill-opacity:0.196078;" d="M 3.96875 4.46875 C 3.234375 4.46875 2.644531 5.058594 2.644531 5.792969 L 2.644531 6.453125 C 2.644531 5.722656 3.234375 5.128906 3.96875 5.128906 L 59.535156 5.128906 C 60.269531 5.128906 60.859375 5.722656 60.859375 6.453125 L 60.859375 5.792969 C 60.859375 5.058594 60.269531 4.46875 59.535156 4.46875 Z M 3.96875 4.46875 "/>
<path style=" stroke:none;fill-rule:nonzero;fill:rgb(0%,0%,0%);fill-opacity:0.196078;" d="M 3.96875 18.359375 C 3.234375 18.359375 2.644531 17.769531 2.644531 17.039062 L 2.644531 16.375 C 2.644531 17.109375 3.234375 17.699219 3.96875 17.699219 L 59.535156 17.699219 C 60.269531 17.699219 60.859375 17.109375 60.859375 16.375 L 60.859375 17.039062 C 60.859375 17.769531 60.269531 18.359375 59.535156 18.359375 Z M 3.96875 18.359375 "/>
<path style=" stroke:none;fill-rule:nonzero;fill:url(#linear6);" d="M 7.9375 37.546875 L 55.566406 37.546875 L 55.566406 40.191406 L 7.9375 40.191406 Z M 7.9375 37.546875 "/>
<path style=" stroke:none;fill-rule:nonzero;fill:url(#radial4);" d="M 55.566406 34.898438 L 60.859375 34.898438 L 60.859375 40.191406 L 55.566406 40.191406 Z M 55.566406 34.898438 "/>
<path style=" stroke:none;fill-rule:nonzero;fill:url(#radial5);" d="M 2.644531 34.898438 L 7.9375 34.898438 L 7.9375 40.191406 L 2.644531 40.191406 Z M 2.644531 34.898438 "/>
<path style="fill-rule:nonzero;fill:url(#linear7);stroke-width:2;stroke-linecap:butt;stroke-linejoin:miter;stroke:rgb(30.19608%,30.19608%,30.19608%);stroke-opacity:1;stroke-miterlimit:4;" d="M 31.746968 122.367354 L 476.235772 122.367354 C 482.110211 122.367354 486.82851 127.1169 486.82851 132.960092 L 486.82851 222.920252 C 486.82851 228.763444 482.110211 233.51299 476.235772 233.51299 L 31.746968 233.51299 C 25.903776 233.51299 21.15423 228.763444 21.15423 222.920252 L 21.15423 132.960092 C 21.15423 127.1169 25.903776 122.367354 31.746968 122.367354 Z M 31.746968 122.367354 " transform="matrix(0.125012,0,0,0.125012,0,8.354964)"/>
<path style=" stroke:none;fill-rule:nonzero;fill:rgb(100%,100%,100%);fill-opacity:0.196078;" d="M 3.96875 23.652344 C 3.234375 23.652344 2.644531 24.242188 2.644531 24.976562 L 2.644531 25.636719 C 2.644531 24.90625 3.234375 24.316406 3.96875 24.316406 L 59.535156 24.316406 C 60.269531 24.316406 60.859375 24.90625 60.859375 25.636719 L 60.859375 24.976562 C 60.859375 24.242188 60.269531 23.652344 59.535156 23.652344 Z M 3.96875 23.652344 "/>
<path style=" stroke:none;fill-rule:nonzero;fill:rgb(0%,0%,0%);fill-opacity:0.196078;" d="M 3.96875 37.546875 C 3.234375 37.546875 2.644531 36.957031 2.644531 36.222656 L 2.644531 35.5625 C 2.644531 36.292969 3.234375 36.882812 3.96875 36.882812 L 59.535156 36.882812 C 60.269531 36.882812 60.859375 36.292969 60.859375 35.5625 L 60.859375 36.222656 C 60.859375 36.957031 60.269531 37.546875 59.535156 37.546875 Z M 3.96875 37.546875 "/>
<path style=" stroke:none;fill-rule:nonzero;fill:rgb(20%,20%,20%);fill-opacity:1;" d="M 11.929688 29.277344 C 12.660156 29.277344 13.25 29.867188 13.25 30.597656 C 13.25 31.328125 12.660156 31.921875 11.929688 31.921875 C 11.199219 31.921875 10.605469 31.328125 10.605469 30.597656 C 10.605469 29.867188 11.199219 29.277344 11.929688 29.277344 Z M 11.929688 29.277344 "/>
<path style=" stroke:none;fill-rule:nonzero;fill:rgb(20%,20%,20%);fill-opacity:1;" d="M 17.21875 29.277344 C 17.953125 29.277344 18.542969 29.867188 18.542969 30.597656 C 18.542969 31.328125 17.953125 31.921875 17.21875 31.921875 C 16.488281 31.921875 15.898438 31.328125 15.898438 30.597656 C 15.898438 29.867188 16.488281 29.277344 17.21875 29.277344 Z M 17.21875 29.277344 "/>
<path style=" stroke:none;fill-rule:nonzero;fill:rgb(20%,20%,20%);fill-opacity:1;" d="M 6.636719 29.277344 C 7.367188 29.277344 7.960938 29.867188 7.960938 30.597656 C 7.960938 31.328125 7.367188 31.921875 6.636719 31.921875 C 5.90625 31.921875 5.3125 31.328125 5.3125 30.597656 C 5.3125 29.867188 5.90625 29.277344 6.636719 29.277344 Z M 6.636719 29.277344 "/>
<path style=" stroke:none;fill-rule:nonzero;fill:rgb(57.647061%,67.450982%,61.56863%);fill-opacity:1;" d="M 17.21875 32.253906 C 16.488281 32.253906 15.898438 31.664062 15.898438 30.929688 C 15.898438 30.875 15.902344 30.820312 15.90625 30.765625 C 15.988281 31.417969 16.542969 31.921875 17.21875 31.921875 C 17.898438 31.921875 18.453125 31.417969 18.53125 30.765625 C 18.539062 30.820312 18.542969 30.875 18.542969 30.929688 C 18.542969 31.664062 17.953125 32.253906 17.21875 32.253906 Z M 17.21875 32.253906 "/>
<path style=" stroke:none;fill-rule:nonzero;fill:rgb(100%,100%,100%);fill-opacity:0.196078;" d="M 17.21875 32.253906 C 16.488281 32.253906 15.898438 31.664062 15.898438 30.929688 C 15.898438 30.875 15.902344 30.820312 15.90625 30.765625 C 15.988281 31.417969 16.542969 31.921875 17.21875 31.921875 C 17.898438 31.921875 18.453125 31.417969 18.53125 30.765625 C 18.539062 30.820312 18.542969 30.875 18.542969 30.929688 C 18.542969 31.664062 17.953125 32.253906 17.21875 32.253906 Z M 17.21875 32.253906 "/>
<path style=" stroke:none;fill-rule:nonzero;fill:rgb(100%,100%,100%);fill-opacity:0.196078;" d="M 11.9375 32.253906 C 11.207031 32.253906 10.617188 31.664062 10.617188 30.929688 C 10.617188 30.875 10.621094 30.820312 10.625 30.765625 C 10.707031 31.417969 11.261719 31.921875 11.9375 31.921875 C 12.617188 31.921875 13.171875 31.417969 13.25 30.765625 C 13.257812 30.820312 13.261719 30.875 13.261719 30.929688 C 13.261719 31.664062 12.671875 32.253906 11.9375 32.253906 Z M 11.9375 32.253906 "/>
<path style=" stroke:none;fill-rule:nonzero;fill:rgb(100%,100%,100%);fill-opacity:0.196078;" d="M 6.636719 32.253906 C 5.902344 32.253906 5.3125 31.664062 5.3125 30.929688 C 5.3125 30.875 5.316406 30.820312 5.324219 30.765625 C 5.40625 31.417969 5.960938 31.921875 6.636719 31.921875 C 7.3125 31.921875 7.867188 31.417969 7.949219 30.765625 C 7.957031 30.820312 7.960938 30.875 7.960938 30.929688 C 7.960938 31.664062 7.371094 32.253906 6.636719 32.253906 Z M 6.636719 32.253906 "/>
<path style=" stroke:none;fill-rule:nonzero;fill:rgb(0%,0%,0%);fill-opacity:0.196078;" d="M 6.636719 29.277344 C 7.371094 29.277344 7.960938 29.867188 7.960938 30.597656 C 7.960938 30.65625 7.957031 30.710938 7.949219 30.765625 C 7.867188 30.109375 7.3125 29.605469 6.636719 29.605469 C 5.960938 29.605469 5.40625 30.109375 5.324219 30.765625 C 5.316406 30.710938 5.3125 30.65625 5.3125 30.597656 C 5.3125 29.867188 5.902344 29.277344 6.636719 29.277344 Z M 6.636719 29.277344 "/>
<path style=" stroke:none;fill-rule:nonzero;fill:rgb(0%,0%,0%);fill-opacity:0.196078;" d="M 11.917969 29.277344 C 12.652344 29.277344 13.242188 29.867188 13.242188 30.597656 C 13.242188 30.65625 13.238281 30.710938 13.230469 30.765625 C 13.148438 30.109375 12.59375 29.605469 11.917969 29.605469 C 11.242188 29.605469 10.6875 30.109375 10.605469 30.765625 C 10.597656 30.710938 10.59375 30.65625 10.59375 30.597656 C 10.59375 29.867188 11.183594 29.277344 11.917969 29.277344 Z M 11.917969 29.277344 "/>
<path style=" stroke:none;fill-rule:nonzero;fill:rgb(0%,0%,0%);fill-opacity:0.196078;" d="M 17.21875 29.277344 C 17.953125 29.277344 18.542969 29.867188 18.542969 30.597656 C 18.542969 30.65625 18.539062 30.710938 18.53125 30.765625 C 18.453125 30.109375 17.898438 29.605469 17.21875 29.605469 C 16.542969 29.605469 15.988281 30.109375 15.90625 30.765625 C 15.902344 30.710938 15.898438 30.65625 15.898438 30.597656 C 15.898438 29.867188 16.488281 29.277344 17.21875 29.277344 Z M 17.21875 29.277344 "/>
<path style=" stroke:none;fill-rule:nonzero;fill:rgb(20%,20%,20%);fill-opacity:1;" d="M 11.929688 9.761719 C 12.660156 9.761719 13.25 10.355469 13.25 11.085938 C 13.25 11.816406 12.660156 12.40625 11.929688 12.40625 C 11.199219 12.40625 10.605469 11.816406 10.605469 11.085938 C 10.605469 10.355469 11.199219 9.761719 11.929688 9.761719 Z M 11.929688 9.761719 "/>
<path style=" stroke:none;fill-rule:nonzero;fill:rgb(20%,20%,20%);fill-opacity:1;" d="M 17.21875 9.761719 C 17.953125 9.761719 18.542969 10.355469 18.542969 11.085938 C 18.542969 11.816406 17.953125 12.40625 17.21875 12.40625 C 16.488281 12.40625 15.898438 11.816406 15.898438 11.085938 C 15.898438 10.355469 16.488281 9.761719 17.21875 9.761719 Z M 17.21875 9.761719 "/>
<path style=" stroke:none;fill-rule:nonzero;fill:rgb(20%,20%,20%);fill-opacity:1;" d="M 6.636719 9.761719 C 7.367188 9.761719 7.960938 10.355469 7.960938 11.085938 C 7.960938 11.816406 7.367188 12.40625 6.636719 12.40625 C 5.90625 12.40625 5.3125 11.816406 5.3125 11.085938 C 5.3125 10.355469 5.90625 9.761719 6.636719 9.761719 Z M 6.636719 9.761719 "/>
<path style=" stroke:none;fill-rule:nonzero;fill:rgb(57.647061%,67.450982%,61.56863%);fill-opacity:1;" d="M 17.21875 12.738281 C 16.488281 12.738281 15.898438 12.148438 15.898438 11.414062 C 15.898438 11.359375 15.902344 11.304688 15.90625 11.25 C 15.988281 11.902344 16.542969 12.40625 17.21875 12.40625 C 17.898438 12.40625 18.453125 11.902344 18.53125 11.25 C 18.539062 11.304688 18.542969 11.359375 18.542969 11.414062 C 18.542969 12.148438 17.953125 12.738281 17.21875 12.738281 Z M 17.21875 12.738281 "/>
<path style=" stroke:none;fill-rule:nonzero;fill:rgb(100%,100%,100%);fill-opacity:0.196078;" d="M 17.21875 12.738281 C 16.488281 12.738281 15.898438 12.148438 15.898438 11.414062 C 15.898438 11.359375 15.902344 11.304688 15.90625 11.25 C 15.988281 11.902344 16.542969 12.40625 17.21875 12.40625 C 17.898438 12.40625 18.453125 11.902344 18.53125 11.25 C 18.539062 11.304688 18.542969 11.359375 18.542969 11.414062 C 18.542969 12.148438 17.953125 12.738281 17.21875 12.738281 Z M 17.21875 12.738281 "/>
<path style=" stroke:none;fill-rule:nonzero;fill:rgb(100%,100%,100%);fill-opacity:0.196078;" d="M 11.9375 12.738281 C 11.207031 12.738281 10.617188 12.148438 10.617188 11.414062 C 10.617188 11.359375 10.621094 11.304688 10.625 11.25 C 10.707031 11.902344 11.261719 12.40625 11.9375 12.40625 C 12.617188 12.40625 13.171875 11.902344 13.25 11.25 C 13.257812 11.304688 13.261719 11.359375 13.261719 11.414062 C 13.261719 12.148438 12.671875 12.738281 11.9375 12.738281 Z M 11.9375 12.738281 "/>
<path style=" stroke:none;fill-rule:nonzero;fill:rgb(100%,100%,100%);fill-opacity:0.196078;" d="M 6.636719 12.738281 C 5.902344 12.738281 5.3125 12.148438 5.3125 11.414062 C 5.3125 11.359375 5.316406 11.304688 5.324219 11.25 C 5.40625 11.902344 5.960938 12.40625 6.636719 12.40625 C 7.3125 12.40625 7.867188 11.902344 7.949219 11.25 C 7.957031 11.304688 7.960938 11.359375 7.960938 11.414062 C 7.960938 12.148438 7.371094 12.738281 6.636719 12.738281 Z M 6.636719 12.738281 "/>
<path style=" stroke:none;fill-rule:nonzero;fill:rgb(0%,0%,0%);fill-opacity:0.196078;" d="M 6.636719 9.761719 C 7.371094 9.761719 7.960938 10.351562 7.960938 11.085938 C 7.960938 11.140625 7.957031 11.195312 7.949219 11.25 C 7.867188 10.59375 7.3125 10.09375 6.636719 10.09375 C 5.960938 10.09375 5.40625 10.59375 5.324219 11.25 C 5.316406 11.195312 5.3125 11.140625 5.3125 11.085938 C 5.3125 10.351562 5.902344 9.761719 6.636719 9.761719 Z M 6.636719 9.761719 "/>
<path style=" stroke:none;fill-rule:nonzero;fill:rgb(0%,0%,0%);fill-opacity:0.196078;" d="M 11.917969 9.761719 C 12.652344 9.761719 13.242188 10.351562 13.242188 11.085938 C 13.242188 11.140625 13.238281 11.195312 13.230469 11.25 C 13.148438 10.59375 12.59375 10.09375 11.917969 10.09375 C 11.242188 10.09375 10.6875 10.59375 10.605469 11.25 C 10.597656 11.195312 10.59375 11.140625 10.59375 11.085938 C 10.59375 10.351562 11.183594 9.761719 11.917969 9.761719 Z M 11.917969 9.761719 "/>
<path style=" stroke:none;fill-rule:nonzero;fill:rgb(0%,0%,0%);fill-opacity:0.196078;" d="M 17.21875 9.761719 C 17.953125 9.761719 18.542969 10.351562 18.542969 11.085938 C 18.542969 11.140625 18.539062 11.195312 18.53125 11.25 C 18.453125 10.59375 17.898438 10.09375 17.21875 10.09375 C 16.542969 10.09375 15.988281 10.59375 15.90625 11.25 C 15.902344 11.195312 15.898438 11.140625 15.898438 11.085938 C 15.898438 10.351562 16.488281 9.761719 17.21875 9.761719 Z M 17.21875 9.761719 "/>
<path style=" stroke:none;fill-rule:nonzero;fill:rgb(20%,20%,20%);fill-opacity:1;" d="M 11.929688 48.128906 C 12.660156 48.128906 13.25 48.722656 13.25 49.453125 C 13.25 50.183594 12.660156 50.777344 11.929688 50.777344 C 11.199219 50.777344 10.605469 50.183594 10.605469 49.453125 C 10.605469 48.722656 11.199219 48.128906 11.929688 48.128906 Z M 11.929688 48.128906 "/>
<path style=" stroke:none;fill-rule:nonzero;fill:rgb(20%,20%,20%);fill-opacity:1;" d="M 17.21875 48.128906 C 17.953125 48.128906 18.542969 48.722656 18.542969 49.453125 C 18.542969 50.183594 17.953125 50.777344 17.21875 50.777344 C 16.488281 50.777344 15.898438 50.183594 15.898438 49.453125 C 15.898438 48.722656 16.488281 48.128906 17.21875 48.128906 Z M 17.21875 48.128906 "/>
<path style=" stroke:none;fill-rule:nonzero;fill:rgb(20%,20%,20%);fill-opacity:1;" d="M 6.636719 48.128906 C 7.367188 48.128906 7.960938 48.722656 7.960938 49.453125 C 7.960938 50.183594 7.367188 50.777344 6.636719 50.777344 C 5.90625 50.777344 5.3125 50.183594 5.3125 49.453125 C 5.3125 48.722656 5.90625 48.128906 6.636719 48.128906 Z M 6.636719 48.128906 "/>
<path style=" stroke:none;fill-rule:nonzero;fill:rgb(57.647061%,67.450982%,61.56863%);fill-opacity:1;" d="M 17.21875 51.105469 C 16.488281 51.105469 15.898438 50.515625 15.898438 49.785156 C 15.898438 49.726562 15.902344 49.671875 15.90625 49.617188 C 15.988281 50.273438 16.542969 50.777344 17.21875 50.777344 C 17.898438 50.777344 18.453125 50.273438 18.53125 49.617188 C 18.539062 49.671875 18.542969 49.726562 18.542969 49.785156 C 18.542969 50.515625 17.953125 51.105469 17.21875 51.105469 Z M 17.21875 51.105469 "/>
<path style=" stroke:none;fill-rule:nonzero;fill:rgb(100%,100%,100%);fill-opacity:0.196078;" d="M 17.21875 51.105469 C 16.488281 51.105469 15.898438 50.515625 15.898438 49.785156 C 15.898438 49.726562 15.902344 49.671875 15.90625 49.617188 C 15.988281 50.273438 16.542969 50.777344 17.21875 50.777344 C 17.898438 50.777344 18.453125 50.273438 18.53125 49.617188 C 18.539062 49.671875 18.542969 49.726562 18.542969 49.785156 C 18.542969 50.515625 17.953125 51.105469 17.21875 51.105469 Z M 17.21875 51.105469 "/>
<path style=" stroke:none;fill-rule:nonzero;fill:rgb(100%,100%,100%);fill-opacity:0.196078;" d="M 11.9375 51.105469 C 11.207031 51.105469 10.617188 50.515625 10.617188 49.785156 C 10.617188 49.726562 10.621094 49.671875 10.625 49.617188 C 10.707031 50.273438 11.261719 50.777344 11.9375 50.777344 C 12.617188 50.777344 13.171875 50.273438 13.25 49.617188 C 13.257812 49.671875 13.261719 49.726562 13.261719 49.785156 C 13.261719 50.515625 12.671875 51.105469 11.9375 51.105469 Z M 11.9375 51.105469 "/>
<path style=" stroke:none;fill-rule:nonzero;fill:rgb(100%,100%,100%);fill-opacity:0.196078;" d="M 6.636719 51.105469 C 5.902344 51.105469 5.3125 50.515625 5.3125 49.785156 C 5.3125 49.726562 5.316406 49.671875 5.324219 49.617188 C 5.40625 50.273438 5.960938 50.777344 6.636719 50.777344 C 7.3125 50.777344 7.867188 50.273438 7.949219 49.617188 C 7.957031 49.671875 7.960938 49.726562 7.960938 49.785156 C 7.960938 50.515625 7.371094 51.105469 6.636719 51.105469 Z M 6.636719 51.105469 "/>
<path style=" stroke:none;fill-rule:nonzero;fill:rgb(0%,0%,0%);fill-opacity:0.196078;" d="M 6.636719 48.128906 C 7.371094 48.128906 7.960938 48.71875 7.960938 49.453125 C 7.960938 49.507812 7.957031 49.5625 7.949219 49.617188 C 7.867188 48.964844 7.3125 48.460938 6.636719 48.460938 C 5.960938 48.460938 5.40625 48.964844 5.324219 49.617188 C 5.316406 49.5625 5.3125 49.507812 5.3125 49.453125 C 5.3125 48.71875 5.902344 48.128906 6.636719 48.128906 Z M 6.636719 48.128906 "/>
<path style=" stroke:none;fill-rule:nonzero;fill:rgb(0%,0%,0%);fill-opacity:0.196078;" d="M 11.917969 48.128906 C 12.652344 48.128906 13.242188 48.71875 13.242188 49.453125 C 13.242188 49.507812 13.238281 49.5625 13.230469 49.617188 C 13.148438 48.964844 12.59375 48.460938 11.917969 48.460938 C 11.242188 48.460938 10.6875 48.964844 10.605469 49.617188 C 10.597656 49.5625 10.59375 49.507812 10.59375 49.453125 C 10.59375 48.71875 11.183594 48.128906 11.917969 48.128906 Z M 11.917969 48.128906 "/>
<path style=" stroke:none;fill-rule:nonzero;fill:rgb(0%,0%,0%);fill-opacity:0.196078;" d="M 17.21875 48.128906 C 17.953125 48.128906 18.542969 48.71875 18.542969 49.453125 C 18.542969 49.507812 18.539062 49.5625 18.53125 49.617188 C 18.453125 48.964844 17.898438 48.460938 17.21875 48.460938 C 16.542969 48.460938 15.988281 48.964844 15.90625 49.617188 C 15.902344 49.5625 15.898438 49.507812 15.898438 49.453125 C 15.898438 48.71875 16.488281 48.128906 17.21875 48.128906 Z M 17.21875 48.128906 "/>
</g>
</svg>
