<?xml version="1.0" encoding="UTF-8"?>
<svg xmlns="http://www.w3.org/2000/svg" xmlns:xlink="http://www.w3.org/1999/xlink" width="64pt" height="64pt" viewBox="0 0 64 64" version="1.1">
<defs>
<linearGradient id="linear0" gradientUnits="userSpaceOnUse" x1="254" y1="275.833344" x2="254" y2="-189.833328" gradientTransform="matrix(0.125012,0,0,0.125012,0,26.877566)">
<stop offset="0" style="stop-color:rgb(71.764706%,73.333333%,77.647059%);stop-opacity:1;"/>
<stop offset="1" style="stop-color:rgb(80%,81.568627%,84.313725%);stop-opacity:1;"/>
</linearGradient>
</defs>
<g id="surface1">
<path style=" stroke:none;fill-rule:nonzero;fill:url(#linear0);" d="M 10.585938 3.144531 C 6.1875 3.144531 2.644531 6.6875 2.644531 11.085938 C 2.644531 15.480469 6.1875 19.023438 10.585938 19.023438 C 14.980469 19.023438 18.523438 15.480469 18.523438 11.085938 C 18.523438 6.6875 14.980469 3.144531 10.585938 3.144531 Z M 31.753906 3.144531 C 27.355469 3.144531 23.816406 6.6875 23.816406 11.085938 C 23.816406 15.480469 27.355469 19.023438 31.753906 19.023438 C 36.152344 19.023438 39.691406 15.480469 39.691406 11.085938 C 39.691406 6.6875 36.152344 3.144531 31.753906 3.144531 Z M 52.921875 3.144531 C 48.523438 3.144531 44.984375 6.6875 44.984375 11.085938 C 44.984375 15.480469 48.523438 19.023438 52.921875 19.023438 C 57.320312 19.023438 60.859375 15.480469 60.859375 11.085938 C 60.859375 6.6875 57.320312 3.144531 52.921875 3.144531 Z M 10.585938 24.316406 C 6.1875 24.316406 2.644531 27.855469 2.644531 32.253906 C 2.644531 36.652344 6.1875 40.191406 10.585938 40.191406 C 14.980469 40.191406 18.523438 36.652344 18.523438 32.253906 C 18.523438 27.855469 14.980469 24.316406 10.585938 24.316406 Z M 31.753906 24.316406 C 27.355469 24.316406 23.816406 27.855469 23.816406 32.253906 C 23.816406 36.652344 27.355469 40.191406 31.753906 40.191406 C 36.152344 40.191406 39.691406 36.652344 39.691406 32.253906 C 39.691406 27.855469 36.152344 24.316406 31.753906 24.316406 Z M 52.921875 24.316406 C 48.523438 24.316406 44.984375 27.855469 44.984375 32.253906 C 44.984375 36.652344 48.523438 40.191406 52.921875 40.191406 C 57.320312 40.191406 60.859375 36.652344 60.859375 32.253906 C 60.859375 27.855469 57.320312 24.316406 52.921875 24.316406 Z M 10.585938 45.484375 C 6.1875 45.484375 2.644531 49.023438 2.644531 53.421875 C 2.644531 57.820312 6.1875 61.359375 10.585938 61.359375 C 14.980469 61.359375 18.523438 57.820312 18.523438 53.421875 C 18.523438 49.023438 14.980469 45.484375 10.585938 45.484375 Z M 31.753906 45.484375 C 27.355469 45.484375 23.816406 49.023438 23.816406 53.421875 C 23.816406 57.820312 27.355469 61.359375 31.753906 61.359375 C 36.152344 61.359375 39.691406 57.820312 39.691406 53.421875 C 39.691406 49.023438 36.152344 45.484375 31.753906 45.484375 Z M 52.921875 45.484375 C 48.523438 45.484375 44.984375 49.023438 44.984375 53.421875 C 44.984375 57.820312 48.523438 61.359375 52.921875 61.359375 C 57.320312 61.359375 60.859375 57.820312 60.859375 53.421875 C 60.859375 49.023438 57.320312 45.484375 52.921875 45.484375 Z M 52.921875 45.484375 "/>
</g>
</svg>
