<?xml version="1.0" encoding="UTF-8"?>
<svg xmlns="http://www.w3.org/2000/svg" xmlns:xlink="http://www.w3.org/1999/xlink" width="64pt" height="64pt" viewBox="0 0 64 64" version="1.1">
<defs>
<radialGradient id="radial0" gradientUnits="userSpaceOnUse" cx="63.5" cy="212.333359" fx="63.5" fy="212.333359" r="21.166666" gradientTransform="matrix(0.250024,0.0000000742719,0.0000000742719,-0.250024,29.106926,110.479307)">
<stop offset="0" style="stop-color:rgb(0%,0%,0%);stop-opacity:0.313725;"/>
<stop offset="0.499999" style="stop-color:rgb(0%,0%,0%);stop-opacity:0.27451;"/>
<stop offset="1" style="stop-color:rgb(0%,0%,0%);stop-opacity:0;"/>
</radialGradient>
<linearGradient id="linear0" gradientUnits="userSpaceOnUse" x1="254" y1="233.5" x2="254" y2="254.666672" gradientTransform="matrix(0.125012,0,0,0.125012,10.584349,30.846693)">
<stop offset="0" style="stop-color:rgb(0%,0%,0%);stop-opacity:0.27451;"/>
<stop offset="1" style="stop-color:rgb(0%,0%,0%);stop-opacity:0;"/>
</linearGradient>
<radialGradient id="radial1" gradientUnits="userSpaceOnUse" cx="63.5" cy="212.333359" fx="63.5" fy="212.333359" r="21.166666" gradientTransform="matrix(-0.250024,0.0000000742719,-0.0000000742719,-0.250024,34.39914,110.479307)">
<stop offset="0" style="stop-color:rgb(0%,0%,0%);stop-opacity:0.313725;"/>
<stop offset="0.499999" style="stop-color:rgb(0%,0%,0%);stop-opacity:0.27451;"/>
<stop offset="1" style="stop-color:rgb(0%,0%,0%);stop-opacity:0;"/>
</radialGradient>
<linearGradient id="linear1" gradientUnits="userSpaceOnUse" x1="960" y1="615.118103" x2="960" y2="175.118134" gradientTransform="matrix(0.0330761,0,0,0.0330761,0,0)">
<stop offset="0" style="stop-color:rgb(71.764706%,73.333333%,77.647059%);stop-opacity:1;"/>
<stop offset="1" style="stop-color:rgb(80%,81.568627%,84.313725%);stop-opacity:1;"/>
</linearGradient>
<linearGradient id="linear2" gradientUnits="userSpaceOnUse" x1="254" y1="265.25" x2="254" y2="-31.083334" gradientTransform="matrix(0.125012,0,0,0.125012,0,26.877566)">
<stop offset="0" style="stop-color:rgb(71.764706%,73.333333%,77.647059%);stop-opacity:1;"/>
<stop offset="1" style="stop-color:rgb(80%,81.568627%,84.313725%);stop-opacity:1;"/>
</linearGradient>
</defs>
<g id="surface1">
<path style=" stroke:none;fill-rule:nonzero;fill:url(#radial0);" d="M 50.277344 57.390625 L 44.984375 57.390625 L 44.984375 62.683594 L 50.277344 62.683594 Z M 50.277344 57.390625 "/>
<path style=" stroke:none;fill-rule:nonzero;fill:url(#linear0);" d="M 18.523438 60.035156 L 44.984375 60.035156 L 44.984375 62.683594 L 18.523438 62.683594 Z M 18.523438 60.035156 "/>
<path style=" stroke:none;fill-rule:nonzero;fill:url(#radial1);" d="M 13.230469 57.390625 L 18.523438 57.390625 L 18.523438 62.683594 L 13.230469 62.683594 Z M 13.230469 57.390625 "/>
<path style=" stroke:none;fill-rule:nonzero;fill:url(#linear1);" d="M 14.554688 5.792969 C 13.820312 5.792969 13.230469 6.382812 13.230469 7.113281 L 13.230469 20.34375 L 50.277344 20.34375 L 50.277344 7.113281 C 50.277344 6.382812 49.6875 5.792969 48.953125 5.792969 Z M 14.554688 5.792969 "/>
<path style=" stroke:none;fill-rule:nonzero;fill:rgb(32.549021%,33.333334%,36.470589%);fill-opacity:1;" d="M 14.554688 20.34375 L 48.953125 20.34375 L 48.953125 22.992188 L 14.554688 22.992188 Z M 14.554688 20.34375 "/>
<path style=" stroke:none;fill-rule:nonzero;fill:url(#linear2);" d="M 48.953125 60.035156 C 49.6875 60.035156 50.277344 59.445312 50.277344 58.714844 L 50.277344 22.992188 L 13.230469 22.992188 L 13.230469 58.714844 C 13.230469 59.445312 13.820312 60.035156 14.554688 60.035156 Z M 48.953125 60.035156 "/>
<path style=" stroke:none;fill-rule:nonzero;fill:rgb(20%,20%,20%);fill-opacity:1;" d="M 31.773438 53.421875 C 32.503906 53.421875 33.097656 54.015625 33.097656 54.746094 C 33.097656 55.476562 32.503906 56.066406 31.773438 56.066406 C 31.042969 56.066406 30.449219 55.476562 30.449219 54.746094 C 30.449219 54.015625 31.042969 53.421875 31.773438 53.421875 Z M 31.773438 53.421875 "/>
<path style=" stroke:none;fill-rule:nonzero;fill:rgb(20%,20%,20%);fill-opacity:1;" d="M 37.066406 53.421875 C 37.796875 53.421875 38.390625 54.015625 38.390625 54.746094 C 38.390625 55.476562 37.796875 56.066406 37.066406 56.066406 C 36.335938 56.066406 35.742188 55.476562 35.742188 54.746094 C 35.742188 54.015625 36.335938 53.421875 37.066406 53.421875 Z M 37.066406 53.421875 "/>
<path style=" stroke:none;fill-rule:nonzero;fill:rgb(20%,20%,20%);fill-opacity:1;" d="M 26.480469 53.421875 C 27.210938 53.421875 27.804688 54.015625 27.804688 54.746094 C 27.804688 55.476562 27.210938 56.066406 26.480469 56.066406 C 25.75 56.066406 25.160156 55.476562 25.160156 54.746094 C 25.160156 54.015625 25.75 53.421875 26.480469 53.421875 Z M 26.480469 53.421875 "/>
<path style=" stroke:none;fill-rule:nonzero;fill:rgb(100%,100%,100%);fill-opacity:0.196078;" d="M 37.066406 56.398438 C 36.332031 56.398438 35.742188 55.808594 35.742188 55.074219 C 35.742188 55.019531 35.746094 54.964844 35.753906 54.910156 C 35.835938 55.566406 36.390625 56.066406 37.066406 56.066406 C 37.742188 56.066406 38.296875 55.566406 38.378906 54.910156 C 38.386719 54.964844 38.390625 55.019531 38.390625 55.074219 C 38.390625 55.808594 37.800781 56.398438 37.066406 56.398438 Z M 37.066406 56.398438 "/>
<path style=" stroke:none;fill-rule:nonzero;fill:rgb(100%,100%,100%);fill-opacity:0.196078;" d="M 31.785156 56.398438 C 31.050781 56.398438 30.460938 55.808594 30.460938 55.074219 C 30.460938 55.019531 30.464844 54.964844 30.472656 54.910156 C 30.554688 55.566406 31.109375 56.066406 31.785156 56.066406 C 32.460938 56.066406 33.015625 55.566406 33.097656 54.910156 C 33.105469 54.964844 33.109375 55.019531 33.109375 55.074219 C 33.109375 55.808594 32.519531 56.398438 31.785156 56.398438 Z M 31.785156 56.398438 "/>
<path style=" stroke:none;fill-rule:nonzero;fill:rgb(100%,100%,100%);fill-opacity:0.196078;" d="M 26.480469 56.398438 C 25.75 56.398438 25.160156 55.808594 25.160156 55.074219 C 25.160156 55.019531 25.164062 54.964844 25.167969 54.910156 C 25.25 55.566406 25.804688 56.066406 26.480469 56.066406 C 27.160156 56.066406 27.714844 55.566406 27.792969 54.910156 C 27.800781 54.964844 27.804688 55.019531 27.804688 55.074219 C 27.804688 55.808594 27.214844 56.398438 26.480469 56.398438 Z M 26.480469 56.398438 "/>
<path style=" stroke:none;fill-rule:nonzero;fill:rgb(0%,0%,0%);fill-opacity:0.196078;" d="M 26.480469 53.421875 C 27.214844 53.421875 27.804688 54.011719 27.804688 54.746094 C 27.804688 54.800781 27.800781 54.855469 27.792969 54.910156 C 27.714844 54.257812 27.160156 53.753906 26.480469 53.753906 C 25.804688 53.753906 25.25 54.257812 25.167969 54.910156 C 25.164062 54.855469 25.160156 54.800781 25.160156 54.746094 C 25.160156 54.011719 25.75 53.421875 26.480469 53.421875 Z M 26.480469 53.421875 "/>
<path style=" stroke:none;fill-rule:nonzero;fill:rgb(0%,0%,0%);fill-opacity:0.196078;" d="M 31.761719 53.421875 C 32.496094 53.421875 33.085938 54.011719 33.085938 54.746094 C 33.085938 54.800781 33.082031 54.855469 33.074219 54.910156 C 32.996094 54.257812 32.441406 53.753906 31.761719 53.753906 C 31.085938 53.753906 30.53125 54.257812 30.449219 54.910156 C 30.445312 54.855469 30.441406 54.800781 30.441406 54.746094 C 30.441406 54.011719 31.03125 53.421875 31.761719 53.421875 Z M 31.761719 53.421875 "/>
<path style=" stroke:none;fill-rule:nonzero;fill:rgb(0%,0%,0%);fill-opacity:0.196078;" d="M 37.066406 53.421875 C 37.800781 53.421875 38.390625 54.011719 38.390625 54.746094 C 38.390625 54.800781 38.386719 54.855469 38.378906 54.910156 C 38.296875 54.257812 37.742188 53.753906 37.066406 53.753906 C 36.390625 53.753906 35.835938 54.257812 35.753906 54.910156 C 35.746094 54.855469 35.742188 54.800781 35.742188 54.746094 C 35.742188 54.011719 36.332031 53.421875 37.066406 53.421875 Z M 37.066406 53.421875 "/>
<path style=" stroke:none;fill-rule:nonzero;fill:rgb(0%,0%,0%);fill-opacity:0.196078;" d="M 14.554688 60.035156 C 13.820312 60.035156 13.230469 59.445312 13.230469 58.714844 L 13.230469 58.050781 C 13.230469 58.785156 13.820312 59.375 14.554688 59.375 L 48.953125 59.375 C 49.6875 59.375 50.277344 58.785156 50.277344 58.050781 L 50.277344 58.714844 C 50.277344 59.445312 49.6875 60.035156 48.953125 60.035156 Z M 14.554688 60.035156 "/>
<path style=" stroke:none;fill-rule:nonzero;fill:rgb(100%,100%,100%);fill-opacity:0.196078;" d="M 14.554688 5.792969 C 13.820312 5.792969 13.230469 6.382812 13.230469 7.113281 L 13.230469 7.777344 C 13.230469 7.042969 13.820312 6.453125 14.554688 6.453125 L 48.953125 6.453125 C 49.6875 6.453125 50.277344 7.042969 50.277344 7.777344 L 50.277344 7.117188 C 50.277344 6.382812 49.6875 5.792969 48.953125 5.792969 Z M 14.554688 5.792969 "/>
<path style=" stroke:none;fill-rule:nonzero;fill:rgb(0%,0%,0%);fill-opacity:0.196078;" d="M 13.230469 19.683594 L 50.277344 19.683594 L 50.277344 20.34375 L 13.230469 20.34375 Z M 13.230469 19.683594 "/>
<path style=" stroke:none;fill-rule:nonzero;fill:rgb(100%,100%,100%);fill-opacity:0.196078;" d="M 13.230469 22.992188 L 50.277344 22.992188 L 50.277344 23.652344 L 13.230469 23.652344 Z M 13.230469 22.992188 "/>
<path style=" stroke:none;fill-rule:nonzero;fill:rgb(32.549021%,33.333334%,36.470589%);fill-opacity:1;" d="M 25.136719 28.285156 L 38.367188 28.285156 L 38.367188 30.929688 L 25.136719 30.929688 Z M 25.136719 28.285156 "/>
<path style=" stroke:none;fill-rule:nonzero;fill:rgb(32.549021%,33.333334%,36.470589%);fill-opacity:1;" d="M 26.460938 33.574219 L 37.046875 33.574219 L 37.046875 36.222656 L 26.460938 36.222656 Z M 26.460938 33.574219 "/>
<path style=" stroke:none;fill-rule:nonzero;fill:rgb(32.549021%,33.333334%,36.470589%);fill-opacity:1;" d="M 27.785156 38.867188 L 35.722656 38.867188 L 35.722656 41.515625 L 27.785156 41.515625 Z M 27.785156 38.867188 "/>
<path style=" stroke:none;fill-rule:nonzero;fill:rgb(32.549021%,33.333334%,36.470589%);fill-opacity:1;" d="M 29.105469 44.160156 L 34.398438 44.160156 L 34.398438 46.804688 L 29.105469 46.804688 Z M 29.105469 44.160156 "/>
</g>
</svg>
