<?xml version="1.0" encoding="UTF-8" standalone="no"?>
<!-- Created with Inkscape (http://www.inkscape.org/) -->

<svg
   xmlns:dc="http://purl.org/dc/elements/1.1/"
   xmlns:cc="http://creativecommons.org/ns#"
   xmlns:rdf="http://www.w3.org/1999/02/22-rdf-syntax-ns#"
   xmlns:svg="http://www.w3.org/2000/svg"
   xmlns="http://www.w3.org/2000/svg"
   xmlns:xlink="http://www.w3.org/1999/xlink"
   xmlns:sodipodi="http://sodipodi.sourceforge.net/DTD/sodipodi-0.dtd"
   xmlns:inkscape="http://www.inkscape.org/namespaces/inkscape"
   width="512mm"
   height="512mm"
   viewBox="0 0 512 512"
   version="1.1"
   id="svg3705"
   inkscape:version="0.92.2 5c3e80d, 2017-08-06"
   sodipodi:docname="folder-gnome.svg">
  <defs
     id="defs3699">
    <linearGradient
       inkscape:collect="always"
       id="linearGradient905">
      <stop
         style="stop-color:#53555d;stop-opacity:1"
         offset="0"
         id="stop901" />
      <stop
         style="stop-color:#5d6068;stop-opacity:1"
         offset="1"
         id="stop903" />
    </linearGradient>
    <linearGradient
       inkscape:collect="always"
       id="linearGradient878">
      <stop
         style="stop-color:#b7bbc6;stop-opacity:1"
         offset="0"
         id="stop874" />
      <stop
         style="stop-color:#ccd0d7;stop-opacity:1"
         offset="1"
         id="stop876" />
    </linearGradient>
    <linearGradient
       inkscape:collect="always"
       id="linearGradient930">
      <stop
         style="stop-color:#000000;stop-opacity:0.3137255"
         offset="0"
         id="stop924" />
      <stop
         id="stop926"
         offset="0.49999934"
         style="stop-color:#000000;stop-opacity:0.27450982" />
      <stop
         style="stop-color:#000000;stop-opacity:0;"
         offset="1"
         id="stop928" />
    </linearGradient>
    <linearGradient
       id="linearGradient922"
       inkscape:collect="always">
      <stop
         id="stop918"
         offset="0"
         style="stop-color:#000000;stop-opacity:0.19607843" />
      <stop
         id="stop920"
         offset="1"
         style="stop-color:#000000;stop-opacity:0;" />
    </linearGradient>
    <linearGradient
       id="linearGradient4594"
       inkscape:collect="always">
      <stop
         id="stop4590"
         offset="0"
         style="stop-color:#000000;stop-opacity:0.3137255" />
      <stop
         style="stop-color:#000000;stop-opacity:0.27450982"
         offset="0.49999934"
         id="stop4596" />
      <stop
         id="stop4592"
         offset="1"
         style="stop-color:#000000;stop-opacity:0;" />
    </linearGradient>
    <linearGradient
       inkscape:collect="always"
       id="linearGradient3756-3">
      <stop
         style="stop-color:#000000;stop-opacity:0.27450982"
         offset="0"
         id="stop3752" />
      <stop
         style="stop-color:#000000;stop-opacity:0;"
         offset="1"
         id="stop3754" />
    </linearGradient>
    <linearGradient
       inkscape:collect="always"
       xlink:href="#linearGradient3756-3"
       id="linearGradient3758"
       x1="254"
       y1="233.5"
       x2="254"
       y2="254.66667"
       gradientUnits="userSpaceOnUse" />
    <radialGradient
       inkscape:collect="always"
       xlink:href="#linearGradient930"
       id="radialGradient4575"
       cx="456.20062"
       cy="186.93353"
       fx="456.20062"
       fy="186.93353"
       r="21.166656"
       gradientTransform="matrix(1.4161482e-6,2.0000008,-2.0000005,1.3774854e-6,818.36653,-700.06849)"
       gradientUnits="userSpaceOnUse" />
    <radialGradient
       inkscape:collect="always"
       xlink:href="#linearGradient4594"
       id="radialGradient839"
       cx="63.5"
       cy="212.33336"
       fx="63.5"
       fy="212.33336"
       r="21.166666"
       gradientTransform="matrix(-2.0000001,5.9411872e-7,-5.9411884e-7,-2.0000005,190.50013,637.00011)"
       gradientUnits="userSpaceOnUse" />
    <linearGradient
       inkscape:collect="always"
       xlink:href="#linearGradient922"
       id="linearGradient916"
       x1="359.83331"
       y1="-94.583336"
       x2="359.83334"
       y2="-115.75"
       gradientUnits="userSpaceOnUse"
       gradientTransform="translate(-1.3778483e-5,-10.583287)" />
    <linearGradient
       inkscape:collect="always"
       xlink:href="#linearGradient878"
       id="linearGradient880"
       x1="254"
       y1="233.5"
       x2="254"
       y2="-105.16666"
       gradientUnits="userSpaceOnUse" />
    <linearGradient
       inkscape:collect="always"
       xlink:href="#linearGradient905"
       id="linearGradient907"
       x1="365.125"
       y1="-105.16667"
       x2="365.125"
       y2="-136.91667"
       gradientUnits="userSpaceOnUse" />
  </defs>
  <sodipodi:namedview
     id="base"
     pagecolor="#ffffff"
     bordercolor="#666666"
     borderopacity="1.0"
     inkscape:pageopacity="0.0"
     inkscape:pageshadow="2"
     inkscape:zoom="0.21264852"
     inkscape:cx="60.99035"
     inkscape:cy="1237.2539"
     inkscape:document-units="mm"
     inkscape:current-layer="layer1"
     showgrid="true"
     showguides="true"
     inkscape:guide-bbox="true"
     inkscape:window-width="1920"
     inkscape:window-height="1027"
     inkscape:window-x="0"
     inkscape:window-y="25"
     inkscape:window-maximized="1">
    <inkscape:grid
       type="xygrid"
       id="grid3707" />
    <sodipodi:guide
       position="465.66665,486.83332"
       orientation="0,1"
       id="guide3711"
       inkscape:locked="false" />
    <sodipodi:guide
       position="486.83332,317.49999"
       orientation="-1,-1.3113658e-08"
       id="guide3713"
       inkscape:locked="false" />
    <sodipodi:guide
       position="190.49999,21.166666"
       orientation="0,1"
       id="guide3715"
       inkscape:locked="false" />
    <sodipodi:guide
       position="253.99999,222.24999"
       orientation="1,0"
       id="guide3717"
       inkscape:locked="false" />
    <sodipodi:guide
       position="343.95832,248.70833"
       orientation="0,1"
       id="guide3719"
       inkscape:locked="false" />
    <sodipodi:guide
       position="359.83332,63.499998"
       orientation="0,1"
       id="guide3742"
       inkscape:locked="false" />
    <sodipodi:guide
       position="296.33333,402.16666"
       orientation="0,1"
       id="guide3744"
       inkscape:locked="false" />
    <sodipodi:guide
       position="529.16665,465.66665"
       orientation="0,1"
       id="guide3748"
       inkscape:locked="false" />
    <sodipodi:guide
       position="312.20832,322.79166"
       orientation="0,1"
       id="guide888"
       inkscape:locked="false" />
    <sodipodi:guide
       position="317.49999,174.625"
       orientation="0,1"
       id="guide890"
       inkscape:locked="false" />
    <sodipodi:guide
       position="179.91666,328.08332"
       orientation="1,0"
       id="guide976"
       inkscape:locked="false" />
    <sodipodi:guide
       position="328.08332,264.58333"
       orientation="1,0"
       id="guide978"
       inkscape:locked="false" />
    <sodipodi:guide
       position="169.33333,227.54166"
       orientation="1,0"
       id="guide941"
       inkscape:locked="false" />
    <sodipodi:guide
       position="338.66666,232.83333"
       orientation="1,0"
       id="guide943"
       inkscape:locked="false" />
  </sodipodi:namedview>
  <metadata
     id="metadata3702">
    <rdf:RDF>
      <cc:Work
         rdf:about="">
        <dc:format>image/svg+xml</dc:format>
        <dc:type
           rdf:resource="http://purl.org/dc/dcmitype/StillImage" />
        <dc:title></dc:title>
      </cc:Work>
    </rdf:RDF>
  </metadata>
  <g
     inkscape:label="Layer 1"
     inkscape:groupmode="layer"
     id="layer1"
     transform="translate(0,215)">
    <rect
       id="rect3750"
       width="381"
       height="21.166666"
       x="63.5"
       y="233.50002"
       ry="0"
       style="fill:url(#linearGradient3758);fill-opacity:1;stroke-width:0.26458332" />
    <rect
       style="fill:url(#radialGradient4575);fill-opacity:1;stroke-width:0.26458332"
       id="rect4567"
       width="42.333332"
       height="42.333336"
       x="444.5"
       y="212.33334" />
    <rect
       style="fill:url(#radialGradient839);fill-opacity:1;stroke-width:0.26458332"
       id="rect4565"
       width="42.333332"
       height="42.333336"
       x="21.166666"
       y="212.33334" />
    <rect
       id="rect908"
       width="232.83334"
       height="21.166666"
       x="232.83333"
       y="-126.33334"
       rx="0"
       ry="0"
       style="fill:url(#linearGradient916);fill-opacity:1;stroke-width:0.26458332" />
    <rect
       id="rect3740"
       width="465.66666"
       height="338.66675"
       x="21.166666"
       y="-105.16665"
       style="fill:url(#linearGradient880);stroke-width:2;fill-opacity:1;stroke:#4d4d4d;stroke-miterlimit:4;stroke-dasharray:none"
       ry="10.583316"
       rx="10.583313" />
    <path
       style="fill:#ffffff;stroke-width:0.99999994;fill-opacity:0.19607843"
       d="M 120 415.11914 C 97.840043 415.11914 80 432.95722 80 455.11719 L 80 475.11719 C 80 452.95722 97.840043 435.11719 120 435.11719 L 1800 435.11719 C 1822.16 435.11719 1840 452.95722 1840 475.11719 L 1840 455.11719 C 1840 432.95722 1822.16 415.11914 1800 415.11914 L 120 415.11914 z "
       transform="matrix(0.26458333,0,0,0.26458333,0,-215)"
       id="rect849" />
    <path
       id="path854"
       d="m 31.75,233.5 c -5.863156,0 -10.583334,-4.71966 -10.583334,-10.58282 v -5.29167 c 0,5.86317 4.720178,10.58334 10.583334,10.58334 h 444.49999 c 5.86317,0 10.58334,-4.72017 10.58334,-10.58334 v 5.29167 c 0,5.86316 -4.72017,10.58282 -10.58334,10.58282 z"
       style="fill:#000000;fill-opacity:0.19607843;stroke-width:0.26458332"
       inkscape:connector-curvature="0" />
    <path
       style="fill:#ffffff;stroke-width:0.99999994;fill-opacity:0.27450982"
       d="M 920 295.11719 C 897.83996 295.11719 880 312.95718 880 335.11719 L 880 355.11719 C 880 332.95718 897.83996 315.11719 920 315.11719 L 1720 315.11719 C 1742.16 315.11719 1760 332.95718 1760 355.11719 L 1760 335.11719 C 1760 312.95718 1742.16 295.11719 1720 295.11719 L 920 295.11719 z "
       transform="matrix(0.26458333,0,0,0.26458333,0,-215)"
       id="rect856" />
    <path
       inkscape:connector-curvature="0"
       style="fill:url(#linearGradient907);fill-opacity:1;stroke:#bec8b7;stroke-width:0.26458332"
       d="m 243.41667,-136.91667 c -5.86317,0 -10.58333,4.72016 -10.58333,10.58333 v 21.16667 h 232.83333 v -21.16667 c 0,-5.86317 -4.72017,-10.58333 -10.58333,-10.58333 z"
       id="rect3746" />
    <rect
       style="fill:#333333;fill-opacity:1;stroke:none;stroke-width:0.52916628"
       id="rect882"
       width="21.166641"
       height="21.166666"
       x="243.41667"
       y="180.58333"
       rx="10.583321"
       ry="10.583333" />
    <rect
       ry="10.583333"
       rx="10.583321"
       y="180.58333"
       x="285.75003"
       height="21.166666"
       width="21.166641"
       id="rect877"
       style="fill:#333333;fill-opacity:1;stroke:none;stroke-width:0.52916628" />
    <rect
       style="fill:#333333;fill-opacity:1;stroke:none;stroke-width:0.52916628"
       id="rect879"
       width="21.166641"
       height="21.166666"
       x="201.08334"
       y="180.58333"
       rx="10.583321"
       ry="10.583333" />
    <path
       style="fill:#93ac9d;fill-opacity:1;stroke:none;stroke-width:0.52916628"
       d="m 296.33333,204.39583 c -5.86317,0 -10.58333,-4.72017 -10.58333,-10.58334 0,-0.44849 0.0306,-0.88937 0.0842,-1.32291 0.6477,5.23369 5.08452,9.26041 10.49909,9.26041 5.41457,0 9.85139,-4.02672 10.49909,-9.26041 0.0537,0.43354 0.0842,0.87442 0.0842,1.32291 0,5.86317 -4.72016,10.58334 -10.58333,10.58334 z"
       id="rect869"
       inkscape:connector-curvature="0" />
    <path
       inkscape:connector-curvature="0"
       id="path875"
       d="m 296.33333,204.39583 c -5.86317,0 -10.58333,-4.72017 -10.58333,-10.58334 0,-0.44849 0.0306,-0.88937 0.0842,-1.32291 0.6477,5.23369 5.08452,9.26041 10.49909,9.26041 5.41457,0 9.85139,-4.02672 10.49909,-9.26041 0.0537,0.43354 0.0842,0.87442 0.0842,1.32291 0,5.86317 -4.72016,10.58334 -10.58333,10.58334 z"
       style="fill:#ffffff;fill-opacity:0.19607843;stroke:none;stroke-width:0.52916628" />
    <path
       style="fill:#ffffff;fill-opacity:0.19607843;stroke:none;stroke-width:0.52916628"
       d="m 254.08428,204.39583 c -5.86317,0 -10.58333,-4.72017 -10.58333,-10.58334 0,-0.44849 0.0306,-0.88937 0.0842,-1.32291 0.6477,5.23369 5.08452,9.26041 10.49909,9.26041 5.41457,0 9.85139,-4.02672 10.49909,-9.26041 0.0537,0.43354 0.0842,0.87442 0.0842,1.32291 0,5.86317 -4.72016,10.58334 -10.58333,10.58334 z"
       id="path877"
       inkscape:connector-curvature="0" />
    <path
       inkscape:connector-curvature="0"
       id="path879"
       d="m 211.66667,204.39583 c -5.86317,0 -10.58333,-4.72017 -10.58333,-10.58334 0,-0.44849 0.0306,-0.88937 0.0842,-1.32291 0.6477,5.23369 5.08452,9.26041 10.49909,9.26041 5.41457,0 9.85139,-4.02672 10.49909,-9.26041 0.0537,0.43354 0.0842,0.87442 0.0842,1.32291 0,5.86317 -4.72016,10.58334 -10.58333,10.58334 z"
       style="fill:#ffffff;fill-opacity:0.19607843;stroke:none;stroke-width:0.52916628" />
    <path
       style="fill:#000000;fill-opacity:0.19607843;stroke:none;stroke-width:0.52916628"
       d="m 211.66659,180.58333 c 5.86317,0 10.58333,4.72017 10.58333,10.58334 0,0.44849 -0.0306,0.88937 -0.0842,1.32291 -0.6477,-5.23369 -5.08452,-9.26041 -10.49909,-9.26041 -5.41457,0 -9.85139,4.02672 -10.49909,9.26041 -0.0537,-0.43354 -0.0842,-0.87442 -0.0842,-1.32291 0,-5.86317 4.72016,-10.58334 10.58333,-10.58334 z"
       id="path881"
       inkscape:connector-curvature="0" />
    <path
       inkscape:connector-curvature="0"
       id="path883"
       d="m 253.91564,180.58333 c 5.86317,0 10.58333,4.72017 10.58333,10.58334 0,0.44849 -0.0306,0.88937 -0.0842,1.32291 -0.6477,-5.23369 -5.08452,-9.26041 -10.49909,-9.26041 -5.41457,0 -9.85139,4.02672 -10.49909,9.26041 -0.0537,-0.43354 -0.0842,-0.87442 -0.0842,-1.32291 0,-5.86317 4.72016,-10.58334 10.58333,-10.58334 z"
       style="fill:#000000;fill-opacity:0.19607843;stroke:none;stroke-width:0.52916628" />
    <path
       style="fill:#000000;fill-opacity:0.19607843;stroke:none;stroke-width:0.52916628"
       d="m 296.33325,180.58333 c 5.86317,0 10.58333,4.72017 10.58333,10.58334 0,0.44849 -0.0306,0.88937 -0.0842,1.32291 -0.6477,-5.23369 -5.08452,-9.26041 -10.49909,-9.26041 -5.41457,0 -9.85139,4.02672 -10.49909,9.26041 -0.0537,-0.43354 -0.0842,-0.87442 -0.0842,-1.32291 0,-5.86317 4.72016,-10.58334 10.58333,-10.58334 z"
       id="path885"
       inkscape:connector-curvature="0" />
    <path
       id="path887"
       d="m 243.41667,-136.91667 c -5.86316,0 -10.58334,4.71965 -10.58334,10.58281 v 5.29167 c 0,-5.86316 4.72018,-10.58333 10.58334,-10.58333 l 211.66667,0 c 5.86317,0 10.58333,4.72017 10.58333,10.58333 v -5.29167 c 0,-5.86316 -4.72016,-10.58281 -10.58333,-10.58281 z"
       style="fill:#ffffff;fill-opacity:0.19607843;stroke-width:0.26458332"
       inkscape:connector-curvature="0"
       sodipodi:nodetypes="sscsscsss" />
    <path
       inkscape:connector-curvature="0"
       style="fill:#53555d;stroke-width:5.64264441;fill-opacity:1"
       d="m 298.97917,-25.791667 c -28.65327,0 -34.02522,43.544291 -17.90405,43.544291 16.11539,0 46.56307,-43.544291 17.90405,-43.544291 z m -44.13676,6.69781 c -0.4521,0 -0.93196,0.04262 -1.44381,0.08525 -16.24527,2.047353 -10.52932,29.533621 -1.88525,30.046959 8.35659,0.496892 17.52037,-30.092172 3.31221,-30.142927 z m -28.15122,10.1454534 c -0.99383,-0.063933 -2.09427,0.127981 -3.31778,0.6269944 -13.05141,5.3604214 -1.98124,27.4854182 5.32672,26.0013072 6.63,-1.347834 7.58373,-26.0068499 -2.00894,-26.6276613 z M 205.39024,9.1420353 c -1.13457,-0.042622 -2.36427,0.3604149 -3.67329,1.3307757 -10.44466,7.798045 3.52103,26.638975 9.66585,23.715957 5.37746,-2.556191 1.9471,-24.7598935 -5.99811,-25.0475833 z M 267.09259,27.125 c -22.63258,-0.388148 -52.4991,11.093413 -57.59442,34.183227 -5.51293,24.96314 22.70592,59.608943 52.13804,59.608943 14.48453,0 31.19259,-13.23781 34.31844,-30.001956 2.38686,-12.780563 -28.08897,-7.657067 -27.00006,0.795481 1.31372,10.139915 -7.34655,15.150585 -15.82747,8.616335 C 226.11579,79.522585 297.84503,69.140187 293.11074,40.712553 291.63707,31.86481 280.65756,27.362145 267.0813,27.125 Z"
       id="path14" />
  </g>
</svg>
