<?xml version="1.0" encoding="UTF-8" standalone="no"?>
<!-- Created with Inkscape (http://www.inkscape.org/) -->

<svg
   xmlns:dc="http://purl.org/dc/elements/1.1/"
   xmlns:cc="http://creativecommons.org/ns#"
   xmlns:rdf="http://www.w3.org/1999/02/22-rdf-syntax-ns#"
   xmlns:svg="http://www.w3.org/2000/svg"
   xmlns="http://www.w3.org/2000/svg"
   xmlns:xlink="http://www.w3.org/1999/xlink"
   xmlns:sodipodi="http://sodipodi.sourceforge.net/DTD/sodipodi-0.dtd"
   xmlns:inkscape="http://www.inkscape.org/namespaces/inkscape"
   width="512mm"
   height="512mm"
   viewBox="0 0 512 512"
   version="1.1"
   id="svg3705"
   inkscape:version="0.92.2 5c3e80d, 2017-08-06"
   sodipodi:docname="network-server.svg">
  <defs
     id="defs3699">
    <linearGradient
       inkscape:collect="always"
       id="linearGradient905">
      <stop
         style="stop-color:#53555d;stop-opacity:1"
         offset="0"
         id="stop901" />
      <stop
         style="stop-color:#5d6068;stop-opacity:1"
         offset="1"
         id="stop903" />
    </linearGradient>
    <linearGradient
       inkscape:collect="always"
       id="linearGradient878">
      <stop
         style="stop-color:#b7bbc6;stop-opacity:1"
         offset="0"
         id="stop874" />
      <stop
         style="stop-color:#ccd0d7;stop-opacity:1"
         offset="1"
         id="stop876" />
    </linearGradient>
    <linearGradient
       inkscape:collect="always"
       id="linearGradient930">
      <stop
         style="stop-color:#000000;stop-opacity:0.3137255"
         offset="0"
         id="stop924" />
      <stop
         id="stop926"
         offset="0.49999934"
         style="stop-color:#000000;stop-opacity:0.27450982" />
      <stop
         style="stop-color:#000000;stop-opacity:0;"
         offset="1"
         id="stop928" />
    </linearGradient>
    <linearGradient
       id="linearGradient4594"
       inkscape:collect="always">
      <stop
         id="stop4590"
         offset="0"
         style="stop-color:#000000;stop-opacity:0.3137255" />
      <stop
         style="stop-color:#000000;stop-opacity:0.27450982"
         offset="0.49999934"
         id="stop4596" />
      <stop
         id="stop4592"
         offset="1"
         style="stop-color:#000000;stop-opacity:0;" />
    </linearGradient>
    <linearGradient
       inkscape:collect="always"
       id="linearGradient3756-3">
      <stop
         style="stop-color:#000000;stop-opacity:0.27450982"
         offset="0"
         id="stop3752" />
      <stop
         style="stop-color:#000000;stop-opacity:0;"
         offset="1"
         id="stop3754" />
    </linearGradient>
    <linearGradient
       inkscape:collect="always"
       xlink:href="#linearGradient3756-3"
       id="linearGradient3758"
       x1="254"
       y1="233.5"
       x2="254"
       y2="254.66667"
       gradientUnits="userSpaceOnUse" />
    <radialGradient
       inkscape:collect="always"
       xlink:href="#linearGradient930"
       id="radialGradient4575"
       cx="456.20062"
       cy="186.93353"
       fx="456.20062"
       fy="186.93353"
       r="21.166656"
       gradientTransform="matrix(1.4161482e-6,2.0000008,-2.0000005,1.3774854e-6,818.36653,-700.06849)"
       gradientUnits="userSpaceOnUse" />
    <radialGradient
       inkscape:collect="always"
       xlink:href="#linearGradient4594"
       id="radialGradient839"
       cx="63.5"
       cy="212.33336"
       fx="63.5"
       fy="212.33336"
       r="21.166666"
       gradientTransform="matrix(-2.0000001,5.9411872e-7,-5.9411884e-7,-2.0000005,190.50013,637.00011)"
       gradientUnits="userSpaceOnUse" />
    <linearGradient
       inkscape:collect="always"
       xlink:href="#linearGradient878"
       id="linearGradient880"
       x1="254"
       y1="233.5"
       x2="254"
       y2="-105.16666"
       gradientUnits="userSpaceOnUse"
       gradientTransform="translate(1.9442951e-5,-1.780192e-5)" />
    <linearGradient
       inkscape:collect="always"
       xlink:href="#linearGradient905"
       id="linearGradient907"
       x1="365.125"
       y1="-105.16667"
       x2="365.125"
       y2="-136.91667"
       gradientUnits="userSpaceOnUse"
       gradientTransform="matrix(1.8181818,0,0,1,-381,79.375004)" />
    <linearGradient
       inkscape:collect="always"
       xlink:href="#linearGradient3756-3"
       id="linearGradient911"
       gradientUnits="userSpaceOnUse"
       x1="254"
       y1="233.5"
       x2="254"
       y2="254.66667" />
    <radialGradient
       inkscape:collect="always"
       xlink:href="#linearGradient930"
       id="radialGradient913"
       gradientUnits="userSpaceOnUse"
       gradientTransform="matrix(1.4161482e-6,2.0000008,-2.0000005,1.3774854e-6,818.36653,-700.06849)"
       cx="456.20062"
       cy="186.93353"
       fx="456.20062"
       fy="186.93353"
       r="21.166656" />
    <radialGradient
       inkscape:collect="always"
       xlink:href="#linearGradient4594"
       id="radialGradient915"
       gradientUnits="userSpaceOnUse"
       gradientTransform="matrix(-2.0000001,5.9411872e-7,-5.9411884e-7,-2.0000005,190.50013,637.00011)"
       cx="63.5"
       cy="212.33336"
       fx="63.5"
       fy="212.33336"
       r="21.166666" />
    <linearGradient
       inkscape:collect="always"
       xlink:href="#linearGradient878"
       id="linearGradient917"
       gradientUnits="userSpaceOnUse"
       gradientTransform="translate(1.9442951e-5,-1.780192e-5)"
       x1="254"
       y1="233.5"
       x2="254"
       y2="-105.16666" />
    <linearGradient
       inkscape:collect="always"
       xlink:href="#linearGradient3756-3"
       id="linearGradient933"
       gradientUnits="userSpaceOnUse"
       x1="254"
       y1="233.5"
       x2="254"
       y2="254.66667" />
    <radialGradient
       inkscape:collect="always"
       xlink:href="#linearGradient930"
       id="radialGradient935"
       gradientUnits="userSpaceOnUse"
       gradientTransform="matrix(1.4161482e-6,2.0000008,-2.0000005,1.3774854e-6,818.36653,-700.06849)"
       cx="456.20062"
       cy="186.93353"
       fx="456.20062"
       fy="186.93353"
       r="21.166656" />
    <radialGradient
       inkscape:collect="always"
       xlink:href="#linearGradient4594"
       id="radialGradient937"
       gradientUnits="userSpaceOnUse"
       gradientTransform="matrix(-2.0000001,5.9411872e-7,-5.9411884e-7,-2.0000005,190.50013,637.00011)"
       cx="63.5"
       cy="212.33336"
       fx="63.5"
       fy="212.33336"
       r="21.166666" />
    <linearGradient
       inkscape:collect="always"
       xlink:href="#linearGradient878"
       id="linearGradient939"
       gradientUnits="userSpaceOnUse"
       gradientTransform="translate(1.9442951e-5,-1.780192e-5)"
       x1="254"
       y1="233.5"
       x2="254"
       y2="-105.16666" />
    <linearGradient
       inkscape:collect="always"
       xlink:href="#linearGradient905"
       id="linearGradient987"
       gradientUnits="userSpaceOnUse"
       gradientTransform="matrix(1.8181818,0,0,1,-381,227.47741)"
       x1="365.125"
       y1="-105.16667"
       x2="365.125"
       y2="-136.91667" />
  </defs>
  <sodipodi:namedview
     id="base"
     pagecolor="#ffffff"
     bordercolor="#666666"
     borderopacity="1.0"
     inkscape:pageopacity="0.0"
     inkscape:pageshadow="2"
     inkscape:zoom="0.10632426"
     inkscape:cx="-1572.8391"
     inkscape:cy="910.92365"
     inkscape:document-units="mm"
     inkscape:current-layer="layer1"
     showgrid="true"
     showguides="true"
     inkscape:guide-bbox="true"
     inkscape:window-width="1920"
     inkscape:window-height="1024"
     inkscape:window-x="0"
     inkscape:window-y="28"
     inkscape:window-maximized="1">
    <inkscape:grid
       type="xygrid"
       id="grid3707" />
    <sodipodi:guide
       position="465.66665,486.83332"
       orientation="0,1"
       id="guide3711"
       inkscape:locked="false" />
    <sodipodi:guide
       position="486.83332,317.49999"
       orientation="-1,-1.3113658e-08"
       id="guide3713"
       inkscape:locked="false" />
    <sodipodi:guide
       position="190.49999,21.166666"
       orientation="0,1"
       id="guide3715"
       inkscape:locked="false" />
    <sodipodi:guide
       position="253.99999,222.24999"
       orientation="1,0"
       id="guide3717"
       inkscape:locked="false" />
    <sodipodi:guide
       position="343.95832,248.70833"
       orientation="0,1"
       id="guide3719"
       inkscape:locked="false" />
    <sodipodi:guide
       position="359.83332,63.499998"
       orientation="0,1"
       id="guide3742"
       inkscape:locked="false" />
    <sodipodi:guide
       position="296.33333,402.16666"
       orientation="0,1"
       id="guide3744"
       inkscape:locked="false" />
    <sodipodi:guide
       position="529.16665,465.66665"
       orientation="0,1"
       id="guide3748"
       inkscape:locked="false" />
    <sodipodi:guide
       position="312.20832,322.79166"
       orientation="0,1"
       id="guide888"
       inkscape:locked="false" />
    <sodipodi:guide
       position="317.49999,174.625"
       orientation="0,1"
       id="guide890"
       inkscape:locked="false" />
    <sodipodi:guide
       position="179.91666,328.08332"
       orientation="1,0"
       id="guide976"
       inkscape:locked="false" />
    <sodipodi:guide
       position="328.08332,264.58333"
       orientation="1,0"
       id="guide978"
       inkscape:locked="false" />
    <sodipodi:guide
       position="169.33333,227.54166"
       orientation="1,0"
       id="guide941"
       inkscape:locked="false" />
    <sodipodi:guide
       position="338.66666,232.83333"
       orientation="1,0"
       id="guide943"
       inkscape:locked="false" />
  </sodipodi:namedview>
  <metadata
     id="metadata3702">
    <rdf:RDF>
      <cc:Work
         rdf:about="">
        <dc:format>image/svg+xml</dc:format>
        <dc:type
           rdf:resource="http://purl.org/dc/dcmitype/StillImage" />
        <dc:title></dc:title>
      </cc:Work>
    </rdf:RDF>
  </metadata>
  <g
     inkscape:label="Layer 1"
     inkscape:groupmode="layer"
     id="layer1"
     transform="translate(0,215)">
    <path
       sodipodi:nodetypes="ssccsss"
       id="path985"
       d="m 61.575755,64.166667 c -10.660309,0 -19.242418,4.72016 -19.242418,10.58333 V 122.31074 H 465.66667 V 74.749997 c 0,-5.86317 -8.58215,-10.58333 -19.24244,-10.58333 z"
       style="fill:url(#linearGradient987);fill-opacity:1;stroke:#bec8b7;stroke-width:0.35676408"
       inkscape:connector-curvature="0" />
    <g
       id="g895">
      <rect
         style="fill:url(#linearGradient3758);fill-opacity:1;stroke-width:0.26458332"
         ry="0"
         y="233.50002"
         x="63.5"
         height="21.166666"
         width="381"
         id="rect3750" />
      <rect
         y="212.33334"
         x="444.5"
         height="42.333336"
         width="42.333332"
         id="rect4567"
         style="fill:url(#radialGradient4575);fill-opacity:1;stroke-width:0.26458332" />
      <rect
         y="212.33334"
         x="21.166666"
         height="42.333336"
         width="42.333332"
         id="rect4565"
         style="fill:url(#radialGradient839);fill-opacity:1;stroke-width:0.26458332" />
      <rect
         rx="10.583313"
         ry="10.583316"
         style="fill:url(#linearGradient880);fill-opacity:1;stroke:#4d4d4d;stroke-width:2;stroke-miterlimit:4;stroke-dasharray:none"
         y="122.37499"
         x="21.166685"
         height="111.12492"
         width="465.66666"
         id="rect3740" />
      <path
         inkscape:connector-curvature="0"
         id="rect849"
         d="m 31.750006,122.37552 c -5.863155,0 -10.583333,4.71965 -10.583333,10.58281 V 138.25 c 0,-5.86316 4.720178,-10.58333 10.583333,-10.58333 H 476.25 c 5.86317,0 10.58333,4.72017 10.58333,10.58333 v -5.29167 c 0,-5.86316 -4.72016,-10.58281 -10.58333,-10.58281 z"
         style="fill:#ffffff;fill-opacity:0.19607843;stroke-width:0.26458332" />
      <path
         inkscape:connector-curvature="0"
         style="fill:#000000;fill-opacity:0.19607843;stroke-width:0.26458332"
         d="m 31.75,233.5 c -5.863156,0 -10.583334,-4.71966 -10.583334,-10.58282 v -5.29167 c 0,5.86317 4.720178,10.58334 10.583334,10.58334 h 444.49999 c 5.86317,0 10.58334,-4.72017 10.58334,-10.58334 v 5.29167 c 0,5.86316 -4.72017,10.58282 -10.58334,10.58282 z"
         id="path854" />
    </g>
    <path
       style="fill:#ffffff;stroke-width:0.99999994;fill-opacity:0.27450982"
       d="M 920 295.11719 C 897.83996 295.11719 880 312.95718 880 335.11719 L 880 355.11719 C 880 332.95718 897.83996 315.11719 920 315.11719 L 1720 315.11719 C 1742.16 315.11719 1760 332.95718 1760 355.11719 L 1760 335.11719 C 1760 312.95718 1742.16 295.11719 1720 295.11719 L 920 295.11719 z "
       transform="matrix(0.26458333,0,0,0.26458333,0,-215)"
       id="rect856" />
    <path
       inkscape:connector-curvature="0"
       style="fill:url(#linearGradient907);fill-opacity:1;stroke:#bec8b7;stroke-width:0.35676408"
       d="m 61.575755,-83.93574 c -10.660309,0 -19.242418,4.72016 -19.242418,10.58333 l 0,47.560741 H 465.66667 l 0,-47.560741 c 0,-5.86317 -8.58215,-10.58333 -19.24244,-10.58333 z"
       id="rect3746"
       sodipodi:nodetypes="ssccsss" />
    <path
       id="path887"
       d="m -312.20833,-158.08333 c -5.86316,0 -10.58334,4.71965 -10.58334,10.58281 v 5.29167 c 0,-5.86316 4.72018,-10.58333 10.58334,-10.58333 h 211.66666 c 5.863174,0 10.583337,4.72017 10.583337,10.58333 v -5.29167 c 0,-5.86316 -4.720163,-10.58281 -10.583337,-10.58281 z"
       style="fill:#ffffff;fill-opacity:0.19607843;stroke-width:0.26458332"
       inkscape:connector-curvature="0"
       sodipodi:nodetypes="sscsscsss" />
    <g
       id="g909"
       transform="translate(0,-301.625)">
      <rect
         id="rect897"
         width="381"
         height="21.166666"
         x="63.5"
         y="233.50002"
         ry="0"
         style="fill:url(#linearGradient911);fill-opacity:1;stroke-width:0.26458332" />
      <rect
         style="fill:url(#radialGradient913);fill-opacity:1;stroke-width:0.26458332"
         id="rect899"
         width="42.333332"
         height="42.333336"
         x="444.5"
         y="212.33334" />
      <rect
         style="fill:url(#radialGradient915);fill-opacity:1;stroke-width:0.26458332"
         id="rect901"
         width="42.333332"
         height="42.333336"
         x="21.166666"
         y="212.33334" />
      <rect
         id="rect903"
         width="465.66666"
         height="111.12492"
         x="21.166685"
         y="122.37499"
         style="fill:url(#linearGradient917);fill-opacity:1;stroke:#4d4d4d;stroke-width:2;stroke-miterlimit:4;stroke-dasharray:none"
         ry="10.583316"
         rx="10.583313" />
      <path
         style="fill:#ffffff;fill-opacity:0.19607843;stroke-width:0.26458332"
         d="m 31.750006,122.37552 c -5.863155,0 -10.583333,4.71965 -10.583333,10.58281 V 138.25 c 0,-5.86316 4.720178,-10.58333 10.583333,-10.58333 H 476.25 c 5.86317,0 10.58333,4.72017 10.58333,10.58333 v -5.29167 c 0,-5.86316 -4.72016,-10.58281 -10.58333,-10.58281 z"
         id="path905"
         inkscape:connector-curvature="0" />
      <path
         id="path907"
         d="m 31.75,233.5 c -5.863156,0 -10.583334,-4.71966 -10.583334,-10.58282 v -5.29167 c 0,5.86317 4.720178,10.58334 10.583334,10.58334 h 444.49999 c 5.86317,0 10.58334,-4.72017 10.58334,-10.58334 v 5.29167 c 0,5.86316 -4.72017,10.58282 -10.58334,10.58282 z"
         style="fill:#000000;fill-opacity:0.19607843;stroke-width:0.26458332"
         inkscape:connector-curvature="0" />
    </g>
    <g
       transform="translate(0,-148.16667)"
       id="g931">
      <rect
         style="fill:url(#linearGradient933);fill-opacity:1;stroke-width:0.26458332"
         ry="0"
         y="233.50002"
         x="63.5"
         height="21.166666"
         width="381"
         id="rect919" />
      <rect
         y="212.33334"
         x="444.5"
         height="42.333336"
         width="42.333332"
         id="rect921"
         style="fill:url(#radialGradient935);fill-opacity:1;stroke-width:0.26458332" />
      <rect
         y="212.33334"
         x="21.166666"
         height="42.333336"
         width="42.333332"
         id="rect923"
         style="fill:url(#radialGradient937);fill-opacity:1;stroke-width:0.26458332" />
      <rect
         rx="10.583313"
         ry="10.583316"
         style="fill:url(#linearGradient939);fill-opacity:1;stroke:#4d4d4d;stroke-width:2;stroke-miterlimit:4;stroke-dasharray:none"
         y="122.37499"
         x="21.166685"
         height="111.12492"
         width="465.66666"
         id="rect925" />
      <path
         inkscape:connector-curvature="0"
         id="path927"
         d="m 31.750006,122.37552 c -5.863155,0 -10.583333,4.71965 -10.583333,10.58281 V 138.25 c 0,-5.86316 4.720178,-10.58333 10.583333,-10.58333 H 476.25 c 5.86317,0 10.58333,4.72017 10.58333,10.58333 v -5.29167 c 0,-5.86316 -4.72016,-10.58281 -10.58333,-10.58281 z"
         style="fill:#ffffff;fill-opacity:0.19607843;stroke-width:0.26458332" />
      <path
         inkscape:connector-curvature="0"
         style="fill:#000000;fill-opacity:0.19607843;stroke-width:0.26458332"
         d="m 31.75,233.5 c -5.863156,0 -10.583334,-4.71966 -10.583334,-10.58282 v -5.29167 c 0,5.86317 4.720178,10.58334 10.583334,10.58334 h 444.49999 c 5.86317,0 10.58334,-4.72017 10.58334,-10.58334 v 5.29167 c 0,5.86316 -4.72017,10.58282 -10.58334,10.58282 z"
         id="path929" />
    </g>
    <g
       id="g887"
       transform="translate(-158.58144,-161.39583)">
      <rect
         ry="10.583333"
         rx="10.583321"
         y="180.58333"
         x="243.41667"
         height="21.166666"
         width="21.166641"
         id="rect882"
         style="fill:#333333;fill-opacity:1;stroke:none;stroke-width:0.52916628" />
      <rect
         style="fill:#333333;fill-opacity:1;stroke:none;stroke-width:0.52916628"
         id="rect877"
         width="21.166641"
         height="21.166666"
         x="285.75003"
         y="180.58333"
         rx="10.583321"
         ry="10.583333" />
      <rect
         ry="10.583333"
         rx="10.583321"
         y="180.58333"
         x="201.08334"
         height="21.166666"
         width="21.166641"
         id="rect879"
         style="fill:#333333;fill-opacity:1;stroke:none;stroke-width:0.52916628" />
      <path
         inkscape:connector-curvature="0"
         id="rect869"
         d="m 296.33333,204.39583 c -5.86317,0 -10.58333,-4.72017 -10.58333,-10.58334 0,-0.44849 0.0306,-0.88937 0.0842,-1.32291 0.6477,5.23369 5.08452,9.26041 10.49909,9.26041 5.41457,0 9.85139,-4.02672 10.49909,-9.26041 0.0537,0.43354 0.0842,0.87442 0.0842,1.32291 0,5.86317 -4.72016,10.58334 -10.58333,10.58334 z"
         style="fill:#93ac9d;fill-opacity:1;stroke:none;stroke-width:0.52916628" />
      <path
         style="fill:#ffffff;fill-opacity:0.19607843;stroke:none;stroke-width:0.52916628"
         d="m 296.33333,204.39583 c -5.86317,0 -10.58333,-4.72017 -10.58333,-10.58334 0,-0.44849 0.0306,-0.88937 0.0842,-1.32291 0.6477,5.23369 5.08452,9.26041 10.49909,9.26041 5.41457,0 9.85139,-4.02672 10.49909,-9.26041 0.0537,0.43354 0.0842,0.87442 0.0842,1.32291 0,5.86317 -4.72016,10.58334 -10.58333,10.58334 z"
         id="path875"
         inkscape:connector-curvature="0" />
      <path
         inkscape:connector-curvature="0"
         id="path877"
         d="m 254.08428,204.39583 c -5.86317,0 -10.58333,-4.72017 -10.58333,-10.58334 0,-0.44849 0.0306,-0.88937 0.0842,-1.32291 0.6477,5.23369 5.08452,9.26041 10.49909,9.26041 5.41457,0 9.85139,-4.02672 10.49909,-9.26041 0.0537,0.43354 0.0842,0.87442 0.0842,1.32291 0,5.86317 -4.72016,10.58334 -10.58333,10.58334 z"
         style="fill:#ffffff;fill-opacity:0.19607843;stroke:none;stroke-width:0.52916628" />
      <path
         style="fill:#ffffff;fill-opacity:0.19607843;stroke:none;stroke-width:0.52916628"
         d="m 211.66667,204.39583 c -5.86317,0 -10.58333,-4.72017 -10.58333,-10.58334 0,-0.44849 0.0306,-0.88937 0.0842,-1.32291 0.6477,5.23369 5.08452,9.26041 10.49909,9.26041 5.41457,0 9.85139,-4.02672 10.49909,-9.26041 0.0537,0.43354 0.0842,0.87442 0.0842,1.32291 0,5.86317 -4.72016,10.58334 -10.58333,10.58334 z"
         id="path879"
         inkscape:connector-curvature="0" />
      <path
         inkscape:connector-curvature="0"
         id="path881"
         d="m 211.66659,180.58333 c 5.86317,0 10.58333,4.72017 10.58333,10.58334 0,0.44849 -0.0306,0.88937 -0.0842,1.32291 -0.6477,-5.23369 -5.08452,-9.26041 -10.49909,-9.26041 -5.41457,0 -9.85139,4.02672 -10.49909,9.26041 -0.0537,-0.43354 -0.0842,-0.87442 -0.0842,-1.32291 0,-5.86317 4.72016,-10.58334 10.58333,-10.58334 z"
         style="fill:#000000;fill-opacity:0.19607843;stroke:none;stroke-width:0.52916628" />
      <path
         style="fill:#000000;fill-opacity:0.19607843;stroke:none;stroke-width:0.52916628"
         d="m 253.91564,180.58333 c 5.86317,0 10.58333,4.72017 10.58333,10.58334 0,0.44849 -0.0306,0.88937 -0.0842,1.32291 -0.6477,-5.23369 -5.08452,-9.26041 -10.49909,-9.26041 -5.41457,0 -9.85139,4.02672 -10.49909,9.26041 -0.0537,-0.43354 -0.0842,-0.87442 -0.0842,-1.32291 0,-5.86317 4.72016,-10.58334 10.58333,-10.58334 z"
         id="path883"
         inkscape:connector-curvature="0" />
      <path
         inkscape:connector-curvature="0"
         id="path885"
         d="m 296.33325,180.58333 c 5.86317,0 10.58333,4.72017 10.58333,10.58334 0,0.44849 -0.0306,0.88937 -0.0842,1.32291 -0.6477,-5.23369 -5.08452,-9.26041 -10.49909,-9.26041 -5.41457,0 -9.85139,4.02672 -10.49909,9.26041 -0.0537,-0.43354 -0.0842,-0.87442 -0.0842,-1.32291 0,-5.86317 4.72016,-10.58334 10.58333,-10.58334 z"
         style="fill:#000000;fill-opacity:0.19607843;stroke:none;stroke-width:0.52916628" />
    </g>
    <g
       transform="translate(-158.58144,-317.5)"
       id="g961">
      <rect
         style="fill:#333333;fill-opacity:1;stroke:none;stroke-width:0.52916628"
         id="rect941"
         width="21.166641"
         height="21.166666"
         x="243.41667"
         y="180.58333"
         rx="10.583321"
         ry="10.583333" />
      <rect
         ry="10.583333"
         rx="10.583321"
         y="180.58333"
         x="285.75003"
         height="21.166666"
         width="21.166641"
         id="rect943"
         style="fill:#333333;fill-opacity:1;stroke:none;stroke-width:0.52916628" />
      <rect
         style="fill:#333333;fill-opacity:1;stroke:none;stroke-width:0.52916628"
         id="rect945"
         width="21.166641"
         height="21.166666"
         x="201.08334"
         y="180.58333"
         rx="10.583321"
         ry="10.583333" />
      <path
         style="fill:#93ac9d;fill-opacity:1;stroke:none;stroke-width:0.52916628"
         d="m 296.33333,204.39583 c -5.86317,0 -10.58333,-4.72017 -10.58333,-10.58334 0,-0.44849 0.0306,-0.88937 0.0842,-1.32291 0.6477,5.23369 5.08452,9.26041 10.49909,9.26041 5.41457,0 9.85139,-4.02672 10.49909,-9.26041 0.0537,0.43354 0.0842,0.87442 0.0842,1.32291 0,5.86317 -4.72016,10.58334 -10.58333,10.58334 z"
         id="path947"
         inkscape:connector-curvature="0" />
      <path
         inkscape:connector-curvature="0"
         id="path949"
         d="m 296.33333,204.39583 c -5.86317,0 -10.58333,-4.72017 -10.58333,-10.58334 0,-0.44849 0.0306,-0.88937 0.0842,-1.32291 0.6477,5.23369 5.08452,9.26041 10.49909,9.26041 5.41457,0 9.85139,-4.02672 10.49909,-9.26041 0.0537,0.43354 0.0842,0.87442 0.0842,1.32291 0,5.86317 -4.72016,10.58334 -10.58333,10.58334 z"
         style="fill:#ffffff;fill-opacity:0.19607843;stroke:none;stroke-width:0.52916628" />
      <path
         style="fill:#ffffff;fill-opacity:0.19607843;stroke:none;stroke-width:0.52916628"
         d="m 254.08428,204.39583 c -5.86317,0 -10.58333,-4.72017 -10.58333,-10.58334 0,-0.44849 0.0306,-0.88937 0.0842,-1.32291 0.6477,5.23369 5.08452,9.26041 10.49909,9.26041 5.41457,0 9.85139,-4.02672 10.49909,-9.26041 0.0537,0.43354 0.0842,0.87442 0.0842,1.32291 0,5.86317 -4.72016,10.58334 -10.58333,10.58334 z"
         id="path951"
         inkscape:connector-curvature="0" />
      <path
         inkscape:connector-curvature="0"
         id="path953"
         d="m 211.66667,204.39583 c -5.86317,0 -10.58333,-4.72017 -10.58333,-10.58334 0,-0.44849 0.0306,-0.88937 0.0842,-1.32291 0.6477,5.23369 5.08452,9.26041 10.49909,9.26041 5.41457,0 9.85139,-4.02672 10.49909,-9.26041 0.0537,0.43354 0.0842,0.87442 0.0842,1.32291 0,5.86317 -4.72016,10.58334 -10.58333,10.58334 z"
         style="fill:#ffffff;fill-opacity:0.19607843;stroke:none;stroke-width:0.52916628" />
      <path
         style="fill:#000000;fill-opacity:0.19607843;stroke:none;stroke-width:0.52916628"
         d="m 211.66659,180.58333 c 5.86317,0 10.58333,4.72017 10.58333,10.58334 0,0.44849 -0.0306,0.88937 -0.0842,1.32291 -0.6477,-5.23369 -5.08452,-9.26041 -10.49909,-9.26041 -5.41457,0 -9.85139,4.02672 -10.49909,9.26041 -0.0537,-0.43354 -0.0842,-0.87442 -0.0842,-1.32291 0,-5.86317 4.72016,-10.58334 10.58333,-10.58334 z"
         id="path955"
         inkscape:connector-curvature="0" />
      <path
         inkscape:connector-curvature="0"
         id="path957"
         d="m 253.91564,180.58333 c 5.86317,0 10.58333,4.72017 10.58333,10.58334 0,0.44849 -0.0306,0.88937 -0.0842,1.32291 -0.6477,-5.23369 -5.08452,-9.26041 -10.49909,-9.26041 -5.41457,0 -9.85139,4.02672 -10.49909,9.26041 -0.0537,-0.43354 -0.0842,-0.87442 -0.0842,-1.32291 0,-5.86317 4.72016,-10.58334 10.58333,-10.58334 z"
         style="fill:#000000;fill-opacity:0.19607843;stroke:none;stroke-width:0.52916628" />
      <path
         style="fill:#000000;fill-opacity:0.19607843;stroke:none;stroke-width:0.52916628"
         d="m 296.33325,180.58333 c 5.86317,0 10.58333,4.72017 10.58333,10.58334 0,0.44849 -0.0306,0.88937 -0.0842,1.32291 -0.6477,-5.23369 -5.08452,-9.26041 -10.49909,-9.26041 -5.41457,0 -9.85139,4.02672 -10.49909,9.26041 -0.0537,-0.43354 -0.0842,-0.87442 -0.0842,-1.32291 0,-5.86317 4.72016,-10.58334 10.58333,-10.58334 z"
         id="path959"
         inkscape:connector-curvature="0" />
    </g>
    <g
       id="g983"
       transform="translate(-158.58144,-10.583328)">
      <rect
         ry="10.583333"
         rx="10.583321"
         y="180.58333"
         x="243.41667"
         height="21.166666"
         width="21.166641"
         id="rect963"
         style="fill:#333333;fill-opacity:1;stroke:none;stroke-width:0.52916628" />
      <rect
         style="fill:#333333;fill-opacity:1;stroke:none;stroke-width:0.52916628"
         id="rect965"
         width="21.166641"
         height="21.166666"
         x="285.75003"
         y="180.58333"
         rx="10.583321"
         ry="10.583333" />
      <rect
         ry="10.583333"
         rx="10.583321"
         y="180.58333"
         x="201.08334"
         height="21.166666"
         width="21.166641"
         id="rect967"
         style="fill:#333333;fill-opacity:1;stroke:none;stroke-width:0.52916628" />
      <path
         inkscape:connector-curvature="0"
         id="path969"
         d="m 296.33333,204.39583 c -5.86317,0 -10.58333,-4.72017 -10.58333,-10.58334 0,-0.44849 0.0306,-0.88937 0.0842,-1.32291 0.6477,5.23369 5.08452,9.26041 10.49909,9.26041 5.41457,0 9.85139,-4.02672 10.49909,-9.26041 0.0537,0.43354 0.0842,0.87442 0.0842,1.32291 0,5.86317 -4.72016,10.58334 -10.58333,10.58334 z"
         style="fill:#93ac9d;fill-opacity:1;stroke:none;stroke-width:0.52916628" />
      <path
         style="fill:#ffffff;fill-opacity:0.19607843;stroke:none;stroke-width:0.52916628"
         d="m 296.33333,204.39583 c -5.86317,0 -10.58333,-4.72017 -10.58333,-10.58334 0,-0.44849 0.0306,-0.88937 0.0842,-1.32291 0.6477,5.23369 5.08452,9.26041 10.49909,9.26041 5.41457,0 9.85139,-4.02672 10.49909,-9.26041 0.0537,0.43354 0.0842,0.87442 0.0842,1.32291 0,5.86317 -4.72016,10.58334 -10.58333,10.58334 z"
         id="path971"
         inkscape:connector-curvature="0" />
      <path
         inkscape:connector-curvature="0"
         id="path973"
         d="m 254.08428,204.39583 c -5.86317,0 -10.58333,-4.72017 -10.58333,-10.58334 0,-0.44849 0.0306,-0.88937 0.0842,-1.32291 0.6477,5.23369 5.08452,9.26041 10.49909,9.26041 5.41457,0 9.85139,-4.02672 10.49909,-9.26041 0.0537,0.43354 0.0842,0.87442 0.0842,1.32291 0,5.86317 -4.72016,10.58334 -10.58333,10.58334 z"
         style="fill:#ffffff;fill-opacity:0.19607843;stroke:none;stroke-width:0.52916628" />
      <path
         style="fill:#ffffff;fill-opacity:0.19607843;stroke:none;stroke-width:0.52916628"
         d="m 211.66667,204.39583 c -5.86317,0 -10.58333,-4.72017 -10.58333,-10.58334 0,-0.44849 0.0306,-0.88937 0.0842,-1.32291 0.6477,5.23369 5.08452,9.26041 10.49909,9.26041 5.41457,0 9.85139,-4.02672 10.49909,-9.26041 0.0537,0.43354 0.0842,0.87442 0.0842,1.32291 0,5.86317 -4.72016,10.58334 -10.58333,10.58334 z"
         id="path975"
         inkscape:connector-curvature="0" />
      <path
         inkscape:connector-curvature="0"
         id="path977"
         d="m 211.66659,180.58333 c 5.86317,0 10.58333,4.72017 10.58333,10.58334 0,0.44849 -0.0306,0.88937 -0.0842,1.32291 -0.6477,-5.23369 -5.08452,-9.26041 -10.49909,-9.26041 -5.41457,0 -9.85139,4.02672 -10.49909,9.26041 -0.0537,-0.43354 -0.0842,-0.87442 -0.0842,-1.32291 0,-5.86317 4.72016,-10.58334 10.58333,-10.58334 z"
         style="fill:#000000;fill-opacity:0.19607843;stroke:none;stroke-width:0.52916628" />
      <path
         style="fill:#000000;fill-opacity:0.19607843;stroke:none;stroke-width:0.52916628"
         d="m 253.91564,180.58333 c 5.86317,0 10.58333,4.72017 10.58333,10.58334 0,0.44849 -0.0306,0.88937 -0.0842,1.32291 -0.6477,-5.23369 -5.08452,-9.26041 -10.49909,-9.26041 -5.41457,0 -9.85139,4.02672 -10.49909,9.26041 -0.0537,-0.43354 -0.0842,-0.87442 -0.0842,-1.32291 0,-5.86317 4.72016,-10.58334 10.58333,-10.58334 z"
         id="path979"
         inkscape:connector-curvature="0" />
      <path
         inkscape:connector-curvature="0"
         id="path981"
         d="m 296.33325,180.58333 c 5.86317,0 10.58333,4.72017 10.58333,10.58334 0,0.44849 -0.0306,0.88937 -0.0842,1.32291 -0.6477,-5.23369 -5.08452,-9.26041 -10.49909,-9.26041 -5.41457,0 -9.85139,4.02672 -10.49909,9.26041 -0.0537,-0.43354 -0.0842,-0.87442 -0.0842,-1.32291 0,-5.86317 4.72016,-10.58334 10.58333,-10.58334 z"
         style="fill:#000000;fill-opacity:0.19607843;stroke:none;stroke-width:0.52916628" />
    </g>
  </g>
</svg>
