<?xml version="1.0" encoding="UTF-8"?>
<svg xmlns="http://www.w3.org/2000/svg" xmlns:xlink="http://www.w3.org/1999/xlink" width="256pt" height="256pt" viewBox="0 0 256 256" version="1.1">
<defs>
<linearGradient id="linear0" gradientUnits="userSpaceOnUse" x1="254" y1="233.5" x2="254" y2="254.666672" gradientTransform="matrix(0.500048,0,0,0.500048,0,107.510266)">
<stop offset="0" style="stop-color:rgb(0%,0%,0%);stop-opacity:0.27451;"/>
<stop offset="1" style="stop-color:rgb(0%,0%,0%);stop-opacity:0;"/>
</linearGradient>
<radialGradient id="radial0" gradientUnits="userSpaceOnUse" cx="456.200623" cy="186.933533" fx="456.200623" fy="186.933533" r="21.166656" gradientTransform="matrix(0.000000708142,1.000096,-1.000096,0.000000688808,409.222333,-242.557402)">
<stop offset="0" style="stop-color:rgb(0%,0%,0%);stop-opacity:0.313725;"/>
<stop offset="0.499999" style="stop-color:rgb(0%,0%,0%);stop-opacity:0.27451;"/>
<stop offset="1" style="stop-color:rgb(0%,0%,0%);stop-opacity:0;"/>
</radialGradient>
<radialGradient id="radial1" gradientUnits="userSpaceOnUse" cx="63.5" cy="212.333359" fx="63.5" fy="212.333359" r="21.166666" gradientTransform="matrix(-1.000095,0.000000297088,-0.000000297088,-1.000096,95.259165,426.040742)">
<stop offset="0" style="stop-color:rgb(0%,0%,0%);stop-opacity:0.313725;"/>
<stop offset="0.499999" style="stop-color:rgb(0%,0%,0%);stop-opacity:0.27451;"/>
<stop offset="1" style="stop-color:rgb(0%,0%,0%);stop-opacity:0;"/>
</radialGradient>
<linearGradient id="linear1" gradientUnits="userSpaceOnUse" x1="359.833313" y1="-94.583336" x2="359.833344" y2="-115.75" gradientTransform="matrix(0.500048,0,0,0.500048,-0.0000068899,102.218117)">
<stop offset="0" style="stop-color:rgb(0%,0%,0%);stop-opacity:0.196078;"/>
<stop offset="1" style="stop-color:rgb(0%,0%,0%);stop-opacity:0;"/>
</linearGradient>
<linearGradient id="linear2" gradientUnits="userSpaceOnUse" x1="254" y1="233.5" x2="254" y2="-105.166656" >
<stop offset="0" style="stop-color:rgb(71.764706%,73.333333%,77.647059%);stop-opacity:1;"/>
<stop offset="1" style="stop-color:rgb(80%,81.568627%,84.313725%);stop-opacity:1;"/>
</linearGradient>
<linearGradient id="linear3" gradientUnits="userSpaceOnUse" x1="365.125" y1="-105.166672" x2="365.125" y2="-136.916672" >
<stop offset="0" style="stop-color:rgb(32.54902%,33.333333%,36.470588%);stop-opacity:1;"/>
<stop offset="1" style="stop-color:rgb(36.470588%,37.647059%,40.784314%);stop-opacity:1;"/>
</linearGradient>
</defs>
<g id="surface1">
<path style=" stroke:none;fill-rule:nonzero;fill:url(#linear0);" d="M 31.753906 224.269531 L 222.269531 224.269531 L 222.269531 234.855469 L 31.753906 234.855469 Z M 31.753906 224.269531 "/>
<path style=" stroke:none;fill-rule:nonzero;fill:url(#radial0);" d="M 222.269531 213.6875 L 243.441406 213.6875 L 243.441406 234.855469 L 222.269531 234.855469 Z M 222.269531 213.6875 "/>
<path style=" stroke:none;fill-rule:nonzero;fill:url(#radial1);" d="M 10.585938 213.6875 L 31.753906 213.6875 L 31.753906 234.855469 L 10.585938 234.855469 Z M 10.585938 213.6875 "/>
<path style=" stroke:none;fill-rule:nonzero;fill:url(#linear1);" d="M 116.429688 44.335938 L 232.855469 44.335938 L 232.855469 54.921875 L 116.429688 54.921875 Z M 116.429688 44.335938 "/>
<path style="fill-rule:nonzero;fill:url(#linear2);stroke-width:2;stroke-linecap:butt;stroke-linejoin:miter;stroke:rgb(30.19608%,30.19608%,30.19608%);stroke-opacity:1;stroke-miterlimit:4;" d="M 31.746968 -105.166739 L 476.251395 -105.166739 C 482.094587 -105.166739 486.836322 -100.425004 486.836322 -94.581812 L 486.836322 222.919118 C 486.836322 228.76231 482.094587 233.496233 476.251395 233.496233 L 31.746968 233.496233 C 25.903776 233.496233 21.169853 228.76231 21.169853 222.919118 L 21.169853 -94.581812 C 21.169853 -100.425004 25.903776 -105.166739 31.746968 -105.166739 Z M 31.746968 -105.166739 " transform="matrix(0.500048,0,0,0.500048,0,107.510266)"/>
<path style=" stroke:none;fill-rule:nonzero;fill:rgb(100%,100%,100%);fill-opacity:0.196078;" d="M 15.875 54.921875 C 12.945312 54.921875 10.585938 57.28125 10.585938 60.214844 L 10.585938 62.859375 C 10.585938 59.929688 12.945312 57.566406 15.875 57.566406 L 238.148438 57.566406 C 241.078125 57.566406 243.441406 59.929688 243.441406 62.859375 L 243.441406 60.214844 C 243.441406 57.28125 241.078125 54.921875 238.148438 54.921875 Z M 15.875 54.921875 "/>
<path style=" stroke:none;fill-rule:nonzero;fill:rgb(0%,0%,0%);fill-opacity:0.196078;" d="M 15.875 224.269531 C 12.945312 224.269531 10.585938 221.910156 10.585938 218.980469 L 10.585938 216.332031 C 10.585938 219.265625 12.945312 221.625 15.875 221.625 L 238.148438 221.625 C 241.078125 221.625 243.441406 219.265625 243.441406 216.332031 L 243.441406 218.980469 C 243.441406 221.910156 241.078125 224.269531 238.148438 224.269531 Z M 15.875 224.269531 "/>
<path style=" stroke:none;fill-rule:nonzero;fill:rgb(100%,100%,100%);fill-opacity:0.27451;" d="M 121.71875 39.046875 C 118.789062 39.046875 116.429688 41.40625 116.429688 44.335938 L 116.429688 46.984375 C 116.429688 44.050781 118.789062 41.691406 121.71875 41.691406 L 227.5625 41.691406 C 230.496094 41.691406 232.855469 44.050781 232.855469 46.984375 L 232.855469 44.335938 C 232.855469 41.40625 230.496094 39.046875 227.5625 39.046875 Z M 121.71875 39.046875 "/>
<path style="fill-rule:nonzero;fill:url(#linear3);stroke-width:0.264583;stroke-linecap:butt;stroke-linejoin:miter;stroke:rgb(74.509805%,78.431374%,71.764708%);stroke-opacity:1;stroke-miterlimit:4;" d="M 243.414255 -136.913707 C 237.55544 -136.913707 232.83714 -132.195407 232.83714 -126.336592 L 232.83714 -105.166739 L 465.666469 -105.166739 L 465.666469 -126.336592 C 465.666469 -132.195407 460.948169 -136.913707 455.081542 -136.913707 Z M 243.414255 -136.913707 " transform="matrix(0.500048,0,0,0.500048,0,107.510266)"/>
<path style=" stroke:none;fill-rule:nonzero;fill:rgb(20%,20%,20%);fill-opacity:1;" d="M 127.011719 197.8125 C 129.933594 197.8125 132.304688 200.179688 132.304688 203.101562 C 132.304688 206.027344 129.933594 208.394531 127.011719 208.394531 C 124.089844 208.394531 121.71875 206.027344 121.71875 203.101562 C 121.71875 200.179688 124.089844 197.8125 127.011719 197.8125 Z M 127.011719 197.8125 "/>
<path style=" stroke:none;fill-rule:nonzero;fill:rgb(20%,20%,20%);fill-opacity:1;" d="M 148.179688 197.8125 C 151.105469 197.8125 153.472656 200.179688 153.472656 203.101562 C 153.472656 206.027344 151.105469 208.394531 148.179688 208.394531 C 145.257812 208.394531 142.886719 206.027344 142.886719 203.101562 C 142.886719 200.179688 145.257812 197.8125 148.179688 197.8125 Z M 148.179688 197.8125 "/>
<path style=" stroke:none;fill-rule:nonzero;fill:rgb(20%,20%,20%);fill-opacity:1;" d="M 105.84375 197.8125 C 108.765625 197.8125 111.136719 200.179688 111.136719 203.101562 C 111.136719 206.027344 108.765625 208.394531 105.84375 208.394531 C 102.921875 208.394531 100.550781 206.027344 100.550781 203.101562 C 100.550781 200.179688 102.921875 197.8125 105.84375 197.8125 Z M 105.84375 197.8125 "/>
<path style=" stroke:none;fill-rule:nonzero;fill:rgb(57.647061%,67.450982%,61.56863%);fill-opacity:1;" d="M 148.179688 209.71875 C 145.25 209.71875 142.886719 207.359375 142.886719 204.425781 C 142.886719 204.203125 142.902344 203.980469 142.929688 203.765625 C 143.253906 206.382812 145.472656 208.394531 148.179688 208.394531 C 150.886719 208.394531 153.105469 206.382812 153.429688 203.765625 C 153.457031 203.980469 153.472656 204.203125 153.472656 204.425781 C 153.472656 207.359375 151.113281 209.71875 148.179688 209.71875 Z M 148.179688 209.71875 "/>
<path style=" stroke:none;fill-rule:nonzero;fill:rgb(100%,100%,100%);fill-opacity:0.196078;" d="M 148.179688 209.71875 C 145.25 209.71875 142.886719 207.359375 142.886719 204.425781 C 142.886719 204.203125 142.902344 203.980469 142.929688 203.765625 C 143.253906 206.382812 145.472656 208.394531 148.179688 208.394531 C 150.886719 208.394531 153.105469 206.382812 153.429688 203.765625 C 153.457031 203.980469 153.472656 204.203125 153.472656 204.425781 C 153.472656 207.359375 151.113281 209.71875 148.179688 209.71875 Z M 148.179688 209.71875 "/>
<path style=" stroke:none;fill-rule:nonzero;fill:rgb(100%,100%,100%);fill-opacity:0.196078;" d="M 127.054688 209.71875 C 124.121094 209.71875 121.761719 207.359375 121.761719 204.425781 C 121.761719 204.203125 121.777344 203.980469 121.804688 203.765625 C 122.128906 206.382812 124.347656 208.394531 127.054688 208.394531 C 129.761719 208.394531 131.980469 206.382812 132.304688 203.765625 C 132.332031 203.980469 132.347656 204.203125 132.347656 204.425781 C 132.347656 207.359375 129.984375 209.71875 127.054688 209.71875 Z M 127.054688 209.71875 "/>
<path style=" stroke:none;fill-rule:nonzero;fill:rgb(100%,100%,100%);fill-opacity:0.196078;" d="M 105.84375 209.71875 C 102.910156 209.71875 100.550781 207.359375 100.550781 204.425781 C 100.550781 204.203125 100.566406 203.980469 100.59375 203.765625 C 100.917969 206.382812 103.136719 208.394531 105.84375 208.394531 C 108.550781 208.394531 110.769531 206.382812 111.09375 203.765625 C 111.121094 203.980469 111.136719 204.203125 111.136719 204.425781 C 111.136719 207.359375 108.773438 209.71875 105.84375 209.71875 Z M 105.84375 209.71875 "/>
<path style=" stroke:none;fill-rule:nonzero;fill:rgb(0%,0%,0%);fill-opacity:0.196078;" d="M 105.84375 197.8125 C 108.773438 197.8125 111.136719 200.171875 111.136719 203.101562 C 111.136719 203.328125 111.121094 203.546875 111.09375 203.765625 C 110.769531 201.148438 108.550781 199.132812 105.84375 199.132812 C 103.136719 199.132812 100.917969 201.148438 100.59375 203.765625 C 100.566406 203.546875 100.550781 203.328125 100.550781 203.101562 C 100.550781 200.171875 102.910156 197.8125 105.84375 197.8125 Z M 105.84375 197.8125 "/>
<path style=" stroke:none;fill-rule:nonzero;fill:rgb(0%,0%,0%);fill-opacity:0.196078;" d="M 126.96875 197.8125 C 129.902344 197.8125 132.261719 200.171875 132.261719 203.101562 C 132.261719 203.328125 132.246094 203.546875 132.21875 203.765625 C 131.894531 201.148438 129.675781 199.132812 126.96875 199.132812 C 124.261719 199.132812 122.042969 201.148438 121.71875 203.765625 C 121.691406 203.546875 121.679688 203.328125 121.679688 203.101562 C 121.679688 200.171875 124.039062 197.8125 126.96875 197.8125 Z M 126.96875 197.8125 "/>
<path style=" stroke:none;fill-rule:nonzero;fill:rgb(0%,0%,0%);fill-opacity:0.196078;" d="M 148.179688 197.8125 C 151.113281 197.8125 153.472656 200.171875 153.472656 203.101562 C 153.472656 203.328125 153.457031 203.546875 153.429688 203.765625 C 153.105469 201.148438 150.886719 199.132812 148.179688 199.132812 C 145.472656 199.132812 143.253906 201.148438 142.929688 203.765625 C 142.902344 203.546875 142.886719 203.328125 142.886719 203.101562 C 142.886719 200.171875 145.25 197.8125 148.179688 197.8125 Z M 148.179688 197.8125 "/>
<path style=" stroke:none;fill-rule:nonzero;fill:rgb(100%,100%,100%);fill-opacity:0.196078;" d="M 121.71875 39.046875 C 118.789062 39.046875 116.429688 41.40625 116.429688 44.335938 L 116.429688 46.984375 C 116.429688 44.050781 118.789062 41.691406 121.71875 41.691406 L 227.5625 41.691406 C 230.496094 41.691406 232.855469 44.050781 232.855469 46.984375 L 232.855469 44.335938 C 232.855469 41.40625 230.496094 39.046875 227.5625 39.046875 Z M 121.71875 39.046875 "/>
<path style=" stroke:none;fill-rule:nonzero;fill:rgb(32.549021%,33.333334%,36.470589%);fill-opacity:1;" d="M 132.890625 103.953125 C 126.613281 103.726562 120.488281 105.460938 115.328125 108.796875 L 121.550781 117.394531 C 126.566406 114.355469 132.875 113.574219 138.816406 115.804688 C 144.757812 118.035156 148.992188 122.773438 150.769531 128.363281 L 161.117188 125.984375 C 159.421875 120.078125 155.957031 114.742188 151.082031 110.78125 C 148.242188 113.726562 143.832031 114.863281 139.75 113.328125 C 135.664062 111.792969 133.09375 108.039062 132.890625 103.953125 Z M 162.128906 131.179688 L 151.6875 133.582031 C 151.789062 136.152344 151.386719 138.792969 150.421875 141.359375 C 146.871094 150.8125 136.96875 155.949219 127.40625 153.730469 L 123.664062 163.695312 C 131.03125 165.765625 138.609375 164.941406 145.089844 161.808594 C 144.425781 159.65625 144.449219 157.269531 145.304688 154.984375 C 147.335938 149.574219 153.269531 146.816406 158.695312 148.710938 C 159.308594 147.550781 159.855469 146.34375 160.332031 145.082031 C 162.058594 140.480469 162.605469 135.738281 162.128906 131.179688 Z M 111.144531 112.042969 C 107.785156 115.160156 105.078125 119.089844 103.355469 123.6875 C 102.878906 124.949219 102.496094 126.222656 102.195312 127.496094 C 107.527344 129.640625 110.179688 135.625 108.148438 141.03125 C 107.289062 143.316406 105.734375 145.125 103.820312 146.316406 C 106.636719 152.9375 111.800781 158.546875 118.707031 161.835938 L 122.449219 151.871094 C 113.789062 147.246094 109.714844 136.859375 113.261719 127.410156 C 114.226562 124.839844 115.660156 122.59375 117.425781 120.722656 Z M 111.144531 112.042969 "/>
<path style=" stroke:none;fill-rule:nonzero;fill:rgb(32.549021%,33.333334%,36.470589%);fill-opacity:1;" d="M 145.792969 97.226562 C 149.214844 98.511719 150.945312 102.324219 149.660156 105.746094 C 148.378906 109.164062 144.5625 110.898438 141.144531 109.613281 C 137.722656 108.328125 135.992188 104.515625 137.277344 101.09375 C 138.558594 97.671875 142.375 95.941406 145.792969 97.226562 Z M 145.792969 97.226562 "/>
<path style=" stroke:none;fill-rule:nonzero;fill:rgb(32.549021%,33.333334%,36.470589%);fill-opacity:1;" d="M 100.5625 131.121094 C 103.984375 132.402344 105.714844 136.21875 104.429688 139.636719 C 103.148438 143.058594 99.332031 144.789062 95.914062 143.503906 C 92.492188 142.222656 90.761719 138.40625 92.046875 134.988281 C 93.328125 131.566406 97.144531 129.835938 100.5625 131.121094 Z M 100.5625 131.121094 "/>
<path style=" stroke:none;fill-rule:nonzero;fill:rgb(32.549021%,33.333334%,36.470589%);fill-opacity:1;" d="M 157.539062 152.511719 C 160.960938 153.796875 162.691406 157.609375 161.40625 161.03125 C 160.125 164.453125 156.308594 166.183594 152.890625 164.898438 C 149.46875 163.613281 147.738281 159.800781 149.019531 156.378906 C 150.304688 152.960938 154.121094 151.230469 157.539062 152.511719 Z M 157.539062 152.511719 "/>
</g>
</svg>
