<?xml version="1.0" encoding="UTF-8"?>
<svg xmlns="http://www.w3.org/2000/svg" xmlns:xlink="http://www.w3.org/1999/xlink" width="256pt" height="256pt" viewBox="0 0 256 256" version="1.1">
<defs>
<linearGradient id="linear0" gradientUnits="userSpaceOnUse" x1="254" y1="233.5" x2="254" y2="254.666672" gradientTransform="matrix(0.500048,0,0,0.500048,0,107.510258)">
<stop offset="0" style="stop-color:rgb(0%,0%,0%);stop-opacity:0.27451;"/>
<stop offset="1" style="stop-color:rgb(0%,0%,0%);stop-opacity:0;"/>
</linearGradient>
<radialGradient id="radial0" gradientUnits="userSpaceOnUse" cx="456.200623" cy="186.933533" fx="456.200623" fy="186.933533" r="21.166656" gradientTransform="matrix(0.000000708142,1.000096,-1.000096,0.000000688808,409.222333,-242.557409)">
<stop offset="0" style="stop-color:rgb(0%,0%,0%);stop-opacity:0.313725;"/>
<stop offset="0.499999" style="stop-color:rgb(0%,0%,0%);stop-opacity:0.27451;"/>
<stop offset="1" style="stop-color:rgb(0%,0%,0%);stop-opacity:0;"/>
</radialGradient>
<radialGradient id="radial1" gradientUnits="userSpaceOnUse" cx="63.5" cy="212.333359" fx="63.5" fy="212.333359" r="21.166666" gradientTransform="matrix(-1.000095,0.000000297088,-0.000000297088,-1.000096,95.259165,426.040734)">
<stop offset="0" style="stop-color:rgb(0%,0%,0%);stop-opacity:0.313725;"/>
<stop offset="0.499999" style="stop-color:rgb(0%,0%,0%);stop-opacity:0.27451;"/>
<stop offset="1" style="stop-color:rgb(0%,0%,0%);stop-opacity:0;"/>
</radialGradient>
<linearGradient id="linear1" gradientUnits="userSpaceOnUse" x1="254" y1="233.5" x2="254" y2="254.666672" gradientTransform="matrix(0.500048,0,0,0.500048,0,86.341573)">
<stop offset="0" style="stop-color:rgb(0%,0%,0%);stop-opacity:0.196078;"/>
<stop offset="1" style="stop-color:rgb(0%,0%,0%);stop-opacity:0;"/>
</linearGradient>
<radialGradient id="radial2" gradientUnits="userSpaceOnUse" cx="63.5" cy="212.333359" fx="63.5" fy="212.333359" r="21.166666" gradientTransform="matrix(-1.000095,0.000000297088,-0.000000297088,-1.000096,95.259165,404.872034)">
<stop offset="0" style="stop-color:rgb(0%,0%,0%);stop-opacity:0.313725;"/>
<stop offset="0.499999" style="stop-color:rgb(0%,0%,0%);stop-opacity:0.196078;"/>
<stop offset="1" style="stop-color:rgb(0%,0%,0%);stop-opacity:0;"/>
</radialGradient>
<linearGradient id="linear2" gradientUnits="userSpaceOnUse" x1="254" y1="233.5" x2="254" y2="-105.166656" gradientTransform="matrix(1,0,0,1,-0.0000138509,-63.50013)">
<stop offset="0" style="stop-color:rgb(71.764706%,73.333333%,77.647059%);stop-opacity:1;"/>
<stop offset="1" style="stop-color:rgb(80%,81.568627%,84.313725%);stop-opacity:1;"/>
</linearGradient>
</defs>
<g id="surface1">
<path style=" stroke:none;fill-rule:nonzero;fill:url(#linear0);" d="M 31.753906 224.269531 L 222.269531 224.269531 L 222.269531 234.855469 L 31.753906 234.855469 Z M 31.753906 224.269531 "/>
<path style=" stroke:none;fill-rule:nonzero;fill:url(#radial0);" d="M 222.269531 213.6875 L 243.441406 213.6875 L 243.441406 234.855469 L 222.269531 234.855469 Z M 222.269531 213.6875 "/>
<path style=" stroke:none;fill-rule:nonzero;fill:url(#radial1);" d="M 10.585938 213.6875 L 31.753906 213.6875 L 31.753906 234.855469 L 10.585938 234.855469 Z M 10.585938 213.6875 "/>
<path style=" stroke:none;fill-rule:nonzero;fill:url(#linear1);" d="M 31.753906 203.101562 L 222.269531 203.101562 L 222.269531 213.6875 L 31.753906 213.6875 Z M 31.753906 203.101562 "/>
<path style=" stroke:none;fill-rule:nonzero;fill:url(#radial2);" d="M 10.585938 192.519531 L 31.753906 192.519531 L 31.753906 213.6875 L 10.585938 213.6875 Z M 10.585938 192.519531 "/>
<path style="fill-rule:nonzero;fill:url(#linear2);stroke-width:2;stroke-linecap:butt;stroke-linejoin:miter;stroke:rgb(30.19608%,30.19608%,30.19608%);stroke-opacity:1;stroke-miterlimit:4;" d="M 42.331895 -168.668487 L 465.666469 -168.668487 C 477.352853 -168.668487 486.836322 -159.192829 486.836322 -147.498634 L 486.836322 212.334192 C 486.836322 224.020576 477.352853 233.496233 465.666469 233.496233 L 42.331895 233.496233 C 30.645511 233.496233 21.169853 224.020576 21.169853 212.334192 L 21.169853 -147.498634 C 21.169853 -159.192829 30.645511 -168.668487 42.331895 -168.668487 Z M 42.331895 -168.668487 " transform="matrix(0.500048,0,0,0.500048,0,107.510266)"/>
<path style=" stroke:none;fill-rule:nonzero;fill:rgb(20%,20%,20%);fill-opacity:1;" d="M 21.167969 23.167969 C 15.304688 23.167969 10.585938 27.890625 10.585938 33.753906 L 10.585938 44.335938 L 243.441406 44.335938 L 243.441406 33.753906 C 243.441406 27.890625 238.71875 23.167969 232.855469 23.167969 Z M 21.167969 23.167969 "/>
<path style=" stroke:none;fill-rule:nonzero;fill:rgb(100%,100%,100%);fill-opacity:0.196078;" d="M 21.167969 23.167969 C 15.304688 23.167969 10.585938 27.890625 10.585938 33.753906 L 10.585938 36.398438 C 10.585938 30.535156 15.304688 25.816406 21.167969 25.816406 L 232.855469 25.816406 C 238.71875 25.816406 243.441406 30.535156 243.441406 36.398438 L 243.441406 33.753906 C 243.441406 27.890625 238.71875 23.167969 232.855469 23.167969 Z M 21.167969 23.167969 "/>
<path style=" stroke:none;fill-rule:nonzero;fill:rgb(0%,0%,0%);fill-opacity:0.0784314;" d="M 232.855469 224.269531 C 238.71875 224.269531 243.441406 219.550781 243.441406 213.6875 L 243.441406 203.101562 C 243.441406 210.433594 238.71875 218.980469 232.855469 218.980469 L 21.167969 218.980469 C 15.304688 218.980469 10.585938 210.433594 10.585938 203.101562 L 10.585938 213.6875 C 10.585938 219.550781 15.304688 224.269531 21.167969 224.269531 Z M 232.855469 224.269531 "/>
<path style=" stroke:none;fill-rule:nonzero;fill:rgb(20%,20%,20%);fill-opacity:1;" d="M 31.753906 60.214844 L 42.335938 60.214844 L 42.335938 70.796875 L 31.753906 70.796875 Z M 31.753906 60.214844 "/>
<path style=" stroke:none;fill-rule:nonzero;fill:rgb(20%,20%,20%);fill-opacity:1;" d="M 31.753906 86.675781 L 42.335938 86.675781 L 42.335938 97.257812 L 31.753906 97.257812 Z M 31.753906 86.675781 "/>
<path style=" stroke:none;fill-rule:nonzero;fill:rgb(20%,20%,20%);fill-opacity:1;" d="M 206.394531 187.226562 L 216.980469 187.226562 L 216.980469 197.8125 L 206.394531 197.8125 Z M 206.394531 187.226562 "/>
<path style=" stroke:none;fill-rule:nonzero;fill:rgb(100%,100%,100%);fill-opacity:0.196078;" d="M 63.507812 -3.292969 C 57.640625 -3.292969 52.921875 1.429688 52.921875 7.292969 L 52.921875 17.875 C 52.921875 10.546875 57.640625 2 63.507812 2 L 275.191406 2 C 281.058594 2 285.777344 10.546875 285.777344 17.875 L 285.777344 7.292969 C 285.777344 1.429688 281.058594 -3.292969 275.191406 -3.292969 Z M 63.507812 -3.292969 "/>
</g>
</svg>
