<?xml version="1.0" encoding="UTF-8"?>
<svg xmlns="http://www.w3.org/2000/svg" xmlns:xlink="http://www.w3.org/1999/xlink" width="256pt" height="256pt" viewBox="0 0 256 256" version="1.1">
<defs>
<linearGradient id="linear0" gradientUnits="userSpaceOnUse" x1="254" y1="233.5" x2="254" y2="254.666672" gradientTransform="matrix(0.277073,0,0,0.500048,3.574537,12.25116)">
<stop offset="0" style="stop-color:rgb(0%,0%,0%);stop-opacity:0.27451;"/>
<stop offset="1" style="stop-color:rgb(0%,0%,0%);stop-opacity:0;"/>
</linearGradient>
<radialGradient id="radial0" gradientUnits="userSpaceOnUse" cx="456.200623" cy="186.933533" fx="456.200623" fy="186.933533" r="21.166656" gradientTransform="matrix(0.000000354071,0.750072,-0.500048,0.000000516606,220.487667,-218.463192)">
<stop offset="0" style="stop-color:rgb(0%,0%,0%);stop-opacity:0.313725;"/>
<stop offset="0.499999" style="stop-color:rgb(0%,0%,0%);stop-opacity:0.27451;"/>
<stop offset="1" style="stop-color:rgb(0%,0%,0%);stop-opacity:0;"/>
</radialGradient>
<radialGradient id="radial1" gradientUnits="userSpaceOnUse" cx="63.5" cy="212.333359" fx="63.5" fy="212.333359" r="21.166666" gradientTransform="matrix(-0.500048,0.000000222816,-0.000000148544,-0.750072,52.921752,282.985386)">
<stop offset="0" style="stop-color:rgb(0%,0%,0%);stop-opacity:0.313725;"/>
<stop offset="0.499999" style="stop-color:rgb(0%,0%,0%);stop-opacity:0.27451;"/>
<stop offset="1" style="stop-color:rgb(0%,0%,0%);stop-opacity:0;"/>
</radialGradient>
<linearGradient id="linear1" gradientUnits="userSpaceOnUse" x1="359.833344" y1="-105.16671" x2="359.833344" y2="-126.333382" gradientTransform="matrix(0.250024,0,0,0.500048,15.876524,86.341603)">
<stop offset="0" style="stop-color:rgb(0%,0%,0%);stop-opacity:0.196078;"/>
<stop offset="1" style="stop-color:rgb(0%,0%,0%);stop-opacity:0;"/>
</linearGradient>
<linearGradient id="linear2" gradientUnits="userSpaceOnUse" x1="254" y1="233.5" x2="254" y2="-105.166656" >
<stop offset="0" style="stop-color:rgb(71.764706%,73.333333%,77.647059%);stop-opacity:1;"/>
<stop offset="1" style="stop-color:rgb(80%,81.568627%,84.313725%);stop-opacity:1;"/>
</linearGradient>
<linearGradient id="linear3" gradientUnits="userSpaceOnUse" x1="365.125" y1="-105.166672" x2="365.125" y2="-136.916672" gradientTransform="matrix(1,0,0,1,-84.666672,10.583337)">
<stop offset="0" style="stop-color:rgb(32.54902%,33.333333%,36.470588%);stop-opacity:1;"/>
<stop offset="1" style="stop-color:rgb(36.470588%,37.647059%,40.784314%);stop-opacity:1;"/>
</linearGradient>
<linearGradient id="linear4" gradientUnits="userSpaceOnUse" x1="254" y1="233.5" x2="254" y2="254.666672" gradientTransform="matrix(0.277073,0,0,0.500048,109.417979,118.094597)">
<stop offset="0" style="stop-color:rgb(0%,0%,0%);stop-opacity:0.27451;"/>
<stop offset="1" style="stop-color:rgb(0%,0%,0%);stop-opacity:0;"/>
</linearGradient>
<radialGradient id="radial2" gradientUnits="userSpaceOnUse" cx="456.200623" cy="186.933533" fx="456.200623" fy="186.933533" r="21.166656" gradientTransform="matrix(0.000000354071,0.750072,-0.500048,0.000000516606,326.33111,-112.619755)">
<stop offset="0" style="stop-color:rgb(0%,0%,0%);stop-opacity:0.313725;"/>
<stop offset="0.499999" style="stop-color:rgb(0%,0%,0%);stop-opacity:0.27451;"/>
<stop offset="1" style="stop-color:rgb(0%,0%,0%);stop-opacity:0;"/>
</radialGradient>
<radialGradient id="radial3" gradientUnits="userSpaceOnUse" cx="63.5" cy="212.333359" fx="63.5" fy="212.333359" r="21.166666" gradientTransform="matrix(-0.500048,0.000000222816,-0.000000148544,-0.750072,158.765194,388.828822)">
<stop offset="0" style="stop-color:rgb(0%,0%,0%);stop-opacity:0.313725;"/>
<stop offset="0.499999" style="stop-color:rgb(0%,0%,0%);stop-opacity:0.27451;"/>
<stop offset="1" style="stop-color:rgb(0%,0%,0%);stop-opacity:0;"/>
</radialGradient>
<linearGradient id="linear5" gradientUnits="userSpaceOnUse" x1="359.833344" y1="-105.16671" x2="359.833344" y2="-126.333382" gradientTransform="matrix(0.250024,0,0,0.500048,121.719966,192.18504)">
<stop offset="0" style="stop-color:rgb(0%,0%,0%);stop-opacity:0.196078;"/>
<stop offset="1" style="stop-color:rgb(0%,0%,0%);stop-opacity:0;"/>
</linearGradient>
<linearGradient id="linear6" gradientUnits="userSpaceOnUse" x1="254" y1="233.5" x2="254" y2="-105.166656" >
<stop offset="0" style="stop-color:rgb(71.764706%,73.333333%,77.647059%);stop-opacity:1;"/>
<stop offset="1" style="stop-color:rgb(80%,81.568627%,84.313725%);stop-opacity:1;"/>
</linearGradient>
<linearGradient id="linear7" gradientUnits="userSpaceOnUse" x1="365.125" y1="-105.166672" x2="365.125" y2="-136.916672" gradientTransform="matrix(1,0,0,1,-84.666672,10.583337)">
<stop offset="0" style="stop-color:rgb(32.54902%,33.333333%,36.470588%);stop-opacity:1;"/>
<stop offset="1" style="stop-color:rgb(36.470588%,37.647059%,40.784314%);stop-opacity:1;"/>
</linearGradient>
</defs>
<g id="surface1">
<path style=" stroke:none;fill-rule:nonzero;fill:rgb(100%,100%,100%);fill-opacity:0.27451;" d="M 121.71875 39.046875 C 118.789062 39.046875 116.429688 41.40625 116.429688 44.335938 L 116.429688 46.984375 C 116.429688 44.050781 118.789062 41.691406 121.71875 41.691406 L 227.5625 41.691406 C 230.496094 41.691406 232.855469 44.050781 232.855469 46.984375 L 232.855469 44.335938 C 232.855469 41.40625 230.496094 39.046875 227.5625 39.046875 Z M 121.71875 39.046875 "/>
<path style=" stroke:none;fill-rule:nonzero;fill:url(#linear0);" d="M 21.167969 129.011719 L 126.734375 129.011719 L 126.734375 139.597656 L 21.167969 139.597656 Z M 21.167969 129.011719 "/>
<path style=" stroke:none;fill-rule:nonzero;fill:url(#radial0);" d="M 127.011719 123.71875 L 137.597656 123.71875 L 137.597656 139.597656 L 127.011719 139.597656 Z M 127.011719 123.71875 "/>
<path style=" stroke:none;fill-rule:nonzero;fill:url(#radial1);" d="M 10.585938 123.71875 L 21.167969 123.71875 L 21.167969 139.597656 L 10.585938 139.597656 Z M 10.585938 123.71875 "/>
<path style=" stroke:none;fill-rule:nonzero;fill:url(#linear1);" d="M 74.089844 23.167969 L 132.304688 23.167969 L 132.304688 33.753906 L 74.089844 33.753906 Z M 74.089844 23.167969 "/>
<path style="fill-rule:nonzero;fill:url(#linear2);stroke-width:2;stroke-linecap:butt;stroke-linejoin:miter;stroke:rgb(30.19608%,30.19608%,30.19608%);stroke-opacity:1;stroke-miterlimit:4;" d="M 31.746968 -105.165301 L 264.584108 -105.165301 C 270.4273 -105.165301 275.169035 -100.431379 275.169035 -94.580375 L 275.169035 74.747205 C 275.169035 80.598209 270.4273 85.332132 264.584108 85.332132 L 31.746968 85.332132 C 25.903776 85.332132 21.169853 80.598209 21.169853 74.747205 L 21.169853 -94.580375 C 21.169853 -100.431379 25.903776 -105.165301 31.746968 -105.165301 Z M 31.746968 -105.165301 " transform="matrix(0.500048,0,0,0.500048,0,86.341578)"/>
<path style=" stroke:none;fill-rule:nonzero;fill:rgb(100%,100%,100%);fill-opacity:0.196078;" d="M 15.875 33.753906 C 12.945312 33.753906 10.585938 36.113281 10.585938 39.046875 L 10.585938 41.691406 C 10.585938 38.757812 12.945312 36.398438 15.875 36.398438 L 132.304688 36.398438 C 135.234375 36.398438 137.597656 38.757812 137.597656 41.691406 L 137.597656 39.046875 C 137.597656 36.113281 135.234375 33.753906 132.304688 33.753906 Z M 15.875 33.753906 "/>
<path style=" stroke:none;fill-rule:nonzero;fill:rgb(0%,0%,0%);fill-opacity:0.196078;" d="M 15.875 129.011719 C 12.945312 129.011719 10.585938 126.652344 10.585938 123.71875 L 10.585938 121.074219 C 10.585938 124.007812 12.945312 126.367188 15.875 126.367188 L 132.304688 126.367188 C 135.234375 126.367188 137.597656 124.007812 137.597656 121.074219 L 137.597656 123.71875 C 137.597656 126.652344 135.234375 129.011719 132.304688 129.011719 Z M 15.875 129.011719 "/>
<path style="fill-rule:nonzero;fill:url(#linear3);stroke-width:0.264583;stroke-linecap:butt;stroke-linejoin:miter;stroke:rgb(74.509805%,78.431374%,71.764708%);stroke-opacity:1;stroke-miterlimit:4;" d="M 158.750465 -126.335155 C 152.883838 -126.335155 148.165538 -121.616855 148.165538 -115.750228 L 148.165538 -105.165301 L 264.584108 -105.165301 L 264.584108 -115.750228 C 264.584108 -121.616855 259.865809 -126.335155 253.999182 -126.335155 Z M 158.750465 -126.335155 " transform="matrix(0.500048,0,0,0.500048,0,86.341578)"/>
<path style=" stroke:none;fill-rule:nonzero;fill:rgb(20%,20%,20%);fill-opacity:1;" d="M 74.089844 110.488281 C 76.28125 110.488281 78.058594 112.265625 78.058594 114.457031 C 78.058594 116.652344 76.28125 118.429688 74.089844 118.429688 C 71.898438 118.429688 70.121094 116.652344 70.121094 114.457031 C 70.121094 112.265625 71.898438 110.488281 74.089844 110.488281 Z M 74.089844 110.488281 "/>
<path style=" stroke:none;fill-rule:nonzero;fill:rgb(100%,100%,100%);fill-opacity:0.196078;" d="M 79.382812 23.167969 C 76.449219 23.167969 74.089844 25.527344 74.089844 28.460938 L 74.089844 31.105469 C 74.089844 28.175781 76.449219 25.816406 79.382812 25.816406 L 127.011719 25.816406 C 129.945312 25.816406 132.304688 28.175781 132.304688 31.105469 L 132.304688 28.460938 C 132.304688 25.527344 129.945312 23.167969 127.011719 23.167969 Z M 79.382812 23.167969 "/>
<path style=" stroke:none;fill-rule:nonzero;fill:rgb(20%,20%,20%);fill-opacity:1;" d="M 89.96875 110.488281 C 92.160156 110.488281 93.9375 112.265625 93.9375 114.457031 C 93.9375 116.652344 92.160156 118.429688 89.96875 118.429688 C 87.773438 118.429688 85.996094 116.652344 85.996094 114.457031 C 85.996094 112.265625 87.773438 110.488281 89.96875 110.488281 Z M 89.96875 110.488281 "/>
<path style=" stroke:none;fill-rule:nonzero;fill:rgb(20%,20%,20%);fill-opacity:1;" d="M 58.214844 110.488281 C 60.40625 110.488281 62.183594 112.265625 62.183594 114.457031 C 62.183594 116.652344 60.40625 118.429688 58.214844 118.429688 C 56.023438 118.429688 54.246094 116.652344 54.246094 114.457031 C 54.246094 112.265625 56.023438 110.488281 58.214844 110.488281 Z M 58.214844 110.488281 "/>
<path style=" stroke:none;fill-rule:nonzero;fill:url(#linear4);" d="M 127.011719 234.855469 L 232.578125 234.855469 L 232.578125 245.441406 L 127.011719 245.441406 Z M 127.011719 234.855469 "/>
<path style=" stroke:none;fill-rule:nonzero;fill:url(#radial2);" d="M 232.855469 229.5625 L 243.441406 229.5625 L 243.441406 245.441406 L 232.855469 245.441406 Z M 232.855469 229.5625 "/>
<path style=" stroke:none;fill-rule:nonzero;fill:url(#radial3);" d="M 116.429688 229.5625 L 127.011719 229.5625 L 127.011719 245.441406 L 116.429688 245.441406 Z M 116.429688 229.5625 "/>
<path style=" stroke:none;fill-rule:nonzero;fill:url(#linear5);" d="M 179.933594 129.011719 L 238.148438 129.011719 L 238.148438 139.597656 L 179.933594 139.597656 Z M 179.933594 129.011719 "/>
<path style="fill-rule:nonzero;fill:url(#linear6);stroke-width:2;stroke-linecap:butt;stroke-linejoin:miter;stroke:rgb(30.19608%,30.19608%,30.19608%);stroke-opacity:1;stroke-miterlimit:4;" d="M 31.747583 -105.164675 L 264.584724 -105.164675 C 270.427916 -105.164675 275.16965 -100.430752 275.16965 -94.579748 L 275.16965 74.747832 C 275.16965 80.598835 270.427916 85.332758 264.584724 85.332758 L 31.747583 85.332758 C 25.904391 85.332758 21.170468 80.598835 21.170468 74.747832 L 21.170468 -94.579748 C 21.170468 -100.430752 25.904391 -105.164675 31.747583 -105.164675 Z M 31.747583 -105.164675 " transform="matrix(0.500048,0,0,0.500048,105.843442,192.185015)"/>
<path style=" stroke:none;fill-rule:nonzero;fill:rgb(100%,100%,100%);fill-opacity:0.196078;" d="M 121.71875 139.597656 C 118.789062 139.597656 116.429688 141.957031 116.429688 144.890625 L 116.429688 147.535156 C 116.429688 144.601562 118.789062 142.242188 121.71875 142.242188 L 238.148438 142.242188 C 241.078125 142.242188 243.441406 144.601562 243.441406 147.535156 L 243.441406 144.890625 C 243.441406 141.957031 241.078125 139.597656 238.148438 139.597656 Z M 121.71875 139.597656 "/>
<path style=" stroke:none;fill-rule:nonzero;fill:rgb(0%,0%,0%);fill-opacity:0.196078;" d="M 121.71875 234.855469 C 118.789062 234.855469 116.429688 232.496094 116.429688 229.5625 L 116.429688 226.917969 C 116.429688 229.851562 118.789062 232.210938 121.71875 232.210938 L 238.148438 232.210938 C 241.078125 232.210938 243.441406 229.851562 243.441406 226.917969 L 243.441406 229.5625 C 243.441406 232.496094 241.078125 234.855469 238.148438 234.855469 Z M 121.71875 234.855469 "/>
<path style="fill-rule:nonzero;fill:url(#linear7);stroke-width:0.264583;stroke-linecap:butt;stroke-linejoin:miter;stroke:rgb(74.509805%,78.431374%,71.764708%);stroke-opacity:1;stroke-miterlimit:4;" d="M 158.75108 -126.334528 C 152.884453 -126.334528 148.166153 -121.616229 148.166153 -115.749602 L 148.166153 -105.164675 L 264.584724 -105.164675 L 264.584724 -115.749602 C 264.584724 -121.616229 259.866424 -126.334528 253.999797 -126.334528 Z M 158.75108 -126.334528 " transform="matrix(0.500048,0,0,0.500048,105.843442,192.185015)"/>
<path style=" stroke:none;fill-rule:nonzero;fill:rgb(20%,20%,20%);fill-opacity:1;" d="M 179.933594 216.332031 C 182.125 216.332031 183.902344 218.109375 183.902344 220.300781 C 183.902344 222.496094 182.125 224.269531 179.933594 224.269531 C 177.742188 224.269531 175.964844 222.496094 175.964844 220.300781 C 175.964844 218.109375 177.742188 216.332031 179.933594 216.332031 Z M 179.933594 216.332031 "/>
<path style=" stroke:none;fill-rule:nonzero;fill:rgb(100%,100%,100%);fill-opacity:0.196078;" d="M 185.226562 129.011719 C 182.292969 129.011719 179.933594 131.371094 179.933594 134.304688 L 179.933594 136.949219 C 179.933594 134.019531 182.292969 131.660156 185.226562 131.660156 L 232.855469 131.660156 C 235.789062 131.660156 238.148438 134.019531 238.148438 136.949219 L 238.148438 134.304688 C 238.148438 131.371094 235.789062 129.011719 232.855469 129.011719 Z M 185.226562 129.011719 "/>
<path style=" stroke:none;fill-rule:nonzero;fill:rgb(20%,20%,20%);fill-opacity:1;" d="M 195.808594 216.332031 C 198.003906 216.332031 199.78125 218.109375 199.78125 220.300781 C 199.78125 222.496094 198.003906 224.269531 195.808594 224.269531 C 193.617188 224.269531 191.839844 222.496094 191.839844 220.300781 C 191.839844 218.109375 193.617188 216.332031 195.808594 216.332031 Z M 195.808594 216.332031 "/>
<path style=" stroke:none;fill-rule:nonzero;fill:rgb(20%,20%,20%);fill-opacity:1;" d="M 164.058594 216.332031 C 166.25 216.332031 168.027344 218.109375 168.027344 220.300781 C 168.027344 222.496094 166.25 224.269531 164.058594 224.269531 C 161.867188 224.269531 160.089844 222.496094 160.089844 220.300781 C 160.089844 218.109375 161.867188 216.332031 164.058594 216.332031 Z M 164.058594 216.332031 "/>
</g>
</svg>
