<?xml version="1.0" encoding="UTF-8"?>
<svg xmlns="http://www.w3.org/2000/svg" xmlns:xlink="http://www.w3.org/1999/xlink" width="256pt" height="256pt" viewBox="0 0 256 256" version="1.1">
<defs>
<linearGradient id="linear0" gradientUnits="userSpaceOnUse" x1="254" y1="233.5" x2="254" y2="254.666672" gradientTransform="matrix(0.500048,0,0,0.500048,0,107.510266)">
<stop offset="0" style="stop-color:rgb(0%,0%,0%);stop-opacity:0.27451;"/>
<stop offset="1" style="stop-color:rgb(0%,0%,0%);stop-opacity:0;"/>
</linearGradient>
<radialGradient id="radial0" gradientUnits="userSpaceOnUse" cx="456.200623" cy="186.933533" fx="456.200623" fy="186.933533" r="21.166656" gradientTransform="matrix(0.000000708142,1.000096,-1.000096,0.000000688808,409.222333,-242.557402)">
<stop offset="0" style="stop-color:rgb(0%,0%,0%);stop-opacity:0.313725;"/>
<stop offset="0.499999" style="stop-color:rgb(0%,0%,0%);stop-opacity:0.27451;"/>
<stop offset="1" style="stop-color:rgb(0%,0%,0%);stop-opacity:0;"/>
</radialGradient>
<radialGradient id="radial1" gradientUnits="userSpaceOnUse" cx="63.5" cy="212.333359" fx="63.5" fy="212.333359" r="21.166666" gradientTransform="matrix(-1.000095,0.000000297088,-0.000000297088,-1.000096,95.259165,426.040742)">
<stop offset="0" style="stop-color:rgb(0%,0%,0%);stop-opacity:0.313725;"/>
<stop offset="0.499999" style="stop-color:rgb(0%,0%,0%);stop-opacity:0.27451;"/>
<stop offset="1" style="stop-color:rgb(0%,0%,0%);stop-opacity:0;"/>
</radialGradient>
<linearGradient id="linear1" gradientUnits="userSpaceOnUse" x1="359.833313" y1="-94.583336" x2="359.833344" y2="-115.75" gradientTransform="matrix(0.500048,0,0,0.500048,-0.0000068899,102.218117)">
<stop offset="0" style="stop-color:rgb(0%,0%,0%);stop-opacity:0.196078;"/>
<stop offset="1" style="stop-color:rgb(0%,0%,0%);stop-opacity:0;"/>
</linearGradient>
<linearGradient id="linear2" gradientUnits="userSpaceOnUse" x1="254" y1="233.5" x2="254" y2="-105.166656" >
<stop offset="0" style="stop-color:rgb(71.764706%,73.333333%,77.647059%);stop-opacity:1;"/>
<stop offset="1" style="stop-color:rgb(80%,81.568627%,84.313725%);stop-opacity:1;"/>
</linearGradient>
<linearGradient id="linear3" gradientUnits="userSpaceOnUse" x1="365.125" y1="-105.166672" x2="365.125" y2="-136.916672" >
<stop offset="0" style="stop-color:rgb(32.54902%,33.333333%,36.470588%);stop-opacity:1;"/>
<stop offset="1" style="stop-color:rgb(36.470588%,37.647059%,40.784314%);stop-opacity:1;"/>
</linearGradient>
</defs>
<g id="surface1">
<path style=" stroke:none;fill-rule:nonzero;fill:url(#linear0);" d="M 31.753906 224.269531 L 222.269531 224.269531 L 222.269531 234.855469 L 31.753906 234.855469 Z M 31.753906 224.269531 "/>
<path style=" stroke:none;fill-rule:nonzero;fill:url(#radial0);" d="M 222.269531 213.6875 L 243.441406 213.6875 L 243.441406 234.855469 L 222.269531 234.855469 Z M 222.269531 213.6875 "/>
<path style=" stroke:none;fill-rule:nonzero;fill:url(#radial1);" d="M 10.585938 213.6875 L 31.753906 213.6875 L 31.753906 234.855469 L 10.585938 234.855469 Z M 10.585938 213.6875 "/>
<path style=" stroke:none;fill-rule:nonzero;fill:url(#linear1);" d="M 116.429688 44.335938 L 232.855469 44.335938 L 232.855469 54.921875 L 116.429688 54.921875 Z M 116.429688 44.335938 "/>
<path style="fill-rule:nonzero;fill:url(#linear2);stroke-width:2;stroke-linecap:butt;stroke-linejoin:miter;stroke:rgb(30.19608%,30.19608%,30.19608%);stroke-opacity:1;stroke-miterlimit:4;" d="M 31.746968 -105.166739 L 476.251395 -105.166739 C 482.094587 -105.166739 486.836322 -100.425004 486.836322 -94.581812 L 486.836322 222.919118 C 486.836322 228.76231 482.094587 233.496233 476.251395 233.496233 L 31.746968 233.496233 C 25.903776 233.496233 21.169853 228.76231 21.169853 222.919118 L 21.169853 -94.581812 C 21.169853 -100.425004 25.903776 -105.166739 31.746968 -105.166739 Z M 31.746968 -105.166739 " transform="matrix(0.500048,0,0,0.500048,0,107.510266)"/>
<path style=" stroke:none;fill-rule:nonzero;fill:rgb(100%,100%,100%);fill-opacity:0.196078;" d="M 15.875 54.921875 C 12.945312 54.921875 10.585938 57.28125 10.585938 60.214844 L 10.585938 62.859375 C 10.585938 59.929688 12.945312 57.566406 15.875 57.566406 L 238.148438 57.566406 C 241.078125 57.566406 243.441406 59.929688 243.441406 62.859375 L 243.441406 60.214844 C 243.441406 57.28125 241.078125 54.921875 238.148438 54.921875 Z M 15.875 54.921875 "/>
<path style=" stroke:none;fill-rule:nonzero;fill:rgb(0%,0%,0%);fill-opacity:0.196078;" d="M 15.875 224.269531 C 12.945312 224.269531 10.585938 221.910156 10.585938 218.980469 L 10.585938 216.332031 C 10.585938 219.265625 12.945312 221.625 15.875 221.625 L 238.148438 221.625 C 241.078125 221.625 243.441406 219.265625 243.441406 216.332031 L 243.441406 218.980469 C 243.441406 221.910156 241.078125 224.269531 238.148438 224.269531 Z M 15.875 224.269531 "/>
<path style=" stroke:none;fill-rule:nonzero;fill:rgb(100%,100%,100%);fill-opacity:0.27451;" d="M 121.71875 39.046875 C 118.789062 39.046875 116.429688 41.40625 116.429688 44.335938 L 116.429688 46.984375 C 116.429688 44.050781 118.789062 41.691406 121.71875 41.691406 L 227.5625 41.691406 C 230.496094 41.691406 232.855469 44.050781 232.855469 46.984375 L 232.855469 44.335938 C 232.855469 41.40625 230.496094 39.046875 227.5625 39.046875 Z M 121.71875 39.046875 "/>
<path style="fill-rule:nonzero;fill:url(#linear3);stroke-width:0.264583;stroke-linecap:butt;stroke-linejoin:miter;stroke:rgb(74.509805%,78.431374%,71.764708%);stroke-opacity:1;stroke-miterlimit:4;" d="M 243.414255 -136.913707 C 237.55544 -136.913707 232.83714 -132.195407 232.83714 -126.336592 L 232.83714 -105.166739 L 465.666469 -105.166739 L 465.666469 -126.336592 C 465.666469 -132.195407 460.948169 -136.913707 455.081542 -136.913707 Z M 243.414255 -136.913707 " transform="matrix(0.500048,0,0,0.500048,0,107.510266)"/>
<path style=" stroke:none;fill-rule:nonzero;fill:rgb(20%,20%,20%);fill-opacity:1;" d="M 127.011719 197.8125 C 129.933594 197.8125 132.304688 200.179688 132.304688 203.101562 C 132.304688 206.027344 129.933594 208.394531 127.011719 208.394531 C 124.089844 208.394531 121.71875 206.027344 121.71875 203.101562 C 121.71875 200.179688 124.089844 197.8125 127.011719 197.8125 Z M 127.011719 197.8125 "/>
<path style=" stroke:none;fill-rule:nonzero;fill:rgb(20%,20%,20%);fill-opacity:1;" d="M 148.179688 197.8125 C 151.105469 197.8125 153.472656 200.179688 153.472656 203.101562 C 153.472656 206.027344 151.105469 208.394531 148.179688 208.394531 C 145.257812 208.394531 142.886719 206.027344 142.886719 203.101562 C 142.886719 200.179688 145.257812 197.8125 148.179688 197.8125 Z M 148.179688 197.8125 "/>
<path style=" stroke:none;fill-rule:nonzero;fill:rgb(20%,20%,20%);fill-opacity:1;" d="M 105.84375 197.8125 C 108.765625 197.8125 111.136719 200.179688 111.136719 203.101562 C 111.136719 206.027344 108.765625 208.394531 105.84375 208.394531 C 102.921875 208.394531 100.550781 206.027344 100.550781 203.101562 C 100.550781 200.179688 102.921875 197.8125 105.84375 197.8125 Z M 105.84375 197.8125 "/>
<path style=" stroke:none;fill-rule:nonzero;fill:rgb(57.647061%,67.450982%,61.56863%);fill-opacity:1;" d="M 148.179688 209.71875 C 145.25 209.71875 142.886719 207.359375 142.886719 204.425781 C 142.886719 204.203125 142.902344 203.980469 142.929688 203.765625 C 143.253906 206.382812 145.472656 208.394531 148.179688 208.394531 C 150.886719 208.394531 153.105469 206.382812 153.429688 203.765625 C 153.457031 203.980469 153.472656 204.203125 153.472656 204.425781 C 153.472656 207.359375 151.113281 209.71875 148.179688 209.71875 Z M 148.179688 209.71875 "/>
<path style=" stroke:none;fill-rule:nonzero;fill:rgb(100%,100%,100%);fill-opacity:0.196078;" d="M 148.179688 209.71875 C 145.25 209.71875 142.886719 207.359375 142.886719 204.425781 C 142.886719 204.203125 142.902344 203.980469 142.929688 203.765625 C 143.253906 206.382812 145.472656 208.394531 148.179688 208.394531 C 150.886719 208.394531 153.105469 206.382812 153.429688 203.765625 C 153.457031 203.980469 153.472656 204.203125 153.472656 204.425781 C 153.472656 207.359375 151.113281 209.71875 148.179688 209.71875 Z M 148.179688 209.71875 "/>
<path style=" stroke:none;fill-rule:nonzero;fill:rgb(100%,100%,100%);fill-opacity:0.196078;" d="M 127.054688 209.71875 C 124.121094 209.71875 121.761719 207.359375 121.761719 204.425781 C 121.761719 204.203125 121.777344 203.980469 121.804688 203.765625 C 122.128906 206.382812 124.347656 208.394531 127.054688 208.394531 C 129.761719 208.394531 131.980469 206.382812 132.304688 203.765625 C 132.332031 203.980469 132.347656 204.203125 132.347656 204.425781 C 132.347656 207.359375 129.984375 209.71875 127.054688 209.71875 Z M 127.054688 209.71875 "/>
<path style=" stroke:none;fill-rule:nonzero;fill:rgb(100%,100%,100%);fill-opacity:0.196078;" d="M 105.84375 209.71875 C 102.910156 209.71875 100.550781 207.359375 100.550781 204.425781 C 100.550781 204.203125 100.566406 203.980469 100.59375 203.765625 C 100.917969 206.382812 103.136719 208.394531 105.84375 208.394531 C 108.550781 208.394531 110.769531 206.382812 111.09375 203.765625 C 111.121094 203.980469 111.136719 204.203125 111.136719 204.425781 C 111.136719 207.359375 108.773438 209.71875 105.84375 209.71875 Z M 105.84375 209.71875 "/>
<path style=" stroke:none;fill-rule:nonzero;fill:rgb(0%,0%,0%);fill-opacity:0.196078;" d="M 105.84375 197.8125 C 108.773438 197.8125 111.136719 200.171875 111.136719 203.101562 C 111.136719 203.328125 111.121094 203.546875 111.09375 203.765625 C 110.769531 201.148438 108.550781 199.132812 105.84375 199.132812 C 103.136719 199.132812 100.917969 201.148438 100.59375 203.765625 C 100.566406 203.546875 100.550781 203.328125 100.550781 203.101562 C 100.550781 200.171875 102.910156 197.8125 105.84375 197.8125 Z M 105.84375 197.8125 "/>
<path style=" stroke:none;fill-rule:nonzero;fill:rgb(0%,0%,0%);fill-opacity:0.196078;" d="M 126.96875 197.8125 C 129.902344 197.8125 132.261719 200.171875 132.261719 203.101562 C 132.261719 203.328125 132.246094 203.546875 132.21875 203.765625 C 131.894531 201.148438 129.675781 199.132812 126.96875 199.132812 C 124.261719 199.132812 122.042969 201.148438 121.71875 203.765625 C 121.691406 203.546875 121.679688 203.328125 121.679688 203.101562 C 121.679688 200.171875 124.039062 197.8125 126.96875 197.8125 Z M 126.96875 197.8125 "/>
<path style=" stroke:none;fill-rule:nonzero;fill:rgb(0%,0%,0%);fill-opacity:0.196078;" d="M 148.179688 197.8125 C 151.113281 197.8125 153.472656 200.171875 153.472656 203.101562 C 153.472656 203.328125 153.457031 203.546875 153.429688 203.765625 C 153.105469 201.148438 150.886719 199.132812 148.179688 199.132812 C 145.472656 199.132812 143.253906 201.148438 142.929688 203.765625 C 142.902344 203.546875 142.886719 203.328125 142.886719 203.101562 C 142.886719 200.171875 145.25 197.8125 148.179688 197.8125 Z M 148.179688 197.8125 "/>
<path style=" stroke:none;fill-rule:nonzero;fill:rgb(100%,100%,100%);fill-opacity:0.196078;" d="M 121.71875 39.046875 C 118.789062 39.046875 116.429688 41.40625 116.429688 44.335938 L 116.429688 46.984375 C 116.429688 44.050781 118.789062 41.691406 121.71875 41.691406 L 227.5625 41.691406 C 230.496094 41.691406 232.855469 44.050781 232.855469 46.984375 L 232.855469 44.335938 C 232.855469 41.40625 230.496094 39.046875 227.5625 39.046875 Z M 121.71875 39.046875 "/>
<path style=" stroke:none;fill-rule:nonzero;fill:rgb(32.549021%,33.333334%,36.470589%);fill-opacity:1;" d="M 109.8125 144.890625 C 114.925781 144.890625 119.074219 149.035156 119.074219 154.148438 C 119.074219 159.265625 114.925781 163.410156 109.8125 163.410156 C 104.699219 163.410156 100.550781 159.265625 100.550781 154.148438 C 100.550781 149.035156 104.699219 144.890625 109.8125 144.890625 Z M 109.8125 144.890625 "/>
<path style=" stroke:none;fill-rule:nonzero;fill:rgb(32.549021%,33.333334%,36.470589%);fill-opacity:1;" d="M 144.210938 123.71875 C 155.171875 123.71875 164.058594 132.605469 164.058594 143.566406 C 164.058594 154.527344 155.171875 163.410156 144.210938 163.410156 C 133.25 163.410156 124.367188 154.527344 124.367188 143.566406 C 124.367188 132.605469 133.25 123.71875 144.210938 123.71875 Z M 144.210938 123.71875 "/>
<path style=" stroke:none;fill-rule:nonzero;fill:rgb(32.549021%,33.333334%,36.470589%);fill-opacity:1;" d="M 124.367188 131.660156 C 133.132812 131.660156 140.242188 138.765625 140.242188 147.535156 C 140.242188 156.304688 133.132812 163.410156 124.367188 163.410156 C 115.597656 163.410156 108.488281 156.304688 108.488281 147.535156 C 108.488281 138.765625 115.597656 131.660156 124.367188 131.660156 Z M 124.367188 131.660156 "/>
<path style=" stroke:none;fill-rule:nonzero;fill:rgb(32.549021%,33.333334%,36.470589%);fill-opacity:1;" d="M 108.488281 152.828125 L 157.441406 152.828125 L 157.441406 163.410156 L 108.488281 163.410156 Z M 108.488281 152.828125 "/>
<path style=" stroke:none;fill-rule:nonzero;fill:rgb(32.549021%,33.333334%,36.470589%);fill-opacity:1;" d="M 89.96875 113.136719 C 92.890625 113.136719 95.257812 115.503906 95.257812 118.429688 C 95.257812 121.351562 92.890625 123.71875 89.96875 123.71875 C 87.042969 123.71875 84.675781 121.351562 84.675781 118.429688 C 84.675781 115.503906 87.042969 113.136719 89.96875 113.136719 Z M 89.96875 113.136719 "/>
<path style=" stroke:none;fill-rule:nonzero;fill:rgb(32.549021%,33.333334%,36.470589%);fill-opacity:1;" d="M 99.226562 105.199219 C 104.34375 105.199219 108.488281 109.34375 108.488281 114.457031 C 108.488281 119.574219 104.34375 123.71875 99.226562 123.71875 C 94.113281 123.71875 89.96875 119.574219 89.96875 114.457031 C 89.96875 109.34375 94.113281 105.199219 99.226562 105.199219 Z M 99.226562 105.199219 "/>
<path style=" stroke:none;fill-rule:nonzero;fill:rgb(32.549021%,33.333334%,36.470589%);fill-opacity:1;" d="M 110.472656 97.257812 C 117.414062 97.257812 123.042969 103.183594 123.042969 110.488281 C 123.042969 117.796875 117.414062 123.71875 110.472656 123.71875 C 103.53125 123.71875 97.90625 117.796875 97.90625 110.488281 C 97.90625 103.183594 103.53125 97.257812 110.472656 97.257812 Z M 110.472656 97.257812 "/>
<path style=" stroke:none;fill-rule:nonzero;fill:rgb(32.549021%,33.333334%,36.470589%);fill-opacity:1;" d="M 89.96875 115.78125 L 119.074219 115.78125 L 119.074219 123.71875 L 89.96875 123.71875 Z M 89.96875 115.78125 "/>
<path style=" stroke:none;fill-rule:nonzero;fill:rgb(32.549021%,33.333334%,36.470589%);fill-opacity:1;" d="M 119.074219 106.519531 C 124.1875 106.519531 128.335938 110.371094 128.335938 115.121094 C 128.335938 119.871094 124.1875 123.71875 119.074219 123.71875 C 113.960938 123.71875 109.8125 119.871094 109.8125 115.121094 C 109.8125 110.371094 113.960938 106.519531 119.074219 106.519531 Z M 119.074219 106.519531 "/>
<path style=" stroke:none;fill-rule:nonzero;fill:rgb(32.549021%,33.333334%,36.470589%);fill-opacity:1;" d="M 156.886719 139.597656 C 163.890625 139.597656 169.566406 144.929688 169.566406 151.503906 C 169.566406 158.082031 163.890625 163.410156 156.886719 163.410156 C 149.886719 163.410156 144.210938 158.082031 144.210938 151.503906 C 144.210938 144.929688 149.886719 139.597656 156.886719 139.597656 Z M 156.886719 139.597656 "/>
</g>
</svg>
