<?xml version="1.0" encoding="UTF-8"?>
<svg xmlns="http://www.w3.org/2000/svg" xmlns:xlink="http://www.w3.org/1999/xlink" width="256pt" height="256pt" viewBox="0 0 256 256" version="1.1">
<defs>
<linearGradient id="linear0" gradientUnits="userSpaceOnUse" x1="254" y1="233.5" x2="254" y2="254.666672" gradientTransform="matrix(0.500048,0,0,0.500048,0,107.510258)">
<stop offset="0" style="stop-color:rgb(0%,0%,0%);stop-opacity:0.27451;"/>
<stop offset="1" style="stop-color:rgb(0%,0%,0%);stop-opacity:0;"/>
</linearGradient>
<radialGradient id="radial0" gradientUnits="userSpaceOnUse" cx="456.200623" cy="186.933533" fx="456.200623" fy="186.933533" r="21.166656" gradientTransform="matrix(0.000000708142,1.000096,-1.000096,0.000000688808,409.222333,-242.557409)">
<stop offset="0" style="stop-color:rgb(0%,0%,0%);stop-opacity:0.313725;"/>
<stop offset="0.499999" style="stop-color:rgb(0%,0%,0%);stop-opacity:0.27451;"/>
<stop offset="1" style="stop-color:rgb(0%,0%,0%);stop-opacity:0;"/>
</radialGradient>
<radialGradient id="radial1" gradientUnits="userSpaceOnUse" cx="63.5" cy="212.333359" fx="63.5" fy="212.333359" r="21.166666" gradientTransform="matrix(-1.000095,0.000000297088,-0.000000297088,-1.000096,95.259165,426.040734)">
<stop offset="0" style="stop-color:rgb(0%,0%,0%);stop-opacity:0.313725;"/>
<stop offset="0.499999" style="stop-color:rgb(0%,0%,0%);stop-opacity:0.27451;"/>
<stop offset="1" style="stop-color:rgb(0%,0%,0%);stop-opacity:0;"/>
</radialGradient>
<linearGradient id="linear1" gradientUnits="userSpaceOnUse" x1="254" y1="233.5" x2="254" y2="254.666672" gradientTransform="matrix(0.500048,0,0,0.500048,0,86.341573)">
<stop offset="0" style="stop-color:rgb(0%,0%,0%);stop-opacity:0.196078;"/>
<stop offset="1" style="stop-color:rgb(0%,0%,0%);stop-opacity:0;"/>
</linearGradient>
<radialGradient id="radial2" gradientUnits="userSpaceOnUse" cx="63.5" cy="212.333359" fx="63.5" fy="212.333359" r="21.166666" gradientTransform="matrix(-1.000095,0.000000297088,-0.000000297088,-1.000096,95.259165,404.872034)">
<stop offset="0" style="stop-color:rgb(0%,0%,0%);stop-opacity:0.313725;"/>
<stop offset="0.499999" style="stop-color:rgb(0%,0%,0%);stop-opacity:0.196078;"/>
<stop offset="1" style="stop-color:rgb(0%,0%,0%);stop-opacity:0;"/>
</radialGradient>
<linearGradient id="linear2" gradientUnits="userSpaceOnUse" x1="254" y1="233.5" x2="254" y2="-105.166656" gradientTransform="matrix(1,0,0,1,-0.0000138509,-63.50013)">
<stop offset="0" style="stop-color:rgb(71.764706%,73.333333%,77.647059%);stop-opacity:1;"/>
<stop offset="1" style="stop-color:rgb(80%,81.568627%,84.313725%);stop-opacity:1;"/>
</linearGradient>
</defs>
<g id="surface1">
<path style=" stroke:none;fill-rule:nonzero;fill:url(#linear0);" d="M 31.753906 224.269531 L 222.269531 224.269531 L 222.269531 234.855469 L 31.753906 234.855469 Z M 31.753906 224.269531 "/>
<path style=" stroke:none;fill-rule:nonzero;fill:url(#radial0);" d="M 222.269531 213.6875 L 243.441406 213.6875 L 243.441406 234.855469 L 222.269531 234.855469 Z M 222.269531 213.6875 "/>
<path style=" stroke:none;fill-rule:nonzero;fill:url(#radial1);" d="M 10.585938 213.6875 L 31.753906 213.6875 L 31.753906 234.855469 L 10.585938 234.855469 Z M 10.585938 213.6875 "/>
<path style=" stroke:none;fill-rule:nonzero;fill:url(#linear1);" d="M 31.753906 203.101562 L 222.269531 203.101562 L 222.269531 213.6875 L 31.753906 213.6875 Z M 31.753906 203.101562 "/>
<path style=" stroke:none;fill-rule:nonzero;fill:url(#radial2);" d="M 10.585938 192.519531 L 31.753906 192.519531 L 31.753906 213.6875 L 10.585938 213.6875 Z M 10.585938 192.519531 "/>
<path style="fill-rule:nonzero;fill:url(#linear2);stroke-width:2;stroke-linecap:butt;stroke-linejoin:miter;stroke:rgb(30.19608%,30.19608%,30.19608%);stroke-opacity:1;stroke-miterlimit:4;" d="M 42.331895 -168.668487 L 465.666469 -168.668487 C 477.352853 -168.668487 486.836322 -159.192829 486.836322 -147.498634 L 486.836322 212.334192 C 486.836322 224.020576 477.352853 233.496233 465.666469 233.496233 L 42.331895 233.496233 C 30.645511 233.496233 21.169853 224.020576 21.169853 212.334192 L 21.169853 -147.498634 C 21.169853 -159.192829 30.645511 -168.668487 42.331895 -168.668487 Z M 42.331895 -168.668487 " transform="matrix(0.500048,0,0,0.500048,0,107.510266)"/>
<path style=" stroke:none;fill-rule:nonzero;fill:rgb(100%,100%,100%);fill-opacity:0.196078;" d="M 21.167969 23.167969 C 15.304688 23.167969 10.585938 27.890625 10.585938 33.753906 L 10.585938 36.398438 C 10.585938 30.535156 15.304688 25.816406 21.167969 25.816406 L 232.855469 25.816406 C 238.71875 25.816406 243.441406 30.535156 243.441406 36.398438 L 243.441406 33.753906 C 243.441406 27.890625 238.71875 23.167969 232.855469 23.167969 Z M 21.167969 23.167969 "/>
<path style=" stroke:none;fill-rule:nonzero;fill:rgb(0%,0%,0%);fill-opacity:0.0784314;" d="M 232.855469 224.269531 C 238.71875 224.269531 243.441406 219.550781 243.441406 213.6875 L 243.441406 203.101562 C 243.441406 210.433594 238.71875 218.980469 232.855469 218.980469 L 21.167969 218.980469 C 15.304688 218.980469 10.585938 210.433594 10.585938 203.101562 L 10.585938 213.6875 C 10.585938 219.550781 15.304688 224.269531 21.167969 224.269531 Z M 232.855469 224.269531 "/>
<path style=" stroke:none;fill-rule:nonzero;fill:rgb(100%,100%,100%);fill-opacity:0.196078;" d="M 63.507812 -3.292969 C 57.640625 -3.292969 52.921875 1.429688 52.921875 7.292969 L 52.921875 17.875 C 52.921875 10.546875 57.640625 2 63.507812 2 L 275.191406 2 C 281.058594 2 285.777344 10.546875 285.777344 17.875 L 285.777344 7.292969 C 285.777344 1.429688 281.058594 -3.292969 275.191406 -3.292969 Z M 63.507812 -3.292969 "/>
<path style=" stroke:none;fill-rule:nonzero;fill:rgb(32.549021%,33.333334%,36.470589%);fill-opacity:1;" d="M 89.96875 120.140625 C 89.96875 137.234375 101.035156 151.648438 116.429688 156.636719 L 116.429688 145.585938 C 107.027344 141.089844 100.550781 131.410156 100.550781 120.140625 C 100.550781 104.554688 112.933594 92.007812 128.316406 92.007812 C 143.699219 92.007812 156.085938 104.554688 156.085938 120.140625 C 156.085938 129.125 151.96875 137.097656 145.535156 142.242188 L 145.535156 154.46875 C 158.109375 148.183594 166.703125 135.203125 166.703125 120.140625 C 166.703125 98.882812 149.589844 81.769531 128.335938 81.769531 C 107.078125 81.769531 89.96875 98.882812 89.96875 120.140625 Z M 89.96875 120.140625 "/>
<path style=" stroke:none;fill-rule:nonzero;fill:rgb(32.549021%,33.333334%,36.470589%);fill-opacity:1;" d="M 124.367188 157.183594 L 115.105469 138.664062 L 103.199219 157.183594 Z M 124.367188 157.183594 "/>
<path style=" stroke:none;fill-rule:nonzero;fill:rgb(32.549021%,33.333334%,36.470589%);fill-opacity:1;" d="M 29.105469 49.628906 C 33.492188 49.628906 37.046875 53.183594 37.046875 57.566406 C 37.046875 61.953125 33.492188 65.507812 29.105469 65.507812 C 24.722656 65.507812 21.167969 61.953125 21.167969 57.566406 C 21.167969 53.183594 24.722656 49.628906 29.105469 49.628906 Z M 29.105469 49.628906 "/>
<path style=" stroke:none;fill-rule:nonzero;fill:rgb(32.549021%,33.333334%,36.470589%);fill-opacity:1;" d="M 29.105469 181.933594 C 33.492188 181.933594 37.046875 185.488281 37.046875 189.871094 C 37.046875 194.257812 33.492188 197.8125 29.105469 197.8125 C 24.722656 197.8125 21.167969 194.257812 21.167969 189.871094 C 21.167969 185.488281 24.722656 181.933594 29.105469 181.933594 Z M 29.105469 181.933594 "/>
<path style=" stroke:none;fill-rule:nonzero;fill:rgb(32.549021%,33.333334%,36.470589%);fill-opacity:1;" d="M 29.105469 76.089844 C 33.492188 76.089844 37.046875 79.644531 37.046875 84.027344 C 37.046875 88.414062 33.492188 91.96875 29.105469 91.96875 C 24.722656 91.96875 21.167969 88.414062 21.167969 84.027344 C 21.167969 79.644531 24.722656 76.089844 29.105469 76.089844 Z M 29.105469 76.089844 "/>
<path style=" stroke:none;fill-rule:nonzero;fill:rgb(32.549021%,33.333334%,36.470589%);fill-opacity:1;" d="M 29.105469 155.472656 C 33.492188 155.472656 37.046875 159.027344 37.046875 163.410156 C 37.046875 167.796875 33.492188 171.351562 29.105469 171.351562 C 24.722656 171.351562 21.167969 167.796875 21.167969 163.410156 C 21.167969 159.027344 24.722656 155.472656 29.105469 155.472656 Z M 29.105469 155.472656 "/>
<path style=" stroke:none;fill-rule:nonzero;fill:rgb(32.549021%,33.333334%,36.470589%);fill-opacity:1;" d="M 29.105469 129.011719 C 33.492188 129.011719 37.046875 132.566406 37.046875 136.949219 C 37.046875 141.335938 33.492188 144.890625 29.105469 144.890625 C 24.722656 144.890625 21.167969 141.335938 21.167969 136.949219 C 21.167969 132.566406 24.722656 129.011719 29.105469 129.011719 Z M 29.105469 129.011719 "/>
<path style=" stroke:none;fill-rule:nonzero;fill:rgb(32.549021%,33.333334%,36.470589%);fill-opacity:1;" d="M 29.105469 102.550781 C 33.492188 102.550781 37.046875 106.105469 37.046875 110.488281 C 37.046875 114.875 33.492188 118.429688 29.105469 118.429688 C 24.722656 118.429688 21.167969 114.875 21.167969 110.488281 C 21.167969 106.105469 24.722656 102.550781 29.105469 102.550781 Z M 29.105469 102.550781 "/>
<path style=" stroke:none;fill-rule:nonzero;fill:rgb(32.549021%,33.333334%,36.470589%);fill-opacity:1;" d="M 224.917969 49.628906 C 229.300781 49.628906 232.855469 53.183594 232.855469 57.566406 C 232.855469 61.953125 229.300781 65.507812 224.917969 65.507812 C 220.53125 65.507812 216.980469 61.953125 216.980469 57.566406 C 216.980469 53.183594 220.53125 49.628906 224.917969 49.628906 Z M 224.917969 49.628906 "/>
<path style=" stroke:none;fill-rule:nonzero;fill:rgb(32.549021%,33.333334%,36.470589%);fill-opacity:1;" d="M 224.917969 181.933594 C 229.300781 181.933594 232.855469 185.488281 232.855469 189.871094 C 232.855469 194.257812 229.300781 197.8125 224.917969 197.8125 C 220.53125 197.8125 216.980469 194.257812 216.980469 189.871094 C 216.980469 185.488281 220.53125 181.933594 224.917969 181.933594 Z M 224.917969 181.933594 "/>
<path style=" stroke:none;fill-rule:nonzero;fill:rgb(32.549021%,33.333334%,36.470589%);fill-opacity:1;" d="M 224.917969 76.089844 C 229.300781 76.089844 232.855469 79.644531 232.855469 84.027344 C 232.855469 88.414062 229.300781 91.96875 224.917969 91.96875 C 220.53125 91.96875 216.980469 88.414062 216.980469 84.027344 C 216.980469 79.644531 220.53125 76.089844 224.917969 76.089844 Z M 224.917969 76.089844 "/>
<path style=" stroke:none;fill-rule:nonzero;fill:rgb(32.549021%,33.333334%,36.470589%);fill-opacity:1;" d="M 224.917969 155.472656 C 229.300781 155.472656 232.855469 159.027344 232.855469 163.410156 C 232.855469 167.796875 229.300781 171.351562 224.917969 171.351562 C 220.53125 171.351562 216.980469 167.796875 216.980469 163.410156 C 216.980469 159.027344 220.53125 155.472656 224.917969 155.472656 Z M 224.917969 155.472656 "/>
<path style=" stroke:none;fill-rule:nonzero;fill:rgb(32.549021%,33.333334%,36.470589%);fill-opacity:1;" d="M 224.917969 129.011719 C 229.300781 129.011719 232.855469 132.566406 232.855469 136.949219 C 232.855469 141.335938 229.300781 144.890625 224.917969 144.890625 C 220.53125 144.890625 216.980469 141.335938 216.980469 136.949219 C 216.980469 132.566406 220.53125 129.011719 224.917969 129.011719 Z M 224.917969 129.011719 "/>
<path style=" stroke:none;fill-rule:nonzero;fill:rgb(32.549021%,33.333334%,36.470589%);fill-opacity:1;" d="M 224.917969 102.550781 C 229.300781 102.550781 232.855469 106.105469 232.855469 110.488281 C 232.855469 114.875 229.300781 118.429688 224.917969 118.429688 C 220.53125 118.429688 216.980469 114.875 216.980469 110.488281 C 216.980469 106.105469 220.53125 102.550781 224.917969 102.550781 Z M 224.917969 102.550781 "/>
</g>
</svg>
