<?xml version="1.0" encoding="UTF-8"?>
<svg xmlns="http://www.w3.org/2000/svg" xmlns:xlink="http://www.w3.org/1999/xlink" width="256pt" height="256pt" viewBox="0 0 256 256" version="1.1">
<defs>
<linearGradient id="linear0" gradientUnits="userSpaceOnUse" x1="365.125" y1="-105.166672" x2="365.125" y2="-136.916672" gradientTransform="matrix(1.818182,0,0,1,-381,227.477417)">
<stop offset="0" style="stop-color:rgb(32.54902%,33.333333%,36.470588%);stop-opacity:1;"/>
<stop offset="1" style="stop-color:rgb(36.470588%,37.647059%,40.784314%);stop-opacity:1;"/>
</linearGradient>
<linearGradient id="linear1" gradientUnits="userSpaceOnUse" x1="254" y1="233.5" x2="254" y2="254.666672" gradientTransform="matrix(0.500048,0,0,0.500048,0,107.510266)">
<stop offset="0" style="stop-color:rgb(0%,0%,0%);stop-opacity:0.27451;"/>
<stop offset="1" style="stop-color:rgb(0%,0%,0%);stop-opacity:0;"/>
</linearGradient>
<radialGradient id="radial0" gradientUnits="userSpaceOnUse" cx="456.200623" cy="186.933533" fx="456.200623" fy="186.933533" r="21.166656" gradientTransform="matrix(0.000000708142,1.000096,-1.000096,0.000000688808,409.222333,-242.557402)">
<stop offset="0" style="stop-color:rgb(0%,0%,0%);stop-opacity:0.313725;"/>
<stop offset="0.499999" style="stop-color:rgb(0%,0%,0%);stop-opacity:0.27451;"/>
<stop offset="1" style="stop-color:rgb(0%,0%,0%);stop-opacity:0;"/>
</radialGradient>
<radialGradient id="radial1" gradientUnits="userSpaceOnUse" cx="63.5" cy="212.333359" fx="63.5" fy="212.333359" r="21.166666" gradientTransform="matrix(-1.000095,0.000000297088,-0.000000297088,-1.000096,95.259165,426.040742)">
<stop offset="0" style="stop-color:rgb(0%,0%,0%);stop-opacity:0.313725;"/>
<stop offset="0.499999" style="stop-color:rgb(0%,0%,0%);stop-opacity:0.27451;"/>
<stop offset="1" style="stop-color:rgb(0%,0%,0%);stop-opacity:0;"/>
</radialGradient>
<linearGradient id="linear2" gradientUnits="userSpaceOnUse" x1="254" y1="233.5" x2="254" y2="-105.166656" gradientTransform="matrix(1,0,0,1,0.000019443,-0.0000178019)">
<stop offset="0" style="stop-color:rgb(71.764706%,73.333333%,77.647059%);stop-opacity:1;"/>
<stop offset="1" style="stop-color:rgb(80%,81.568627%,84.313725%);stop-opacity:1;"/>
</linearGradient>
<linearGradient id="linear3" gradientUnits="userSpaceOnUse" x1="365.125" y1="-105.166672" x2="365.125" y2="-136.916672" gradientTransform="matrix(1.818182,0,0,1,-381,79.375008)">
<stop offset="0" style="stop-color:rgb(32.54902%,33.333333%,36.470588%);stop-opacity:1;"/>
<stop offset="1" style="stop-color:rgb(36.470588%,37.647059%,40.784314%);stop-opacity:1;"/>
</linearGradient>
<linearGradient id="linear4" gradientUnits="userSpaceOnUse" x1="254" y1="233.5" x2="254" y2="254.666672" gradientTransform="matrix(0.500048,0,0,0.500048,0,-43.316636)">
<stop offset="0" style="stop-color:rgb(0%,0%,0%);stop-opacity:0.27451;"/>
<stop offset="1" style="stop-color:rgb(0%,0%,0%);stop-opacity:0;"/>
</linearGradient>
<radialGradient id="radial2" gradientUnits="userSpaceOnUse" cx="456.200623" cy="186.933533" fx="456.200623" fy="186.933533" r="21.166656" gradientTransform="matrix(0.000000708142,1.000096,-1.000096,0.000000688808,409.222333,-393.384303)">
<stop offset="0" style="stop-color:rgb(0%,0%,0%);stop-opacity:0.313725;"/>
<stop offset="0.499999" style="stop-color:rgb(0%,0%,0%);stop-opacity:0.27451;"/>
<stop offset="1" style="stop-color:rgb(0%,0%,0%);stop-opacity:0;"/>
</radialGradient>
<radialGradient id="radial3" gradientUnits="userSpaceOnUse" cx="63.5" cy="212.333359" fx="63.5" fy="212.333359" r="21.166666" gradientTransform="matrix(-1.000095,0.000000297088,-0.000000297088,-1.000096,95.259165,275.21384)">
<stop offset="0" style="stop-color:rgb(0%,0%,0%);stop-opacity:0.313725;"/>
<stop offset="0.499999" style="stop-color:rgb(0%,0%,0%);stop-opacity:0.27451;"/>
<stop offset="1" style="stop-color:rgb(0%,0%,0%);stop-opacity:0;"/>
</radialGradient>
<linearGradient id="linear5" gradientUnits="userSpaceOnUse" x1="254" y1="233.5" x2="254" y2="-105.166656" gradientTransform="matrix(1,0,0,1,0.000019443,-0.0000178019)">
<stop offset="0" style="stop-color:rgb(71.764706%,73.333333%,77.647059%);stop-opacity:1;"/>
<stop offset="1" style="stop-color:rgb(80%,81.568627%,84.313725%);stop-opacity:1;"/>
</linearGradient>
<linearGradient id="linear6" gradientUnits="userSpaceOnUse" x1="254" y1="233.5" x2="254" y2="254.666672" gradientTransform="matrix(0.500048,0,0,0.500048,0,33.419855)">
<stop offset="0" style="stop-color:rgb(0%,0%,0%);stop-opacity:0.27451;"/>
<stop offset="1" style="stop-color:rgb(0%,0%,0%);stop-opacity:0;"/>
</linearGradient>
<radialGradient id="radial4" gradientUnits="userSpaceOnUse" cx="456.200623" cy="186.933533" fx="456.200623" fy="186.933533" r="21.166656" gradientTransform="matrix(0.000000708142,1.000096,-1.000096,0.000000688808,409.222333,-316.647812)">
<stop offset="0" style="stop-color:rgb(0%,0%,0%);stop-opacity:0.313725;"/>
<stop offset="0.499999" style="stop-color:rgb(0%,0%,0%);stop-opacity:0.27451;"/>
<stop offset="1" style="stop-color:rgb(0%,0%,0%);stop-opacity:0;"/>
</radialGradient>
<radialGradient id="radial5" gradientUnits="userSpaceOnUse" cx="63.5" cy="212.333359" fx="63.5" fy="212.333359" r="21.166666" gradientTransform="matrix(-1.000095,0.000000297088,-0.000000297088,-1.000096,95.259165,351.950332)">
<stop offset="0" style="stop-color:rgb(0%,0%,0%);stop-opacity:0.313725;"/>
<stop offset="0.499999" style="stop-color:rgb(0%,0%,0%);stop-opacity:0.27451;"/>
<stop offset="1" style="stop-color:rgb(0%,0%,0%);stop-opacity:0;"/>
</radialGradient>
<linearGradient id="linear7" gradientUnits="userSpaceOnUse" x1="254" y1="233.5" x2="254" y2="-105.166656" gradientTransform="matrix(1,0,0,1,0.000019443,-0.0000178019)">
<stop offset="0" style="stop-color:rgb(71.764706%,73.333333%,77.647059%);stop-opacity:1;"/>
<stop offset="1" style="stop-color:rgb(80%,81.568627%,84.313725%);stop-opacity:1;"/>
</linearGradient>
</defs>
<g id="surface1">
<path style="fill-rule:nonzero;fill:url(#linear0);stroke-width:0.356764;stroke-linecap:butt;stroke-linejoin:miter;stroke:rgb(74.509805%,78.431374%,71.764708%);stroke-opacity:1;stroke-miterlimit:4;" d="M 61.572245 64.168653 C 50.917013 64.168653 42.331895 68.886953 42.331895 74.75358 L 42.331895 122.311538 L 465.666469 122.311538 L 465.666469 74.75358 C 465.666469 68.886953 457.081351 64.168653 446.426118 64.168653 Z M 61.572245 64.168653 " transform="matrix(0.500048,0,0,0.500048,0,107.510266)"/>
<path style=" stroke:none;fill-rule:nonzero;fill:url(#linear1);" d="M 31.753906 224.269531 L 222.269531 224.269531 L 222.269531 234.855469 L 31.753906 234.855469 Z M 31.753906 224.269531 "/>
<path style=" stroke:none;fill-rule:nonzero;fill:url(#radial0);" d="M 222.269531 213.6875 L 243.441406 213.6875 L 243.441406 234.855469 L 222.269531 234.855469 Z M 222.269531 213.6875 "/>
<path style=" stroke:none;fill-rule:nonzero;fill:url(#radial1);" d="M 10.585938 213.6875 L 31.753906 213.6875 L 31.753906 234.855469 L 10.585938 234.855469 Z M 10.585938 213.6875 "/>
<path style="fill-rule:nonzero;fill:url(#linear2);stroke-width:2;stroke-linecap:butt;stroke-linejoin:miter;stroke:rgb(30.19608%,30.19608%,30.19608%);stroke-opacity:1;stroke-miterlimit:4;" d="M 31.746968 122.374032 L 476.251395 122.374032 C 482.094587 122.374032 486.836322 127.115767 486.836322 132.958959 L 486.836322 222.919118 C 486.836322 228.76231 482.094587 233.496233 476.251395 233.496233 L 31.746968 233.496233 C 25.903776 233.496233 21.169853 228.76231 21.169853 222.919118 L 21.169853 132.958959 C 21.169853 127.115767 25.903776 122.374032 31.746968 122.374032 Z M 31.746968 122.374032 " transform="matrix(0.500048,0,0,0.500048,0,107.510266)"/>
<path style=" stroke:none;fill-rule:nonzero;fill:rgb(100%,100%,100%);fill-opacity:0.196078;" d="M 15.875 168.703125 C 12.945312 168.703125 10.585938 171.0625 10.585938 173.996094 L 10.585938 176.640625 C 10.585938 173.710938 12.945312 171.351562 15.875 171.351562 L 238.148438 171.351562 C 241.078125 171.351562 243.441406 173.710938 243.441406 176.640625 L 243.441406 173.996094 C 243.441406 171.0625 241.078125 168.703125 238.148438 168.703125 Z M 15.875 168.703125 "/>
<path style=" stroke:none;fill-rule:nonzero;fill:rgb(0%,0%,0%);fill-opacity:0.196078;" d="M 15.875 224.269531 C 12.945312 224.269531 10.585938 221.910156 10.585938 218.980469 L 10.585938 216.332031 C 10.585938 219.265625 12.945312 221.625 15.875 221.625 L 238.148438 221.625 C 241.078125 221.625 243.441406 219.265625 243.441406 216.332031 L 243.441406 218.980469 C 243.441406 221.910156 241.078125 224.269531 238.148438 224.269531 Z M 15.875 224.269531 "/>
<path style=" stroke:none;fill-rule:nonzero;fill:rgb(100%,100%,100%);fill-opacity:0.27451;" d="M 121.71875 39.046875 C 118.789062 39.046875 116.429688 41.40625 116.429688 44.335938 L 116.429688 46.984375 C 116.429688 44.050781 118.789062 41.691406 121.71875 41.691406 L 227.5625 41.691406 C 230.496094 41.691406 232.855469 44.050781 232.855469 46.984375 L 232.855469 44.335938 C 232.855469 41.40625 230.496094 39.046875 227.5625 39.046875 Z M 121.71875 39.046875 "/>
<path style="fill-rule:nonzero;fill:url(#linear3);stroke-width:0.356764;stroke-linecap:butt;stroke-linejoin:miter;stroke:rgb(74.509805%,78.431374%,71.764708%);stroke-opacity:1;stroke-miterlimit:4;" d="M 61.572245 -83.934391 C 50.917013 -83.934391 42.331895 -79.216092 42.331895 -73.349464 L 42.331895 -25.791506 L 465.666469 -25.791506 L 465.666469 -73.349464 C 465.666469 -79.216092 457.081351 -83.934391 446.426118 -83.934391 Z M 61.572245 -83.934391 " transform="matrix(0.500048,0,0,0.500048,0,107.510266)"/>
<path style=" stroke:none;fill-rule:nonzero;fill:url(#linear4);" d="M 31.753906 73.445312 L 222.269531 73.445312 L 222.269531 84.027344 L 31.753906 84.027344 Z M 31.753906 73.445312 "/>
<path style=" stroke:none;fill-rule:nonzero;fill:url(#radial2);" d="M 222.269531 62.859375 L 243.441406 62.859375 L 243.441406 84.027344 L 222.269531 84.027344 Z M 222.269531 62.859375 "/>
<path style=" stroke:none;fill-rule:nonzero;fill:url(#radial3);" d="M 10.585938 62.859375 L 31.753906 62.859375 L 31.753906 84.027344 L 10.585938 84.027344 Z M 10.585938 62.859375 "/>
<path style="fill-rule:nonzero;fill:url(#linear5);stroke-width:2;stroke-linecap:butt;stroke-linejoin:miter;stroke:rgb(30.19608%,30.19608%,30.19608%);stroke-opacity:1;stroke-miterlimit:4;" d="M 31.746968 122.371586 L 476.251395 122.371586 C 482.094587 122.371586 486.836322 127.113321 486.836322 132.956513 L 486.836322 222.916672 C 486.836322 228.759864 482.094587 233.501599 476.251395 233.501599 L 31.746968 233.501599 C 25.903776 233.501599 21.169853 228.759864 21.169853 222.916672 L 21.169853 132.956513 C 21.169853 127.113321 25.903776 122.371586 31.746968 122.371586 Z M 31.746968 122.371586 " transform="matrix(0.500048,0,0,0.500048,0,-43.316636)"/>
<path style=" stroke:none;fill-rule:nonzero;fill:rgb(100%,100%,100%);fill-opacity:0.196078;" d="M 15.875 17.878906 C 12.945312 17.878906 10.585938 20.238281 10.585938 23.167969 L 10.585938 25.816406 C 10.585938 22.882812 12.945312 20.523438 15.875 20.523438 L 238.148438 20.523438 C 241.078125 20.523438 243.441406 22.882812 243.441406 25.816406 L 243.441406 23.167969 C 243.441406 20.238281 241.078125 17.878906 238.148438 17.878906 Z M 15.875 17.878906 "/>
<path style=" stroke:none;fill-rule:nonzero;fill:rgb(0%,0%,0%);fill-opacity:0.196078;" d="M 15.875 73.445312 C 12.945312 73.445312 10.585938 71.085938 10.585938 68.152344 L 10.585938 65.507812 C 10.585938 68.4375 12.945312 70.796875 15.875 70.796875 L 238.148438 70.796875 C 241.078125 70.796875 243.441406 68.4375 243.441406 65.507812 L 243.441406 68.152344 C 243.441406 71.085938 241.078125 73.445312 238.148438 73.445312 Z M 15.875 73.445312 "/>
<path style=" stroke:none;fill-rule:nonzero;fill:url(#linear6);" d="M 31.753906 150.179688 L 222.269531 150.179688 L 222.269531 160.765625 L 31.753906 160.765625 Z M 31.753906 150.179688 "/>
<path style=" stroke:none;fill-rule:nonzero;fill:url(#radial4);" d="M 222.269531 139.597656 L 243.441406 139.597656 L 243.441406 160.765625 L 222.269531 160.765625 Z M 222.269531 139.597656 "/>
<path style=" stroke:none;fill-rule:nonzero;fill:url(#radial5);" d="M 10.585938 139.597656 L 31.753906 139.597656 L 31.753906 160.765625 L 10.585938 160.765625 Z M 10.585938 139.597656 "/>
<path style="fill-rule:nonzero;fill:url(#linear7);stroke-width:2;stroke-linecap:butt;stroke-linejoin:miter;stroke:rgb(30.19608%,30.19608%,30.19608%);stroke-opacity:1;stroke-miterlimit:4;" d="M 31.746968 122.375166 L 476.251395 122.375166 C 482.094587 122.375166 486.836322 127.1169 486.836322 132.960092 L 486.836322 222.920252 C 486.836322 228.763444 482.094587 233.497367 476.251395 233.497367 L 31.746968 233.497367 C 25.903776 233.497367 21.169853 228.763444 21.169853 222.920252 L 21.169853 132.960092 C 21.169853 127.1169 25.903776 122.375166 31.746968 122.375166 Z M 31.746968 122.375166 " transform="matrix(0.500048,0,0,0.500048,0,33.419855)"/>
<path style=" stroke:none;fill-rule:nonzero;fill:rgb(100%,100%,100%);fill-opacity:0.196078;" d="M 15.875 94.613281 C 12.945312 94.613281 10.585938 96.972656 10.585938 99.90625 L 10.585938 102.550781 C 10.585938 99.621094 12.945312 97.257812 15.875 97.257812 L 238.148438 97.257812 C 241.078125 97.257812 243.441406 99.621094 243.441406 102.550781 L 243.441406 99.90625 C 243.441406 96.972656 241.078125 94.613281 238.148438 94.613281 Z M 15.875 94.613281 "/>
<path style=" stroke:none;fill-rule:nonzero;fill:rgb(0%,0%,0%);fill-opacity:0.196078;" d="M 15.875 150.179688 C 12.945312 150.179688 10.585938 147.820312 10.585938 144.890625 L 10.585938 142.242188 C 10.585938 145.175781 12.945312 147.535156 15.875 147.535156 L 238.148438 147.535156 C 241.078125 147.535156 243.441406 145.175781 243.441406 142.242188 L 243.441406 144.890625 C 243.441406 147.820312 241.078125 150.179688 238.148438 150.179688 Z M 15.875 150.179688 "/>
<path style=" stroke:none;fill-rule:nonzero;fill:rgb(20%,20%,20%);fill-opacity:1;" d="M 47.714844 117.105469 C 50.636719 117.105469 53.007812 119.472656 53.007812 122.398438 C 53.007812 125.320312 50.636719 127.6875 47.714844 127.6875 C 44.792969 127.6875 42.421875 125.320312 42.421875 122.398438 C 42.421875 119.472656 44.792969 117.105469 47.714844 117.105469 Z M 47.714844 117.105469 "/>
<path style=" stroke:none;fill-rule:nonzero;fill:rgb(20%,20%,20%);fill-opacity:1;" d="M 68.882812 117.105469 C 71.804688 117.105469 74.175781 119.472656 74.175781 122.398438 C 74.175781 125.320312 71.804688 127.6875 68.882812 127.6875 C 65.960938 127.6875 63.589844 125.320312 63.589844 122.398438 C 63.589844 119.472656 65.960938 117.105469 68.882812 117.105469 Z M 68.882812 117.105469 "/>
<path style=" stroke:none;fill-rule:nonzero;fill:rgb(20%,20%,20%);fill-opacity:1;" d="M 26.546875 117.105469 C 29.46875 117.105469 31.835938 119.472656 31.835938 122.398438 C 31.835938 125.320312 29.46875 127.6875 26.546875 127.6875 C 23.621094 127.6875 21.253906 125.320312 21.253906 122.398438 C 21.253906 119.472656 23.621094 117.105469 26.546875 117.105469 Z M 26.546875 117.105469 "/>
<path style=" stroke:none;fill-rule:nonzero;fill:rgb(57.647061%,67.450982%,61.56863%);fill-opacity:1;" d="M 68.882812 129.011719 C 65.949219 129.011719 63.589844 126.652344 63.589844 123.71875 C 63.589844 123.496094 63.605469 123.277344 63.632812 123.058594 C 63.957031 125.675781 66.175781 127.6875 68.882812 127.6875 C 71.589844 127.6875 73.808594 125.675781 74.132812 123.058594 C 74.160156 123.277344 74.175781 123.496094 74.175781 123.71875 C 74.175781 126.652344 71.8125 129.011719 68.882812 129.011719 Z M 68.882812 129.011719 "/>
<path style=" stroke:none;fill-rule:nonzero;fill:rgb(100%,100%,100%);fill-opacity:0.196078;" d="M 68.882812 129.011719 C 65.949219 129.011719 63.589844 126.652344 63.589844 123.71875 C 63.589844 123.496094 63.605469 123.277344 63.632812 123.058594 C 63.957031 125.675781 66.175781 127.6875 68.882812 127.6875 C 71.589844 127.6875 73.808594 125.675781 74.132812 123.058594 C 74.160156 123.277344 74.175781 123.496094 74.175781 123.71875 C 74.175781 126.652344 71.8125 129.011719 68.882812 129.011719 Z M 68.882812 129.011719 "/>
<path style=" stroke:none;fill-rule:nonzero;fill:rgb(100%,100%,100%);fill-opacity:0.196078;" d="M 47.757812 129.011719 C 44.824219 129.011719 42.464844 126.652344 42.464844 123.71875 C 42.464844 123.496094 42.480469 123.277344 42.507812 123.058594 C 42.828125 125.675781 45.046875 127.6875 47.757812 127.6875 C 50.464844 127.6875 52.683594 125.675781 53.007812 123.058594 C 53.03125 123.277344 53.046875 123.496094 53.046875 123.71875 C 53.046875 126.652344 50.6875 129.011719 47.757812 129.011719 Z M 47.757812 129.011719 "/>
<path style=" stroke:none;fill-rule:nonzero;fill:rgb(100%,100%,100%);fill-opacity:0.196078;" d="M 26.546875 129.011719 C 23.613281 129.011719 21.253906 126.652344 21.253906 123.71875 C 21.253906 123.496094 21.269531 123.277344 21.296875 123.058594 C 21.617188 125.675781 23.835938 127.6875 26.546875 127.6875 C 29.253906 127.6875 31.472656 125.675781 31.796875 123.058594 C 31.820312 123.277344 31.835938 123.496094 31.835938 123.71875 C 31.835938 126.652344 29.476562 129.011719 26.546875 129.011719 Z M 26.546875 129.011719 "/>
<path style=" stroke:none;fill-rule:nonzero;fill:rgb(0%,0%,0%);fill-opacity:0.196078;" d="M 26.546875 117.105469 C 29.476562 117.105469 31.835938 119.464844 31.835938 122.398438 C 31.835938 122.621094 31.820312 122.84375 31.796875 123.058594 C 31.472656 120.441406 29.253906 118.429688 26.546875 118.429688 C 23.835938 118.429688 21.617188 120.441406 21.296875 123.058594 C 21.269531 122.84375 21.253906 122.621094 21.253906 122.398438 C 21.253906 119.464844 23.613281 117.105469 26.546875 117.105469 Z M 26.546875 117.105469 "/>
<path style=" stroke:none;fill-rule:nonzero;fill:rgb(0%,0%,0%);fill-opacity:0.196078;" d="M 47.671875 117.105469 C 50.605469 117.105469 52.964844 119.464844 52.964844 122.398438 C 52.964844 122.621094 52.949219 122.84375 52.921875 123.058594 C 52.597656 120.441406 50.378906 118.429688 47.671875 118.429688 C 44.964844 118.429688 42.746094 120.441406 42.421875 123.058594 C 42.394531 122.84375 42.378906 122.621094 42.378906 122.398438 C 42.378906 119.464844 44.738281 117.105469 47.671875 117.105469 Z M 47.671875 117.105469 "/>
<path style=" stroke:none;fill-rule:nonzero;fill:rgb(0%,0%,0%);fill-opacity:0.196078;" d="M 68.882812 117.105469 C 71.8125 117.105469 74.175781 119.464844 74.175781 122.398438 C 74.175781 122.621094 74.160156 122.84375 74.132812 123.058594 C 73.808594 120.441406 71.589844 118.429688 68.882812 118.429688 C 66.175781 118.429688 63.957031 120.441406 63.632812 123.058594 C 63.605469 122.84375 63.589844 122.621094 63.589844 122.398438 C 63.589844 119.464844 65.949219 117.105469 68.882812 117.105469 Z M 68.882812 117.105469 "/>
<path style=" stroke:none;fill-rule:nonzero;fill:rgb(20%,20%,20%);fill-opacity:1;" d="M 47.714844 39.046875 C 50.636719 39.046875 53.007812 41.414062 53.007812 44.335938 C 53.007812 47.261719 50.636719 49.628906 47.714844 49.628906 C 44.792969 49.628906 42.421875 47.261719 42.421875 44.335938 C 42.421875 41.414062 44.792969 39.046875 47.714844 39.046875 Z M 47.714844 39.046875 "/>
<path style=" stroke:none;fill-rule:nonzero;fill:rgb(20%,20%,20%);fill-opacity:1;" d="M 68.882812 39.046875 C 71.804688 39.046875 74.175781 41.414062 74.175781 44.335938 C 74.175781 47.261719 71.804688 49.628906 68.882812 49.628906 C 65.960938 49.628906 63.589844 47.261719 63.589844 44.335938 C 63.589844 41.414062 65.960938 39.046875 68.882812 39.046875 Z M 68.882812 39.046875 "/>
<path style=" stroke:none;fill-rule:nonzero;fill:rgb(20%,20%,20%);fill-opacity:1;" d="M 26.546875 39.046875 C 29.46875 39.046875 31.835938 41.414062 31.835938 44.335938 C 31.835938 47.261719 29.46875 49.628906 26.546875 49.628906 C 23.621094 49.628906 21.253906 47.261719 21.253906 44.335938 C 21.253906 41.414062 23.621094 39.046875 26.546875 39.046875 Z M 26.546875 39.046875 "/>
<path style=" stroke:none;fill-rule:nonzero;fill:rgb(57.647061%,67.450982%,61.56863%);fill-opacity:1;" d="M 68.882812 50.953125 C 65.949219 50.953125 63.589844 48.59375 63.589844 45.660156 C 63.589844 45.4375 63.605469 45.214844 63.632812 45 C 63.957031 47.617188 66.175781 49.628906 68.882812 49.628906 C 71.589844 49.628906 73.808594 47.617188 74.132812 45 C 74.160156 45.214844 74.175781 45.4375 74.175781 45.660156 C 74.175781 48.59375 71.8125 50.953125 68.882812 50.953125 Z M 68.882812 50.953125 "/>
<path style=" stroke:none;fill-rule:nonzero;fill:rgb(100%,100%,100%);fill-opacity:0.196078;" d="M 68.882812 50.953125 C 65.949219 50.953125 63.589844 48.59375 63.589844 45.660156 C 63.589844 45.4375 63.605469 45.214844 63.632812 45 C 63.957031 47.617188 66.175781 49.628906 68.882812 49.628906 C 71.589844 49.628906 73.808594 47.617188 74.132812 45 C 74.160156 45.214844 74.175781 45.4375 74.175781 45.660156 C 74.175781 48.59375 71.8125 50.953125 68.882812 50.953125 Z M 68.882812 50.953125 "/>
<path style=" stroke:none;fill-rule:nonzero;fill:rgb(100%,100%,100%);fill-opacity:0.196078;" d="M 47.757812 50.953125 C 44.824219 50.953125 42.464844 48.59375 42.464844 45.660156 C 42.464844 45.4375 42.480469 45.214844 42.507812 45 C 42.828125 47.617188 45.046875 49.628906 47.757812 49.628906 C 50.464844 49.628906 52.683594 47.617188 53.007812 45 C 53.03125 45.214844 53.046875 45.4375 53.046875 45.660156 C 53.046875 48.59375 50.6875 50.953125 47.757812 50.953125 Z M 47.757812 50.953125 "/>
<path style=" stroke:none;fill-rule:nonzero;fill:rgb(100%,100%,100%);fill-opacity:0.196078;" d="M 26.546875 50.953125 C 23.613281 50.953125 21.253906 48.59375 21.253906 45.660156 C 21.253906 45.4375 21.269531 45.214844 21.296875 45 C 21.617188 47.617188 23.835938 49.628906 26.546875 49.628906 C 29.253906 49.628906 31.472656 47.617188 31.796875 45 C 31.820312 45.214844 31.835938 45.4375 31.835938 45.660156 C 31.835938 48.59375 29.476562 50.953125 26.546875 50.953125 Z M 26.546875 50.953125 "/>
<path style=" stroke:none;fill-rule:nonzero;fill:rgb(0%,0%,0%);fill-opacity:0.196078;" d="M 26.546875 39.046875 C 29.476562 39.046875 31.835938 41.40625 31.835938 44.335938 C 31.835938 44.5625 31.820312 44.78125 31.796875 45 C 31.472656 42.382812 29.253906 40.367188 26.546875 40.367188 C 23.835938 40.367188 21.617188 42.382812 21.296875 45 C 21.269531 44.78125 21.253906 44.5625 21.253906 44.335938 C 21.253906 41.40625 23.613281 39.046875 26.546875 39.046875 Z M 26.546875 39.046875 "/>
<path style=" stroke:none;fill-rule:nonzero;fill:rgb(0%,0%,0%);fill-opacity:0.196078;" d="M 47.671875 39.046875 C 50.605469 39.046875 52.964844 41.40625 52.964844 44.335938 C 52.964844 44.5625 52.949219 44.78125 52.921875 45 C 52.597656 42.382812 50.378906 40.367188 47.671875 40.367188 C 44.964844 40.367188 42.746094 42.382812 42.421875 45 C 42.394531 44.78125 42.378906 44.5625 42.378906 44.335938 C 42.378906 41.40625 44.738281 39.046875 47.671875 39.046875 Z M 47.671875 39.046875 "/>
<path style=" stroke:none;fill-rule:nonzero;fill:rgb(0%,0%,0%);fill-opacity:0.196078;" d="M 68.882812 39.046875 C 71.8125 39.046875 74.175781 41.40625 74.175781 44.335938 C 74.175781 44.5625 74.160156 44.78125 74.132812 45 C 73.808594 42.382812 71.589844 40.367188 68.882812 40.367188 C 66.175781 40.367188 63.957031 42.382812 63.632812 45 C 63.605469 44.78125 63.589844 44.5625 63.589844 44.335938 C 63.589844 41.40625 65.949219 39.046875 68.882812 39.046875 Z M 68.882812 39.046875 "/>
<path style=" stroke:none;fill-rule:nonzero;fill:rgb(20%,20%,20%);fill-opacity:1;" d="M 47.714844 192.519531 C 50.636719 192.519531 53.007812 194.886719 53.007812 197.8125 C 53.007812 200.734375 50.636719 203.101562 47.714844 203.101562 C 44.792969 203.101562 42.421875 200.734375 42.421875 197.8125 C 42.421875 194.886719 44.792969 192.519531 47.714844 192.519531 Z M 47.714844 192.519531 "/>
<path style=" stroke:none;fill-rule:nonzero;fill:rgb(20%,20%,20%);fill-opacity:1;" d="M 68.882812 192.519531 C 71.804688 192.519531 74.175781 194.886719 74.175781 197.8125 C 74.175781 200.734375 71.804688 203.101562 68.882812 203.101562 C 65.960938 203.101562 63.589844 200.734375 63.589844 197.8125 C 63.589844 194.886719 65.960938 192.519531 68.882812 192.519531 Z M 68.882812 192.519531 "/>
<path style=" stroke:none;fill-rule:nonzero;fill:rgb(20%,20%,20%);fill-opacity:1;" d="M 26.546875 192.519531 C 29.46875 192.519531 31.835938 194.886719 31.835938 197.8125 C 31.835938 200.734375 29.46875 203.101562 26.546875 203.101562 C 23.621094 203.101562 21.253906 200.734375 21.253906 197.8125 C 21.253906 194.886719 23.621094 192.519531 26.546875 192.519531 Z M 26.546875 192.519531 "/>
<path style=" stroke:none;fill-rule:nonzero;fill:rgb(57.647061%,67.450982%,61.56863%);fill-opacity:1;" d="M 68.882812 204.425781 C 65.949219 204.425781 63.589844 202.066406 63.589844 199.132812 C 63.589844 198.910156 63.605469 198.6875 63.632812 198.472656 C 63.957031 201.089844 66.175781 203.101562 68.882812 203.101562 C 71.589844 203.101562 73.808594 201.089844 74.132812 198.472656 C 74.160156 198.6875 74.175781 198.910156 74.175781 199.132812 C 74.175781 202.066406 71.8125 204.425781 68.882812 204.425781 Z M 68.882812 204.425781 "/>
<path style=" stroke:none;fill-rule:nonzero;fill:rgb(100%,100%,100%);fill-opacity:0.196078;" d="M 68.882812 204.425781 C 65.949219 204.425781 63.589844 202.066406 63.589844 199.132812 C 63.589844 198.910156 63.605469 198.6875 63.632812 198.472656 C 63.957031 201.089844 66.175781 203.101562 68.882812 203.101562 C 71.589844 203.101562 73.808594 201.089844 74.132812 198.472656 C 74.160156 198.6875 74.175781 198.910156 74.175781 199.132812 C 74.175781 202.066406 71.8125 204.425781 68.882812 204.425781 Z M 68.882812 204.425781 "/>
<path style=" stroke:none;fill-rule:nonzero;fill:rgb(100%,100%,100%);fill-opacity:0.196078;" d="M 47.757812 204.425781 C 44.824219 204.425781 42.464844 202.066406 42.464844 199.132812 C 42.464844 198.910156 42.480469 198.6875 42.507812 198.472656 C 42.828125 201.089844 45.046875 203.101562 47.757812 203.101562 C 50.464844 203.101562 52.683594 201.089844 53.007812 198.472656 C 53.03125 198.6875 53.046875 198.910156 53.046875 199.132812 C 53.046875 202.066406 50.6875 204.425781 47.757812 204.425781 Z M 47.757812 204.425781 "/>
<path style=" stroke:none;fill-rule:nonzero;fill:rgb(100%,100%,100%);fill-opacity:0.196078;" d="M 26.546875 204.425781 C 23.613281 204.425781 21.253906 202.066406 21.253906 199.132812 C 21.253906 198.910156 21.269531 198.6875 21.296875 198.472656 C 21.617188 201.089844 23.835938 203.101562 26.546875 203.101562 C 29.253906 203.101562 31.472656 201.089844 31.796875 198.472656 C 31.820312 198.6875 31.835938 198.910156 31.835938 199.132812 C 31.835938 202.066406 29.476562 204.425781 26.546875 204.425781 Z M 26.546875 204.425781 "/>
<path style=" stroke:none;fill-rule:nonzero;fill:rgb(0%,0%,0%);fill-opacity:0.196078;" d="M 26.546875 192.519531 C 29.476562 192.519531 31.835938 194.878906 31.835938 197.8125 C 31.835938 198.035156 31.820312 198.253906 31.796875 198.472656 C 31.472656 195.855469 29.253906 193.839844 26.546875 193.839844 C 23.835938 193.839844 21.617188 195.855469 21.296875 198.472656 C 21.269531 198.253906 21.253906 198.035156 21.253906 197.8125 C 21.253906 194.878906 23.613281 192.519531 26.546875 192.519531 Z M 26.546875 192.519531 "/>
<path style=" stroke:none;fill-rule:nonzero;fill:rgb(0%,0%,0%);fill-opacity:0.196078;" d="M 47.671875 192.519531 C 50.605469 192.519531 52.964844 194.878906 52.964844 197.8125 C 52.964844 198.035156 52.949219 198.253906 52.921875 198.472656 C 52.597656 195.855469 50.378906 193.839844 47.671875 193.839844 C 44.964844 193.839844 42.746094 195.855469 42.421875 198.472656 C 42.394531 198.253906 42.378906 198.035156 42.378906 197.8125 C 42.378906 194.878906 44.738281 192.519531 47.671875 192.519531 Z M 47.671875 192.519531 "/>
<path style=" stroke:none;fill-rule:nonzero;fill:rgb(0%,0%,0%);fill-opacity:0.196078;" d="M 68.882812 192.519531 C 71.8125 192.519531 74.175781 194.878906 74.175781 197.8125 C 74.175781 198.035156 74.160156 198.253906 74.132812 198.472656 C 73.808594 195.855469 71.589844 193.839844 68.882812 193.839844 C 66.175781 193.839844 63.957031 195.855469 63.632812 198.472656 C 63.605469 198.253906 63.589844 198.035156 63.589844 197.8125 C 63.589844 194.878906 65.949219 192.519531 68.882812 192.519531 Z M 68.882812 192.519531 "/>
</g>
</svg>
