<?xml version="1.0" encoding="UTF-8"?>
<svg xmlns="http://www.w3.org/2000/svg" xmlns:xlink="http://www.w3.org/1999/xlink" width="256pt" height="256pt" viewBox="0 0 256 256" version="1.1">
<defs>
<linearGradient id="linear0" gradientUnits="userSpaceOnUse" x1="254" y1="275.833344" x2="254" y2="-189.833328" gradientTransform="matrix(0.500048,0,0,0.500048,0,107.510263)">
<stop offset="0" style="stop-color:rgb(71.764706%,73.333333%,77.647059%);stop-opacity:1;"/>
<stop offset="1" style="stop-color:rgb(80%,81.568627%,84.313725%);stop-opacity:1;"/>
</linearGradient>
</defs>
<g id="surface1">
<path style=" stroke:none;fill-rule:nonzero;fill:url(#linear0);" d="M 42.335938 12.585938 C 24.746094 12.585938 10.585938 26.746094 10.585938 44.335938 C 10.585938 61.929688 24.746094 76.089844 42.335938 76.089844 C 59.929688 76.089844 74.089844 61.929688 74.089844 44.335938 C 74.089844 26.746094 59.929688 12.585938 42.335938 12.585938 Z M 127.011719 12.585938 C 109.421875 12.585938 95.257812 26.746094 95.257812 44.335938 C 95.257812 61.929688 109.421875 76.089844 127.011719 76.089844 C 144.601562 76.089844 158.765625 61.929688 158.765625 44.335938 C 158.765625 26.746094 144.601562 12.585938 127.011719 12.585938 Z M 211.6875 12.585938 C 194.09375 12.585938 179.933594 26.746094 179.933594 44.335938 C 179.933594 61.929688 194.09375 76.089844 211.6875 76.089844 C 229.277344 76.089844 243.441406 61.929688 243.441406 44.335938 C 243.441406 26.746094 229.277344 12.585938 211.6875 12.585938 Z M 42.335938 97.257812 C 24.746094 97.257812 10.585938 111.421875 10.585938 129.011719 C 10.585938 146.601562 24.746094 160.765625 42.335938 160.765625 C 59.929688 160.765625 74.089844 146.601562 74.089844 129.011719 C 74.089844 111.421875 59.929688 97.257812 42.335938 97.257812 Z M 127.011719 97.257812 C 109.421875 97.257812 95.257812 111.421875 95.257812 129.011719 C 95.257812 146.601562 109.421875 160.765625 127.011719 160.765625 C 144.601562 160.765625 158.765625 146.601562 158.765625 129.011719 C 158.765625 111.421875 144.601562 97.257812 127.011719 97.257812 Z M 211.6875 97.257812 C 194.09375 97.257812 179.933594 111.421875 179.933594 129.011719 C 179.933594 146.601562 194.09375 160.765625 211.6875 160.765625 C 229.277344 160.765625 243.441406 146.601562 243.441406 129.011719 C 243.441406 111.421875 229.277344 97.257812 211.6875 97.257812 Z M 42.335938 181.933594 C 24.746094 181.933594 10.585938 196.097656 10.585938 213.6875 C 10.585938 231.277344 24.746094 245.441406 42.335938 245.441406 C 59.929688 245.441406 74.089844 231.277344 74.089844 213.6875 C 74.089844 196.097656 59.929688 181.933594 42.335938 181.933594 Z M 127.011719 181.933594 C 109.421875 181.933594 95.257812 196.097656 95.257812 213.6875 C 95.257812 231.277344 109.421875 245.441406 127.011719 245.441406 C 144.601562 245.441406 158.765625 231.277344 158.765625 213.6875 C 158.765625 196.097656 144.601562 181.933594 127.011719 181.933594 Z M 211.6875 181.933594 C 194.09375 181.933594 179.933594 196.097656 179.933594 213.6875 C 179.933594 231.277344 194.09375 245.441406 211.6875 245.441406 C 229.277344 245.441406 243.441406 231.277344 243.441406 213.6875 C 243.441406 196.097656 229.277344 181.933594 211.6875 181.933594 Z M 211.6875 181.933594 "/>
</g>
</svg>
