<?xml version="1.0" encoding="UTF-8"?>
<svg xmlns="http://www.w3.org/2000/svg" xmlns:xlink="http://www.w3.org/1999/xlink" width="256pt" height="256pt" viewBox="0 0 256 256" version="1.1">
<defs>
<radialGradient id="radial0" gradientUnits="userSpaceOnUse" cx="63.5" cy="212.333359" fx="63.5" fy="212.333359" r="21.166666" gradientTransform="matrix(1.000095,0.000000297088,0.000000297088,-1.000096,116.427705,441.917227)">
<stop offset="0" style="stop-color:rgb(0%,0%,0%);stop-opacity:0.313725;"/>
<stop offset="0.499999" style="stop-color:rgb(0%,0%,0%);stop-opacity:0.27451;"/>
<stop offset="1" style="stop-color:rgb(0%,0%,0%);stop-opacity:0;"/>
</radialGradient>
<linearGradient id="linear0" gradientUnits="userSpaceOnUse" x1="254" y1="233.5" x2="254" y2="254.666672" gradientTransform="matrix(0.500048,0,0,0.500048,42.337398,123.386772)">
<stop offset="0" style="stop-color:rgb(0%,0%,0%);stop-opacity:0.27451;"/>
<stop offset="1" style="stop-color:rgb(0%,0%,0%);stop-opacity:0;"/>
</linearGradient>
<radialGradient id="radial1" gradientUnits="userSpaceOnUse" cx="63.5" cy="212.333359" fx="63.5" fy="212.333359" r="21.166666" gradientTransform="matrix(-1.000095,0.000000297088,-0.000000297088,-1.000096,137.596558,441.917227)">
<stop offset="0" style="stop-color:rgb(0%,0%,0%);stop-opacity:0.313725;"/>
<stop offset="0.499999" style="stop-color:rgb(0%,0%,0%);stop-opacity:0.27451;"/>
<stop offset="1" style="stop-color:rgb(0%,0%,0%);stop-opacity:0;"/>
</radialGradient>
<linearGradient id="linear1" gradientUnits="userSpaceOnUse" x1="960" y1="615.118103" x2="960" y2="175.118134" gradientTransform="matrix(0.132304,0,0,0.132304,0,0)">
<stop offset="0" style="stop-color:rgb(71.764706%,73.333333%,77.647059%);stop-opacity:1;"/>
<stop offset="1" style="stop-color:rgb(80%,81.568627%,84.313725%);stop-opacity:1;"/>
</linearGradient>
<linearGradient id="linear2" gradientUnits="userSpaceOnUse" x1="254" y1="265.25" x2="254" y2="-31.083334" gradientTransform="matrix(0.500048,0,0,0.500048,0,107.510266)">
<stop offset="0" style="stop-color:rgb(71.764706%,73.333333%,77.647059%);stop-opacity:1;"/>
<stop offset="1" style="stop-color:rgb(80%,81.568627%,84.313725%);stop-opacity:1;"/>
</linearGradient>
</defs>
<g id="surface1">
<path style=" stroke:none;fill-rule:nonzero;fill:url(#radial0);" d="M 201.101562 229.5625 L 179.933594 229.5625 L 179.933594 250.730469 L 201.101562 250.730469 Z M 201.101562 229.5625 "/>
<path style=" stroke:none;fill-rule:nonzero;fill:url(#linear0);" d="M 74.089844 240.148438 L 179.933594 240.148438 L 179.933594 250.730469 L 74.089844 250.730469 Z M 74.089844 240.148438 "/>
<path style=" stroke:none;fill-rule:nonzero;fill:url(#radial1);" d="M 52.921875 229.5625 L 74.089844 229.5625 L 74.089844 250.730469 L 52.921875 250.730469 Z M 52.921875 229.5625 "/>
<path style=" stroke:none;fill-rule:nonzero;fill:url(#linear1);" d="M 58.214844 23.167969 C 55.28125 23.167969 52.921875 25.527344 52.921875 28.460938 L 52.921875 81.382812 L 201.101562 81.382812 L 201.101562 28.460938 C 201.101562 25.527344 198.742188 23.167969 195.808594 23.167969 Z M 58.214844 23.167969 "/>
<path style=" stroke:none;fill-rule:nonzero;fill:rgb(32.549021%,33.333334%,36.470589%);fill-opacity:1;" d="M 58.214844 81.382812 L 195.808594 81.382812 L 195.808594 91.96875 L 58.214844 91.96875 Z M 58.214844 81.382812 "/>
<path style=" stroke:none;fill-rule:nonzero;fill:url(#linear2);" d="M 195.808594 240.148438 C 198.742188 240.148438 201.101562 237.789062 201.101562 234.855469 L 201.101562 91.96875 L 52.921875 91.96875 L 52.921875 234.855469 C 52.921875 237.789062 55.28125 240.148438 58.214844 240.148438 Z M 195.808594 240.148438 "/>
<path style=" stroke:none;fill-rule:nonzero;fill:rgb(20%,20%,20%);fill-opacity:1;" d="M 127.097656 213.6875 C 130.019531 213.6875 132.386719 216.054688 132.386719 218.980469 C 132.386719 221.902344 130.019531 224.269531 127.097656 224.269531 C 124.171875 224.269531 121.804688 221.902344 121.804688 218.980469 C 121.804688 216.054688 124.171875 213.6875 127.097656 213.6875 Z M 127.097656 213.6875 "/>
<path style=" stroke:none;fill-rule:nonzero;fill:rgb(20%,20%,20%);fill-opacity:1;" d="M 148.265625 213.6875 C 151.1875 213.6875 153.558594 216.054688 153.558594 218.980469 C 153.558594 221.902344 151.1875 224.269531 148.265625 224.269531 C 145.34375 224.269531 142.972656 221.902344 142.972656 218.980469 C 142.972656 216.054688 145.34375 213.6875 148.265625 213.6875 Z M 148.265625 213.6875 "/>
<path style=" stroke:none;fill-rule:nonzero;fill:rgb(20%,20%,20%);fill-opacity:1;" d="M 105.925781 213.6875 C 108.851562 213.6875 111.21875 216.054688 111.21875 218.980469 C 111.21875 221.902344 108.851562 224.269531 105.925781 224.269531 C 103.003906 224.269531 100.636719 221.902344 100.636719 218.980469 C 100.636719 216.054688 103.003906 213.6875 105.925781 213.6875 Z M 105.925781 213.6875 "/>
<path style=" stroke:none;fill-rule:nonzero;fill:rgb(100%,100%,100%);fill-opacity:0.196078;" d="M 148.265625 225.59375 C 145.332031 225.59375 142.972656 223.234375 142.972656 220.300781 C 142.972656 220.078125 142.988281 219.859375 143.015625 219.640625 C 143.339844 222.257812 145.558594 224.269531 148.265625 224.269531 C 150.972656 224.269531 153.191406 222.257812 153.515625 219.640625 C 153.542969 219.859375 153.558594 220.078125 153.558594 220.300781 C 153.558594 223.234375 151.195312 225.59375 148.265625 225.59375 Z M 148.265625 225.59375 "/>
<path style=" stroke:none;fill-rule:nonzero;fill:rgb(100%,100%,100%);fill-opacity:0.196078;" d="M 127.136719 225.59375 C 124.207031 225.59375 121.847656 223.234375 121.847656 220.300781 C 121.847656 220.078125 121.863281 219.859375 121.886719 219.640625 C 122.210938 222.257812 124.429688 224.269531 127.136719 224.269531 C 129.847656 224.269531 132.066406 222.257812 132.386719 219.640625 C 132.414062 219.859375 132.429688 220.078125 132.429688 220.300781 C 132.429688 223.234375 130.070312 225.59375 127.136719 225.59375 Z M 127.136719 225.59375 "/>
<path style=" stroke:none;fill-rule:nonzero;fill:rgb(100%,100%,100%);fill-opacity:0.196078;" d="M 105.925781 225.59375 C 102.996094 225.59375 100.636719 223.234375 100.636719 220.300781 C 100.636719 220.078125 100.652344 219.859375 100.675781 219.640625 C 101 222.257812 103.21875 224.269531 105.925781 224.269531 C 108.636719 224.269531 110.855469 222.257812 111.179688 219.640625 C 111.203125 219.859375 111.21875 220.078125 111.21875 220.300781 C 111.21875 223.234375 108.859375 225.59375 105.925781 225.59375 Z M 105.925781 225.59375 "/>
<path style=" stroke:none;fill-rule:nonzero;fill:rgb(0%,0%,0%);fill-opacity:0.196078;" d="M 105.925781 213.6875 C 108.859375 213.6875 111.21875 216.046875 111.21875 218.980469 C 111.21875 219.203125 111.203125 219.425781 111.179688 219.640625 C 110.855469 217.023438 108.636719 215.011719 105.925781 215.011719 C 103.21875 215.011719 101 217.023438 100.675781 219.640625 C 100.652344 219.425781 100.636719 219.203125 100.636719 218.980469 C 100.636719 216.046875 102.996094 213.6875 105.925781 213.6875 Z M 105.925781 213.6875 "/>
<path style=" stroke:none;fill-rule:nonzero;fill:rgb(0%,0%,0%);fill-opacity:0.196078;" d="M 127.054688 213.6875 C 129.984375 213.6875 132.347656 216.046875 132.347656 218.980469 C 132.347656 219.203125 132.332031 219.425781 132.304688 219.640625 C 131.980469 217.023438 129.761719 215.011719 127.054688 215.011719 C 124.347656 215.011719 122.128906 217.023438 121.804688 219.640625 C 121.777344 219.425781 121.761719 219.203125 121.761719 218.980469 C 121.761719 216.046875 124.121094 213.6875 127.054688 213.6875 Z M 127.054688 213.6875 "/>
<path style=" stroke:none;fill-rule:nonzero;fill:rgb(0%,0%,0%);fill-opacity:0.196078;" d="M 148.265625 213.6875 C 151.195312 213.6875 153.558594 216.046875 153.558594 218.980469 C 153.558594 219.203125 153.542969 219.425781 153.515625 219.640625 C 153.191406 217.023438 150.972656 215.011719 148.265625 215.011719 C 145.558594 215.011719 143.339844 217.023438 143.015625 219.640625 C 142.988281 219.425781 142.972656 219.203125 142.972656 218.980469 C 142.972656 216.046875 145.332031 213.6875 148.265625 213.6875 Z M 148.265625 213.6875 "/>
<path style=" stroke:none;fill-rule:nonzero;fill:rgb(0%,0%,0%);fill-opacity:0.196078;" d="M 58.214844 240.148438 C 55.28125 240.148438 52.921875 237.789062 52.921875 234.855469 L 52.921875 232.210938 C 52.921875 235.140625 55.28125 237.503906 58.214844 237.503906 L 195.808594 237.503906 C 198.742188 237.503906 201.101562 235.140625 201.101562 232.210938 L 201.101562 234.855469 C 201.101562 237.789062 198.742188 240.148438 195.808594 240.148438 Z M 58.214844 240.148438 "/>
<path style=" stroke:none;fill-rule:nonzero;fill:rgb(100%,100%,100%);fill-opacity:0.196078;" d="M 58.214844 23.167969 C 55.28125 23.167969 52.921875 25.527344 52.921875 28.460938 L 52.921875 31.105469 C 52.921875 28.175781 55.28125 25.816406 58.214844 25.816406 L 195.808594 25.816406 C 198.742188 25.816406 201.101562 28.175781 201.101562 31.105469 L 201.101562 28.460938 C 201.101562 25.527344 198.742188 23.167969 195.808594 23.167969 Z M 58.214844 23.167969 "/>
<path style=" stroke:none;fill-rule:nonzero;fill:rgb(0%,0%,0%);fill-opacity:0.196078;" d="M 52.921875 78.738281 L 201.101562 78.738281 L 201.101562 81.382812 L 52.921875 81.382812 Z M 52.921875 78.738281 "/>
<path style=" stroke:none;fill-rule:nonzero;fill:rgb(100%,100%,100%);fill-opacity:0.196078;" d="M 52.921875 91.96875 L 201.101562 91.96875 L 201.101562 94.613281 L 52.921875 94.613281 Z M 52.921875 91.96875 "/>
<path style=" stroke:none;fill-rule:nonzero;fill:rgb(20%,20%,20%);fill-opacity:0.196078;" d="M 100.550781 113.136719 L 153.472656 113.136719 L 153.472656 123.71875 L 100.550781 123.71875 Z M 100.550781 113.136719 "/>
<path style=" stroke:none;fill-rule:nonzero;fill:rgb(20%,20%,20%);fill-opacity:0.196078;" d="M 105.84375 134.304688 L 148.179688 134.304688 L 148.179688 144.890625 L 105.84375 144.890625 Z M 105.84375 134.304688 "/>
<path style=" stroke:none;fill-rule:nonzero;fill:rgb(20%,20%,20%);fill-opacity:0.196078;" d="M 111.136719 155.472656 L 142.886719 155.472656 L 142.886719 166.058594 L 111.136719 166.058594 Z M 111.136719 155.472656 "/>
<path style=" stroke:none;fill-rule:nonzero;fill:rgb(20%,20%,20%);fill-opacity:0.196078;" d="M 116.429688 176.640625 L 137.597656 176.640625 L 137.597656 187.226562 L 116.429688 187.226562 Z M 116.429688 176.640625 "/>
</g>
</svg>
