<?xml version="1.0" encoding="UTF-8"?>
<svg xmlns="http://www.w3.org/2000/svg" xmlns:xlink="http://www.w3.org/1999/xlink" width="256pt" height="256pt" viewBox="0 0 256 256" version="1.1">
<defs>
<radialGradient id="radial0" gradientUnits="userSpaceOnUse" cx="254.000015" cy="54.395683" fx="254.000015" fy="54.395683" r="232.833313" gradientTransform="matrix(0.318212,0.452844,-0.389112,0.273427,67.352218,4.814989)">
<stop offset="0" style="stop-color:rgb(0%,0%,0%);stop-opacity:0.27451;"/>
<stop offset="1" style="stop-color:rgb(0%,0%,0%);stop-opacity:0;"/>
</radialGradient>
<linearGradient id="linear0" gradientUnits="userSpaceOnUse" x1="254" y1="275.833344" x2="254" y2="-179.25" gradientTransform="matrix(0.500048,0,0,0.500048,0,107.510266)">
<stop offset="0" style="stop-color:rgb(71.764706%,73.333333%,77.647059%);stop-opacity:1;"/>
<stop offset="1" style="stop-color:rgb(80%,81.568627%,84.313725%);stop-opacity:1;"/>
</linearGradient>
<linearGradient id="linear1" gradientUnits="userSpaceOnUse" x1="254" y1="275.833344" x2="254" y2="-179.25" gradientTransform="matrix(0.500048,0,0,0.500048,0,107.510263)">
<stop offset="0" style="stop-color:rgb(0%,0%,0%);stop-opacity:0.196078;"/>
<stop offset="1" style="stop-color:rgb(0%,0%,0%);stop-opacity:0;"/>
</linearGradient>
</defs>
<g id="surface1">
<path style=" stroke:none;fill-rule:nonzero;fill:url(#radial0);" d="M 127.011719 23.980469 L 160.832031 99.851562 L 243.441406 108.570312 L 181.734375 164.179688 L 198.96875 245.441406 L 127.011719 203.9375 L 55.054688 245.441406 L 72.292969 164.179688 L 10.585938 108.570312 L 93.191406 99.851562 Z M 127.011719 23.980469 "/>
<path style=" stroke:none;fill-rule:nonzero;fill:url(#linear0);" d="M 127.011719 19.246094 L 160.832031 95.117188 L 243.441406 103.835938 L 181.734375 159.445312 L 198.96875 240.707031 L 127.011719 199.203125 L 55.054688 240.707031 L 72.292969 159.445312 L 10.585938 103.835938 L 93.191406 95.117188 Z M 127.011719 19.246094 "/>
<path style=" stroke:none;fill-rule:nonzero;fill:rgb(32.549021%,33.333334%,36.470589%);fill-opacity:1;" d="M 126.605469 43.078125 L 154.15625 103.339844 L 221.457031 110.265625 L 171.183594 154.4375 L 185.226562 218.980469 L 126.605469 186.015625 L 67.984375 218.980469 L 82.023438 154.4375 L 31.753906 110.265625 L 99.050781 103.339844 Z M 126.605469 43.078125 "/>
<path style=" stroke:none;fill-rule:nonzero;fill:url(#linear1);" d="M 127.011719 19.246094 L 93.191406 95.117188 L 10.585938 103.835938 L 15.285156 108.074219 L 93.191406 99.851562 L 127.011719 23.980469 L 160.832031 99.851562 L 238.738281 108.074219 L 243.441406 103.835938 L 160.832031 95.117188 Z M 71.449219 163.421875 L 55.054688 240.707031 L 56.199219 240.046875 L 72.292969 164.179688 Z M 182.574219 163.421875 L 181.734375 164.179688 L 197.824219 240.046875 L 198.96875 240.707031 Z M 182.574219 163.421875 "/>
</g>
</svg>
