<?xml version="1.0" encoding="UTF-8"?>
<svg xmlns="http://www.w3.org/2000/svg" xmlns:xlink="http://www.w3.org/1999/xlink" width="16pt" height="16pt" viewBox="0 0 16 16" version="1.1">
<defs>
<radialGradient id="radial0" gradientUnits="userSpaceOnUse" cx="254.000015" cy="54.395683" fx="254.000015" fy="54.395683" r="232.833313" gradientTransform="matrix(0.0198883,0.0283028,-0.0243195,0.0170892,4.209514,0.300937)">
<stop offset="0" style="stop-color:rgb(0%,0%,0%);stop-opacity:0.27451;"/>
<stop offset="1" style="stop-color:rgb(0%,0%,0%);stop-opacity:0;"/>
</radialGradient>
<linearGradient id="linear0" gradientUnits="userSpaceOnUse" x1="254" y1="275.833344" x2="254" y2="-179.25" gradientTransform="matrix(0.031253,0,0,0.031253,0,6.719392)">
<stop offset="0" style="stop-color:rgb(71.764706%,73.333333%,77.647059%);stop-opacity:1;"/>
<stop offset="1" style="stop-color:rgb(80%,81.568627%,84.313725%);stop-opacity:1;"/>
</linearGradient>
<linearGradient id="linear1" gradientUnits="userSpaceOnUse" x1="254" y1="275.833344" x2="254" y2="-179.25" gradientTransform="matrix(0.031253,0,0,0.031253,0,6.719391)">
<stop offset="0" style="stop-color:rgb(0%,0%,0%);stop-opacity:0.196078;"/>
<stop offset="1" style="stop-color:rgb(0%,0%,0%);stop-opacity:0;"/>
</linearGradient>
</defs>
<g id="surface1">
<path style=" stroke:none;fill-rule:nonzero;fill:url(#radial0);" d="M 7.9375 1.5 L 10.050781 6.242188 L 15.214844 6.785156 L 11.359375 10.261719 L 12.433594 15.339844 L 7.9375 12.746094 L 3.441406 15.339844 L 4.519531 10.261719 L 0.660156 6.785156 L 5.824219 6.242188 Z M 7.9375 1.5 "/>
<path style=" stroke:none;fill-rule:nonzero;fill:url(#linear0);" d="M 7.9375 1.203125 L 10.050781 5.945312 L 15.214844 6.488281 L 11.359375 9.964844 L 12.433594 15.042969 L 7.9375 12.449219 L 3.441406 15.042969 L 4.519531 9.964844 L 0.660156 6.488281 L 5.824219 5.945312 Z M 7.9375 1.203125 "/>
<path style=" stroke:none;fill-rule:nonzero;fill:rgb(32.549021%,33.333334%,36.470589%);fill-opacity:1;" d="M 7.914062 2.691406 L 9.636719 6.457031 L 13.839844 6.890625 L 10.699219 9.652344 L 11.578125 13.6875 L 7.914062 11.625 L 4.25 13.6875 L 5.125 9.652344 L 1.984375 6.890625 L 6.191406 6.457031 Z M 7.914062 2.691406 "/>
<path style=" stroke:none;fill-rule:nonzero;fill:url(#linear1);" d="M 7.9375 1.203125 L 5.824219 5.945312 L 0.660156 6.488281 L 0.957031 6.753906 L 5.824219 6.242188 L 7.9375 1.5 L 10.050781 6.242188 L 14.921875 6.753906 L 15.214844 6.488281 L 10.050781 5.945312 Z M 4.464844 10.214844 L 3.441406 15.042969 L 3.511719 15.003906 L 4.519531 10.261719 Z M 11.410156 10.214844 L 11.359375 10.261719 L 12.363281 15.003906 L 12.433594 15.042969 Z M 11.410156 10.214844 "/>
</g>
</svg>
