<?xml version="1.0" encoding="UTF-8"?>
<svg xmlns="http://www.w3.org/2000/svg" xmlns:xlink="http://www.w3.org/1999/xlink" width="16pt" height="16pt" viewBox="0 0 16 16" version="1.1">
<defs>
<linearGradient id="linear0" gradientUnits="userSpaceOnUse" x1="254" y1="233.5" x2="254" y2="254.666672" gradientTransform="matrix(0.031253,0,0,0.031253,0,6.719392)">
<stop offset="0" style="stop-color:rgb(0%,0%,0%);stop-opacity:0.27451;"/>
<stop offset="1" style="stop-color:rgb(0%,0%,0%);stop-opacity:0;"/>
</linearGradient>
<radialGradient id="radial0" gradientUnits="userSpaceOnUse" cx="456.200623" cy="186.933533" fx="456.200623" fy="186.933533" r="21.166656" gradientTransform="matrix(0.0000000442589,0.062506,-0.062506,0.0000000430505,25.576396,-15.159838)">
<stop offset="0" style="stop-color:rgb(0%,0%,0%);stop-opacity:0.313725;"/>
<stop offset="0.499999" style="stop-color:rgb(0%,0%,0%);stop-opacity:0.27451;"/>
<stop offset="1" style="stop-color:rgb(0%,0%,0%);stop-opacity:0;"/>
</radialGradient>
<radialGradient id="radial1" gradientUnits="userSpaceOnUse" cx="63.5" cy="212.333359" fx="63.5" fy="212.333359" r="21.166666" gradientTransform="matrix(-0.062506,0.000000018568,-0.000000018568,-0.062506,5.953698,26.627546)">
<stop offset="0" style="stop-color:rgb(0%,0%,0%);stop-opacity:0.313725;"/>
<stop offset="0.499999" style="stop-color:rgb(0%,0%,0%);stop-opacity:0.27451;"/>
<stop offset="1" style="stop-color:rgb(0%,0%,0%);stop-opacity:0;"/>
</radialGradient>
<linearGradient id="linear1" gradientUnits="userSpaceOnUse" x1="359.833313" y1="-94.583336" x2="359.833344" y2="-115.75" gradientTransform="matrix(0.031253,0,0,0.031253,-0.000000430619,6.388632)">
<stop offset="0" style="stop-color:rgb(0%,0%,0%);stop-opacity:0.196078;"/>
<stop offset="1" style="stop-color:rgb(0%,0%,0%);stop-opacity:0;"/>
</linearGradient>
<linearGradient id="linear2" gradientUnits="userSpaceOnUse" x1="254" y1="233.5" x2="254" y2="-105.166656" >
<stop offset="0" style="stop-color:rgb(71.764706%,73.333333%,77.647059%);stop-opacity:1;"/>
<stop offset="1" style="stop-color:rgb(80%,81.568627%,84.313725%);stop-opacity:1;"/>
</linearGradient>
<linearGradient id="linear3" gradientUnits="userSpaceOnUse" x1="365.125" y1="-105.166672" x2="365.125" y2="-136.916672" >
<stop offset="0" style="stop-color:rgb(32.54902%,33.333333%,36.470588%);stop-opacity:1;"/>
<stop offset="1" style="stop-color:rgb(36.470588%,37.647059%,40.784314%);stop-opacity:1;"/>
</linearGradient>
</defs>
<g id="surface1">
<path style=" stroke:none;fill-rule:nonzero;fill:url(#linear0);" d="M 1.984375 14.015625 L 13.890625 14.015625 L 13.890625 14.679688 L 1.984375 14.679688 Z M 1.984375 14.015625 "/>
<path style=" stroke:none;fill-rule:nonzero;fill:url(#radial0);" d="M 13.890625 13.355469 L 15.214844 13.355469 L 15.214844 14.679688 L 13.890625 14.679688 Z M 13.890625 13.355469 "/>
<path style=" stroke:none;fill-rule:nonzero;fill:url(#radial1);" d="M 0.660156 13.355469 L 1.984375 13.355469 L 1.984375 14.679688 L 0.660156 14.679688 Z M 0.660156 13.355469 "/>
<path style=" stroke:none;fill-rule:nonzero;fill:url(#linear1);" d="M 7.277344 2.769531 L 14.554688 2.769531 L 14.554688 3.433594 L 7.277344 3.433594 Z M 7.277344 2.769531 "/>
<path style="fill-rule:nonzero;fill:url(#linear2);stroke-width:2;stroke-linecap:butt;stroke-linejoin:miter;stroke:rgb(30.19608%,30.19608%,30.19608%);stroke-opacity:1;stroke-miterlimit:4;" d="M 31.746968 -105.135492 L 476.204525 -105.135492 C 482.078964 -105.135492 486.82851 -100.385945 486.82851 -94.636494 L 486.82851 222.958177 C 486.82851 228.707628 482.078964 233.457174 476.204525 233.457174 L 31.746968 233.457174 C 25.872529 233.457174 21.122983 228.707628 21.122983 222.958177 L 21.122983 -94.636494 C 21.122983 -100.385945 25.872529 -105.135492 31.746968 -105.135492 Z M 31.746968 -105.135492 " transform="matrix(0.031253,0,0,0.031253,0,6.719392)"/>
<path style=" stroke:none;fill-rule:nonzero;fill:rgb(100%,100%,100%);fill-opacity:0.196078;" d="M 0.992188 3.433594 C 0.808594 3.433594 0.660156 3.582031 0.660156 3.761719 L 0.660156 3.929688 C 0.660156 3.746094 0.808594 3.597656 0.992188 3.597656 L 14.882812 3.597656 C 15.066406 3.597656 15.214844 3.746094 15.214844 3.929688 L 15.214844 3.761719 C 15.214844 3.582031 15.066406 3.433594 14.882812 3.433594 Z M 0.992188 3.433594 "/>
<path style=" stroke:none;fill-rule:nonzero;fill:rgb(0%,0%,0%);fill-opacity:0.196078;" d="M 0.992188 14.015625 C 0.808594 14.015625 0.660156 13.871094 0.660156 13.6875 L 0.660156 13.519531 C 0.660156 13.703125 0.808594 13.851562 0.992188 13.851562 L 14.882812 13.851562 C 15.066406 13.851562 15.214844 13.703125 15.214844 13.519531 L 15.214844 13.6875 C 15.214844 13.871094 15.066406 14.015625 14.882812 14.015625 Z M 0.992188 14.015625 "/>
<path style=" stroke:none;fill-rule:nonzero;fill:rgb(100%,100%,100%);fill-opacity:0.27451;" d="M 7.609375 2.441406 C 7.425781 2.441406 7.277344 2.585938 7.277344 2.769531 L 7.277344 2.9375 C 7.277344 2.753906 7.425781 2.605469 7.609375 2.605469 L 14.222656 2.605469 C 14.40625 2.605469 14.554688 2.753906 14.554688 2.9375 L 14.554688 2.769531 C 14.554688 2.585938 14.40625 2.441406 14.222656 2.441406 Z M 7.609375 2.441406 "/>
<path style="fill-rule:nonzero;fill:url(#linear3);stroke-width:0.264583;stroke-linecap:butt;stroke-linejoin:miter;stroke:rgb(74.509805%,78.431374%,71.764708%);stroke-opacity:1;stroke-miterlimit:4;" d="M 243.476749 -136.88246 C 237.60231 -136.88246 232.852764 -132.257901 232.852764 -126.383462 L 232.852764 -105.135492 L 465.705527 -105.135492 L 465.705527 -126.383462 C 465.705527 -132.257901 460.955981 -136.88246 455.081542 -136.88246 Z M 243.476749 -136.88246 " transform="matrix(0.031253,0,0,0.031253,0,6.719392)"/>
<path style=" stroke:none;fill-rule:nonzero;fill:rgb(20%,20%,20%);fill-opacity:1;" d="M 7.9375 12.363281 C 8.121094 12.363281 8.269531 12.511719 8.269531 12.695312 C 8.269531 12.875 8.121094 13.023438 7.9375 13.023438 C 7.753906 13.023438 7.609375 12.875 7.609375 12.695312 C 7.609375 12.511719 7.753906 12.363281 7.9375 12.363281 Z M 7.9375 12.363281 "/>
<path style=" stroke:none;fill-rule:nonzero;fill:rgb(20%,20%,20%);fill-opacity:1;" d="M 9.261719 12.363281 C 9.445312 12.363281 9.59375 12.511719 9.59375 12.695312 C 9.59375 12.875 9.445312 13.023438 9.261719 13.023438 C 9.078125 13.023438 8.929688 12.875 8.929688 12.695312 C 8.929688 12.511719 9.078125 12.363281 9.261719 12.363281 Z M 9.261719 12.363281 "/>
<path style=" stroke:none;fill-rule:nonzero;fill:rgb(20%,20%,20%);fill-opacity:1;" d="M 6.613281 12.363281 C 6.796875 12.363281 6.945312 12.511719 6.945312 12.695312 C 6.945312 12.875 6.796875 13.023438 6.613281 13.023438 C 6.433594 13.023438 6.285156 12.875 6.285156 12.695312 C 6.285156 12.511719 6.433594 12.363281 6.613281 12.363281 Z M 6.613281 12.363281 "/>
<path style=" stroke:none;fill-rule:nonzero;fill:rgb(57.647061%,67.450982%,61.56863%);fill-opacity:1;" d="M 9.261719 13.105469 C 9.078125 13.105469 8.929688 12.960938 8.929688 12.777344 C 8.929688 12.761719 8.929688 12.75 8.933594 12.734375 C 8.953125 12.898438 9.09375 13.023438 9.261719 13.023438 C 9.429688 13.023438 9.570312 12.898438 9.589844 12.734375 C 9.589844 12.75 9.59375 12.761719 9.59375 12.777344 C 9.59375 12.960938 9.445312 13.105469 9.261719 13.105469 Z M 9.261719 13.105469 "/>
<path style=" stroke:none;fill-rule:nonzero;fill:rgb(100%,100%,100%);fill-opacity:0.196078;" d="M 9.261719 13.105469 C 9.078125 13.105469 8.929688 12.960938 8.929688 12.777344 C 8.929688 12.761719 8.929688 12.75 8.933594 12.734375 C 8.953125 12.898438 9.09375 13.023438 9.261719 13.023438 C 9.429688 13.023438 9.570312 12.898438 9.589844 12.734375 C 9.589844 12.75 9.59375 12.761719 9.59375 12.777344 C 9.59375 12.960938 9.445312 13.105469 9.261719 13.105469 Z M 9.261719 13.105469 "/>
<path style=" stroke:none;fill-rule:nonzero;fill:rgb(100%,100%,100%);fill-opacity:0.196078;" d="M 7.941406 13.105469 C 7.757812 13.105469 7.609375 12.960938 7.609375 12.777344 C 7.609375 12.761719 7.609375 12.75 7.613281 12.734375 C 7.632812 12.898438 7.773438 13.023438 7.941406 13.023438 C 8.109375 13.023438 8.25 12.898438 8.269531 12.734375 C 8.269531 12.75 8.273438 12.761719 8.273438 12.777344 C 8.273438 12.960938 8.125 13.105469 7.941406 13.105469 Z M 7.941406 13.105469 "/>
<path style=" stroke:none;fill-rule:nonzero;fill:rgb(100%,100%,100%);fill-opacity:0.196078;" d="M 6.613281 13.105469 C 6.433594 13.105469 6.285156 12.960938 6.285156 12.777344 C 6.285156 12.761719 6.285156 12.75 6.285156 12.734375 C 6.308594 12.898438 6.445312 13.023438 6.613281 13.023438 C 6.785156 13.023438 6.921875 12.898438 6.941406 12.734375 C 6.945312 12.75 6.945312 12.761719 6.945312 12.777344 C 6.945312 12.960938 6.796875 13.105469 6.613281 13.105469 Z M 6.613281 13.105469 "/>
<path style=" stroke:none;fill-rule:nonzero;fill:rgb(0%,0%,0%);fill-opacity:0.196078;" d="M 6.613281 12.363281 C 6.796875 12.363281 6.945312 12.511719 6.945312 12.695312 C 6.945312 12.707031 6.945312 12.722656 6.941406 12.734375 C 6.921875 12.570312 6.785156 12.445312 6.613281 12.445312 C 6.445312 12.445312 6.308594 12.570312 6.285156 12.734375 C 6.285156 12.722656 6.285156 12.707031 6.285156 12.695312 C 6.285156 12.511719 6.433594 12.363281 6.613281 12.363281 Z M 6.613281 12.363281 "/>
<path style=" stroke:none;fill-rule:nonzero;fill:rgb(0%,0%,0%);fill-opacity:0.196078;" d="M 7.9375 12.363281 C 8.117188 12.363281 8.265625 12.511719 8.265625 12.695312 C 8.265625 12.707031 8.265625 12.722656 8.265625 12.734375 C 8.242188 12.570312 8.105469 12.445312 7.9375 12.445312 C 7.765625 12.445312 7.628906 12.570312 7.609375 12.734375 C 7.605469 12.722656 7.605469 12.707031 7.605469 12.695312 C 7.605469 12.511719 7.753906 12.363281 7.9375 12.363281 Z M 7.9375 12.363281 "/>
<path style=" stroke:none;fill-rule:nonzero;fill:rgb(0%,0%,0%);fill-opacity:0.196078;" d="M 9.261719 12.363281 C 9.445312 12.363281 9.59375 12.511719 9.59375 12.695312 C 9.59375 12.707031 9.589844 12.722656 9.589844 12.734375 C 9.570312 12.570312 9.429688 12.445312 9.261719 12.445312 C 9.09375 12.445312 8.953125 12.570312 8.933594 12.734375 C 8.929688 12.722656 8.929688 12.707031 8.929688 12.695312 C 8.929688 12.511719 9.078125 12.363281 9.261719 12.363281 Z M 9.261719 12.363281 "/>
<path style=" stroke:none;fill-rule:nonzero;fill:rgb(100%,100%,100%);fill-opacity:0.196078;" d="M 7.609375 2.441406 C 7.425781 2.441406 7.277344 2.585938 7.277344 2.769531 L 7.277344 2.9375 C 7.277344 2.753906 7.425781 2.605469 7.609375 2.605469 L 14.222656 2.605469 C 14.40625 2.605469 14.554688 2.753906 14.554688 2.9375 L 14.554688 2.769531 C 14.554688 2.585938 14.40625 2.441406 14.222656 2.441406 Z M 7.609375 2.441406 "/>
<path style=" stroke:none;fill-rule:nonzero;fill:rgb(32.549021%,33.333334%,36.470589%);fill-opacity:1;" d="M 8.304688 6.496094 C 7.914062 6.484375 7.53125 6.589844 7.207031 6.800781 L 7.597656 7.335938 C 7.910156 7.148438 8.304688 7.097656 8.675781 7.238281 C 9.046875 7.378906 9.3125 7.671875 9.421875 8.023438 L 10.070312 7.875 C 9.964844 7.503906 9.746094 7.171875 9.441406 6.925781 C 9.265625 7.109375 8.988281 7.179688 8.734375 7.082031 C 8.480469 6.988281 8.316406 6.753906 8.304688 6.496094 Z M 10.132812 8.199219 L 9.480469 8.347656 C 9.488281 8.507812 9.460938 8.675781 9.402344 8.835938 C 9.179688 9.425781 8.5625 9.746094 7.960938 9.609375 L 7.730469 10.230469 C 8.1875 10.359375 8.664062 10.308594 9.066406 10.113281 C 9.027344 9.976562 9.027344 9.828125 9.082031 9.6875 C 9.207031 9.347656 9.578125 9.175781 9.917969 9.292969 C 9.957031 9.222656 9.992188 9.144531 10.019531 9.066406 C 10.128906 8.78125 10.164062 8.484375 10.132812 8.199219 Z M 6.945312 7.003906 C 6.738281 7.199219 6.566406 7.441406 6.460938 7.730469 C 6.429688 7.808594 6.40625 7.890625 6.386719 7.96875 C 6.71875 8.101562 6.886719 8.476562 6.757812 8.816406 C 6.707031 8.957031 6.609375 9.070312 6.488281 9.144531 C 6.664062 9.558594 6.988281 9.910156 7.417969 10.113281 L 7.652344 9.492188 C 7.113281 9.203125 6.855469 8.554688 7.078125 7.964844 C 7.140625 7.800781 7.230469 7.660156 7.339844 7.546875 Z M 6.945312 7.003906 "/>
<path style=" stroke:none;fill-rule:nonzero;fill:rgb(32.549021%,33.333334%,36.470589%);fill-opacity:1;" d="M 9.113281 6.078125 C 9.324219 6.15625 9.433594 6.394531 9.355469 6.609375 C 9.273438 6.824219 9.035156 6.929688 8.820312 6.851562 C 8.609375 6.769531 8.5 6.53125 8.578125 6.320312 C 8.660156 6.105469 8.898438 5.996094 9.113281 6.078125 Z M 9.113281 6.078125 "/>
<path style=" stroke:none;fill-rule:nonzero;fill:rgb(32.549021%,33.333334%,36.470589%);fill-opacity:1;" d="M 6.285156 8.195312 C 6.5 8.273438 6.605469 8.511719 6.527344 8.726562 C 6.445312 8.941406 6.207031 9.050781 5.996094 8.96875 C 5.78125 8.890625 5.671875 8.652344 5.753906 8.4375 C 5.832031 8.222656 6.070312 8.113281 6.285156 8.195312 Z M 6.285156 8.195312 "/>
<path style=" stroke:none;fill-rule:nonzero;fill:rgb(32.549021%,33.333334%,36.470589%);fill-opacity:1;" d="M 9.847656 9.53125 C 10.058594 9.613281 10.167969 9.851562 10.089844 10.0625 C 10.007812 10.277344 9.769531 10.386719 9.554688 10.304688 C 9.339844 10.226562 9.234375 9.988281 9.3125 9.773438 C 9.394531 9.558594 9.632812 9.453125 9.847656 9.53125 Z M 9.847656 9.53125 "/>
</g>
</svg>
