<?xml version="1.0" encoding="UTF-8"?>
<svg xmlns="http://www.w3.org/2000/svg" xmlns:xlink="http://www.w3.org/1999/xlink" width="16pt" height="16pt" viewBox="0 0 16 16" version="1.1">
<defs>
<linearGradient id="linear0" gradientUnits="userSpaceOnUse" x1="254" y1="233.5" x2="254" y2="254.666672" gradientTransform="matrix(0.031253,0,0,0.031253,0,6.719391)">
<stop offset="0" style="stop-color:rgb(0%,0%,0%);stop-opacity:0.27451;"/>
<stop offset="1" style="stop-color:rgb(0%,0%,0%);stop-opacity:0;"/>
</linearGradient>
<radialGradient id="radial0" gradientUnits="userSpaceOnUse" cx="456.200623" cy="186.933533" fx="456.200623" fy="186.933533" r="21.166656" gradientTransform="matrix(0.0000000442589,0.062506,-0.062506,0.0000000430505,25.576396,-15.159838)">
<stop offset="0" style="stop-color:rgb(0%,0%,0%);stop-opacity:0.313725;"/>
<stop offset="0.499999" style="stop-color:rgb(0%,0%,0%);stop-opacity:0.27451;"/>
<stop offset="1" style="stop-color:rgb(0%,0%,0%);stop-opacity:0;"/>
</radialGradient>
<radialGradient id="radial1" gradientUnits="userSpaceOnUse" cx="63.5" cy="212.333359" fx="63.5" fy="212.333359" r="21.166666" gradientTransform="matrix(-0.062506,0.000000018568,-0.000000018568,-0.062506,5.953698,26.627546)">
<stop offset="0" style="stop-color:rgb(0%,0%,0%);stop-opacity:0.313725;"/>
<stop offset="0.499999" style="stop-color:rgb(0%,0%,0%);stop-opacity:0.27451;"/>
<stop offset="1" style="stop-color:rgb(0%,0%,0%);stop-opacity:0;"/>
</radialGradient>
<linearGradient id="linear1" gradientUnits="userSpaceOnUse" x1="254" y1="233.5" x2="254" y2="254.666672" gradientTransform="matrix(0.031253,0,0,0.031253,0,5.396348)">
<stop offset="0" style="stop-color:rgb(0%,0%,0%);stop-opacity:0.196078;"/>
<stop offset="1" style="stop-color:rgb(0%,0%,0%);stop-opacity:0;"/>
</linearGradient>
<radialGradient id="radial2" gradientUnits="userSpaceOnUse" cx="63.5" cy="212.333359" fx="63.5" fy="212.333359" r="21.166666" gradientTransform="matrix(-0.062506,0.000000018568,-0.000000018568,-0.062506,5.953698,25.304502)">
<stop offset="0" style="stop-color:rgb(0%,0%,0%);stop-opacity:0.313725;"/>
<stop offset="0.499999" style="stop-color:rgb(0%,0%,0%);stop-opacity:0.196078;"/>
<stop offset="1" style="stop-color:rgb(0%,0%,0%);stop-opacity:0;"/>
</radialGradient>
<linearGradient id="linear2" gradientUnits="userSpaceOnUse" x1="254" y1="233.5" x2="254" y2="-105.166656" gradientTransform="matrix(1,0,0,1,-0.0000138509,-63.50013)">
<stop offset="0" style="stop-color:rgb(71.764706%,73.333333%,77.647059%);stop-opacity:1;"/>
<stop offset="1" style="stop-color:rgb(80%,81.568627%,84.313725%);stop-opacity:1;"/>
</linearGradient>
</defs>
<g id="surface1">
<path style=" stroke:none;fill-rule:nonzero;fill:url(#linear0);" d="M 1.984375 14.015625 L 13.890625 14.015625 L 13.890625 14.679688 L 1.984375 14.679688 Z M 1.984375 14.015625 "/>
<path style=" stroke:none;fill-rule:nonzero;fill:url(#radial0);" d="M 13.890625 13.355469 L 15.214844 13.355469 L 15.214844 14.679688 L 13.890625 14.679688 Z M 13.890625 13.355469 "/>
<path style=" stroke:none;fill-rule:nonzero;fill:url(#radial1);" d="M 0.660156 13.355469 L 1.984375 13.355469 L 1.984375 14.679688 L 0.660156 14.679688 Z M 0.660156 13.355469 "/>
<path style=" stroke:none;fill-rule:nonzero;fill:url(#linear1);" d="M 1.984375 12.695312 L 13.890625 12.695312 L 13.890625 13.355469 L 1.984375 13.355469 Z M 1.984375 12.695312 "/>
<path style=" stroke:none;fill-rule:nonzero;fill:url(#radial2);" d="M 0.660156 12.03125 L 1.984375 12.03125 L 1.984375 13.355469 L 0.660156 13.355469 Z M 0.660156 12.03125 "/>
<path style="fill-rule:nonzero;fill:url(#linear2);stroke-width:2;stroke-linecap:butt;stroke-linejoin:miter;stroke:rgb(30.19608%,30.19608%,30.19608%);stroke-opacity:1;stroke-miterlimit:4;" d="M 42.370954 -168.629428 L 465.705527 -168.629428 C 477.329417 -168.629428 486.82851 -159.130335 486.82851 -147.506445 L 486.82851 212.334192 C 486.82851 224.08307 477.329417 233.457174 465.705527 233.457174 L 42.370954 233.457174 C 30.622076 233.457174 21.122983 224.08307 21.122983 212.334192 L 21.122983 -147.506445 C 21.122983 -159.130335 30.622076 -168.629428 42.370954 -168.629428 Z M 42.370954 -168.629428 " transform="matrix(0.031253,0,0,0.031253,0,6.719392)"/>
<path style=" stroke:none;fill-rule:nonzero;fill:rgb(20%,20%,20%);fill-opacity:1;" d="M 1.324219 1.449219 C 0.957031 1.449219 0.660156 1.742188 0.660156 2.109375 L 0.660156 2.769531 L 15.214844 2.769531 L 15.214844 2.109375 C 15.214844 1.742188 14.921875 1.449219 14.554688 1.449219 Z M 1.324219 1.449219 "/>
<path style=" stroke:none;fill-rule:nonzero;fill:rgb(100%,100%,100%);fill-opacity:0.196078;" d="M 1.324219 1.449219 C 0.957031 1.449219 0.660156 1.742188 0.660156 2.109375 L 0.660156 2.273438 C 0.660156 1.910156 0.957031 1.613281 1.324219 1.613281 L 14.554688 1.613281 C 14.921875 1.613281 15.214844 1.910156 15.214844 2.273438 L 15.214844 2.109375 C 15.214844 1.742188 14.921875 1.449219 14.554688 1.449219 Z M 1.324219 1.449219 "/>
<path style=" stroke:none;fill-rule:nonzero;fill:rgb(0%,0%,0%);fill-opacity:0.0784314;" d="M 14.554688 14.015625 C 14.921875 14.015625 15.214844 13.722656 15.214844 13.355469 L 15.214844 12.695312 C 15.214844 13.152344 14.921875 13.6875 14.554688 13.6875 L 1.324219 13.6875 C 0.957031 13.6875 0.660156 13.152344 0.660156 12.695312 L 0.660156 13.355469 C 0.660156 13.722656 0.957031 14.015625 1.324219 14.015625 Z M 14.554688 14.015625 "/>
<path style=" stroke:none;fill-rule:nonzero;fill:rgb(20%,20%,20%);fill-opacity:1;" d="M 1.984375 3.761719 L 2.644531 3.761719 L 2.644531 4.425781 L 1.984375 4.425781 Z M 1.984375 3.761719 "/>
<path style=" stroke:none;fill-rule:nonzero;fill:rgb(20%,20%,20%);fill-opacity:1;" d="M 1.984375 5.417969 L 2.644531 5.417969 L 2.644531 6.078125 L 1.984375 6.078125 Z M 1.984375 5.417969 "/>
<path style=" stroke:none;fill-rule:nonzero;fill:rgb(20%,20%,20%);fill-opacity:1;" d="M 12.898438 11.703125 L 13.5625 11.703125 L 13.5625 12.363281 L 12.898438 12.363281 Z M 12.898438 11.703125 "/>
<path style=" stroke:none;fill-rule:nonzero;fill:rgb(100%,100%,100%);fill-opacity:0.196078;" d="M 3.96875 -0.207031 C 3.601562 -0.207031 3.308594 0.0898438 3.308594 0.457031 L 3.308594 1.117188 C 3.308594 0.660156 3.601562 0.125 3.96875 0.125 L 17.199219 0.125 C 17.566406 0.125 17.859375 0.660156 17.859375 1.117188 L 17.859375 0.457031 C 17.859375 0.0898438 17.566406 -0.207031 17.199219 -0.207031 Z M 3.96875 -0.207031 "/>
</g>
</svg>
