<?xml version="1.0" encoding="UTF-8"?>
<svg xmlns="http://www.w3.org/2000/svg" xmlns:xlink="http://www.w3.org/1999/xlink" width="16pt" height="16pt" viewBox="0 0 16 16" version="1.1">
<defs>
<linearGradient id="linear0" gradientUnits="userSpaceOnUse" x1="254" y1="233.5" x2="254" y2="254.666672" gradientTransform="matrix(0.0173171,0,0,0.031253,0.223409,0.765698)">
<stop offset="0" style="stop-color:rgb(0%,0%,0%);stop-opacity:0.27451;"/>
<stop offset="1" style="stop-color:rgb(0%,0%,0%);stop-opacity:0;"/>
</linearGradient>
<radialGradient id="radial0" gradientUnits="userSpaceOnUse" cx="456.200623" cy="186.933533" fx="456.200623" fy="186.933533" r="21.166656" gradientTransform="matrix(0.0000000221294,0.0468795,-0.031253,0.0000000322879,13.780479,-13.653949)">
<stop offset="0" style="stop-color:rgb(0%,0%,0%);stop-opacity:0.313725;"/>
<stop offset="0.499999" style="stop-color:rgb(0%,0%,0%);stop-opacity:0.27451;"/>
<stop offset="1" style="stop-color:rgb(0%,0%,0%);stop-opacity:0;"/>
</radialGradient>
<radialGradient id="radial1" gradientUnits="userSpaceOnUse" cx="63.5" cy="212.333359" fx="63.5" fy="212.333359" r="21.166666" gradientTransform="matrix(-0.031253,0.000000013926,-0.00000000928399,-0.0468795,3.307609,17.686587)">
<stop offset="0" style="stop-color:rgb(0%,0%,0%);stop-opacity:0.313725;"/>
<stop offset="0.499999" style="stop-color:rgb(0%,0%,0%);stop-opacity:0.27451;"/>
<stop offset="1" style="stop-color:rgb(0%,0%,0%);stop-opacity:0;"/>
</radialGradient>
<linearGradient id="linear1" gradientUnits="userSpaceOnUse" x1="359.833344" y1="-105.16671" x2="359.833344" y2="-126.333382" gradientTransform="matrix(0.0156265,0,0,0.031253,0.992283,5.39635)">
<stop offset="0" style="stop-color:rgb(0%,0%,0%);stop-opacity:0.196078;"/>
<stop offset="1" style="stop-color:rgb(0%,0%,0%);stop-opacity:0;"/>
</linearGradient>
<linearGradient id="linear2" gradientUnits="userSpaceOnUse" x1="254" y1="85.333336" x2="254" y2="-105.166656" >
<stop offset="0" style="stop-color:rgb(46.27451%,49.411765%,57.647059%);stop-opacity:1;"/>
<stop offset="1" style="stop-color:rgb(56.078431%,59.607843%,65.490196%);stop-opacity:1;"/>
</linearGradient>
<linearGradient id="linear3" gradientUnits="userSpaceOnUse" x1="365.125" y1="-105.166672" x2="365.125" y2="-136.916672" gradientTransform="matrix(1,0,0,1,-84.666672,10.583337)">
<stop offset="0" style="stop-color:rgb(32.54902%,33.333333%,36.470588%);stop-opacity:1;"/>
<stop offset="1" style="stop-color:rgb(36.470588%,37.647059%,40.784314%);stop-opacity:1;"/>
</linearGradient>
<linearGradient id="linear4" gradientUnits="userSpaceOnUse" x1="254" y1="233.5" x2="254" y2="254.666672" gradientTransform="matrix(0.0173171,0,0,0.031253,6.838624,7.380912)">
<stop offset="0" style="stop-color:rgb(0%,0%,0%);stop-opacity:0.27451;"/>
<stop offset="1" style="stop-color:rgb(0%,0%,0%);stop-opacity:0;"/>
</linearGradient>
<radialGradient id="radial2" gradientUnits="userSpaceOnUse" cx="456.200623" cy="186.933533" fx="456.200623" fy="186.933533" r="21.166656" gradientTransform="matrix(0.0000000221294,0.0468795,-0.031253,0.0000000322879,20.395694,-7.038735)">
<stop offset="0" style="stop-color:rgb(0%,0%,0%);stop-opacity:0.313725;"/>
<stop offset="0.499999" style="stop-color:rgb(0%,0%,0%);stop-opacity:0.27451;"/>
<stop offset="1" style="stop-color:rgb(0%,0%,0%);stop-opacity:0;"/>
</radialGradient>
<radialGradient id="radial3" gradientUnits="userSpaceOnUse" cx="63.5" cy="212.333359" fx="63.5" fy="212.333359" r="21.166666" gradientTransform="matrix(-0.031253,0.000000013926,-0.00000000928399,-0.0468795,9.922825,24.301801)">
<stop offset="0" style="stop-color:rgb(0%,0%,0%);stop-opacity:0.313725;"/>
<stop offset="0.499999" style="stop-color:rgb(0%,0%,0%);stop-opacity:0.27451;"/>
<stop offset="1" style="stop-color:rgb(0%,0%,0%);stop-opacity:0;"/>
</radialGradient>
<linearGradient id="linear5" gradientUnits="userSpaceOnUse" x1="359.833344" y1="-105.16671" x2="359.833344" y2="-126.333382" gradientTransform="matrix(0.0156265,0,0,0.031253,7.607498,12.011565)">
<stop offset="0" style="stop-color:rgb(0%,0%,0%);stop-opacity:0.196078;"/>
<stop offset="1" style="stop-color:rgb(0%,0%,0%);stop-opacity:0;"/>
</linearGradient>
<linearGradient id="linear6" gradientUnits="userSpaceOnUse" x1="254" y1="233.5" x2="254" y2="-105.166656" >
<stop offset="0" style="stop-color:rgb(71.764706%,73.333333%,77.647059%);stop-opacity:1;"/>
<stop offset="1" style="stop-color:rgb(80%,81.568627%,84.313725%);stop-opacity:1;"/>
</linearGradient>
<linearGradient id="linear7" gradientUnits="userSpaceOnUse" x1="365.125" y1="-105.166672" x2="365.125" y2="-136.916672" gradientTransform="matrix(1,0,0,1,-84.666672,10.583337)">
<stop offset="0" style="stop-color:rgb(32.54902%,33.333333%,36.470588%);stop-opacity:1;"/>
<stop offset="1" style="stop-color:rgb(36.470588%,37.647059%,40.784314%);stop-opacity:1;"/>
</linearGradient>
</defs>
<g id="surface1">
<path style=" stroke:none;fill-rule:nonzero;fill:rgb(100%,100%,100%);fill-opacity:0.27451;" d="M 7.609375 2.441406 C 7.425781 2.441406 7.277344 2.585938 7.277344 2.769531 L 7.277344 2.9375 C 7.277344 2.753906 7.425781 2.605469 7.609375 2.605469 L 14.222656 2.605469 C 14.40625 2.605469 14.554688 2.753906 14.554688 2.9375 L 14.554688 2.769531 C 14.554688 2.585938 14.40625 2.441406 14.222656 2.441406 Z M 7.609375 2.441406 "/>
<path style=" stroke:none;fill-rule:nonzero;fill:url(#linear0);" d="M 1.324219 8.0625 L 7.921875 8.0625 L 7.921875 8.726562 L 1.324219 8.726562 Z M 1.324219 8.0625 "/>
<path style=" stroke:none;fill-rule:nonzero;fill:url(#radial0);" d="M 7.9375 7.734375 L 8.601562 7.734375 L 8.601562 8.726562 L 7.9375 8.726562 Z M 7.9375 7.734375 "/>
<path style=" stroke:none;fill-rule:nonzero;fill:url(#radial1);" d="M 0.660156 7.734375 L 1.324219 7.734375 L 1.324219 8.726562 L 0.660156 8.726562 Z M 0.660156 7.734375 "/>
<path style=" stroke:none;fill-rule:nonzero;fill:url(#linear1);" d="M 4.628906 1.449219 L 8.269531 1.449219 L 8.269531 2.109375 L 4.628906 2.109375 Z M 4.628906 1.449219 "/>
<path style="fill-rule:nonzero;fill:url(#linear2);stroke-width:2;stroke-linecap:butt;stroke-linejoin:miter;stroke:rgb(26.274511%,26.274511%,26.274511%);stroke-opacity:1;stroke-miterlimit:4;" d="M 31.746968 -105.173113 L 264.599732 -105.173113 C 270.474171 -105.173113 275.223717 -100.423567 275.223717 -94.549128 L 275.223717 74.809699 C 275.223717 80.55915 270.474171 85.308697 264.599732 85.308697 L 31.746968 85.308697 C 25.872529 85.308697 21.122983 80.55915 21.122983 74.809699 L 21.122983 -94.549128 C 21.122983 -100.423567 25.872529 -105.173113 31.746968 -105.173113 Z M 31.746968 -105.173113 " transform="matrix(0.031253,0,0,0.031253,0,5.396349)"/>
<path style=" stroke:none;fill-rule:nonzero;fill:rgb(100%,100%,100%);fill-opacity:0.196078;" d="M 0.992188 2.109375 C 0.808594 2.109375 0.660156 2.257812 0.660156 2.441406 L 0.660156 2.605469 C 0.660156 2.421875 0.808594 2.273438 0.992188 2.273438 L 8.269531 2.273438 C 8.453125 2.273438 8.601562 2.421875 8.601562 2.605469 L 8.601562 2.441406 C 8.601562 2.257812 8.453125 2.109375 8.269531 2.109375 Z M 0.992188 2.109375 "/>
<path style=" stroke:none;fill-rule:nonzero;fill:rgb(0%,0%,0%);fill-opacity:0.196078;" d="M 0.992188 8.0625 C 0.808594 8.0625 0.660156 7.914062 0.660156 7.734375 L 0.660156 7.566406 C 0.660156 7.75 0.808594 7.898438 0.992188 7.898438 L 8.269531 7.898438 C 8.453125 7.898438 8.601562 7.75 8.601562 7.566406 L 8.601562 7.734375 C 8.601562 7.914062 8.453125 8.0625 8.269531 8.0625 Z M 0.992188 8.0625 "/>
<path style="fill-rule:nonzero;fill:url(#linear3);stroke-width:0.264583;stroke-linecap:butt;stroke-linejoin:miter;stroke:rgb(74.509805%,78.431374%,71.764708%);stroke-opacity:1;stroke-miterlimit:4;" d="M 158.734842 -126.296096 C 152.860403 -126.296096 148.110856 -121.671538 148.110856 -115.797099 L 148.110856 -105.173113 L 264.599732 -105.173113 L 264.599732 -115.797099 C 264.599732 -121.671538 259.850186 -126.296096 253.975747 -126.296096 Z M 158.734842 -126.296096 " transform="matrix(0.031253,0,0,0.031253,0,5.396349)"/>
<path style=" stroke:none;fill-rule:nonzero;fill:rgb(20%,20%,20%);fill-opacity:1;" d="M 4.628906 6.90625 C 4.769531 6.90625 4.878906 7.015625 4.878906 7.152344 C 4.878906 7.289062 4.769531 7.402344 4.628906 7.402344 C 4.492188 7.402344 4.382812 7.289062 4.382812 7.152344 C 4.382812 7.015625 4.492188 6.90625 4.628906 6.90625 Z M 4.628906 6.90625 "/>
<path style=" stroke:none;fill-rule:nonzero;fill:rgb(100%,100%,100%);fill-opacity:0.196078;" d="M 4.960938 1.449219 C 4.777344 1.449219 4.628906 1.59375 4.628906 1.777344 L 4.628906 1.945312 C 4.628906 1.761719 4.777344 1.613281 4.960938 1.613281 L 7.9375 1.613281 C 8.121094 1.613281 8.269531 1.761719 8.269531 1.945312 L 8.269531 1.777344 C 8.269531 1.59375 8.121094 1.449219 7.9375 1.449219 Z M 4.960938 1.449219 "/>
<path style=" stroke:none;fill-rule:nonzero;fill:rgb(20%,20%,20%);fill-opacity:1;" d="M 5.621094 6.90625 C 5.761719 6.90625 5.871094 7.015625 5.871094 7.152344 C 5.871094 7.289062 5.761719 7.402344 5.621094 7.402344 C 5.484375 7.402344 5.375 7.289062 5.375 7.152344 C 5.375 7.015625 5.484375 6.90625 5.621094 6.90625 Z M 5.621094 6.90625 "/>
<path style=" stroke:none;fill-rule:nonzero;fill:rgb(20%,20%,20%);fill-opacity:1;" d="M 3.636719 6.90625 C 3.773438 6.90625 3.886719 7.015625 3.886719 7.152344 C 3.886719 7.289062 3.773438 7.402344 3.636719 7.402344 C 3.5 7.402344 3.390625 7.289062 3.390625 7.152344 C 3.390625 7.015625 3.5 6.90625 3.636719 6.90625 Z M 3.636719 6.90625 "/>
<path style=" stroke:none;fill-rule:nonzero;fill:url(#linear4);" d="M 7.9375 14.679688 L 14.535156 14.679688 L 14.535156 15.339844 L 7.9375 15.339844 Z M 7.9375 14.679688 "/>
<path style=" stroke:none;fill-rule:nonzero;fill:url(#radial2);" d="M 14.554688 14.347656 L 15.214844 14.347656 L 15.214844 15.339844 L 14.554688 15.339844 Z M 14.554688 14.347656 "/>
<path style=" stroke:none;fill-rule:nonzero;fill:url(#radial3);" d="M 7.277344 14.347656 L 7.9375 14.347656 L 7.9375 15.339844 L 7.277344 15.339844 Z M 7.277344 14.347656 "/>
<path style=" stroke:none;fill-rule:nonzero;fill:url(#linear5);" d="M 11.246094 8.0625 L 14.882812 8.0625 L 14.882812 8.726562 L 11.246094 8.726562 Z M 11.246094 8.0625 "/>
<path style="fill-rule:nonzero;fill:url(#linear6);stroke-width:2;stroke-linecap:butt;stroke-linejoin:miter;stroke:rgb(30.19608%,30.19608%,30.19608%);stroke-opacity:1;stroke-miterlimit:4;" d="M 31.810077 -105.109993 L 264.537853 -105.109993 C 270.412292 -105.109993 275.161838 -100.485434 275.161838 -94.610995 L 275.161838 74.747832 C 275.161838 80.622271 270.412292 85.371817 264.537853 85.371817 L 31.810077 85.371817 C 25.935638 85.371817 21.186092 80.622271 21.186092 74.747832 L 21.186092 -94.610995 C 21.186092 -100.485434 25.935638 -105.109993 31.810077 -105.109993 Z M 31.810077 -105.109993 " transform="matrix(0.031253,0,0,0.031253,6.615215,12.011563)"/>
<path style=" stroke:none;fill-rule:nonzero;fill:rgb(100%,100%,100%);fill-opacity:0.196078;" d="M 7.609375 8.726562 C 7.425781 8.726562 7.277344 8.871094 7.277344 9.054688 L 7.277344 9.222656 C 7.277344 9.039062 7.425781 8.890625 7.609375 8.890625 L 14.882812 8.890625 C 15.066406 8.890625 15.214844 9.039062 15.214844 9.222656 L 15.214844 9.054688 C 15.214844 8.871094 15.066406 8.726562 14.882812 8.726562 Z M 7.609375 8.726562 "/>
<path style=" stroke:none;fill-rule:nonzero;fill:rgb(0%,0%,0%);fill-opacity:0.196078;" d="M 7.609375 14.679688 C 7.425781 14.679688 7.277344 14.53125 7.277344 14.347656 L 7.277344 14.183594 C 7.277344 14.367188 7.425781 14.511719 7.609375 14.511719 L 14.882812 14.511719 C 15.066406 14.511719 15.214844 14.367188 15.214844 14.183594 L 15.214844 14.347656 C 15.214844 14.53125 15.066406 14.679688 14.882812 14.679688 Z M 7.609375 14.679688 "/>
<path style="fill-rule:nonzero;fill:url(#linear7);stroke-width:0.264583;stroke-linecap:butt;stroke-linejoin:miter;stroke:rgb(74.509805%,78.431374%,71.764708%);stroke-opacity:1;stroke-miterlimit:4;" d="M 158.797951 -126.357964 C 152.923512 -126.357964 148.173965 -121.608417 148.173965 -115.733978 L 148.173965 -105.109993 L 264.537853 -105.109993 L 264.537853 -115.733978 C 264.537853 -121.608417 259.913295 -126.357964 254.038856 -126.357964 Z M 158.797951 -126.357964 " transform="matrix(0.031253,0,0,0.031253,6.615215,12.011563)"/>
<path style=" stroke:none;fill-rule:nonzero;fill:rgb(20%,20%,20%);fill-opacity:1;" d="M 11.246094 13.519531 C 11.382812 13.519531 11.492188 13.632812 11.492188 13.769531 C 11.492188 13.90625 11.382812 14.015625 11.246094 14.015625 C 11.109375 14.015625 10.996094 13.90625 10.996094 13.769531 C 10.996094 13.632812 11.109375 13.519531 11.246094 13.519531 Z M 11.246094 13.519531 "/>
<path style=" stroke:none;fill-rule:nonzero;fill:rgb(100%,100%,100%);fill-opacity:0.196078;" d="M 11.578125 8.0625 C 11.394531 8.0625 11.246094 8.210938 11.246094 8.394531 L 11.246094 8.558594 C 11.246094 8.375 11.394531 8.230469 11.578125 8.230469 L 14.554688 8.230469 C 14.738281 8.230469 14.882812 8.375 14.882812 8.558594 L 14.882812 8.394531 C 14.882812 8.210938 14.738281 8.0625 14.554688 8.0625 Z M 11.578125 8.0625 "/>
<path style=" stroke:none;fill-rule:nonzero;fill:rgb(20%,20%,20%);fill-opacity:1;" d="M 12.238281 13.519531 C 12.375 13.519531 12.484375 13.632812 12.484375 13.769531 C 12.484375 13.90625 12.375 14.015625 12.238281 14.015625 C 12.101562 14.015625 11.988281 13.90625 11.988281 13.769531 C 11.988281 13.632812 12.101562 13.519531 12.238281 13.519531 Z M 12.238281 13.519531 "/>
<path style=" stroke:none;fill-rule:nonzero;fill:rgb(20%,20%,20%);fill-opacity:1;" d="M 10.253906 13.519531 C 10.390625 13.519531 10.5 13.632812 10.5 13.769531 C 10.5 13.90625 10.390625 14.015625 10.253906 14.015625 C 10.117188 14.015625 10.003906 13.90625 10.003906 13.769531 C 10.003906 13.632812 10.117188 13.519531 10.253906 13.519531 Z M 10.253906 13.519531 "/>
</g>
</svg>
