<?xml version="1.0" encoding="UTF-8"?>
<svg xmlns="http://www.w3.org/2000/svg" xmlns:xlink="http://www.w3.org/1999/xlink" width="16pt" height="16pt" viewBox="0 0 16 16" version="1.1">
<defs>
<linearGradient id="linear0" gradientUnits="userSpaceOnUse" x1="254" y1="233.5" x2="254" y2="254.666672" gradientTransform="matrix(0.031253,0,0,0.031253,0,6.719391)">
<stop offset="0" style="stop-color:rgb(0%,0%,0%);stop-opacity:0.27451;"/>
<stop offset="1" style="stop-color:rgb(0%,0%,0%);stop-opacity:0;"/>
</linearGradient>
<radialGradient id="radial0" gradientUnits="userSpaceOnUse" cx="456.200623" cy="186.933533" fx="456.200623" fy="186.933533" r="21.166656" gradientTransform="matrix(0.0000000442589,0.062506,-0.062506,0.0000000430505,25.576396,-15.159838)">
<stop offset="0" style="stop-color:rgb(0%,0%,0%);stop-opacity:0.313725;"/>
<stop offset="0.499999" style="stop-color:rgb(0%,0%,0%);stop-opacity:0.27451;"/>
<stop offset="1" style="stop-color:rgb(0%,0%,0%);stop-opacity:0;"/>
</radialGradient>
<radialGradient id="radial1" gradientUnits="userSpaceOnUse" cx="63.5" cy="212.333359" fx="63.5" fy="212.333359" r="21.166666" gradientTransform="matrix(-0.062506,0.000000018568,-0.000000018568,-0.062506,5.953698,26.627546)">
<stop offset="0" style="stop-color:rgb(0%,0%,0%);stop-opacity:0.313725;"/>
<stop offset="0.499999" style="stop-color:rgb(0%,0%,0%);stop-opacity:0.27451;"/>
<stop offset="1" style="stop-color:rgb(0%,0%,0%);stop-opacity:0;"/>
</radialGradient>
<linearGradient id="linear1" gradientUnits="userSpaceOnUse" x1="254" y1="233.5" x2="254" y2="254.666672" gradientTransform="matrix(0.031253,0,0,0.031253,0,5.396348)">
<stop offset="0" style="stop-color:rgb(0%,0%,0%);stop-opacity:0.196078;"/>
<stop offset="1" style="stop-color:rgb(0%,0%,0%);stop-opacity:0;"/>
</linearGradient>
<radialGradient id="radial2" gradientUnits="userSpaceOnUse" cx="63.5" cy="212.333359" fx="63.5" fy="212.333359" r="21.166666" gradientTransform="matrix(-0.062506,0.000000018568,-0.000000018568,-0.062506,5.953698,25.304502)">
<stop offset="0" style="stop-color:rgb(0%,0%,0%);stop-opacity:0.313725;"/>
<stop offset="0.499999" style="stop-color:rgb(0%,0%,0%);stop-opacity:0.196078;"/>
<stop offset="1" style="stop-color:rgb(0%,0%,0%);stop-opacity:0;"/>
</radialGradient>
<linearGradient id="linear2" gradientUnits="userSpaceOnUse" x1="254" y1="233.5" x2="254" y2="-105.166656" gradientTransform="matrix(1,0,0,1,-0.0000138509,-63.50013)">
<stop offset="0" style="stop-color:rgb(71.764706%,73.333333%,77.647059%);stop-opacity:1;"/>
<stop offset="1" style="stop-color:rgb(80%,81.568627%,84.313725%);stop-opacity:1;"/>
</linearGradient>
</defs>
<g id="surface1">
<path style=" stroke:none;fill-rule:nonzero;fill:url(#linear0);" d="M 1.984375 14.015625 L 13.890625 14.015625 L 13.890625 14.679688 L 1.984375 14.679688 Z M 1.984375 14.015625 "/>
<path style=" stroke:none;fill-rule:nonzero;fill:url(#radial0);" d="M 13.890625 13.355469 L 15.214844 13.355469 L 15.214844 14.679688 L 13.890625 14.679688 Z M 13.890625 13.355469 "/>
<path style=" stroke:none;fill-rule:nonzero;fill:url(#radial1);" d="M 0.660156 13.355469 L 1.984375 13.355469 L 1.984375 14.679688 L 0.660156 14.679688 Z M 0.660156 13.355469 "/>
<path style=" stroke:none;fill-rule:nonzero;fill:url(#linear1);" d="M 1.984375 12.695312 L 13.890625 12.695312 L 13.890625 13.355469 L 1.984375 13.355469 Z M 1.984375 12.695312 "/>
<path style=" stroke:none;fill-rule:nonzero;fill:url(#radial2);" d="M 0.660156 12.03125 L 1.984375 12.03125 L 1.984375 13.355469 L 0.660156 13.355469 Z M 0.660156 12.03125 "/>
<path style="fill-rule:nonzero;fill:url(#linear2);stroke-width:2;stroke-linecap:butt;stroke-linejoin:miter;stroke:rgb(30.19608%,30.19608%,30.19608%);stroke-opacity:1;stroke-miterlimit:4;" d="M 42.370954 -168.629428 L 465.705527 -168.629428 C 477.329417 -168.629428 486.82851 -159.130335 486.82851 -147.506445 L 486.82851 212.334192 C 486.82851 224.08307 477.329417 233.457174 465.705527 233.457174 L 42.370954 233.457174 C 30.622076 233.457174 21.122983 224.08307 21.122983 212.334192 L 21.122983 -147.506445 C 21.122983 -159.130335 30.622076 -168.629428 42.370954 -168.629428 Z M 42.370954 -168.629428 " transform="matrix(0.031253,0,0,0.031253,0,6.719392)"/>
<path style=" stroke:none;fill-rule:nonzero;fill:rgb(100%,100%,100%);fill-opacity:0.196078;" d="M 1.324219 1.449219 C 0.957031 1.449219 0.660156 1.742188 0.660156 2.109375 L 0.660156 2.273438 C 0.660156 1.910156 0.957031 1.613281 1.324219 1.613281 L 14.554688 1.613281 C 14.921875 1.613281 15.214844 1.910156 15.214844 2.273438 L 15.214844 2.109375 C 15.214844 1.742188 14.921875 1.449219 14.554688 1.449219 Z M 1.324219 1.449219 "/>
<path style=" stroke:none;fill-rule:nonzero;fill:rgb(0%,0%,0%);fill-opacity:0.0784314;" d="M 14.554688 14.015625 C 14.921875 14.015625 15.214844 13.722656 15.214844 13.355469 L 15.214844 12.695312 C 15.214844 13.152344 14.921875 13.6875 14.554688 13.6875 L 1.324219 13.6875 C 0.957031 13.6875 0.660156 13.152344 0.660156 12.695312 L 0.660156 13.355469 C 0.660156 13.722656 0.957031 14.015625 1.324219 14.015625 Z M 14.554688 14.015625 "/>
<path style=" stroke:none;fill-rule:nonzero;fill:rgb(100%,100%,100%);fill-opacity:0.196078;" d="M 3.96875 -0.207031 C 3.601562 -0.207031 3.308594 0.0898438 3.308594 0.457031 L 3.308594 1.117188 C 3.308594 0.660156 3.601562 0.125 3.96875 0.125 L 17.199219 0.125 C 17.566406 0.125 17.859375 0.660156 17.859375 1.117188 L 17.859375 0.457031 C 17.859375 0.0898438 17.566406 -0.207031 17.199219 -0.207031 Z M 3.96875 -0.207031 "/>
<path style=" stroke:none;fill-rule:nonzero;fill:rgb(32.549021%,33.333334%,36.470589%);fill-opacity:1;" d="M 5.621094 7.507812 C 5.621094 8.578125 6.316406 9.476562 7.277344 9.789062 L 7.277344 9.097656 C 6.6875 8.816406 6.285156 8.214844 6.285156 7.507812 C 6.285156 6.535156 7.058594 5.75 8.019531 5.75 C 8.980469 5.75 9.753906 6.535156 9.753906 7.507812 C 9.753906 8.070312 9.496094 8.570312 9.097656 8.890625 L 9.097656 9.65625 C 9.882812 9.261719 10.417969 8.449219 10.417969 7.507812 C 10.417969 6.179688 9.347656 5.109375 8.019531 5.109375 C 6.691406 5.109375 5.621094 6.179688 5.621094 7.507812 Z M 5.621094 7.507812 "/>
<path style=" stroke:none;fill-rule:nonzero;fill:rgb(32.549021%,33.333334%,36.470589%);fill-opacity:1;" d="M 7.773438 9.824219 L 7.195312 8.667969 L 6.449219 9.824219 Z M 7.773438 9.824219 "/>
<path style=" stroke:none;fill-rule:nonzero;fill:rgb(32.549021%,33.333334%,36.470589%);fill-opacity:1;" d="M 1.820312 3.101562 C 2.09375 3.101562 2.316406 3.324219 2.316406 3.597656 C 2.316406 3.871094 2.09375 4.09375 1.820312 4.09375 C 1.546875 4.09375 1.324219 3.871094 1.324219 3.597656 C 1.324219 3.324219 1.546875 3.101562 1.820312 3.101562 Z M 1.820312 3.101562 "/>
<path style=" stroke:none;fill-rule:nonzero;fill:rgb(32.549021%,33.333334%,36.470589%);fill-opacity:1;" d="M 1.820312 11.371094 C 2.09375 11.371094 2.316406 11.59375 2.316406 11.867188 C 2.316406 12.140625 2.09375 12.363281 1.820312 12.363281 C 1.546875 12.363281 1.324219 12.140625 1.324219 11.867188 C 1.324219 11.59375 1.546875 11.371094 1.820312 11.371094 Z M 1.820312 11.371094 "/>
<path style=" stroke:none;fill-rule:nonzero;fill:rgb(32.549021%,33.333334%,36.470589%);fill-opacity:1;" d="M 1.820312 4.753906 C 2.09375 4.753906 2.316406 4.976562 2.316406 5.25 C 2.316406 5.527344 2.09375 5.746094 1.820312 5.746094 C 1.546875 5.746094 1.324219 5.527344 1.324219 5.25 C 1.324219 4.976562 1.546875 4.753906 1.820312 4.753906 Z M 1.820312 4.753906 "/>
<path style=" stroke:none;fill-rule:nonzero;fill:rgb(32.549021%,33.333334%,36.470589%);fill-opacity:1;" d="M 1.820312 9.71875 C 2.09375 9.71875 2.316406 9.9375 2.316406 10.214844 C 2.316406 10.488281 2.09375 10.710938 1.820312 10.710938 C 1.546875 10.710938 1.324219 10.488281 1.324219 10.214844 C 1.324219 9.9375 1.546875 9.71875 1.820312 9.71875 Z M 1.820312 9.71875 "/>
<path style=" stroke:none;fill-rule:nonzero;fill:rgb(32.549021%,33.333334%,36.470589%);fill-opacity:1;" d="M 1.820312 8.0625 C 2.09375 8.0625 2.316406 8.285156 2.316406 8.558594 C 2.316406 8.832031 2.09375 9.054688 1.820312 9.054688 C 1.546875 9.054688 1.324219 8.832031 1.324219 8.558594 C 1.324219 8.285156 1.546875 8.0625 1.820312 8.0625 Z M 1.820312 8.0625 "/>
<path style=" stroke:none;fill-rule:nonzero;fill:rgb(32.549021%,33.333334%,36.470589%);fill-opacity:1;" d="M 1.820312 6.410156 C 2.09375 6.410156 2.316406 6.632812 2.316406 6.90625 C 2.316406 7.179688 2.09375 7.402344 1.820312 7.402344 C 1.546875 7.402344 1.324219 7.179688 1.324219 6.90625 C 1.324219 6.632812 1.546875 6.410156 1.820312 6.410156 Z M 1.820312 6.410156 "/>
<path style=" stroke:none;fill-rule:nonzero;fill:rgb(32.549021%,33.333334%,36.470589%);fill-opacity:1;" d="M 14.058594 3.101562 C 14.332031 3.101562 14.554688 3.324219 14.554688 3.597656 C 14.554688 3.871094 14.332031 4.09375 14.058594 4.09375 C 13.785156 4.09375 13.5625 3.871094 13.5625 3.597656 C 13.5625 3.324219 13.785156 3.101562 14.058594 3.101562 Z M 14.058594 3.101562 "/>
<path style=" stroke:none;fill-rule:nonzero;fill:rgb(32.549021%,33.333334%,36.470589%);fill-opacity:1;" d="M 14.058594 11.371094 C 14.332031 11.371094 14.554688 11.59375 14.554688 11.867188 C 14.554688 12.140625 14.332031 12.363281 14.058594 12.363281 C 13.785156 12.363281 13.5625 12.140625 13.5625 11.867188 C 13.5625 11.59375 13.785156 11.371094 14.058594 11.371094 Z M 14.058594 11.371094 "/>
<path style=" stroke:none;fill-rule:nonzero;fill:rgb(32.549021%,33.333334%,36.470589%);fill-opacity:1;" d="M 14.058594 4.753906 C 14.332031 4.753906 14.554688 4.976562 14.554688 5.25 C 14.554688 5.527344 14.332031 5.746094 14.058594 5.746094 C 13.785156 5.746094 13.5625 5.527344 13.5625 5.25 C 13.5625 4.976562 13.785156 4.753906 14.058594 4.753906 Z M 14.058594 4.753906 "/>
<path style=" stroke:none;fill-rule:nonzero;fill:rgb(32.549021%,33.333334%,36.470589%);fill-opacity:1;" d="M 14.058594 9.71875 C 14.332031 9.71875 14.554688 9.9375 14.554688 10.214844 C 14.554688 10.488281 14.332031 10.710938 14.058594 10.710938 C 13.785156 10.710938 13.5625 10.488281 13.5625 10.214844 C 13.5625 9.9375 13.785156 9.71875 14.058594 9.71875 Z M 14.058594 9.71875 "/>
<path style=" stroke:none;fill-rule:nonzero;fill:rgb(32.549021%,33.333334%,36.470589%);fill-opacity:1;" d="M 14.058594 8.0625 C 14.332031 8.0625 14.554688 8.285156 14.554688 8.558594 C 14.554688 8.832031 14.332031 9.054688 14.058594 9.054688 C 13.785156 9.054688 13.5625 8.832031 13.5625 8.558594 C 13.5625 8.285156 13.785156 8.0625 14.058594 8.0625 Z M 14.058594 8.0625 "/>
<path style=" stroke:none;fill-rule:nonzero;fill:rgb(32.549021%,33.333334%,36.470589%);fill-opacity:1;" d="M 14.058594 6.410156 C 14.332031 6.410156 14.554688 6.632812 14.554688 6.90625 C 14.554688 7.179688 14.332031 7.402344 14.058594 7.402344 C 13.785156 7.402344 13.5625 7.179688 13.5625 6.90625 C 13.5625 6.632812 13.785156 6.410156 14.058594 6.410156 Z M 14.058594 6.410156 "/>
</g>
</svg>
