<?xml version="1.0" encoding="UTF-8"?>
<svg xmlns="http://www.w3.org/2000/svg" xmlns:xlink="http://www.w3.org/1999/xlink" width="16pt" height="16pt" viewBox="0 0 16 16" version="1.1">
<defs>
<linearGradient id="linear0" gradientUnits="userSpaceOnUse" x1="365.125" y1="-105.166672" x2="365.125" y2="-136.916672" gradientTransform="matrix(1.818182,0,0,1,-381,227.477417)">
<stop offset="0" style="stop-color:rgb(32.54902%,33.333333%,36.470588%);stop-opacity:1;"/>
<stop offset="1" style="stop-color:rgb(36.470588%,37.647059%,40.784314%);stop-opacity:1;"/>
</linearGradient>
<linearGradient id="linear1" gradientUnits="userSpaceOnUse" x1="254" y1="233.5" x2="254" y2="254.666672" gradientTransform="matrix(0.031253,0,0,0.031253,0,6.719392)">
<stop offset="0" style="stop-color:rgb(0%,0%,0%);stop-opacity:0.27451;"/>
<stop offset="1" style="stop-color:rgb(0%,0%,0%);stop-opacity:0;"/>
</linearGradient>
<radialGradient id="radial0" gradientUnits="userSpaceOnUse" cx="456.200623" cy="186.933533" fx="456.200623" fy="186.933533" r="21.166656" gradientTransform="matrix(0.0000000442589,0.062506,-0.062506,0.0000000430505,25.576396,-15.159838)">
<stop offset="0" style="stop-color:rgb(0%,0%,0%);stop-opacity:0.313725;"/>
<stop offset="0.499999" style="stop-color:rgb(0%,0%,0%);stop-opacity:0.27451;"/>
<stop offset="1" style="stop-color:rgb(0%,0%,0%);stop-opacity:0;"/>
</radialGradient>
<radialGradient id="radial1" gradientUnits="userSpaceOnUse" cx="63.5" cy="212.333359" fx="63.5" fy="212.333359" r="21.166666" gradientTransform="matrix(-0.062506,0.000000018568,-0.000000018568,-0.062506,5.953698,26.627546)">
<stop offset="0" style="stop-color:rgb(0%,0%,0%);stop-opacity:0.313725;"/>
<stop offset="0.499999" style="stop-color:rgb(0%,0%,0%);stop-opacity:0.27451;"/>
<stop offset="1" style="stop-color:rgb(0%,0%,0%);stop-opacity:0;"/>
</radialGradient>
<linearGradient id="linear2" gradientUnits="userSpaceOnUse" x1="254" y1="233.5" x2="254" y2="-105.166656" gradientTransform="matrix(1,0,0,1,0.000019443,-0.0000178019)">
<stop offset="0" style="stop-color:rgb(71.764706%,73.333333%,77.647059%);stop-opacity:1;"/>
<stop offset="1" style="stop-color:rgb(80%,81.568627%,84.313725%);stop-opacity:1;"/>
</linearGradient>
<linearGradient id="linear3" gradientUnits="userSpaceOnUse" x1="365.125" y1="-105.166672" x2="365.125" y2="-136.916672" gradientTransform="matrix(1.818182,0,0,1,-381,79.375008)">
<stop offset="0" style="stop-color:rgb(32.54902%,33.333333%,36.470588%);stop-opacity:1;"/>
<stop offset="1" style="stop-color:rgb(36.470588%,37.647059%,40.784314%);stop-opacity:1;"/>
</linearGradient>
<linearGradient id="linear4" gradientUnits="userSpaceOnUse" x1="254" y1="233.5" x2="254" y2="254.666672" gradientTransform="matrix(0.031253,0,0,0.031253,0,-2.70729)">
<stop offset="0" style="stop-color:rgb(0%,0%,0%);stop-opacity:0.27451;"/>
<stop offset="1" style="stop-color:rgb(0%,0%,0%);stop-opacity:0;"/>
</linearGradient>
<radialGradient id="radial2" gradientUnits="userSpaceOnUse" cx="456.200623" cy="186.933533" fx="456.200623" fy="186.933533" r="21.166656" gradientTransform="matrix(0.0000000442589,0.062506,-0.062506,0.0000000430505,25.576396,-24.586519)">
<stop offset="0" style="stop-color:rgb(0%,0%,0%);stop-opacity:0.313725;"/>
<stop offset="0.499999" style="stop-color:rgb(0%,0%,0%);stop-opacity:0.27451;"/>
<stop offset="1" style="stop-color:rgb(0%,0%,0%);stop-opacity:0;"/>
</radialGradient>
<radialGradient id="radial3" gradientUnits="userSpaceOnUse" cx="63.5" cy="212.333359" fx="63.5" fy="212.333359" r="21.166666" gradientTransform="matrix(-0.062506,0.000000018568,-0.000000018568,-0.062506,5.953698,17.200865)">
<stop offset="0" style="stop-color:rgb(0%,0%,0%);stop-opacity:0.313725;"/>
<stop offset="0.499999" style="stop-color:rgb(0%,0%,0%);stop-opacity:0.27451;"/>
<stop offset="1" style="stop-color:rgb(0%,0%,0%);stop-opacity:0;"/>
</radialGradient>
<linearGradient id="linear5" gradientUnits="userSpaceOnUse" x1="254" y1="233.5" x2="254" y2="-105.166656" gradientTransform="matrix(1,0,0,1,0.000019443,-0.0000178019)">
<stop offset="0" style="stop-color:rgb(71.764706%,73.333333%,77.647059%);stop-opacity:1;"/>
<stop offset="1" style="stop-color:rgb(80%,81.568627%,84.313725%);stop-opacity:1;"/>
</linearGradient>
<linearGradient id="linear6" gradientUnits="userSpaceOnUse" x1="254" y1="233.5" x2="254" y2="254.666672" gradientTransform="matrix(0.031253,0,0,0.031253,0,2.088741)">
<stop offset="0" style="stop-color:rgb(0%,0%,0%);stop-opacity:0.27451;"/>
<stop offset="1" style="stop-color:rgb(0%,0%,0%);stop-opacity:0;"/>
</linearGradient>
<radialGradient id="radial4" gradientUnits="userSpaceOnUse" cx="456.200623" cy="186.933533" fx="456.200623" fy="186.933533" r="21.166656" gradientTransform="matrix(0.0000000442589,0.062506,-0.062506,0.0000000430505,25.576396,-19.790488)">
<stop offset="0" style="stop-color:rgb(0%,0%,0%);stop-opacity:0.313725;"/>
<stop offset="0.499999" style="stop-color:rgb(0%,0%,0%);stop-opacity:0.27451;"/>
<stop offset="1" style="stop-color:rgb(0%,0%,0%);stop-opacity:0;"/>
</radialGradient>
<radialGradient id="radial5" gradientUnits="userSpaceOnUse" cx="63.5" cy="212.333359" fx="63.5" fy="212.333359" r="21.166666" gradientTransform="matrix(-0.062506,0.000000018568,-0.000000018568,-0.062506,5.953698,21.996896)">
<stop offset="0" style="stop-color:rgb(0%,0%,0%);stop-opacity:0.313725;"/>
<stop offset="0.499999" style="stop-color:rgb(0%,0%,0%);stop-opacity:0.27451;"/>
<stop offset="1" style="stop-color:rgb(0%,0%,0%);stop-opacity:0;"/>
</radialGradient>
<linearGradient id="linear7" gradientUnits="userSpaceOnUse" x1="254" y1="233.5" x2="254" y2="-105.166656" gradientTransform="matrix(1,0,0,1,0.000019443,-0.0000178019)">
<stop offset="0" style="stop-color:rgb(71.764706%,73.333333%,77.647059%);stop-opacity:1;"/>
<stop offset="1" style="stop-color:rgb(80%,81.568627%,84.313725%);stop-opacity:1;"/>
</linearGradient>
</defs>
<g id="surface1">
<path style="fill-rule:nonzero;fill:url(#linear0);stroke-width:0.356764;stroke-linecap:butt;stroke-linejoin:miter;stroke:rgb(74.509805%,78.431374%,71.764708%);stroke-opacity:1;stroke-miterlimit:4;" d="M 61.619116 64.223336 C 50.870142 64.223336 42.370954 68.847894 42.370954 74.722333 L 42.370954 122.342785 L 465.705527 122.342785 L 465.705527 74.722333 C 465.705527 68.847894 457.081351 64.223336 446.457365 64.223336 Z M 61.619116 64.223336 " transform="matrix(0.031253,0,0,0.031253,0,6.719392)"/>
<path style=" stroke:none;fill-rule:nonzero;fill:url(#linear1);" d="M 1.984375 14.015625 L 13.890625 14.015625 L 13.890625 14.679688 L 1.984375 14.679688 Z M 1.984375 14.015625 "/>
<path style=" stroke:none;fill-rule:nonzero;fill:url(#radial0);" d="M 13.890625 13.355469 L 15.214844 13.355469 L 15.214844 14.679688 L 13.890625 14.679688 Z M 13.890625 13.355469 "/>
<path style=" stroke:none;fill-rule:nonzero;fill:url(#radial1);" d="M 0.660156 13.355469 L 1.984375 13.355469 L 1.984375 14.679688 L 0.660156 14.679688 Z M 0.660156 13.355469 "/>
<path style="fill-rule:nonzero;fill:url(#linear2);stroke-width:2;stroke-linecap:butt;stroke-linejoin:miter;stroke:rgb(30.19608%,30.19608%,30.19608%);stroke-opacity:1;stroke-miterlimit:4;" d="M 31.746968 122.342785 L 476.204525 122.342785 C 482.078964 122.342785 486.82851 127.092332 486.82851 132.966771 L 486.82851 222.958177 C 486.82851 228.707628 482.078964 233.457174 476.204525 233.457174 L 31.746968 233.457174 C 25.872529 233.457174 21.122983 228.707628 21.122983 222.958177 L 21.122983 132.966771 C 21.122983 127.092332 25.872529 122.342785 31.746968 122.342785 Z M 31.746968 122.342785 " transform="matrix(0.031253,0,0,0.031253,0,6.719392)"/>
<path style=" stroke:none;fill-rule:nonzero;fill:rgb(100%,100%,100%);fill-opacity:0.196078;" d="M 0.992188 10.542969 C 0.808594 10.542969 0.660156 10.691406 0.660156 10.875 L 0.660156 11.039062 C 0.660156 10.855469 0.808594 10.710938 0.992188 10.710938 L 14.882812 10.710938 C 15.066406 10.710938 15.214844 10.855469 15.214844 11.039062 L 15.214844 10.875 C 15.214844 10.691406 15.066406 10.542969 14.882812 10.542969 Z M 0.992188 10.542969 "/>
<path style=" stroke:none;fill-rule:nonzero;fill:rgb(0%,0%,0%);fill-opacity:0.196078;" d="M 0.992188 14.015625 C 0.808594 14.015625 0.660156 13.871094 0.660156 13.6875 L 0.660156 13.519531 C 0.660156 13.703125 0.808594 13.851562 0.992188 13.851562 L 14.882812 13.851562 C 15.066406 13.851562 15.214844 13.703125 15.214844 13.519531 L 15.214844 13.6875 C 15.214844 13.871094 15.066406 14.015625 14.882812 14.015625 Z M 0.992188 14.015625 "/>
<path style=" stroke:none;fill-rule:nonzero;fill:rgb(100%,100%,100%);fill-opacity:0.27451;" d="M 7.609375 2.441406 C 7.425781 2.441406 7.277344 2.585938 7.277344 2.769531 L 7.277344 2.9375 C 7.277344 2.753906 7.425781 2.605469 7.609375 2.605469 L 14.222656 2.605469 C 14.40625 2.605469 14.554688 2.753906 14.554688 2.9375 L 14.554688 2.769531 C 14.554688 2.585938 14.40625 2.441406 14.222656 2.441406 Z M 7.609375 2.441406 "/>
<path style="fill-rule:nonzero;fill:url(#linear3);stroke-width:0.356764;stroke-linecap:butt;stroke-linejoin:miter;stroke:rgb(74.509805%,78.431374%,71.764708%);stroke-opacity:1;stroke-miterlimit:4;" d="M 61.619116 -83.887521 C 50.870142 -83.887521 42.370954 -79.262962 42.370954 -73.388523 L 42.370954 -25.768071 L 465.705527 -25.768071 L 465.705527 -73.388523 C 465.705527 -79.262962 457.081351 -83.887521 446.457365 -83.887521 Z M 61.619116 -83.887521 " transform="matrix(0.031253,0,0,0.031253,0,6.719392)"/>
<path style=" stroke:none;fill-rule:nonzero;fill:url(#linear4);" d="M 1.984375 4.589844 L 13.890625 4.589844 L 13.890625 5.25 L 1.984375 5.25 Z M 1.984375 4.589844 "/>
<path style=" stroke:none;fill-rule:nonzero;fill:url(#radial2);" d="M 13.890625 3.929688 L 15.214844 3.929688 L 15.214844 5.25 L 13.890625 5.25 Z M 13.890625 3.929688 "/>
<path style=" stroke:none;fill-rule:nonzero;fill:url(#radial3);" d="M 0.660156 3.929688 L 1.984375 3.929688 L 1.984375 5.25 L 0.660156 5.25 Z M 0.660156 3.929688 "/>
<path style="fill-rule:nonzero;fill:url(#linear5);stroke-width:2;stroke-linecap:butt;stroke-linejoin:miter;stroke:rgb(30.19608%,30.19608%,30.19608%);stroke-opacity:1;stroke-miterlimit:4;" d="M 31.746968 122.371586 L 476.204525 122.371586 C 482.078964 122.371586 486.82851 127.121133 486.82851 132.995572 L 486.82851 222.86199 C 486.82851 228.736429 482.078964 233.485975 476.204525 233.485975 L 31.746968 233.485975 C 25.872529 233.485975 21.122983 228.736429 21.122983 222.86199 L 21.122983 132.995572 C 21.122983 127.121133 25.872529 122.371586 31.746968 122.371586 Z M 31.746968 122.371586 " transform="matrix(0.031253,0,0,0.031253,0,-2.70729)"/>
<path style=" stroke:none;fill-rule:nonzero;fill:rgb(100%,100%,100%);fill-opacity:0.196078;" d="M 0.992188 1.117188 C 0.808594 1.117188 0.660156 1.265625 0.660156 1.449219 L 0.660156 1.613281 C 0.660156 1.429688 0.808594 1.28125 0.992188 1.28125 L 14.882812 1.28125 C 15.066406 1.28125 15.214844 1.429688 15.214844 1.613281 L 15.214844 1.449219 C 15.214844 1.265625 15.066406 1.117188 14.882812 1.117188 Z M 0.992188 1.117188 "/>
<path style=" stroke:none;fill-rule:nonzero;fill:rgb(0%,0%,0%);fill-opacity:0.196078;" d="M 0.992188 4.589844 C 0.808594 4.589844 0.660156 4.441406 0.660156 4.257812 L 0.660156 4.09375 C 0.660156 4.277344 0.808594 4.425781 0.992188 4.425781 L 14.882812 4.425781 C 15.066406 4.425781 15.214844 4.277344 15.214844 4.09375 L 15.214844 4.257812 C 15.214844 4.441406 15.066406 4.589844 14.882812 4.589844 Z M 0.992188 4.589844 "/>
<path style=" stroke:none;fill-rule:nonzero;fill:url(#linear6);" d="M 1.984375 9.386719 L 13.890625 9.386719 L 13.890625 10.046875 L 1.984375 10.046875 Z M 1.984375 9.386719 "/>
<path style=" stroke:none;fill-rule:nonzero;fill:url(#radial4);" d="M 13.890625 8.726562 L 15.214844 8.726562 L 15.214844 10.046875 L 13.890625 10.046875 Z M 13.890625 8.726562 "/>
<path style=" stroke:none;fill-rule:nonzero;fill:url(#radial5);" d="M 0.660156 8.726562 L 1.984375 8.726562 L 1.984375 10.046875 L 0.660156 10.046875 Z M 0.660156 8.726562 "/>
<path style="fill-rule:nonzero;fill:url(#linear7);stroke-width:2;stroke-linecap:butt;stroke-linejoin:miter;stroke:rgb(30.19608%,30.19608%,30.19608%);stroke-opacity:1;stroke-miterlimit:4;" d="M 31.746968 122.398601 L 476.204525 122.398601 C 482.078964 122.398601 486.82851 127.148147 486.82851 132.897598 L 486.82851 222.889005 C 486.82851 228.763444 482.078964 233.51299 476.204525 233.51299 L 31.746968 233.51299 C 25.872529 233.51299 21.122983 228.763444 21.122983 222.889005 L 21.122983 132.897598 C 21.122983 127.148147 25.872529 122.398601 31.746968 122.398601 Z M 31.746968 122.398601 " transform="matrix(0.031253,0,0,0.031253,0,2.088741)"/>
<path style=" stroke:none;fill-rule:nonzero;fill:rgb(100%,100%,100%);fill-opacity:0.196078;" d="M 0.992188 5.914062 C 0.808594 5.914062 0.660156 6.0625 0.660156 6.242188 L 0.660156 6.410156 C 0.660156 6.226562 0.808594 6.078125 0.992188 6.078125 L 14.882812 6.078125 C 15.066406 6.078125 15.214844 6.226562 15.214844 6.410156 L 15.214844 6.242188 C 15.214844 6.0625 15.066406 5.914062 14.882812 5.914062 Z M 0.992188 5.914062 "/>
<path style=" stroke:none;fill-rule:nonzero;fill:rgb(0%,0%,0%);fill-opacity:0.196078;" d="M 0.992188 9.386719 C 0.808594 9.386719 0.660156 9.238281 0.660156 9.054688 L 0.660156 8.890625 C 0.660156 9.074219 0.808594 9.222656 0.992188 9.222656 L 14.882812 9.222656 C 15.066406 9.222656 15.214844 9.074219 15.214844 8.890625 L 15.214844 9.054688 C 15.214844 9.238281 15.066406 9.386719 14.882812 9.386719 Z M 0.992188 9.386719 "/>
<path style=" stroke:none;fill-rule:nonzero;fill:rgb(20%,20%,20%);fill-opacity:1;" d="M 2.980469 7.320312 C 3.164062 7.320312 3.3125 7.46875 3.3125 7.648438 C 3.3125 7.832031 3.164062 7.980469 2.980469 7.980469 C 2.800781 7.980469 2.652344 7.832031 2.652344 7.648438 C 2.652344 7.46875 2.800781 7.320312 2.980469 7.320312 Z M 2.980469 7.320312 "/>
<path style=" stroke:none;fill-rule:nonzero;fill:rgb(20%,20%,20%);fill-opacity:1;" d="M 4.304688 7.320312 C 4.488281 7.320312 4.636719 7.46875 4.636719 7.648438 C 4.636719 7.832031 4.488281 7.980469 4.304688 7.980469 C 4.121094 7.980469 3.972656 7.832031 3.972656 7.648438 C 3.972656 7.46875 4.121094 7.320312 4.304688 7.320312 Z M 4.304688 7.320312 "/>
<path style=" stroke:none;fill-rule:nonzero;fill:rgb(20%,20%,20%);fill-opacity:1;" d="M 1.660156 7.320312 C 1.839844 7.320312 1.988281 7.46875 1.988281 7.648438 C 1.988281 7.832031 1.839844 7.980469 1.660156 7.980469 C 1.476562 7.980469 1.328125 7.832031 1.328125 7.648438 C 1.328125 7.46875 1.476562 7.320312 1.660156 7.320312 Z M 1.660156 7.320312 "/>
<path style=" stroke:none;fill-rule:nonzero;fill:rgb(57.647061%,67.450982%,61.56863%);fill-opacity:1;" d="M 4.304688 8.0625 C 4.121094 8.0625 3.972656 7.914062 3.972656 7.734375 C 3.972656 7.71875 3.976562 7.703125 3.976562 7.691406 C 3.996094 7.855469 4.136719 7.980469 4.304688 7.980469 C 4.472656 7.980469 4.613281 7.855469 4.632812 7.691406 C 4.636719 7.703125 4.636719 7.71875 4.636719 7.734375 C 4.636719 7.914062 4.488281 8.0625 4.304688 8.0625 Z M 4.304688 8.0625 "/>
<path style=" stroke:none;fill-rule:nonzero;fill:rgb(100%,100%,100%);fill-opacity:0.196078;" d="M 4.304688 8.0625 C 4.121094 8.0625 3.972656 7.914062 3.972656 7.734375 C 3.972656 7.71875 3.976562 7.703125 3.976562 7.691406 C 3.996094 7.855469 4.136719 7.980469 4.304688 7.980469 C 4.472656 7.980469 4.613281 7.855469 4.632812 7.691406 C 4.636719 7.703125 4.636719 7.71875 4.636719 7.734375 C 4.636719 7.914062 4.488281 8.0625 4.304688 8.0625 Z M 4.304688 8.0625 "/>
<path style=" stroke:none;fill-rule:nonzero;fill:rgb(100%,100%,100%);fill-opacity:0.196078;" d="M 2.984375 8.0625 C 2.800781 8.0625 2.652344 7.914062 2.652344 7.734375 C 2.652344 7.71875 2.65625 7.703125 2.65625 7.691406 C 2.675781 7.855469 2.816406 7.980469 2.984375 7.980469 C 3.152344 7.980469 3.292969 7.855469 3.3125 7.691406 C 3.316406 7.703125 3.316406 7.71875 3.316406 7.734375 C 3.316406 7.914062 3.167969 8.0625 2.984375 8.0625 Z M 2.984375 8.0625 "/>
<path style=" stroke:none;fill-rule:nonzero;fill:rgb(100%,100%,100%);fill-opacity:0.196078;" d="M 1.660156 8.0625 C 1.476562 8.0625 1.328125 7.914062 1.328125 7.734375 C 1.328125 7.71875 1.328125 7.703125 1.332031 7.691406 C 1.351562 7.855469 1.488281 7.980469 1.660156 7.980469 C 1.828125 7.980469 1.96875 7.855469 1.988281 7.691406 C 1.988281 7.703125 1.988281 7.71875 1.988281 7.734375 C 1.988281 7.914062 1.84375 8.0625 1.660156 8.0625 Z M 1.660156 8.0625 "/>
<path style=" stroke:none;fill-rule:nonzero;fill:rgb(0%,0%,0%);fill-opacity:0.196078;" d="M 1.660156 7.320312 C 1.84375 7.320312 1.988281 7.464844 1.988281 7.648438 C 1.988281 7.664062 1.988281 7.675781 1.988281 7.691406 C 1.96875 7.527344 1.828125 7.402344 1.660156 7.402344 C 1.488281 7.402344 1.351562 7.527344 1.332031 7.691406 C 1.328125 7.675781 1.328125 7.664062 1.328125 7.648438 C 1.328125 7.464844 1.476562 7.320312 1.660156 7.320312 Z M 1.660156 7.320312 "/>
<path style=" stroke:none;fill-rule:nonzero;fill:rgb(0%,0%,0%);fill-opacity:0.196078;" d="M 2.980469 7.320312 C 3.164062 7.320312 3.308594 7.464844 3.308594 7.648438 C 3.308594 7.664062 3.308594 7.675781 3.308594 7.691406 C 3.289062 7.527344 3.148438 7.402344 2.980469 7.402344 C 2.808594 7.402344 2.671875 7.527344 2.652344 7.691406 C 2.648438 7.675781 2.648438 7.664062 2.648438 7.648438 C 2.648438 7.464844 2.796875 7.320312 2.980469 7.320312 Z M 2.980469 7.320312 "/>
<path style=" stroke:none;fill-rule:nonzero;fill:rgb(0%,0%,0%);fill-opacity:0.196078;" d="M 4.304688 7.320312 C 4.488281 7.320312 4.636719 7.464844 4.636719 7.648438 C 4.636719 7.664062 4.636719 7.675781 4.632812 7.691406 C 4.613281 7.527344 4.472656 7.402344 4.304688 7.402344 C 4.136719 7.402344 3.996094 7.527344 3.976562 7.691406 C 3.976562 7.675781 3.972656 7.664062 3.972656 7.648438 C 3.972656 7.464844 4.121094 7.320312 4.304688 7.320312 Z M 4.304688 7.320312 "/>
<path style=" stroke:none;fill-rule:nonzero;fill:rgb(20%,20%,20%);fill-opacity:1;" d="M 2.980469 2.441406 C 3.164062 2.441406 3.3125 2.589844 3.3125 2.769531 C 3.3125 2.953125 3.164062 3.101562 2.980469 3.101562 C 2.800781 3.101562 2.652344 2.953125 2.652344 2.769531 C 2.652344 2.589844 2.800781 2.441406 2.980469 2.441406 Z M 2.980469 2.441406 "/>
<path style=" stroke:none;fill-rule:nonzero;fill:rgb(20%,20%,20%);fill-opacity:1;" d="M 4.304688 2.441406 C 4.488281 2.441406 4.636719 2.589844 4.636719 2.769531 C 4.636719 2.953125 4.488281 3.101562 4.304688 3.101562 C 4.121094 3.101562 3.972656 2.953125 3.972656 2.769531 C 3.972656 2.589844 4.121094 2.441406 4.304688 2.441406 Z M 4.304688 2.441406 "/>
<path style=" stroke:none;fill-rule:nonzero;fill:rgb(20%,20%,20%);fill-opacity:1;" d="M 1.660156 2.441406 C 1.839844 2.441406 1.988281 2.589844 1.988281 2.769531 C 1.988281 2.953125 1.839844 3.101562 1.660156 3.101562 C 1.476562 3.101562 1.328125 2.953125 1.328125 2.769531 C 1.328125 2.589844 1.476562 2.441406 1.660156 2.441406 Z M 1.660156 2.441406 "/>
<path style=" stroke:none;fill-rule:nonzero;fill:rgb(57.647061%,67.450982%,61.56863%);fill-opacity:1;" d="M 4.304688 3.183594 C 4.121094 3.183594 3.972656 3.035156 3.972656 2.855469 C 3.972656 2.839844 3.976562 2.824219 3.976562 2.8125 C 3.996094 2.976562 4.136719 3.101562 4.304688 3.101562 C 4.472656 3.101562 4.613281 2.976562 4.632812 2.8125 C 4.636719 2.824219 4.636719 2.839844 4.636719 2.855469 C 4.636719 3.035156 4.488281 3.183594 4.304688 3.183594 Z M 4.304688 3.183594 "/>
<path style=" stroke:none;fill-rule:nonzero;fill:rgb(100%,100%,100%);fill-opacity:0.196078;" d="M 4.304688 3.183594 C 4.121094 3.183594 3.972656 3.035156 3.972656 2.855469 C 3.972656 2.839844 3.976562 2.824219 3.976562 2.8125 C 3.996094 2.976562 4.136719 3.101562 4.304688 3.101562 C 4.472656 3.101562 4.613281 2.976562 4.632812 2.8125 C 4.636719 2.824219 4.636719 2.839844 4.636719 2.855469 C 4.636719 3.035156 4.488281 3.183594 4.304688 3.183594 Z M 4.304688 3.183594 "/>
<path style=" stroke:none;fill-rule:nonzero;fill:rgb(100%,100%,100%);fill-opacity:0.196078;" d="M 2.984375 3.183594 C 2.800781 3.183594 2.652344 3.035156 2.652344 2.855469 C 2.652344 2.839844 2.65625 2.824219 2.65625 2.8125 C 2.675781 2.976562 2.816406 3.101562 2.984375 3.101562 C 3.152344 3.101562 3.292969 2.976562 3.3125 2.8125 C 3.316406 2.824219 3.316406 2.839844 3.316406 2.855469 C 3.316406 3.035156 3.167969 3.183594 2.984375 3.183594 Z M 2.984375 3.183594 "/>
<path style=" stroke:none;fill-rule:nonzero;fill:rgb(100%,100%,100%);fill-opacity:0.196078;" d="M 1.660156 3.183594 C 1.476562 3.183594 1.328125 3.035156 1.328125 2.855469 C 1.328125 2.839844 1.328125 2.824219 1.332031 2.8125 C 1.351562 2.976562 1.488281 3.101562 1.660156 3.101562 C 1.828125 3.101562 1.96875 2.976562 1.988281 2.8125 C 1.988281 2.824219 1.988281 2.839844 1.988281 2.855469 C 1.988281 3.035156 1.84375 3.183594 1.660156 3.183594 Z M 1.660156 3.183594 "/>
<path style=" stroke:none;fill-rule:nonzero;fill:rgb(0%,0%,0%);fill-opacity:0.196078;" d="M 1.660156 2.441406 C 1.84375 2.441406 1.988281 2.585938 1.988281 2.769531 C 1.988281 2.785156 1.988281 2.800781 1.988281 2.8125 C 1.96875 2.648438 1.828125 2.523438 1.660156 2.523438 C 1.488281 2.523438 1.351562 2.648438 1.332031 2.8125 C 1.328125 2.800781 1.328125 2.785156 1.328125 2.769531 C 1.328125 2.585938 1.476562 2.441406 1.660156 2.441406 Z M 1.660156 2.441406 "/>
<path style=" stroke:none;fill-rule:nonzero;fill:rgb(0%,0%,0%);fill-opacity:0.196078;" d="M 2.980469 2.441406 C 3.164062 2.441406 3.308594 2.585938 3.308594 2.769531 C 3.308594 2.785156 3.308594 2.800781 3.308594 2.8125 C 3.289062 2.648438 3.148438 2.523438 2.980469 2.523438 C 2.808594 2.523438 2.671875 2.648438 2.652344 2.8125 C 2.648438 2.800781 2.648438 2.785156 2.648438 2.769531 C 2.648438 2.585938 2.796875 2.441406 2.980469 2.441406 Z M 2.980469 2.441406 "/>
<path style=" stroke:none;fill-rule:nonzero;fill:rgb(0%,0%,0%);fill-opacity:0.196078;" d="M 4.304688 2.441406 C 4.488281 2.441406 4.636719 2.585938 4.636719 2.769531 C 4.636719 2.785156 4.636719 2.800781 4.632812 2.8125 C 4.613281 2.648438 4.472656 2.523438 4.304688 2.523438 C 4.136719 2.523438 3.996094 2.648438 3.976562 2.8125 C 3.976562 2.800781 3.972656 2.785156 3.972656 2.769531 C 3.972656 2.585938 4.121094 2.441406 4.304688 2.441406 Z M 4.304688 2.441406 "/>
<path style=" stroke:none;fill-rule:nonzero;fill:rgb(20%,20%,20%);fill-opacity:1;" d="M 2.980469 12.03125 C 3.164062 12.03125 3.3125 12.179688 3.3125 12.363281 C 3.3125 12.546875 3.164062 12.695312 2.980469 12.695312 C 2.800781 12.695312 2.652344 12.546875 2.652344 12.363281 C 2.652344 12.179688 2.800781 12.03125 2.980469 12.03125 Z M 2.980469 12.03125 "/>
<path style=" stroke:none;fill-rule:nonzero;fill:rgb(20%,20%,20%);fill-opacity:1;" d="M 4.304688 12.03125 C 4.488281 12.03125 4.636719 12.179688 4.636719 12.363281 C 4.636719 12.546875 4.488281 12.695312 4.304688 12.695312 C 4.121094 12.695312 3.972656 12.546875 3.972656 12.363281 C 3.972656 12.179688 4.121094 12.03125 4.304688 12.03125 Z M 4.304688 12.03125 "/>
<path style=" stroke:none;fill-rule:nonzero;fill:rgb(20%,20%,20%);fill-opacity:1;" d="M 1.660156 12.03125 C 1.839844 12.03125 1.988281 12.179688 1.988281 12.363281 C 1.988281 12.546875 1.839844 12.695312 1.660156 12.695312 C 1.476562 12.695312 1.328125 12.546875 1.328125 12.363281 C 1.328125 12.179688 1.476562 12.03125 1.660156 12.03125 Z M 1.660156 12.03125 "/>
<path style=" stroke:none;fill-rule:nonzero;fill:rgb(57.647061%,67.450982%,61.56863%);fill-opacity:1;" d="M 4.304688 12.777344 C 4.121094 12.777344 3.972656 12.628906 3.972656 12.445312 C 3.972656 12.433594 3.976562 12.417969 3.976562 12.40625 C 3.996094 12.566406 4.136719 12.695312 4.304688 12.695312 C 4.472656 12.695312 4.613281 12.566406 4.632812 12.40625 C 4.636719 12.417969 4.636719 12.433594 4.636719 12.445312 C 4.636719 12.628906 4.488281 12.777344 4.304688 12.777344 Z M 4.304688 12.777344 "/>
<path style=" stroke:none;fill-rule:nonzero;fill:rgb(100%,100%,100%);fill-opacity:0.196078;" d="M 4.304688 12.777344 C 4.121094 12.777344 3.972656 12.628906 3.972656 12.445312 C 3.972656 12.433594 3.976562 12.417969 3.976562 12.40625 C 3.996094 12.566406 4.136719 12.695312 4.304688 12.695312 C 4.472656 12.695312 4.613281 12.566406 4.632812 12.40625 C 4.636719 12.417969 4.636719 12.433594 4.636719 12.445312 C 4.636719 12.628906 4.488281 12.777344 4.304688 12.777344 Z M 4.304688 12.777344 "/>
<path style=" stroke:none;fill-rule:nonzero;fill:rgb(100%,100%,100%);fill-opacity:0.196078;" d="M 2.984375 12.777344 C 2.800781 12.777344 2.652344 12.628906 2.652344 12.445312 C 2.652344 12.433594 2.65625 12.417969 2.65625 12.40625 C 2.675781 12.566406 2.816406 12.695312 2.984375 12.695312 C 3.152344 12.695312 3.292969 12.566406 3.3125 12.40625 C 3.316406 12.417969 3.316406 12.433594 3.316406 12.445312 C 3.316406 12.628906 3.167969 12.777344 2.984375 12.777344 Z M 2.984375 12.777344 "/>
<path style=" stroke:none;fill-rule:nonzero;fill:rgb(100%,100%,100%);fill-opacity:0.196078;" d="M 1.660156 12.777344 C 1.476562 12.777344 1.328125 12.628906 1.328125 12.445312 C 1.328125 12.433594 1.328125 12.417969 1.332031 12.40625 C 1.351562 12.566406 1.488281 12.695312 1.660156 12.695312 C 1.828125 12.695312 1.96875 12.566406 1.988281 12.40625 C 1.988281 12.417969 1.988281 12.433594 1.988281 12.445312 C 1.988281 12.628906 1.84375 12.777344 1.660156 12.777344 Z M 1.660156 12.777344 "/>
<path style=" stroke:none;fill-rule:nonzero;fill:rgb(0%,0%,0%);fill-opacity:0.196078;" d="M 1.660156 12.03125 C 1.84375 12.03125 1.988281 12.179688 1.988281 12.363281 C 1.988281 12.378906 1.988281 12.390625 1.988281 12.40625 C 1.96875 12.242188 1.828125 12.113281 1.660156 12.113281 C 1.488281 12.113281 1.351562 12.242188 1.332031 12.40625 C 1.328125 12.390625 1.328125 12.378906 1.328125 12.363281 C 1.328125 12.179688 1.476562 12.03125 1.660156 12.03125 Z M 1.660156 12.03125 "/>
<path style=" stroke:none;fill-rule:nonzero;fill:rgb(0%,0%,0%);fill-opacity:0.196078;" d="M 2.980469 12.03125 C 3.164062 12.03125 3.308594 12.179688 3.308594 12.363281 C 3.308594 12.378906 3.308594 12.390625 3.308594 12.40625 C 3.289062 12.242188 3.148438 12.113281 2.980469 12.113281 C 2.808594 12.113281 2.671875 12.242188 2.652344 12.40625 C 2.648438 12.390625 2.648438 12.378906 2.648438 12.363281 C 2.648438 12.179688 2.796875 12.03125 2.980469 12.03125 Z M 2.980469 12.03125 "/>
<path style=" stroke:none;fill-rule:nonzero;fill:rgb(0%,0%,0%);fill-opacity:0.196078;" d="M 4.304688 12.03125 C 4.488281 12.03125 4.636719 12.179688 4.636719 12.363281 C 4.636719 12.378906 4.636719 12.390625 4.632812 12.40625 C 4.613281 12.242188 4.472656 12.113281 4.304688 12.113281 C 4.136719 12.113281 3.996094 12.242188 3.976562 12.40625 C 3.976562 12.390625 3.972656 12.378906 3.972656 12.363281 C 3.972656 12.179688 4.121094 12.03125 4.304688 12.03125 Z M 4.304688 12.03125 "/>
</g>
</svg>
