<?xml version="1.0" encoding="UTF-8"?>
<svg xmlns="http://www.w3.org/2000/svg" xmlns:xlink="http://www.w3.org/1999/xlink" width="16pt" height="16pt" viewBox="0 0 16 16" version="1.1">
<defs>
<linearGradient id="linear0" gradientUnits="userSpaceOnUse" x1="254" y1="275.833344" x2="254" y2="-189.833328" gradientTransform="matrix(0.031253,0,0,0.031253,0,6.719391)">
<stop offset="0" style="stop-color:rgb(71.764706%,73.333333%,77.647059%);stop-opacity:1;"/>
<stop offset="1" style="stop-color:rgb(80%,81.568627%,84.313725%);stop-opacity:1;"/>
</linearGradient>
</defs>
<g id="surface1">
<path style=" stroke:none;fill-rule:nonzero;fill:url(#linear0);" d="M 2.644531 0.785156 C 1.546875 0.785156 0.660156 1.671875 0.660156 2.769531 C 0.660156 3.871094 1.546875 4.753906 2.644531 4.753906 C 3.746094 4.753906 4.628906 3.871094 4.628906 2.769531 C 4.628906 1.671875 3.746094 0.785156 2.644531 0.785156 Z M 7.9375 0.785156 C 6.839844 0.785156 5.953125 1.671875 5.953125 2.769531 C 5.953125 3.871094 6.839844 4.753906 7.9375 4.753906 C 9.039062 4.753906 9.921875 3.871094 9.921875 2.769531 C 9.921875 1.671875 9.039062 0.785156 7.9375 0.785156 Z M 13.230469 0.785156 C 12.132812 0.785156 11.246094 1.671875 11.246094 2.769531 C 11.246094 3.871094 12.132812 4.753906 13.230469 4.753906 C 14.328125 4.753906 15.214844 3.871094 15.214844 2.769531 C 15.214844 1.671875 14.328125 0.785156 13.230469 0.785156 Z M 2.644531 6.078125 C 1.546875 6.078125 0.660156 6.964844 0.660156 8.0625 C 0.660156 9.164062 1.546875 10.046875 2.644531 10.046875 C 3.746094 10.046875 4.628906 9.164062 4.628906 8.0625 C 4.628906 6.964844 3.746094 6.078125 2.644531 6.078125 Z M 7.9375 6.078125 C 6.839844 6.078125 5.953125 6.964844 5.953125 8.0625 C 5.953125 9.164062 6.839844 10.046875 7.9375 10.046875 C 9.039062 10.046875 9.921875 9.164062 9.921875 8.0625 C 9.921875 6.964844 9.039062 6.078125 7.9375 6.078125 Z M 13.230469 6.078125 C 12.132812 6.078125 11.246094 6.964844 11.246094 8.0625 C 11.246094 9.164062 12.132812 10.046875 13.230469 10.046875 C 14.328125 10.046875 15.214844 9.164062 15.214844 8.0625 C 15.214844 6.964844 14.328125 6.078125 13.230469 6.078125 Z M 2.644531 11.371094 C 1.546875 11.371094 0.660156 12.257812 0.660156 13.355469 C 0.660156 14.453125 1.546875 15.339844 2.644531 15.339844 C 3.746094 15.339844 4.628906 14.453125 4.628906 13.355469 C 4.628906 12.257812 3.746094 11.371094 2.644531 11.371094 Z M 7.9375 11.371094 C 6.839844 11.371094 5.953125 12.257812 5.953125 13.355469 C 5.953125 14.453125 6.839844 15.339844 7.9375 15.339844 C 9.039062 15.339844 9.921875 14.453125 9.921875 13.355469 C 9.921875 12.257812 9.039062 11.371094 7.9375 11.371094 Z M 13.230469 11.371094 C 12.132812 11.371094 11.246094 12.257812 11.246094 13.355469 C 11.246094 14.453125 12.132812 15.339844 13.230469 15.339844 C 14.328125 15.339844 15.214844 14.453125 15.214844 13.355469 C 15.214844 12.257812 14.328125 11.371094 13.230469 11.371094 Z M 13.230469 11.371094 "/>
</g>
</svg>
