<?xml version="1.0" encoding="UTF-8"?>
<svg xmlns="http://www.w3.org/2000/svg" xmlns:xlink="http://www.w3.org/1999/xlink" width="16pt" height="16pt" viewBox="0 0 16 16" version="1.1">
<defs>
<radialGradient id="radial0" gradientUnits="userSpaceOnUse" cx="63.5" cy="212.333359" fx="63.5" fy="212.333359" r="21.166666" gradientTransform="matrix(0.062506,0.000000018568,0.000000018568,-0.062506,7.276732,27.619827)">
<stop offset="0" style="stop-color:rgb(0%,0%,0%);stop-opacity:0.313725;"/>
<stop offset="0.499999" style="stop-color:rgb(0%,0%,0%);stop-opacity:0.27451;"/>
<stop offset="1" style="stop-color:rgb(0%,0%,0%);stop-opacity:0;"/>
</radialGradient>
<linearGradient id="linear0" gradientUnits="userSpaceOnUse" x1="254" y1="233.5" x2="254" y2="254.666672" gradientTransform="matrix(0.031253,0,0,0.031253,2.646087,7.711673)">
<stop offset="0" style="stop-color:rgb(0%,0%,0%);stop-opacity:0.27451;"/>
<stop offset="1" style="stop-color:rgb(0%,0%,0%);stop-opacity:0;"/>
</linearGradient>
<radialGradient id="radial1" gradientUnits="userSpaceOnUse" cx="63.5" cy="212.333359" fx="63.5" fy="212.333359" r="21.166666" gradientTransform="matrix(-0.062506,0.000000018568,-0.000000018568,-0.062506,8.599785,27.619827)">
<stop offset="0" style="stop-color:rgb(0%,0%,0%);stop-opacity:0.313725;"/>
<stop offset="0.499999" style="stop-color:rgb(0%,0%,0%);stop-opacity:0.27451;"/>
<stop offset="1" style="stop-color:rgb(0%,0%,0%);stop-opacity:0;"/>
</radialGradient>
<linearGradient id="linear1" gradientUnits="userSpaceOnUse" x1="960" y1="615.118103" x2="960" y2="175.118134" gradientTransform="matrix(0.00826902,0,0,0.00826902,0,0)">
<stop offset="0" style="stop-color:rgb(71.764706%,73.333333%,77.647059%);stop-opacity:1;"/>
<stop offset="1" style="stop-color:rgb(80%,81.568627%,84.313725%);stop-opacity:1;"/>
</linearGradient>
<linearGradient id="linear2" gradientUnits="userSpaceOnUse" x1="254" y1="265.25" x2="254" y2="-31.083334" gradientTransform="matrix(0.031253,0,0,0.031253,0,6.719392)">
<stop offset="0" style="stop-color:rgb(71.764706%,73.333333%,77.647059%);stop-opacity:1;"/>
<stop offset="1" style="stop-color:rgb(80%,81.568627%,84.313725%);stop-opacity:1;"/>
</linearGradient>
</defs>
<g id="surface1">
<path style=" stroke:none;fill-rule:nonzero;fill:url(#radial0);" d="M 12.570312 14.347656 L 11.246094 14.347656 L 11.246094 15.671875 L 12.570312 15.671875 Z M 12.570312 14.347656 "/>
<path style=" stroke:none;fill-rule:nonzero;fill:url(#linear0);" d="M 4.628906 15.007812 L 11.246094 15.007812 L 11.246094 15.671875 L 4.628906 15.671875 Z M 4.628906 15.007812 "/>
<path style=" stroke:none;fill-rule:nonzero;fill:url(#radial1);" d="M 3.308594 14.347656 L 4.628906 14.347656 L 4.628906 15.671875 L 3.308594 15.671875 Z M 3.308594 14.347656 "/>
<path style=" stroke:none;fill-rule:nonzero;fill:url(#linear1);" d="M 3.636719 1.449219 C 3.457031 1.449219 3.308594 1.59375 3.308594 1.777344 L 3.308594 5.085938 L 12.570312 5.085938 L 12.570312 1.777344 C 12.570312 1.59375 12.421875 1.449219 12.238281 1.449219 Z M 3.636719 1.449219 "/>
<path style=" stroke:none;fill-rule:nonzero;fill:rgb(32.549021%,33.333334%,36.470589%);fill-opacity:1;" d="M 3.636719 5.085938 L 12.238281 5.085938 L 12.238281 5.746094 L 3.636719 5.746094 Z M 3.636719 5.085938 "/>
<path style=" stroke:none;fill-rule:nonzero;fill:url(#linear2);" d="M 12.238281 15.007812 C 12.421875 15.007812 12.570312 14.863281 12.570312 14.679688 L 12.570312 5.746094 L 3.308594 5.746094 L 3.308594 14.679688 C 3.308594 14.863281 3.457031 15.007812 3.636719 15.007812 Z M 12.238281 15.007812 "/>
<path style=" stroke:none;fill-rule:nonzero;fill:rgb(20%,20%,20%);fill-opacity:1;" d="M 7.945312 13.355469 C 8.125 13.355469 8.273438 13.503906 8.273438 13.6875 C 8.273438 13.867188 8.125 14.015625 7.945312 14.015625 C 7.761719 14.015625 7.613281 13.867188 7.613281 13.6875 C 7.613281 13.503906 7.761719 13.355469 7.945312 13.355469 Z M 7.945312 13.355469 "/>
<path style=" stroke:none;fill-rule:nonzero;fill:rgb(20%,20%,20%);fill-opacity:1;" d="M 9.265625 13.355469 C 9.449219 13.355469 9.597656 13.503906 9.597656 13.6875 C 9.597656 13.867188 9.449219 14.015625 9.265625 14.015625 C 9.082031 14.015625 8.9375 13.867188 8.9375 13.6875 C 8.9375 13.503906 9.082031 13.355469 9.265625 13.355469 Z M 9.265625 13.355469 "/>
<path style=" stroke:none;fill-rule:nonzero;fill:rgb(20%,20%,20%);fill-opacity:1;" d="M 6.621094 13.355469 C 6.804688 13.355469 6.953125 13.503906 6.953125 13.6875 C 6.953125 13.867188 6.804688 14.015625 6.621094 14.015625 C 6.4375 14.015625 6.289062 13.867188 6.289062 13.6875 C 6.289062 13.503906 6.4375 13.355469 6.621094 13.355469 Z M 6.621094 13.355469 "/>
<path style=" stroke:none;fill-rule:nonzero;fill:rgb(100%,100%,100%);fill-opacity:0.196078;" d="M 9.265625 14.101562 C 9.082031 14.101562 8.9375 13.953125 8.9375 13.769531 C 8.9375 13.753906 8.9375 13.742188 8.9375 13.726562 C 8.957031 13.890625 9.097656 14.015625 9.265625 14.015625 C 9.4375 14.015625 9.574219 13.890625 9.59375 13.726562 C 9.597656 13.742188 9.597656 13.753906 9.597656 13.769531 C 9.597656 13.953125 9.449219 14.101562 9.265625 14.101562 Z M 9.265625 14.101562 "/>
<path style=" stroke:none;fill-rule:nonzero;fill:rgb(100%,100%,100%);fill-opacity:0.196078;" d="M 7.945312 14.101562 C 7.761719 14.101562 7.617188 13.953125 7.617188 13.769531 C 7.617188 13.753906 7.617188 13.742188 7.617188 13.726562 C 7.636719 13.890625 7.777344 14.015625 7.945312 14.015625 C 8.117188 14.015625 8.253906 13.890625 8.273438 13.726562 C 8.277344 13.742188 8.277344 13.753906 8.277344 13.769531 C 8.277344 13.953125 8.128906 14.101562 7.945312 14.101562 Z M 7.945312 14.101562 "/>
<path style=" stroke:none;fill-rule:nonzero;fill:rgb(100%,100%,100%);fill-opacity:0.196078;" d="M 6.621094 14.101562 C 6.4375 14.101562 6.289062 13.953125 6.289062 13.769531 C 6.289062 13.753906 6.289062 13.742188 6.292969 13.726562 C 6.3125 13.890625 6.453125 14.015625 6.621094 14.015625 C 6.789062 14.015625 6.929688 13.890625 6.949219 13.726562 C 6.949219 13.742188 6.953125 13.753906 6.953125 13.769531 C 6.953125 13.953125 6.804688 14.101562 6.621094 14.101562 Z M 6.621094 14.101562 "/>
<path style=" stroke:none;fill-rule:nonzero;fill:rgb(0%,0%,0%);fill-opacity:0.196078;" d="M 6.621094 13.355469 C 6.804688 13.355469 6.953125 13.503906 6.953125 13.6875 C 6.953125 13.699219 6.949219 13.714844 6.949219 13.726562 C 6.929688 13.5625 6.789062 13.4375 6.621094 13.4375 C 6.453125 13.4375 6.3125 13.5625 6.292969 13.726562 C 6.289062 13.714844 6.289062 13.699219 6.289062 13.6875 C 6.289062 13.503906 6.4375 13.355469 6.621094 13.355469 Z M 6.621094 13.355469 "/>
<path style=" stroke:none;fill-rule:nonzero;fill:rgb(0%,0%,0%);fill-opacity:0.196078;" d="M 7.941406 13.355469 C 8.125 13.355469 8.273438 13.503906 8.273438 13.6875 C 8.273438 13.699219 8.269531 13.714844 8.269531 13.726562 C 8.25 13.5625 8.109375 13.4375 7.941406 13.4375 C 7.773438 13.4375 7.632812 13.5625 7.613281 13.726562 C 7.609375 13.714844 7.609375 13.699219 7.609375 13.6875 C 7.609375 13.503906 7.757812 13.355469 7.941406 13.355469 Z M 7.941406 13.355469 "/>
<path style=" stroke:none;fill-rule:nonzero;fill:rgb(0%,0%,0%);fill-opacity:0.196078;" d="M 9.265625 13.355469 C 9.449219 13.355469 9.597656 13.503906 9.597656 13.6875 C 9.597656 13.699219 9.597656 13.714844 9.59375 13.726562 C 9.574219 13.5625 9.4375 13.4375 9.265625 13.4375 C 9.097656 13.4375 8.957031 13.5625 8.9375 13.726562 C 8.9375 13.714844 8.9375 13.699219 8.9375 13.6875 C 8.9375 13.503906 9.082031 13.355469 9.265625 13.355469 Z M 9.265625 13.355469 "/>
<path style=" stroke:none;fill-rule:nonzero;fill:rgb(0%,0%,0%);fill-opacity:0.196078;" d="M 3.636719 15.007812 C 3.457031 15.007812 3.308594 14.863281 3.308594 14.679688 L 3.308594 14.511719 C 3.308594 14.695312 3.457031 14.84375 3.636719 14.84375 L 12.238281 14.84375 C 12.421875 14.84375 12.570312 14.695312 12.570312 14.511719 L 12.570312 14.679688 C 12.570312 14.863281 12.421875 15.007812 12.238281 15.007812 Z M 3.636719 15.007812 "/>
<path style=" stroke:none;fill-rule:nonzero;fill:rgb(100%,100%,100%);fill-opacity:0.196078;" d="M 3.636719 1.449219 C 3.457031 1.449219 3.308594 1.59375 3.308594 1.777344 L 3.308594 1.945312 C 3.308594 1.761719 3.457031 1.613281 3.636719 1.613281 L 12.238281 1.613281 C 12.421875 1.613281 12.570312 1.761719 12.570312 1.945312 L 12.570312 1.777344 C 12.570312 1.59375 12.421875 1.449219 12.238281 1.449219 Z M 3.636719 1.449219 "/>
<path style=" stroke:none;fill-rule:nonzero;fill:rgb(0%,0%,0%);fill-opacity:0.196078;" d="M 3.308594 4.921875 L 12.570312 4.921875 L 12.570312 5.085938 L 3.308594 5.085938 Z M 3.308594 4.921875 "/>
<path style=" stroke:none;fill-rule:nonzero;fill:rgb(100%,100%,100%);fill-opacity:0.196078;" d="M 3.308594 5.746094 L 12.570312 5.746094 L 12.570312 5.914062 L 3.308594 5.914062 Z M 3.308594 5.746094 "/>
<path style=" stroke:none;fill-rule:nonzero;fill:rgb(20%,20%,20%);fill-opacity:0.196078;" d="M 6.285156 7.070312 L 9.59375 7.070312 L 9.59375 7.734375 L 6.285156 7.734375 Z M 6.285156 7.070312 "/>
<path style=" stroke:none;fill-rule:nonzero;fill:rgb(20%,20%,20%);fill-opacity:0.196078;" d="M 6.613281 8.394531 L 9.261719 8.394531 L 9.261719 9.054688 L 6.613281 9.054688 Z M 6.613281 8.394531 "/>
<path style=" stroke:none;fill-rule:nonzero;fill:rgb(20%,20%,20%);fill-opacity:0.196078;" d="M 6.945312 9.71875 L 8.929688 9.71875 L 8.929688 10.378906 L 6.945312 10.378906 Z M 6.945312 9.71875 "/>
<path style=" stroke:none;fill-rule:nonzero;fill:rgb(20%,20%,20%);fill-opacity:0.196078;" d="M 7.277344 11.039062 L 8.601562 11.039062 L 8.601562 11.703125 L 7.277344 11.703125 Z M 7.277344 11.039062 "/>
</g>
</svg>
