<?xml version="1.0" encoding="UTF-8"?>
<svg xmlns="http://www.w3.org/2000/svg" xmlns:xlink="http://www.w3.org/1999/xlink" width="22pt" height="22pt" viewBox="0 0 22 22" version="1.1">
<defs>
<radialGradient id="radial0" gradientUnits="userSpaceOnUse" cx="254.000015" cy="54.395683" fx="254.000015" fy="54.395683" r="232.833313" gradientTransform="matrix(0.0273464,0.0389163,-0.0334393,0.0234977,5.788081,0.413788)">
<stop offset="0" style="stop-color:rgb(0%,0%,0%);stop-opacity:0.27451;"/>
<stop offset="1" style="stop-color:rgb(0%,0%,0%);stop-opacity:0;"/>
</radialGradient>
<linearGradient id="linear0" gradientUnits="userSpaceOnUse" x1="254" y1="275.833344" x2="254" y2="-179.25" gradientTransform="matrix(0.0429729,0,0,0.0429729,0,9.239163)">
<stop offset="0" style="stop-color:rgb(71.764706%,73.333333%,77.647059%);stop-opacity:1;"/>
<stop offset="1" style="stop-color:rgb(80%,81.568627%,84.313725%);stop-opacity:1;"/>
</linearGradient>
<linearGradient id="linear1" gradientUnits="userSpaceOnUse" x1="254" y1="275.833344" x2="254" y2="-179.25" gradientTransform="matrix(0.0429729,0,0,0.0429729,0,9.239163)">
<stop offset="0" style="stop-color:rgb(0%,0%,0%);stop-opacity:0.196078;"/>
<stop offset="1" style="stop-color:rgb(0%,0%,0%);stop-opacity:0;"/>
</linearGradient>
</defs>
<g id="surface1">
<path style=" stroke:none;fill-rule:nonzero;fill:url(#radial0);" d="M 10.914062 2.0625 L 13.820312 8.582031 L 20.921875 9.332031 L 15.617188 14.109375 L 17.097656 21.09375 L 10.914062 17.527344 L 4.730469 21.09375 L 6.210938 14.109375 L 0.910156 9.332031 L 8.007812 8.582031 Z M 10.914062 2.0625 "/>
<path style=" stroke:none;fill-rule:nonzero;fill:url(#linear0);" d="M 10.914062 1.652344 L 13.820312 8.175781 L 20.921875 8.921875 L 15.617188 13.703125 L 17.097656 20.6875 L 10.914062 17.117188 L 4.730469 20.6875 L 6.210938 13.703125 L 0.910156 8.921875 L 8.007812 8.175781 Z M 10.914062 1.652344 "/>
<path style=" stroke:none;fill-rule:nonzero;fill:rgb(32.549021%,33.333334%,36.470589%);fill-opacity:1;" d="M 10.878906 3.703125 L 13.246094 8.882812 L 19.03125 9.476562 L 14.710938 13.273438 L 15.917969 18.820312 L 10.878906 15.984375 L 5.84375 18.820312 L 7.050781 13.273438 L 2.730469 9.476562 L 8.511719 8.882812 Z M 10.878906 3.703125 "/>
<path style=" stroke:none;fill-rule:nonzero;fill:url(#linear1);" d="M 10.914062 1.652344 L 8.007812 8.175781 L 0.910156 8.921875 L 1.3125 9.289062 L 8.007812 8.582031 L 10.914062 2.0625 L 13.820312 8.582031 L 20.515625 9.289062 L 20.921875 8.921875 L 13.820312 8.175781 Z M 6.140625 14.042969 L 4.730469 20.6875 L 4.828125 20.628906 L 6.210938 14.109375 Z M 15.691406 14.042969 L 15.617188 14.109375 L 17 20.628906 L 17.097656 20.6875 Z M 15.691406 14.042969 "/>
</g>
</svg>
