<?xml version="1.0" encoding="UTF-8"?>
<svg xmlns="http://www.w3.org/2000/svg" xmlns:xlink="http://www.w3.org/1999/xlink" width="22pt" height="22pt" viewBox="0 0 22 22" version="1.1">
<defs>
<linearGradient id="linear0" gradientUnits="userSpaceOnUse" x1="254" y1="233.5" x2="254" y2="254.666672" gradientTransform="matrix(0.0429729,0,0,0.0429729,0,9.239163)">
<stop offset="0" style="stop-color:rgb(0%,0%,0%);stop-opacity:0.27451;"/>
<stop offset="1" style="stop-color:rgb(0%,0%,0%);stop-opacity:0;"/>
</linearGradient>
<radialGradient id="radial0" gradientUnits="userSpaceOnUse" cx="456.200623" cy="186.933533" fx="456.200623" fy="186.933533" r="21.166656" gradientTransform="matrix(0.0000000608559,0.0859457,-0.0859457,0.0000000591945,35.167544,-20.844777)">
<stop offset="0" style="stop-color:rgb(0%,0%,0%);stop-opacity:0.313725;"/>
<stop offset="0.499999" style="stop-color:rgb(0%,0%,0%);stop-opacity:0.27451;"/>
<stop offset="1" style="stop-color:rgb(0%,0%,0%);stop-opacity:0;"/>
</radialGradient>
<radialGradient id="radial1" gradientUnits="userSpaceOnUse" cx="63.5" cy="212.333359" fx="63.5" fy="212.333359" r="21.166666" gradientTransform="matrix(-0.0859457,0.000000025531,-0.000000025531,-0.0859457,8.186334,36.612876)">
<stop offset="0" style="stop-color:rgb(0%,0%,0%);stop-opacity:0.313725;"/>
<stop offset="0.499999" style="stop-color:rgb(0%,0%,0%);stop-opacity:0.27451;"/>
<stop offset="1" style="stop-color:rgb(0%,0%,0%);stop-opacity:0;"/>
</radialGradient>
<linearGradient id="linear1" gradientUnits="userSpaceOnUse" x1="359.833313" y1="-94.583336" x2="359.833344" y2="-115.75" gradientTransform="matrix(0.0429729,0,0,0.0429729,-0.000000592101,8.784369)">
<stop offset="0" style="stop-color:rgb(0%,0%,0%);stop-opacity:0.196078;"/>
<stop offset="1" style="stop-color:rgb(0%,0%,0%);stop-opacity:0;"/>
</linearGradient>
<linearGradient id="linear2" gradientUnits="userSpaceOnUse" x1="254" y1="233.5" x2="254" y2="-105.166656" >
<stop offset="0" style="stop-color:rgb(71.764706%,73.333333%,77.647059%);stop-opacity:1;"/>
<stop offset="1" style="stop-color:rgb(80%,81.568627%,84.313725%);stop-opacity:1;"/>
</linearGradient>
<linearGradient id="linear3" gradientUnits="userSpaceOnUse" x1="365.125" y1="-105.166672" x2="365.125" y2="-136.916672" >
<stop offset="0" style="stop-color:rgb(32.54902%,33.333333%,36.470588%);stop-opacity:1;"/>
<stop offset="1" style="stop-color:rgb(36.470588%,37.647059%,40.784314%);stop-opacity:1;"/>
</linearGradient>
</defs>
<g id="surface1">
<path style=" stroke:none;fill-rule:nonzero;fill:url(#linear0);" d="M 2.730469 19.273438 L 19.101562 19.273438 L 19.101562 20.183594 L 2.730469 20.183594 Z M 2.730469 19.273438 "/>
<path style=" stroke:none;fill-rule:nonzero;fill:url(#radial0);" d="M 19.101562 18.363281 L 20.921875 18.363281 L 20.921875 20.183594 L 19.101562 20.183594 Z M 19.101562 18.363281 "/>
<path style=" stroke:none;fill-rule:nonzero;fill:url(#radial1);" d="M 0.910156 18.363281 L 2.730469 18.363281 L 2.730469 20.183594 L 0.910156 20.183594 Z M 0.910156 18.363281 "/>
<path style=" stroke:none;fill-rule:nonzero;fill:url(#linear1);" d="M 10.003906 3.808594 L 20.011719 3.808594 L 20.011719 4.71875 L 10.003906 4.71875 Z M 10.003906 3.808594 "/>
<path style="fill-rule:nonzero;fill:url(#linear2);stroke-width:2;stroke-linecap:butt;stroke-linejoin:miter;stroke:rgb(30.19608%,30.19608%,30.19608%);stroke-opacity:1;stroke-miterlimit:4;" d="M 31.724243 -105.192304 L 476.22725 -105.192304 C 482.135777 -105.192304 486.862598 -100.465483 486.862598 -94.556956 L 486.862598 222.958177 C 486.862598 228.775803 482.135777 233.502625 476.22725 233.502625 L 31.724243 233.502625 C 25.906617 233.502625 21.179796 228.775803 21.179796 222.958177 L 21.179796 -94.556956 C 21.179796 -100.465483 25.906617 -105.192304 31.724243 -105.192304 Z M 31.724243 -105.192304 " transform="matrix(0.0429729,0,0,0.0429729,0,9.239163)"/>
<path style=" stroke:none;fill-rule:nonzero;fill:rgb(100%,100%,100%);fill-opacity:0.196078;" d="M 1.363281 4.71875 C 1.113281 4.71875 0.910156 4.921875 0.910156 5.175781 L 0.910156 5.402344 C 0.910156 5.148438 1.113281 4.945312 1.363281 4.945312 L 20.464844 4.945312 C 20.71875 4.945312 20.921875 5.148438 20.921875 5.402344 L 20.921875 5.175781 C 20.921875 4.921875 20.71875 4.71875 20.464844 4.71875 Z M 1.363281 4.71875 "/>
<path style=" stroke:none;fill-rule:nonzero;fill:rgb(0%,0%,0%);fill-opacity:0.196078;" d="M 1.363281 19.273438 C 1.113281 19.273438 0.910156 19.070312 0.910156 18.820312 L 0.910156 18.589844 C 0.910156 18.84375 1.113281 19.046875 1.363281 19.046875 L 20.464844 19.046875 C 20.71875 19.046875 20.921875 18.84375 20.921875 18.589844 L 20.921875 18.820312 C 20.921875 19.070312 20.71875 19.273438 20.464844 19.273438 Z M 1.363281 19.273438 "/>
<path style=" stroke:none;fill-rule:nonzero;fill:rgb(100%,100%,100%);fill-opacity:0.27451;" d="M 10.460938 3.355469 C 10.207031 3.355469 10.003906 3.558594 10.003906 3.808594 L 10.003906 4.039062 C 10.003906 3.785156 10.207031 3.582031 10.460938 3.582031 L 19.554688 3.582031 C 19.808594 3.582031 20.011719 3.785156 20.011719 4.039062 L 20.011719 3.808594 C 20.011719 3.558594 19.808594 3.355469 19.554688 3.355469 Z M 10.460938 3.355469 "/>
<path style="fill-rule:nonzero;fill:url(#linear3);stroke-width:0.264583;stroke-linecap:butt;stroke-linejoin:miter;stroke:rgb(74.509805%,78.431374%,71.764708%);stroke-opacity:1;stroke-miterlimit:4;" d="M 243.431299 -136.916548 C 237.522772 -136.916548 232.795951 -132.189726 232.795951 -126.3721 L 232.795951 -105.192304 L 465.682802 -105.192304 L 465.682802 -126.3721 C 465.682802 -132.189726 460.955981 -136.916548 455.047454 -136.916548 Z M 243.431299 -136.916548 " transform="matrix(0.0429729,0,0,0.0429729,0,9.239163)"/>
<path style=" stroke:none;fill-rule:nonzero;fill:rgb(20%,20%,20%);fill-opacity:1;" d="M 10.914062 17 C 11.167969 17 11.371094 17.203125 11.371094 17.453125 C 11.371094 17.707031 11.167969 17.910156 10.914062 17.910156 C 10.664062 17.910156 10.460938 17.707031 10.460938 17.453125 C 10.460938 17.203125 10.664062 17 10.914062 17 Z M 10.914062 17 "/>
<path style=" stroke:none;fill-rule:nonzero;fill:rgb(20%,20%,20%);fill-opacity:1;" d="M 12.734375 17 C 12.984375 17 13.1875 17.203125 13.1875 17.453125 C 13.1875 17.707031 12.984375 17.910156 12.734375 17.910156 C 12.484375 17.910156 12.28125 17.707031 12.28125 17.453125 C 12.28125 17.203125 12.484375 17 12.734375 17 Z M 12.734375 17 "/>
<path style=" stroke:none;fill-rule:nonzero;fill:rgb(20%,20%,20%);fill-opacity:1;" d="M 9.097656 17 C 9.347656 17 9.550781 17.203125 9.550781 17.453125 C 9.550781 17.707031 9.347656 17.910156 9.097656 17.910156 C 8.84375 17.910156 8.640625 17.707031 8.640625 17.453125 C 8.640625 17.203125 8.84375 17 9.097656 17 Z M 9.097656 17 "/>
<path style=" stroke:none;fill-rule:nonzero;fill:rgb(57.647061%,67.450982%,61.56863%);fill-opacity:1;" d="M 12.734375 18.023438 C 12.480469 18.023438 12.28125 17.820312 12.28125 17.566406 C 12.28125 17.546875 12.28125 17.53125 12.28125 17.511719 C 12.3125 17.734375 12.5 17.910156 12.734375 17.910156 C 12.96875 17.910156 13.15625 17.734375 13.183594 17.511719 C 13.1875 17.53125 13.1875 17.546875 13.1875 17.566406 C 13.1875 17.820312 12.984375 18.023438 12.734375 18.023438 Z M 12.734375 18.023438 "/>
<path style=" stroke:none;fill-rule:nonzero;fill:rgb(100%,100%,100%);fill-opacity:0.196078;" d="M 12.734375 18.023438 C 12.480469 18.023438 12.28125 17.820312 12.28125 17.566406 C 12.28125 17.546875 12.28125 17.53125 12.28125 17.511719 C 12.3125 17.734375 12.5 17.910156 12.734375 17.910156 C 12.96875 17.910156 13.15625 17.734375 13.183594 17.511719 C 13.1875 17.53125 13.1875 17.546875 13.1875 17.566406 C 13.1875 17.820312 12.984375 18.023438 12.734375 18.023438 Z M 12.734375 18.023438 "/>
<path style=" stroke:none;fill-rule:nonzero;fill:rgb(100%,100%,100%);fill-opacity:0.196078;" d="M 10.917969 18.023438 C 10.667969 18.023438 10.464844 17.820312 10.464844 17.566406 C 10.464844 17.546875 10.464844 17.53125 10.46875 17.511719 C 10.496094 17.734375 10.6875 17.910156 10.917969 17.910156 C 11.152344 17.910156 11.34375 17.734375 11.371094 17.511719 C 11.371094 17.53125 11.375 17.546875 11.375 17.566406 C 11.375 17.820312 11.171875 18.023438 10.917969 18.023438 Z M 10.917969 18.023438 "/>
<path style=" stroke:none;fill-rule:nonzero;fill:rgb(100%,100%,100%);fill-opacity:0.196078;" d="M 9.097656 18.023438 C 8.84375 18.023438 8.640625 17.820312 8.640625 17.566406 C 8.640625 17.546875 8.640625 17.53125 8.644531 17.511719 C 8.671875 17.734375 8.863281 17.910156 9.097656 17.910156 C 9.328125 17.910156 9.519531 17.734375 9.546875 17.511719 C 9.550781 17.53125 9.550781 17.546875 9.550781 17.566406 C 9.550781 17.820312 9.347656 18.023438 9.097656 18.023438 Z M 9.097656 18.023438 "/>
<path style=" stroke:none;fill-rule:nonzero;fill:rgb(0%,0%,0%);fill-opacity:0.196078;" d="M 9.097656 17 C 9.347656 17 9.550781 17.203125 9.550781 17.453125 C 9.550781 17.472656 9.550781 17.492188 9.546875 17.511719 C 9.519531 17.285156 9.328125 17.113281 9.097656 17.113281 C 8.863281 17.113281 8.671875 17.285156 8.644531 17.511719 C 8.640625 17.492188 8.640625 17.472656 8.640625 17.453125 C 8.640625 17.203125 8.84375 17 9.097656 17 Z M 9.097656 17 "/>
<path style=" stroke:none;fill-rule:nonzero;fill:rgb(0%,0%,0%);fill-opacity:0.196078;" d="M 10.910156 17 C 11.164062 17 11.367188 17.203125 11.367188 17.453125 C 11.367188 17.472656 11.363281 17.492188 11.363281 17.511719 C 11.335938 17.285156 11.144531 17.113281 10.910156 17.113281 C 10.679688 17.113281 10.488281 17.285156 10.460938 17.511719 C 10.457031 17.492188 10.457031 17.472656 10.457031 17.453125 C 10.457031 17.203125 10.660156 17 10.910156 17 Z M 10.910156 17 "/>
<path style=" stroke:none;fill-rule:nonzero;fill:rgb(0%,0%,0%);fill-opacity:0.196078;" d="M 12.734375 17 C 12.984375 17 13.1875 17.203125 13.1875 17.453125 C 13.1875 17.472656 13.1875 17.492188 13.183594 17.511719 C 13.15625 17.285156 12.96875 17.113281 12.734375 17.113281 C 12.5 17.113281 12.3125 17.285156 12.28125 17.511719 C 12.28125 17.492188 12.28125 17.472656 12.28125 17.453125 C 12.28125 17.203125 12.480469 17 12.734375 17 Z M 12.734375 17 "/>
<path style=" stroke:none;fill-rule:nonzero;fill:rgb(100%,100%,100%);fill-opacity:0.196078;" d="M 10.460938 3.355469 C 10.207031 3.355469 10.003906 3.558594 10.003906 3.808594 L 10.003906 4.039062 C 10.003906 3.785156 10.207031 3.582031 10.460938 3.582031 L 19.554688 3.582031 C 19.808594 3.582031 20.011719 3.785156 20.011719 4.039062 L 20.011719 3.808594 C 20.011719 3.558594 19.808594 3.355469 19.554688 3.355469 Z M 10.460938 3.355469 "/>
<path style=" stroke:none;fill-rule:nonzero;fill:rgb(32.549021%,33.333334%,36.470589%);fill-opacity:1;" d="M 11.421875 8.933594 C 10.882812 8.914062 10.355469 9.0625 9.910156 9.351562 L 10.445312 10.089844 C 10.875 9.828125 11.417969 9.761719 11.929688 9.953125 C 12.441406 10.144531 12.804688 10.550781 12.957031 11.03125 L 13.847656 10.828125 C 13.699219 10.320312 13.402344 9.859375 12.984375 9.519531 C 12.738281 9.773438 12.359375 9.871094 12.007812 9.738281 C 11.660156 9.605469 11.4375 9.285156 11.421875 8.933594 Z M 13.933594 11.273438 L 13.035156 11.480469 C 13.042969 11.699219 13.007812 11.925781 12.925781 12.148438 C 12.621094 12.960938 11.769531 13.402344 10.949219 13.210938 L 10.628906 14.066406 C 11.261719 14.246094 11.910156 14.175781 12.46875 13.90625 C 12.410156 13.71875 12.414062 13.515625 12.488281 13.320312 C 12.660156 12.855469 13.171875 12.617188 13.636719 12.78125 C 13.691406 12.679688 13.738281 12.578125 13.777344 12.46875 C 13.925781 12.074219 13.972656 11.664062 13.933594 11.273438 Z M 9.550781 9.628906 C 9.261719 9.898438 9.03125 10.234375 8.882812 10.628906 C 8.839844 10.738281 8.808594 10.847656 8.78125 10.957031 C 9.242188 11.140625 9.46875 11.65625 9.292969 12.121094 C 9.21875 12.316406 9.085938 12.472656 8.921875 12.574219 C 9.164062 13.144531 9.609375 13.625 10.203125 13.90625 L 10.523438 13.050781 C 9.777344 12.652344 9.429688 11.761719 9.734375 10.949219 C 9.816406 10.730469 9.941406 10.535156 10.089844 10.375 Z M 9.550781 9.628906 "/>
<path style=" stroke:none;fill-rule:nonzero;fill:rgb(32.549021%,33.333334%,36.470589%);fill-opacity:1;" d="M 12.527344 8.355469 C 12.824219 8.464844 12.972656 8.792969 12.863281 9.085938 C 12.75 9.382812 12.421875 9.53125 12.128906 9.417969 C 11.835938 9.308594 11.6875 8.980469 11.796875 8.6875 C 11.90625 8.394531 12.234375 8.246094 12.527344 8.355469 Z M 12.527344 8.355469 "/>
<path style=" stroke:none;fill-rule:nonzero;fill:rgb(32.549021%,33.333334%,36.470589%);fill-opacity:1;" d="M 8.640625 11.269531 C 8.9375 11.378906 9.085938 11.707031 8.972656 12 C 8.863281 12.292969 8.535156 12.441406 8.242188 12.332031 C 7.949219 12.222656 7.800781 11.894531 7.910156 11.601562 C 8.019531 11.304688 8.347656 11.15625 8.640625 11.269531 Z M 8.640625 11.269531 "/>
<path style=" stroke:none;fill-rule:nonzero;fill:rgb(32.549021%,33.333334%,36.470589%);fill-opacity:1;" d="M 13.539062 13.105469 C 13.832031 13.21875 13.980469 13.542969 13.871094 13.839844 C 13.761719 14.132812 13.433594 14.28125 13.140625 14.171875 C 12.84375 14.0625 12.695312 13.734375 12.804688 13.4375 C 12.917969 13.144531 13.246094 12.996094 13.539062 13.105469 Z M 13.539062 13.105469 "/>
</g>
</svg>
