<?xml version="1.0" encoding="UTF-8"?>
<svg xmlns="http://www.w3.org/2000/svg" xmlns:xlink="http://www.w3.org/1999/xlink" width="22pt" height="22pt" viewBox="0 0 22 22" version="1.1">
<defs>
<linearGradient id="linear0" gradientUnits="userSpaceOnUse" x1="254" y1="233.5" x2="254" y2="254.666672" gradientTransform="matrix(0.0429729,0,0,0.0429729,0,9.239163)">
<stop offset="0" style="stop-color:rgb(0%,0%,0%);stop-opacity:0.27451;"/>
<stop offset="1" style="stop-color:rgb(0%,0%,0%);stop-opacity:0;"/>
</linearGradient>
<radialGradient id="radial0" gradientUnits="userSpaceOnUse" cx="456.200623" cy="186.933533" fx="456.200623" fy="186.933533" r="21.166656" gradientTransform="matrix(0.0000000608559,0.0859457,-0.0859457,0.0000000591945,35.167544,-20.844777)">
<stop offset="0" style="stop-color:rgb(0%,0%,0%);stop-opacity:0.313725;"/>
<stop offset="0.499999" style="stop-color:rgb(0%,0%,0%);stop-opacity:0.27451;"/>
<stop offset="1" style="stop-color:rgb(0%,0%,0%);stop-opacity:0;"/>
</radialGradient>
<radialGradient id="radial1" gradientUnits="userSpaceOnUse" cx="63.5" cy="212.333359" fx="63.5" fy="212.333359" r="21.166666" gradientTransform="matrix(-0.0859457,0.000000025531,-0.000000025531,-0.0859457,8.186334,36.612876)">
<stop offset="0" style="stop-color:rgb(0%,0%,0%);stop-opacity:0.313725;"/>
<stop offset="0.499999" style="stop-color:rgb(0%,0%,0%);stop-opacity:0.27451;"/>
<stop offset="1" style="stop-color:rgb(0%,0%,0%);stop-opacity:0;"/>
</radialGradient>
<linearGradient id="linear1" gradientUnits="userSpaceOnUse" x1="254" y1="233.5" x2="254" y2="254.666672" gradientTransform="matrix(0.0429729,0,0,0.0429729,0,7.419979)">
<stop offset="0" style="stop-color:rgb(0%,0%,0%);stop-opacity:0.196078;"/>
<stop offset="1" style="stop-color:rgb(0%,0%,0%);stop-opacity:0;"/>
</linearGradient>
<radialGradient id="radial2" gradientUnits="userSpaceOnUse" cx="63.5" cy="212.333359" fx="63.5" fy="212.333359" r="21.166666" gradientTransform="matrix(-0.0859457,0.000000025531,-0.000000025531,-0.0859457,8.186334,34.79369)">
<stop offset="0" style="stop-color:rgb(0%,0%,0%);stop-opacity:0.313725;"/>
<stop offset="0.499999" style="stop-color:rgb(0%,0%,0%);stop-opacity:0.196078;"/>
<stop offset="1" style="stop-color:rgb(0%,0%,0%);stop-opacity:0;"/>
</radialGradient>
<linearGradient id="linear2" gradientUnits="userSpaceOnUse" x1="254" y1="233.5" x2="254" y2="-105.166656" gradientTransform="matrix(1,0,0,1,-0.0000138509,-63.50013)">
<stop offset="0" style="stop-color:rgb(71.764706%,73.333333%,77.647059%);stop-opacity:1;"/>
<stop offset="1" style="stop-color:rgb(80%,81.568627%,84.313725%);stop-opacity:1;"/>
</linearGradient>
</defs>
<g id="surface1">
<path style=" stroke:none;fill-rule:nonzero;fill:url(#linear0);" d="M 2.730469 19.273438 L 19.101562 19.273438 L 19.101562 20.183594 L 2.730469 20.183594 Z M 2.730469 19.273438 "/>
<path style=" stroke:none;fill-rule:nonzero;fill:url(#radial0);" d="M 19.101562 18.363281 L 20.921875 18.363281 L 20.921875 20.183594 L 19.101562 20.183594 Z M 19.101562 18.363281 "/>
<path style=" stroke:none;fill-rule:nonzero;fill:url(#radial1);" d="M 0.910156 18.363281 L 2.730469 18.363281 L 2.730469 20.183594 L 0.910156 20.183594 Z M 0.910156 18.363281 "/>
<path style=" stroke:none;fill-rule:nonzero;fill:url(#linear1);" d="M 2.730469 17.453125 L 19.101562 17.453125 L 19.101562 18.363281 L 2.730469 18.363281 Z M 2.730469 17.453125 "/>
<path style=" stroke:none;fill-rule:nonzero;fill:url(#radial2);" d="M 0.910156 16.542969 L 2.730469 16.542969 L 2.730469 18.363281 L 0.910156 18.363281 Z M 0.910156 16.542969 "/>
<path style="fill-rule:nonzero;fill:url(#linear2);stroke-width:2;stroke-linecap:butt;stroke-linejoin:miter;stroke:rgb(30.19608%,30.19608%,30.19608%);stroke-opacity:1;stroke-miterlimit:4;" d="M 42.359591 -168.640791 L 465.682802 -168.640791 C 477.318055 -168.640791 486.862598 -159.187148 486.862598 -147.460995 L 486.862598 212.322829 C 486.862598 224.048982 477.318055 233.502625 465.682802 233.502625 L 42.359591 233.502625 C 30.633438 233.502625 21.179796 224.048982 21.179796 212.322829 L 21.179796 -147.460995 C 21.179796 -159.187148 30.633438 -168.640791 42.359591 -168.640791 Z M 42.359591 -168.640791 " transform="matrix(0.0429729,0,0,0.0429729,0,9.239163)"/>
<path style=" stroke:none;fill-rule:nonzero;fill:rgb(100%,100%,100%);fill-opacity:0.196078;" d="M 1.820312 1.992188 C 1.316406 1.992188 0.910156 2.398438 0.910156 2.902344 L 0.910156 3.128906 C 0.910156 2.625 1.316406 2.21875 1.820312 2.21875 L 20.011719 2.21875 C 20.515625 2.21875 20.921875 2.625 20.921875 3.128906 L 20.921875 2.902344 C 20.921875 2.398438 20.515625 1.992188 20.011719 1.992188 Z M 1.820312 1.992188 "/>
<path style=" stroke:none;fill-rule:nonzero;fill:rgb(0%,0%,0%);fill-opacity:0.0784314;" d="M 20.011719 19.273438 C 20.515625 19.273438 20.921875 18.867188 20.921875 18.363281 L 20.921875 17.453125 C 20.921875 18.085938 20.515625 18.820312 20.011719 18.820312 L 1.820312 18.820312 C 1.316406 18.820312 0.910156 18.085938 0.910156 17.453125 L 0.910156 18.363281 C 0.910156 18.867188 1.316406 19.273438 1.820312 19.273438 Z M 20.011719 19.273438 "/>
<path style=" stroke:none;fill-rule:nonzero;fill:rgb(100%,100%,100%);fill-opacity:0.196078;" d="M 5.457031 -0.28125 C 4.953125 -0.28125 4.546875 0.121094 4.546875 0.625 L 4.546875 1.535156 C 4.546875 0.90625 4.953125 0.171875 5.457031 0.171875 L 23.648438 0.171875 C 24.152344 0.171875 24.558594 0.90625 24.558594 1.535156 L 24.558594 0.625 C 24.558594 0.121094 24.152344 -0.28125 23.648438 -0.28125 Z M 5.457031 -0.28125 "/>
<path style=" stroke:none;fill-rule:nonzero;fill:rgb(32.549021%,33.333334%,36.470589%);fill-opacity:1;" d="M 7.730469 10.324219 C 7.730469 11.792969 8.683594 13.03125 10.003906 13.460938 L 10.003906 12.511719 C 9.199219 12.125 8.640625 11.292969 8.640625 10.324219 C 8.640625 8.984375 9.707031 7.90625 11.027344 7.90625 C 12.347656 7.90625 13.414062 8.984375 13.414062 10.324219 C 13.414062 11.097656 13.058594 11.78125 12.507812 12.222656 L 12.507812 13.273438 C 13.585938 12.734375 14.324219 11.617188 14.324219 10.324219 C 14.324219 8.496094 12.855469 7.027344 11.027344 7.027344 C 9.203125 7.027344 7.730469 8.496094 7.730469 10.324219 Z M 7.730469 10.324219 "/>
<path style=" stroke:none;fill-rule:nonzero;fill:rgb(32.549021%,33.333334%,36.470589%);fill-opacity:1;" d="M 10.6875 13.507812 L 9.890625 11.917969 L 8.867188 13.507812 Z M 10.6875 13.507812 "/>
<path style=" stroke:none;fill-rule:nonzero;fill:rgb(32.549021%,33.333334%,36.470589%);fill-opacity:1;" d="M 2.5 4.265625 C 2.878906 4.265625 3.183594 4.570312 3.183594 4.945312 C 3.183594 5.324219 2.878906 5.628906 2.5 5.628906 C 2.125 5.628906 1.820312 5.324219 1.820312 4.945312 C 1.820312 4.570312 2.125 4.265625 2.5 4.265625 Z M 2.5 4.265625 "/>
<path style=" stroke:none;fill-rule:nonzero;fill:rgb(32.549021%,33.333334%,36.470589%);fill-opacity:1;" d="M 2.5 15.636719 C 2.878906 15.636719 3.183594 15.941406 3.183594 16.316406 C 3.183594 16.695312 2.878906 17 2.5 17 C 2.125 17 1.820312 16.695312 1.820312 16.316406 C 1.820312 15.941406 2.125 15.636719 2.5 15.636719 Z M 2.5 15.636719 "/>
<path style=" stroke:none;fill-rule:nonzero;fill:rgb(32.549021%,33.333334%,36.470589%);fill-opacity:1;" d="M 2.5 6.539062 C 2.878906 6.539062 3.183594 6.84375 3.183594 7.222656 C 3.183594 7.597656 2.878906 7.902344 2.5 7.902344 C 2.125 7.902344 1.820312 7.597656 1.820312 7.222656 C 1.820312 6.84375 2.125 6.539062 2.5 6.539062 Z M 2.5 6.539062 "/>
<path style=" stroke:none;fill-rule:nonzero;fill:rgb(32.549021%,33.333334%,36.470589%);fill-opacity:1;" d="M 2.5 13.359375 C 2.878906 13.359375 3.183594 13.667969 3.183594 14.042969 C 3.183594 14.421875 2.878906 14.726562 2.5 14.726562 C 2.125 14.726562 1.820312 14.421875 1.820312 14.042969 C 1.820312 13.667969 2.125 13.359375 2.5 13.359375 Z M 2.5 13.359375 "/>
<path style=" stroke:none;fill-rule:nonzero;fill:rgb(32.549021%,33.333334%,36.470589%);fill-opacity:1;" d="M 2.5 11.085938 C 2.878906 11.085938 3.183594 11.390625 3.183594 11.769531 C 3.183594 12.144531 2.878906 12.453125 2.5 12.453125 C 2.125 12.453125 1.820312 12.144531 1.820312 11.769531 C 1.820312 11.390625 2.125 11.085938 2.5 11.085938 Z M 2.5 11.085938 "/>
<path style=" stroke:none;fill-rule:nonzero;fill:rgb(32.549021%,33.333334%,36.470589%);fill-opacity:1;" d="M 2.5 8.8125 C 2.878906 8.8125 3.183594 9.117188 3.183594 9.496094 C 3.183594 9.871094 2.878906 10.175781 2.5 10.175781 C 2.125 10.175781 1.820312 9.871094 1.820312 9.496094 C 1.820312 9.117188 2.125 8.8125 2.5 8.8125 Z M 2.5 8.8125 "/>
<path style=" stroke:none;fill-rule:nonzero;fill:rgb(32.549021%,33.333334%,36.470589%);fill-opacity:1;" d="M 19.328125 4.265625 C 19.707031 4.265625 20.011719 4.570312 20.011719 4.945312 C 20.011719 5.324219 19.707031 5.628906 19.328125 5.628906 C 18.953125 5.628906 18.648438 5.324219 18.648438 4.945312 C 18.648438 4.570312 18.953125 4.265625 19.328125 4.265625 Z M 19.328125 4.265625 "/>
<path style=" stroke:none;fill-rule:nonzero;fill:rgb(32.549021%,33.333334%,36.470589%);fill-opacity:1;" d="M 19.328125 15.636719 C 19.707031 15.636719 20.011719 15.941406 20.011719 16.316406 C 20.011719 16.695312 19.707031 17 19.328125 17 C 18.953125 17 18.648438 16.695312 18.648438 16.316406 C 18.648438 15.941406 18.953125 15.636719 19.328125 15.636719 Z M 19.328125 15.636719 "/>
<path style=" stroke:none;fill-rule:nonzero;fill:rgb(32.549021%,33.333334%,36.470589%);fill-opacity:1;" d="M 19.328125 6.539062 C 19.707031 6.539062 20.011719 6.84375 20.011719 7.222656 C 20.011719 7.597656 19.707031 7.902344 19.328125 7.902344 C 18.953125 7.902344 18.648438 7.597656 18.648438 7.222656 C 18.648438 6.84375 18.953125 6.539062 19.328125 6.539062 Z M 19.328125 6.539062 "/>
<path style=" stroke:none;fill-rule:nonzero;fill:rgb(32.549021%,33.333334%,36.470589%);fill-opacity:1;" d="M 19.328125 13.359375 C 19.707031 13.359375 20.011719 13.667969 20.011719 14.042969 C 20.011719 14.421875 19.707031 14.726562 19.328125 14.726562 C 18.953125 14.726562 18.648438 14.421875 18.648438 14.042969 C 18.648438 13.667969 18.953125 13.359375 19.328125 13.359375 Z M 19.328125 13.359375 "/>
<path style=" stroke:none;fill-rule:nonzero;fill:rgb(32.549021%,33.333334%,36.470589%);fill-opacity:1;" d="M 19.328125 11.085938 C 19.707031 11.085938 20.011719 11.390625 20.011719 11.769531 C 20.011719 12.144531 19.707031 12.453125 19.328125 12.453125 C 18.953125 12.453125 18.648438 12.144531 18.648438 11.769531 C 18.648438 11.390625 18.953125 11.085938 19.328125 11.085938 Z M 19.328125 11.085938 "/>
<path style=" stroke:none;fill-rule:nonzero;fill:rgb(32.549021%,33.333334%,36.470589%);fill-opacity:1;" d="M 19.328125 8.8125 C 19.707031 8.8125 20.011719 9.117188 20.011719 9.496094 C 20.011719 9.871094 19.707031 10.175781 19.328125 10.175781 C 18.953125 10.175781 18.648438 9.871094 18.648438 9.496094 C 18.648438 9.117188 18.953125 8.8125 19.328125 8.8125 Z M 19.328125 8.8125 "/>
</g>
</svg>
