<?xml version="1.0" encoding="UTF-8"?>
<svg xmlns="http://www.w3.org/2000/svg" xmlns:xlink="http://www.w3.org/1999/xlink" width="22pt" height="22pt" viewBox="0 0 22 22" version="1.1">
<defs>
<linearGradient id="linear0" gradientUnits="userSpaceOnUse" x1="365.125" y1="-105.166672" x2="365.125" y2="-136.916672" gradientTransform="matrix(1.818182,0,0,1,-381,227.477417)">
<stop offset="0" style="stop-color:rgb(32.54902%,33.333333%,36.470588%);stop-opacity:1;"/>
<stop offset="1" style="stop-color:rgb(36.470588%,37.647059%,40.784314%);stop-opacity:1;"/>
</linearGradient>
<linearGradient id="linear1" gradientUnits="userSpaceOnUse" x1="254" y1="233.5" x2="254" y2="254.666672" gradientTransform="matrix(0.0429729,0,0,0.0429729,0,9.239163)">
<stop offset="0" style="stop-color:rgb(0%,0%,0%);stop-opacity:0.27451;"/>
<stop offset="1" style="stop-color:rgb(0%,0%,0%);stop-opacity:0;"/>
</linearGradient>
<radialGradient id="radial0" gradientUnits="userSpaceOnUse" cx="456.200623" cy="186.933533" fx="456.200623" fy="186.933533" r="21.166656" gradientTransform="matrix(0.0000000608559,0.0859457,-0.0859457,0.0000000591945,35.167544,-20.844777)">
<stop offset="0" style="stop-color:rgb(0%,0%,0%);stop-opacity:0.313725;"/>
<stop offset="0.499999" style="stop-color:rgb(0%,0%,0%);stop-opacity:0.27451;"/>
<stop offset="1" style="stop-color:rgb(0%,0%,0%);stop-opacity:0;"/>
</radialGradient>
<radialGradient id="radial1" gradientUnits="userSpaceOnUse" cx="63.5" cy="212.333359" fx="63.5" fy="212.333359" r="21.166666" gradientTransform="matrix(-0.0859457,0.000000025531,-0.000000025531,-0.0859457,8.186334,36.612876)">
<stop offset="0" style="stop-color:rgb(0%,0%,0%);stop-opacity:0.313725;"/>
<stop offset="0.499999" style="stop-color:rgb(0%,0%,0%);stop-opacity:0.27451;"/>
<stop offset="1" style="stop-color:rgb(0%,0%,0%);stop-opacity:0;"/>
</radialGradient>
<linearGradient id="linear2" gradientUnits="userSpaceOnUse" x1="254" y1="233.5" x2="254" y2="-105.166656" gradientTransform="matrix(1,0,0,1,0.000019443,-0.0000178019)">
<stop offset="0" style="stop-color:rgb(71.764706%,73.333333%,77.647059%);stop-opacity:1;"/>
<stop offset="1" style="stop-color:rgb(80%,81.568627%,84.313725%);stop-opacity:1;"/>
</linearGradient>
<linearGradient id="linear3" gradientUnits="userSpaceOnUse" x1="365.125" y1="-105.166672" x2="365.125" y2="-136.916672" gradientTransform="matrix(1.818182,0,0,1,-381,79.375008)">
<stop offset="0" style="stop-color:rgb(32.54902%,33.333333%,36.470588%);stop-opacity:1;"/>
<stop offset="1" style="stop-color:rgb(36.470588%,37.647059%,40.784314%);stop-opacity:1;"/>
</linearGradient>
<linearGradient id="linear4" gradientUnits="userSpaceOnUse" x1="254" y1="233.5" x2="254" y2="254.666672" gradientTransform="matrix(0.0429729,0,0,0.0429729,0,-3.722523)">
<stop offset="0" style="stop-color:rgb(0%,0%,0%);stop-opacity:0.27451;"/>
<stop offset="1" style="stop-color:rgb(0%,0%,0%);stop-opacity:0;"/>
</linearGradient>
<radialGradient id="radial2" gradientUnits="userSpaceOnUse" cx="456.200623" cy="186.933533" fx="456.200623" fy="186.933533" r="21.166656" gradientTransform="matrix(0.0000000608559,0.0859457,-0.0859457,0.0000000591945,35.167544,-33.806464)">
<stop offset="0" style="stop-color:rgb(0%,0%,0%);stop-opacity:0.313725;"/>
<stop offset="0.499999" style="stop-color:rgb(0%,0%,0%);stop-opacity:0.27451;"/>
<stop offset="1" style="stop-color:rgb(0%,0%,0%);stop-opacity:0;"/>
</radialGradient>
<radialGradient id="radial3" gradientUnits="userSpaceOnUse" cx="63.5" cy="212.333359" fx="63.5" fy="212.333359" r="21.166666" gradientTransform="matrix(-0.0859457,0.000000025531,-0.000000025531,-0.0859457,8.186334,23.651189)">
<stop offset="0" style="stop-color:rgb(0%,0%,0%);stop-opacity:0.313725;"/>
<stop offset="0.499999" style="stop-color:rgb(0%,0%,0%);stop-opacity:0.27451;"/>
<stop offset="1" style="stop-color:rgb(0%,0%,0%);stop-opacity:0;"/>
</radialGradient>
<linearGradient id="linear5" gradientUnits="userSpaceOnUse" x1="254" y1="233.5" x2="254" y2="-105.166656" gradientTransform="matrix(1,0,0,1,0.000019443,-0.0000178019)">
<stop offset="0" style="stop-color:rgb(71.764706%,73.333333%,77.647059%);stop-opacity:1;"/>
<stop offset="1" style="stop-color:rgb(80%,81.568627%,84.313725%);stop-opacity:1;"/>
</linearGradient>
<linearGradient id="linear6" gradientUnits="userSpaceOnUse" x1="254" y1="233.5" x2="254" y2="254.666672" gradientTransform="matrix(0.0429729,0,0,0.0429729,0,2.872019)">
<stop offset="0" style="stop-color:rgb(0%,0%,0%);stop-opacity:0.27451;"/>
<stop offset="1" style="stop-color:rgb(0%,0%,0%);stop-opacity:0;"/>
</linearGradient>
<radialGradient id="radial4" gradientUnits="userSpaceOnUse" cx="456.200623" cy="186.933533" fx="456.200623" fy="186.933533" r="21.166656" gradientTransform="matrix(0.0000000608559,0.0859457,-0.0859457,0.0000000591945,35.167544,-27.211921)">
<stop offset="0" style="stop-color:rgb(0%,0%,0%);stop-opacity:0.313725;"/>
<stop offset="0.499999" style="stop-color:rgb(0%,0%,0%);stop-opacity:0.27451;"/>
<stop offset="1" style="stop-color:rgb(0%,0%,0%);stop-opacity:0;"/>
</radialGradient>
<radialGradient id="radial5" gradientUnits="userSpaceOnUse" cx="63.5" cy="212.333359" fx="63.5" fy="212.333359" r="21.166666" gradientTransform="matrix(-0.0859457,0.000000025531,-0.000000025531,-0.0859457,8.186334,30.245732)">
<stop offset="0" style="stop-color:rgb(0%,0%,0%);stop-opacity:0.313725;"/>
<stop offset="0.499999" style="stop-color:rgb(0%,0%,0%);stop-opacity:0.27451;"/>
<stop offset="1" style="stop-color:rgb(0%,0%,0%);stop-opacity:0;"/>
</radialGradient>
<linearGradient id="linear7" gradientUnits="userSpaceOnUse" x1="254" y1="233.5" x2="254" y2="-105.166656" gradientTransform="matrix(1,0,0,1,0.000019443,-0.0000178019)">
<stop offset="0" style="stop-color:rgb(71.764706%,73.333333%,77.647059%);stop-opacity:1;"/>
<stop offset="1" style="stop-color:rgb(80%,81.568627%,84.313725%);stop-opacity:1;"/>
</linearGradient>
</defs>
<g id="surface1">
<path style="fill-rule:nonzero;fill:url(#linear0);stroke-width:0.356764;stroke-linecap:butt;stroke-linejoin:miter;stroke:rgb(74.509805%,78.431374%,71.764708%);stroke-opacity:1;stroke-miterlimit:4;" d="M 61.539578 64.15516 C 50.90423 64.15516 42.359591 68.881982 42.359591 74.790508 L 42.359591 122.331423 L 465.682802 122.331423 L 465.682802 74.790508 C 465.682802 68.881982 457.047263 64.15516 446.411915 64.15516 Z M 61.539578 64.15516 " transform="matrix(0.0429729,0,0,0.0429729,0,9.239163)"/>
<path style=" stroke:none;fill-rule:nonzero;fill:url(#linear1);" d="M 2.730469 19.273438 L 19.101562 19.273438 L 19.101562 20.183594 L 2.730469 20.183594 Z M 2.730469 19.273438 "/>
<path style=" stroke:none;fill-rule:nonzero;fill:url(#radial0);" d="M 19.101562 18.363281 L 20.921875 18.363281 L 20.921875 20.183594 L 19.101562 20.183594 Z M 19.101562 18.363281 "/>
<path style=" stroke:none;fill-rule:nonzero;fill:url(#radial1);" d="M 0.910156 18.363281 L 2.730469 18.363281 L 2.730469 20.183594 L 0.910156 20.183594 Z M 0.910156 18.363281 "/>
<path style="fill-rule:nonzero;fill:url(#linear2);stroke-width:2;stroke-linecap:butt;stroke-linejoin:miter;stroke:rgb(30.19608%,30.19608%,30.19608%);stroke-opacity:1;stroke-miterlimit:4;" d="M 31.724243 122.331423 L 476.22725 122.331423 C 482.135777 122.331423 486.862598 127.149145 486.862598 132.966771 L 486.862598 222.958177 C 486.862598 228.775803 482.135777 233.502625 476.22725 233.502625 L 31.724243 233.502625 C 25.906617 233.502625 21.179796 228.775803 21.179796 222.958177 L 21.179796 132.966771 C 21.179796 127.149145 25.906617 122.331423 31.724243 122.331423 Z M 31.724243 122.331423 " transform="matrix(0.0429729,0,0,0.0429729,0,9.239163)"/>
<path style=" stroke:none;fill-rule:nonzero;fill:rgb(100%,100%,100%);fill-opacity:0.196078;" d="M 1.363281 14.496094 C 1.113281 14.496094 0.910156 14.699219 0.910156 14.953125 L 0.910156 15.179688 C 0.910156 14.929688 1.113281 14.726562 1.363281 14.726562 L 20.464844 14.726562 C 20.71875 14.726562 20.921875 14.929688 20.921875 15.179688 L 20.921875 14.953125 C 20.921875 14.699219 20.71875 14.496094 20.464844 14.496094 Z M 1.363281 14.496094 "/>
<path style=" stroke:none;fill-rule:nonzero;fill:rgb(0%,0%,0%);fill-opacity:0.196078;" d="M 1.363281 19.273438 C 1.113281 19.273438 0.910156 19.070312 0.910156 18.820312 L 0.910156 18.589844 C 0.910156 18.84375 1.113281 19.046875 1.363281 19.046875 L 20.464844 19.046875 C 20.71875 19.046875 20.921875 18.84375 20.921875 18.589844 L 20.921875 18.820312 C 20.921875 19.070312 20.71875 19.273438 20.464844 19.273438 Z M 1.363281 19.273438 "/>
<path style=" stroke:none;fill-rule:nonzero;fill:rgb(100%,100%,100%);fill-opacity:0.27451;" d="M 10.460938 3.355469 C 10.207031 3.355469 10.003906 3.558594 10.003906 3.808594 L 10.003906 4.039062 C 10.003906 3.785156 10.207031 3.582031 10.460938 3.582031 L 19.554688 3.582031 C 19.808594 3.582031 20.011719 3.785156 20.011719 4.039062 L 20.011719 3.808594 C 20.011719 3.558594 19.808594 3.355469 19.554688 3.355469 Z M 10.460938 3.355469 "/>
<path style="fill-rule:nonzero;fill:url(#linear3);stroke-width:0.356764;stroke-linecap:butt;stroke-linejoin:miter;stroke:rgb(74.509805%,78.431374%,71.764708%);stroke-opacity:1;stroke-miterlimit:4;" d="M 61.539578 -83.921608 C 50.90423 -83.921608 42.359591 -79.194787 42.359591 -73.377161 L 42.359591 -25.836246 L 465.682802 -25.836246 L 465.682802 -73.377161 C 465.682802 -79.194787 457.047263 -83.921608 446.411915 -83.921608 Z M 61.539578 -83.921608 " transform="matrix(0.0429729,0,0,0.0429729,0,9.239163)"/>
<path style=" stroke:none;fill-rule:nonzero;fill:url(#linear4);" d="M 2.730469 6.3125 L 19.101562 6.3125 L 19.101562 7.222656 L 2.730469 7.222656 Z M 2.730469 6.3125 "/>
<path style=" stroke:none;fill-rule:nonzero;fill:url(#radial2);" d="M 19.101562 5.402344 L 20.921875 5.402344 L 20.921875 7.222656 L 19.101562 7.222656 Z M 19.101562 5.402344 "/>
<path style=" stroke:none;fill-rule:nonzero;fill:url(#radial3);" d="M 0.910156 5.402344 L 2.730469 5.402344 L 2.730469 7.222656 L 0.910156 7.222656 Z M 0.910156 5.402344 "/>
<path style="fill-rule:nonzero;fill:url(#linear5);stroke-width:2;stroke-linecap:butt;stroke-linejoin:miter;stroke:rgb(30.19608%,30.19608%,30.19608%);stroke-opacity:1;stroke-miterlimit:4;" d="M 31.724243 122.348861 L 476.22725 122.348861 C 482.135777 122.348861 486.862598 127.075683 486.862598 132.984209 L 486.862598 222.884715 C 486.862598 228.793242 482.135777 233.520063 476.22725 233.520063 L 31.724243 233.520063 C 25.906617 233.520063 21.179796 228.793242 21.179796 222.884715 L 21.179796 132.984209 C 21.179796 127.075683 25.906617 122.348861 31.724243 122.348861 Z M 31.724243 122.348861 " transform="matrix(0.0429729,0,0,0.0429729,0,-3.722523)"/>
<path style=" stroke:none;fill-rule:nonzero;fill:rgb(100%,100%,100%);fill-opacity:0.196078;" d="M 1.363281 1.535156 C 1.113281 1.535156 0.910156 1.738281 0.910156 1.992188 L 0.910156 2.21875 C 0.910156 1.964844 1.113281 1.765625 1.363281 1.765625 L 20.464844 1.765625 C 20.71875 1.765625 20.921875 1.964844 20.921875 2.21875 L 20.921875 1.992188 C 20.921875 1.738281 20.71875 1.535156 20.464844 1.535156 Z M 1.363281 1.535156 "/>
<path style=" stroke:none;fill-rule:nonzero;fill:rgb(0%,0%,0%);fill-opacity:0.196078;" d="M 1.363281 6.3125 C 1.113281 6.3125 0.910156 6.109375 0.910156 5.855469 L 0.910156 5.628906 C 0.910156 5.882812 1.113281 6.085938 1.363281 6.085938 L 20.464844 6.085938 C 20.71875 6.085938 20.921875 5.882812 20.921875 5.628906 L 20.921875 5.855469 C 20.921875 6.109375 20.71875 6.3125 20.464844 6.3125 Z M 1.363281 6.3125 "/>
<path style=" stroke:none;fill-rule:nonzero;fill:url(#linear6);" d="M 2.730469 12.90625 L 19.101562 12.90625 L 19.101562 13.816406 L 2.730469 13.816406 Z M 2.730469 12.90625 "/>
<path style=" stroke:none;fill-rule:nonzero;fill:url(#radial4);" d="M 19.101562 11.996094 L 20.921875 11.996094 L 20.921875 13.816406 L 19.101562 13.816406 Z M 19.101562 11.996094 "/>
<path style=" stroke:none;fill-rule:nonzero;fill:url(#radial5);" d="M 0.910156 11.996094 L 2.730469 11.996094 L 2.730469 13.816406 L 0.910156 13.816406 Z M 0.910156 11.996094 "/>
<path style="fill-rule:nonzero;fill:url(#linear7);stroke-width:2;stroke-linecap:butt;stroke-linejoin:miter;stroke:rgb(30.19608%,30.19608%,30.19608%);stroke-opacity:1;stroke-miterlimit:4;" d="M 31.724243 122.330426 L 476.22725 122.330426 C 482.135777 122.330426 486.862598 127.148147 486.862598 132.965774 L 486.862598 222.95718 C 486.862598 228.774806 482.135777 233.501628 476.22725 233.501628 L 31.724243 233.501628 C 25.906617 233.501628 21.179796 228.774806 21.179796 222.95718 L 21.179796 132.965774 C 21.179796 127.148147 25.906617 122.330426 31.724243 122.330426 Z M 31.724243 122.330426 " transform="matrix(0.0429729,0,0,0.0429729,0,2.872019)"/>
<path style=" stroke:none;fill-rule:nonzero;fill:rgb(100%,100%,100%);fill-opacity:0.196078;" d="M 1.363281 8.128906 C 1.113281 8.128906 0.910156 8.332031 0.910156 8.585938 L 0.910156 8.8125 C 0.910156 8.5625 1.113281 8.359375 1.363281 8.359375 L 20.464844 8.359375 C 20.71875 8.359375 20.921875 8.5625 20.921875 8.8125 L 20.921875 8.585938 C 20.921875 8.332031 20.71875 8.128906 20.464844 8.128906 Z M 1.363281 8.128906 "/>
<path style=" stroke:none;fill-rule:nonzero;fill:rgb(0%,0%,0%);fill-opacity:0.196078;" d="M 1.363281 12.90625 C 1.113281 12.90625 0.910156 12.703125 0.910156 12.453125 L 0.910156 12.222656 C 0.910156 12.476562 1.113281 12.679688 1.363281 12.679688 L 20.464844 12.679688 C 20.71875 12.679688 20.921875 12.476562 20.921875 12.222656 L 20.921875 12.453125 C 20.921875 12.703125 20.71875 12.90625 20.464844 12.90625 Z M 1.363281 12.90625 "/>
<path style=" stroke:none;fill-rule:nonzero;fill:rgb(20%,20%,20%);fill-opacity:1;" d="M 4.101562 10.0625 C 4.351562 10.0625 4.554688 10.265625 4.554688 10.519531 C 4.554688 10.769531 4.351562 10.972656 4.101562 10.972656 C 3.847656 10.972656 3.644531 10.769531 3.644531 10.519531 C 3.644531 10.265625 3.847656 10.0625 4.101562 10.0625 Z M 4.101562 10.0625 "/>
<path style=" stroke:none;fill-rule:nonzero;fill:rgb(20%,20%,20%);fill-opacity:1;" d="M 5.917969 10.0625 C 6.171875 10.0625 6.375 10.265625 6.375 10.519531 C 6.375 10.769531 6.171875 10.972656 5.917969 10.972656 C 5.667969 10.972656 5.464844 10.769531 5.464844 10.519531 C 5.464844 10.265625 5.667969 10.0625 5.917969 10.0625 Z M 5.917969 10.0625 "/>
<path style=" stroke:none;fill-rule:nonzero;fill:rgb(20%,20%,20%);fill-opacity:1;" d="M 2.28125 10.0625 C 2.53125 10.0625 2.734375 10.265625 2.734375 10.519531 C 2.734375 10.769531 2.53125 10.972656 2.28125 10.972656 C 2.03125 10.972656 1.828125 10.769531 1.828125 10.519531 C 1.828125 10.265625 2.03125 10.0625 2.28125 10.0625 Z M 2.28125 10.0625 "/>
<path style=" stroke:none;fill-rule:nonzero;fill:rgb(57.647061%,67.450982%,61.56863%);fill-opacity:1;" d="M 5.917969 11.085938 C 5.667969 11.085938 5.464844 10.882812 5.464844 10.632812 C 5.464844 10.613281 5.464844 10.59375 5.46875 10.574219 C 5.496094 10.800781 5.6875 10.972656 5.917969 10.972656 C 6.152344 10.972656 6.34375 10.800781 6.371094 10.574219 C 6.375 10.59375 6.375 10.613281 6.375 10.632812 C 6.375 10.882812 6.171875 11.085938 5.917969 11.085938 Z M 5.917969 11.085938 "/>
<path style=" stroke:none;fill-rule:nonzero;fill:rgb(100%,100%,100%);fill-opacity:0.196078;" d="M 5.917969 11.085938 C 5.667969 11.085938 5.464844 10.882812 5.464844 10.632812 C 5.464844 10.613281 5.464844 10.59375 5.46875 10.574219 C 5.496094 10.800781 5.6875 10.972656 5.917969 10.972656 C 6.152344 10.972656 6.34375 10.800781 6.371094 10.574219 C 6.375 10.59375 6.375 10.613281 6.375 10.632812 C 6.375 10.882812 6.171875 11.085938 5.917969 11.085938 Z M 5.917969 11.085938 "/>
<path style=" stroke:none;fill-rule:nonzero;fill:rgb(100%,100%,100%);fill-opacity:0.196078;" d="M 4.105469 11.085938 C 3.851562 11.085938 3.648438 10.882812 3.648438 10.632812 C 3.648438 10.613281 3.652344 10.59375 3.652344 10.574219 C 3.679688 10.800781 3.871094 10.972656 4.105469 10.972656 C 4.335938 10.972656 4.527344 10.800781 4.554688 10.574219 C 4.558594 10.59375 4.558594 10.613281 4.558594 10.632812 C 4.558594 10.882812 4.355469 11.085938 4.105469 11.085938 Z M 4.105469 11.085938 "/>
<path style=" stroke:none;fill-rule:nonzero;fill:rgb(100%,100%,100%);fill-opacity:0.196078;" d="M 2.28125 11.085938 C 2.027344 11.085938 1.828125 10.882812 1.828125 10.632812 C 1.828125 10.613281 1.828125 10.59375 1.828125 10.574219 C 1.859375 10.800781 2.046875 10.972656 2.28125 10.972656 C 2.515625 10.972656 2.703125 10.800781 2.730469 10.574219 C 2.734375 10.59375 2.734375 10.613281 2.734375 10.632812 C 2.734375 10.882812 2.53125 11.085938 2.28125 11.085938 Z M 2.28125 11.085938 "/>
<path style=" stroke:none;fill-rule:nonzero;fill:rgb(0%,0%,0%);fill-opacity:0.196078;" d="M 2.28125 10.0625 C 2.53125 10.0625 2.734375 10.265625 2.734375 10.519531 C 2.734375 10.539062 2.734375 10.558594 2.730469 10.574219 C 2.703125 10.351562 2.515625 10.175781 2.28125 10.175781 C 2.046875 10.175781 1.859375 10.351562 1.828125 10.574219 C 1.828125 10.558594 1.828125 10.539062 1.828125 10.519531 C 1.828125 10.265625 2.027344 10.0625 2.28125 10.0625 Z M 2.28125 10.0625 "/>
<path style=" stroke:none;fill-rule:nonzero;fill:rgb(0%,0%,0%);fill-opacity:0.196078;" d="M 4.097656 10.0625 C 4.347656 10.0625 4.550781 10.265625 4.550781 10.519531 C 4.550781 10.539062 4.550781 10.558594 4.546875 10.574219 C 4.519531 10.351562 4.328125 10.175781 4.097656 10.175781 C 3.863281 10.175781 3.671875 10.351562 3.644531 10.574219 C 3.644531 10.558594 3.640625 10.539062 3.640625 10.519531 C 3.640625 10.265625 3.84375 10.0625 4.097656 10.0625 Z M 4.097656 10.0625 "/>
<path style=" stroke:none;fill-rule:nonzero;fill:rgb(0%,0%,0%);fill-opacity:0.196078;" d="M 5.917969 10.0625 C 6.171875 10.0625 6.375 10.265625 6.375 10.519531 C 6.375 10.539062 6.375 10.558594 6.371094 10.574219 C 6.34375 10.351562 6.152344 10.175781 5.917969 10.175781 C 5.6875 10.175781 5.496094 10.351562 5.46875 10.574219 C 5.464844 10.558594 5.464844 10.539062 5.464844 10.519531 C 5.464844 10.265625 5.667969 10.0625 5.917969 10.0625 Z M 5.917969 10.0625 "/>
<path style=" stroke:none;fill-rule:nonzero;fill:rgb(20%,20%,20%);fill-opacity:1;" d="M 4.101562 3.355469 C 4.351562 3.355469 4.554688 3.558594 4.554688 3.808594 C 4.554688 4.0625 4.351562 4.265625 4.101562 4.265625 C 3.847656 4.265625 3.644531 4.0625 3.644531 3.808594 C 3.644531 3.558594 3.847656 3.355469 4.101562 3.355469 Z M 4.101562 3.355469 "/>
<path style=" stroke:none;fill-rule:nonzero;fill:rgb(20%,20%,20%);fill-opacity:1;" d="M 5.917969 3.355469 C 6.171875 3.355469 6.375 3.558594 6.375 3.808594 C 6.375 4.0625 6.171875 4.265625 5.917969 4.265625 C 5.667969 4.265625 5.464844 4.0625 5.464844 3.808594 C 5.464844 3.558594 5.667969 3.355469 5.917969 3.355469 Z M 5.917969 3.355469 "/>
<path style=" stroke:none;fill-rule:nonzero;fill:rgb(20%,20%,20%);fill-opacity:1;" d="M 2.28125 3.355469 C 2.53125 3.355469 2.734375 3.558594 2.734375 3.808594 C 2.734375 4.0625 2.53125 4.265625 2.28125 4.265625 C 2.03125 4.265625 1.828125 4.0625 1.828125 3.808594 C 1.828125 3.558594 2.03125 3.355469 2.28125 3.355469 Z M 2.28125 3.355469 "/>
<path style=" stroke:none;fill-rule:nonzero;fill:rgb(57.647061%,67.450982%,61.56863%);fill-opacity:1;" d="M 5.917969 4.378906 C 5.667969 4.378906 5.464844 4.175781 5.464844 3.925781 C 5.464844 3.90625 5.464844 3.886719 5.46875 3.867188 C 5.496094 4.09375 5.6875 4.265625 5.917969 4.265625 C 6.152344 4.265625 6.34375 4.09375 6.371094 3.867188 C 6.375 3.886719 6.375 3.90625 6.375 3.925781 C 6.375 4.175781 6.171875 4.378906 5.917969 4.378906 Z M 5.917969 4.378906 "/>
<path style=" stroke:none;fill-rule:nonzero;fill:rgb(100%,100%,100%);fill-opacity:0.196078;" d="M 5.917969 4.378906 C 5.667969 4.378906 5.464844 4.175781 5.464844 3.925781 C 5.464844 3.90625 5.464844 3.886719 5.46875 3.867188 C 5.496094 4.09375 5.6875 4.265625 5.917969 4.265625 C 6.152344 4.265625 6.34375 4.09375 6.371094 3.867188 C 6.375 3.886719 6.375 3.90625 6.375 3.925781 C 6.375 4.175781 6.171875 4.378906 5.917969 4.378906 Z M 5.917969 4.378906 "/>
<path style=" stroke:none;fill-rule:nonzero;fill:rgb(100%,100%,100%);fill-opacity:0.196078;" d="M 4.105469 4.378906 C 3.851562 4.378906 3.648438 4.175781 3.648438 3.925781 C 3.648438 3.90625 3.652344 3.886719 3.652344 3.867188 C 3.679688 4.09375 3.871094 4.265625 4.105469 4.265625 C 4.335938 4.265625 4.527344 4.09375 4.554688 3.867188 C 4.558594 3.886719 4.558594 3.90625 4.558594 3.925781 C 4.558594 4.175781 4.355469 4.378906 4.105469 4.378906 Z M 4.105469 4.378906 "/>
<path style=" stroke:none;fill-rule:nonzero;fill:rgb(100%,100%,100%);fill-opacity:0.196078;" d="M 2.28125 4.378906 C 2.027344 4.378906 1.828125 4.175781 1.828125 3.925781 C 1.828125 3.90625 1.828125 3.886719 1.828125 3.867188 C 1.859375 4.09375 2.046875 4.265625 2.28125 4.265625 C 2.515625 4.265625 2.703125 4.09375 2.730469 3.867188 C 2.734375 3.886719 2.734375 3.90625 2.734375 3.925781 C 2.734375 4.175781 2.53125 4.378906 2.28125 4.378906 Z M 2.28125 4.378906 "/>
<path style=" stroke:none;fill-rule:nonzero;fill:rgb(0%,0%,0%);fill-opacity:0.196078;" d="M 2.28125 3.355469 C 2.53125 3.355469 2.734375 3.558594 2.734375 3.808594 C 2.734375 3.828125 2.734375 3.847656 2.730469 3.867188 C 2.703125 3.640625 2.515625 3.46875 2.28125 3.46875 C 2.046875 3.46875 1.859375 3.640625 1.828125 3.867188 C 1.828125 3.847656 1.828125 3.828125 1.828125 3.808594 C 1.828125 3.558594 2.027344 3.355469 2.28125 3.355469 Z M 2.28125 3.355469 "/>
<path style=" stroke:none;fill-rule:nonzero;fill:rgb(0%,0%,0%);fill-opacity:0.196078;" d="M 4.097656 3.355469 C 4.347656 3.355469 4.550781 3.558594 4.550781 3.808594 C 4.550781 3.828125 4.550781 3.847656 4.546875 3.867188 C 4.519531 3.640625 4.328125 3.46875 4.097656 3.46875 C 3.863281 3.46875 3.671875 3.640625 3.644531 3.867188 C 3.644531 3.847656 3.640625 3.828125 3.640625 3.808594 C 3.640625 3.558594 3.84375 3.355469 4.097656 3.355469 Z M 4.097656 3.355469 "/>
<path style=" stroke:none;fill-rule:nonzero;fill:rgb(0%,0%,0%);fill-opacity:0.196078;" d="M 5.917969 3.355469 C 6.171875 3.355469 6.375 3.558594 6.375 3.808594 C 6.375 3.828125 6.375 3.847656 6.371094 3.867188 C 6.34375 3.640625 6.152344 3.46875 5.917969 3.46875 C 5.6875 3.46875 5.496094 3.640625 5.46875 3.867188 C 5.464844 3.847656 5.464844 3.828125 5.464844 3.808594 C 5.464844 3.558594 5.667969 3.355469 5.917969 3.355469 Z M 5.917969 3.355469 "/>
<path style=" stroke:none;fill-rule:nonzero;fill:rgb(20%,20%,20%);fill-opacity:1;" d="M 4.101562 16.542969 C 4.351562 16.542969 4.554688 16.75 4.554688 17 C 4.554688 17.25 4.351562 17.453125 4.101562 17.453125 C 3.847656 17.453125 3.644531 17.25 3.644531 17 C 3.644531 16.75 3.847656 16.542969 4.101562 16.542969 Z M 4.101562 16.542969 "/>
<path style=" stroke:none;fill-rule:nonzero;fill:rgb(20%,20%,20%);fill-opacity:1;" d="M 5.917969 16.542969 C 6.171875 16.542969 6.375 16.75 6.375 17 C 6.375 17.25 6.171875 17.453125 5.917969 17.453125 C 5.667969 17.453125 5.464844 17.25 5.464844 17 C 5.464844 16.75 5.667969 16.542969 5.917969 16.542969 Z M 5.917969 16.542969 "/>
<path style=" stroke:none;fill-rule:nonzero;fill:rgb(20%,20%,20%);fill-opacity:1;" d="M 2.28125 16.542969 C 2.53125 16.542969 2.734375 16.75 2.734375 17 C 2.734375 17.25 2.53125 17.453125 2.28125 17.453125 C 2.03125 17.453125 1.828125 17.25 1.828125 17 C 1.828125 16.75 2.03125 16.542969 2.28125 16.542969 Z M 2.28125 16.542969 "/>
<path style=" stroke:none;fill-rule:nonzero;fill:rgb(57.647061%,67.450982%,61.56863%);fill-opacity:1;" d="M 5.917969 17.566406 C 5.667969 17.566406 5.464844 17.363281 5.464844 17.113281 C 5.464844 17.09375 5.464844 17.074219 5.46875 17.054688 C 5.496094 17.28125 5.6875 17.453125 5.917969 17.453125 C 6.152344 17.453125 6.34375 17.28125 6.371094 17.054688 C 6.375 17.074219 6.375 17.09375 6.375 17.113281 C 6.375 17.363281 6.171875 17.566406 5.917969 17.566406 Z M 5.917969 17.566406 "/>
<path style=" stroke:none;fill-rule:nonzero;fill:rgb(100%,100%,100%);fill-opacity:0.196078;" d="M 5.917969 17.566406 C 5.667969 17.566406 5.464844 17.363281 5.464844 17.113281 C 5.464844 17.09375 5.464844 17.074219 5.46875 17.054688 C 5.496094 17.28125 5.6875 17.453125 5.917969 17.453125 C 6.152344 17.453125 6.34375 17.28125 6.371094 17.054688 C 6.375 17.074219 6.375 17.09375 6.375 17.113281 C 6.375 17.363281 6.171875 17.566406 5.917969 17.566406 Z M 5.917969 17.566406 "/>
<path style=" stroke:none;fill-rule:nonzero;fill:rgb(100%,100%,100%);fill-opacity:0.196078;" d="M 4.105469 17.566406 C 3.851562 17.566406 3.648438 17.363281 3.648438 17.113281 C 3.648438 17.09375 3.652344 17.074219 3.652344 17.054688 C 3.679688 17.28125 3.871094 17.453125 4.105469 17.453125 C 4.335938 17.453125 4.527344 17.28125 4.554688 17.054688 C 4.558594 17.074219 4.558594 17.09375 4.558594 17.113281 C 4.558594 17.363281 4.355469 17.566406 4.105469 17.566406 Z M 4.105469 17.566406 "/>
<path style=" stroke:none;fill-rule:nonzero;fill:rgb(100%,100%,100%);fill-opacity:0.196078;" d="M 2.28125 17.566406 C 2.027344 17.566406 1.828125 17.363281 1.828125 17.113281 C 1.828125 17.09375 1.828125 17.074219 1.828125 17.054688 C 1.859375 17.28125 2.046875 17.453125 2.28125 17.453125 C 2.515625 17.453125 2.703125 17.28125 2.730469 17.054688 C 2.734375 17.074219 2.734375 17.09375 2.734375 17.113281 C 2.734375 17.363281 2.53125 17.566406 2.28125 17.566406 Z M 2.28125 17.566406 "/>
<path style=" stroke:none;fill-rule:nonzero;fill:rgb(0%,0%,0%);fill-opacity:0.196078;" d="M 2.28125 16.542969 C 2.53125 16.542969 2.734375 16.746094 2.734375 17 C 2.734375 17.019531 2.734375 17.039062 2.730469 17.054688 C 2.703125 16.832031 2.515625 16.660156 2.28125 16.660156 C 2.046875 16.660156 1.859375 16.832031 1.828125 17.054688 C 1.828125 17.039062 1.828125 17.019531 1.828125 17 C 1.828125 16.746094 2.027344 16.542969 2.28125 16.542969 Z M 2.28125 16.542969 "/>
<path style=" stroke:none;fill-rule:nonzero;fill:rgb(0%,0%,0%);fill-opacity:0.196078;" d="M 4.097656 16.542969 C 4.347656 16.542969 4.550781 16.746094 4.550781 17 C 4.550781 17.019531 4.550781 17.039062 4.546875 17.054688 C 4.519531 16.832031 4.328125 16.660156 4.097656 16.660156 C 3.863281 16.660156 3.671875 16.832031 3.644531 17.054688 C 3.644531 17.039062 3.640625 17.019531 3.640625 17 C 3.640625 16.746094 3.84375 16.542969 4.097656 16.542969 Z M 4.097656 16.542969 "/>
<path style=" stroke:none;fill-rule:nonzero;fill:rgb(0%,0%,0%);fill-opacity:0.196078;" d="M 5.917969 16.542969 C 6.171875 16.542969 6.375 16.746094 6.375 17 C 6.375 17.019531 6.375 17.039062 6.371094 17.054688 C 6.34375 16.832031 6.152344 16.660156 5.917969 16.660156 C 5.6875 16.660156 5.496094 16.832031 5.46875 17.054688 C 5.464844 17.039062 5.464844 17.019531 5.464844 17 C 5.464844 16.746094 5.667969 16.542969 5.917969 16.542969 Z M 5.917969 16.542969 "/>
</g>
</svg>
