<?xml version="1.0" encoding="UTF-8"?>
<svg xmlns="http://www.w3.org/2000/svg" xmlns:xlink="http://www.w3.org/1999/xlink" width="22pt" height="22pt" viewBox="0 0 22 22" version="1.1">
<defs>
<linearGradient id="linear0" gradientUnits="userSpaceOnUse" x1="254" y1="275.833344" x2="254" y2="-189.833328" gradientTransform="matrix(0.0429729,0,0,0.0429729,0,9.239163)">
<stop offset="0" style="stop-color:rgb(71.764706%,73.333333%,77.647059%);stop-opacity:1;"/>
<stop offset="1" style="stop-color:rgb(80%,81.568627%,84.313725%);stop-opacity:1;"/>
</linearGradient>
</defs>
<g id="surface1">
<path style=" stroke:none;fill-rule:nonzero;fill:url(#linear0);" d="M 3.636719 1.082031 C 2.125 1.082031 0.910156 2.296875 0.910156 3.808594 C 0.910156 5.320312 2.125 6.539062 3.636719 6.539062 C 5.148438 6.539062 6.367188 5.320312 6.367188 3.808594 C 6.367188 2.296875 5.148438 1.082031 3.636719 1.082031 Z M 10.914062 1.082031 C 9.402344 1.082031 8.1875 2.296875 8.1875 3.808594 C 8.1875 5.320312 9.402344 6.539062 10.914062 6.539062 C 12.425781 6.539062 13.644531 5.320312 13.644531 3.808594 C 13.644531 2.296875 12.425781 1.082031 10.914062 1.082031 Z M 18.191406 1.082031 C 16.679688 1.082031 15.464844 2.296875 15.464844 3.808594 C 15.464844 5.320312 16.679688 6.539062 18.191406 6.539062 C 19.703125 6.539062 20.921875 5.320312 20.921875 3.808594 C 20.921875 2.296875 19.703125 1.082031 18.191406 1.082031 Z M 3.636719 8.359375 C 2.125 8.359375 0.910156 9.574219 0.910156 11.085938 C 0.910156 12.597656 2.125 13.816406 3.636719 13.816406 C 5.148438 13.816406 6.367188 12.597656 6.367188 11.085938 C 6.367188 9.574219 5.148438 8.359375 3.636719 8.359375 Z M 10.914062 8.359375 C 9.402344 8.359375 8.1875 9.574219 8.1875 11.085938 C 8.1875 12.597656 9.402344 13.816406 10.914062 13.816406 C 12.425781 13.816406 13.644531 12.597656 13.644531 11.085938 C 13.644531 9.574219 12.425781 8.359375 10.914062 8.359375 Z M 18.191406 8.359375 C 16.679688 8.359375 15.464844 9.574219 15.464844 11.085938 C 15.464844 12.597656 16.679688 13.816406 18.191406 13.816406 C 19.703125 13.816406 20.921875 12.597656 20.921875 11.085938 C 20.921875 9.574219 19.703125 8.359375 18.191406 8.359375 Z M 3.636719 15.636719 C 2.125 15.636719 0.910156 16.851562 0.910156 18.363281 C 0.910156 19.875 2.125 21.09375 3.636719 21.09375 C 5.148438 21.09375 6.367188 19.875 6.367188 18.363281 C 6.367188 16.851562 5.148438 15.636719 3.636719 15.636719 Z M 10.914062 15.636719 C 9.402344 15.636719 8.1875 16.851562 8.1875 18.363281 C 8.1875 19.875 9.402344 21.09375 10.914062 21.09375 C 12.425781 21.09375 13.644531 19.875 13.644531 18.363281 C 13.644531 16.851562 12.425781 15.636719 10.914062 15.636719 Z M 18.191406 15.636719 C 16.679688 15.636719 15.464844 16.851562 15.464844 18.363281 C 15.464844 19.875 16.679688 21.09375 18.191406 21.09375 C 19.703125 21.09375 20.921875 19.875 20.921875 18.363281 C 20.921875 16.851562 19.703125 15.636719 18.191406 15.636719 Z M 18.191406 15.636719 "/>
</g>
</svg>
