<?xml version="1.0" encoding="UTF-8"?>
<svg xmlns="http://www.w3.org/2000/svg" xmlns:xlink="http://www.w3.org/1999/xlink" width="22pt" height="22pt" viewBox="0 0 22 22" version="1.1">
<defs>
<radialGradient id="radial0" gradientUnits="userSpaceOnUse" cx="63.5" cy="212.333359" fx="63.5" fy="212.333359" r="21.166666" gradientTransform="matrix(0.0859457,0.000000025531,0.000000025531,-0.0859457,10.005506,37.977262)">
<stop offset="0" style="stop-color:rgb(0%,0%,0%);stop-opacity:0.313725;"/>
<stop offset="0.499999" style="stop-color:rgb(0%,0%,0%);stop-opacity:0.27451;"/>
<stop offset="1" style="stop-color:rgb(0%,0%,0%);stop-opacity:0;"/>
</radialGradient>
<linearGradient id="linear0" gradientUnits="userSpaceOnUse" x1="254" y1="233.5" x2="254" y2="254.666672" gradientTransform="matrix(0.0429729,0,0,0.0429729,3.63837,10.603551)">
<stop offset="0" style="stop-color:rgb(0%,0%,0%);stop-opacity:0.27451;"/>
<stop offset="1" style="stop-color:rgb(0%,0%,0%);stop-opacity:0;"/>
</linearGradient>
<radialGradient id="radial1" gradientUnits="userSpaceOnUse" cx="63.5" cy="212.333359" fx="63.5" fy="212.333359" r="21.166666" gradientTransform="matrix(-0.0859457,0.000000025531,-0.000000025531,-0.0859457,11.824704,37.977262)">
<stop offset="0" style="stop-color:rgb(0%,0%,0%);stop-opacity:0.313725;"/>
<stop offset="0.499999" style="stop-color:rgb(0%,0%,0%);stop-opacity:0.27451;"/>
<stop offset="1" style="stop-color:rgb(0%,0%,0%);stop-opacity:0;"/>
</radialGradient>
<linearGradient id="linear1" gradientUnits="userSpaceOnUse" x1="960" y1="615.118103" x2="960" y2="175.118134" gradientTransform="matrix(0.0113699,0,0,0.0113699,0,0)">
<stop offset="0" style="stop-color:rgb(71.764706%,73.333333%,77.647059%);stop-opacity:1;"/>
<stop offset="1" style="stop-color:rgb(80%,81.568627%,84.313725%);stop-opacity:1;"/>
</linearGradient>
<linearGradient id="linear2" gradientUnits="userSpaceOnUse" x1="254" y1="265.25" x2="254" y2="-31.083334" gradientTransform="matrix(0.0429729,0,0,0.0429729,0,9.239163)">
<stop offset="0" style="stop-color:rgb(71.764706%,73.333333%,77.647059%);stop-opacity:1;"/>
<stop offset="1" style="stop-color:rgb(80%,81.568627%,84.313725%);stop-opacity:1;"/>
</linearGradient>
</defs>
<g id="surface1">
<path style=" stroke:none;fill-rule:nonzero;fill:url(#radial0);" d="M 17.28125 19.726562 L 15.464844 19.726562 L 15.464844 21.546875 L 17.28125 21.546875 Z M 17.28125 19.726562 "/>
<path style=" stroke:none;fill-rule:nonzero;fill:url(#linear0);" d="M 6.367188 20.636719 L 15.464844 20.636719 L 15.464844 21.546875 L 6.367188 21.546875 Z M 6.367188 20.636719 "/>
<path style=" stroke:none;fill-rule:nonzero;fill:url(#radial1);" d="M 4.546875 19.726562 L 6.367188 19.726562 L 6.367188 21.546875 L 4.546875 21.546875 Z M 4.546875 19.726562 "/>
<path style=" stroke:none;fill-rule:nonzero;fill:url(#linear1);" d="M 5.003906 1.992188 C 4.75 1.992188 4.546875 2.195312 4.546875 2.445312 L 4.546875 6.992188 L 17.28125 6.992188 L 17.28125 2.445312 C 17.28125 2.195312 17.078125 1.992188 16.828125 1.992188 Z M 5.003906 1.992188 "/>
<path style=" stroke:none;fill-rule:nonzero;fill:rgb(32.549021%,33.333334%,36.470589%);fill-opacity:1;" d="M 5.003906 6.992188 L 16.828125 6.992188 L 16.828125 7.902344 L 5.003906 7.902344 Z M 5.003906 6.992188 "/>
<path style=" stroke:none;fill-rule:nonzero;fill:url(#linear2);" d="M 16.828125 20.636719 C 17.078125 20.636719 17.28125 20.433594 17.28125 20.183594 L 17.28125 7.902344 L 4.546875 7.902344 L 4.546875 20.183594 C 4.546875 20.433594 4.75 20.636719 5.003906 20.636719 Z M 16.828125 20.636719 "/>
<path style=" stroke:none;fill-rule:nonzero;fill:rgb(20%,20%,20%);fill-opacity:1;" d="M 10.921875 18.363281 C 11.171875 18.363281 11.378906 18.566406 11.378906 18.820312 C 11.378906 19.070312 11.171875 19.273438 10.921875 19.273438 C 10.671875 19.273438 10.46875 19.070312 10.46875 18.820312 C 10.46875 18.566406 10.671875 18.363281 10.921875 18.363281 Z M 10.921875 18.363281 "/>
<path style=" stroke:none;fill-rule:nonzero;fill:rgb(20%,20%,20%);fill-opacity:1;" d="M 12.742188 18.363281 C 12.992188 18.363281 13.195312 18.566406 13.195312 18.820312 C 13.195312 19.070312 12.992188 19.273438 12.742188 19.273438 C 12.492188 19.273438 12.285156 19.070312 12.285156 18.820312 C 12.285156 18.566406 12.492188 18.363281 12.742188 18.363281 Z M 12.742188 18.363281 "/>
<path style=" stroke:none;fill-rule:nonzero;fill:rgb(20%,20%,20%);fill-opacity:1;" d="M 9.101562 18.363281 C 9.355469 18.363281 9.558594 18.566406 9.558594 18.820312 C 9.558594 19.070312 9.355469 19.273438 9.101562 19.273438 C 8.851562 19.273438 8.648438 19.070312 8.648438 18.820312 C 8.648438 18.566406 8.851562 18.363281 9.101562 18.363281 Z M 9.101562 18.363281 "/>
<path style=" stroke:none;fill-rule:nonzero;fill:rgb(100%,100%,100%);fill-opacity:0.196078;" d="M 12.742188 19.386719 C 12.488281 19.386719 12.285156 19.183594 12.285156 18.933594 C 12.285156 18.914062 12.289062 18.894531 12.289062 18.875 C 12.316406 19.101562 12.507812 19.273438 12.742188 19.273438 C 12.972656 19.273438 13.164062 19.101562 13.191406 18.875 C 13.195312 18.894531 13.195312 18.914062 13.195312 18.933594 C 13.195312 19.183594 12.992188 19.386719 12.742188 19.386719 Z M 12.742188 19.386719 "/>
<path style=" stroke:none;fill-rule:nonzero;fill:rgb(100%,100%,100%);fill-opacity:0.196078;" d="M 10.925781 19.386719 C 10.675781 19.386719 10.472656 19.183594 10.472656 18.933594 C 10.472656 18.914062 10.472656 18.894531 10.476562 18.875 C 10.503906 19.101562 10.691406 19.273438 10.925781 19.273438 C 11.160156 19.273438 11.347656 19.101562 11.378906 18.875 C 11.378906 18.894531 11.378906 18.914062 11.378906 18.933594 C 11.378906 19.183594 11.179688 19.386719 10.925781 19.386719 Z M 10.925781 19.386719 "/>
<path style=" stroke:none;fill-rule:nonzero;fill:rgb(100%,100%,100%);fill-opacity:0.196078;" d="M 9.101562 19.386719 C 8.851562 19.386719 8.648438 19.183594 8.648438 18.933594 C 8.648438 18.914062 8.648438 18.894531 8.652344 18.875 C 8.679688 19.101562 8.871094 19.273438 9.101562 19.273438 C 9.335938 19.273438 9.527344 19.101562 9.554688 18.875 C 9.558594 18.894531 9.558594 18.914062 9.558594 18.933594 C 9.558594 19.183594 9.355469 19.386719 9.101562 19.386719 Z M 9.101562 19.386719 "/>
<path style=" stroke:none;fill-rule:nonzero;fill:rgb(0%,0%,0%);fill-opacity:0.196078;" d="M 9.101562 18.363281 C 9.355469 18.363281 9.558594 18.566406 9.558594 18.820312 C 9.558594 18.835938 9.558594 18.855469 9.554688 18.875 C 9.527344 18.652344 9.335938 18.476562 9.101562 18.476562 C 8.871094 18.476562 8.679688 18.652344 8.652344 18.875 C 8.648438 18.855469 8.648438 18.835938 8.648438 18.820312 C 8.648438 18.566406 8.851562 18.363281 9.101562 18.363281 Z M 9.101562 18.363281 "/>
<path style=" stroke:none;fill-rule:nonzero;fill:rgb(0%,0%,0%);fill-opacity:0.196078;" d="M 10.917969 18.363281 C 11.171875 18.363281 11.375 18.566406 11.375 18.820312 C 11.375 18.835938 11.371094 18.855469 11.371094 18.875 C 11.34375 18.652344 11.152344 18.476562 10.917969 18.476562 C 10.6875 18.476562 10.496094 18.652344 10.46875 18.875 C 10.464844 18.855469 10.464844 18.835938 10.464844 18.820312 C 10.464844 18.566406 10.667969 18.363281 10.917969 18.363281 Z M 10.917969 18.363281 "/>
<path style=" stroke:none;fill-rule:nonzero;fill:rgb(0%,0%,0%);fill-opacity:0.196078;" d="M 12.742188 18.363281 C 12.992188 18.363281 13.195312 18.566406 13.195312 18.820312 C 13.195312 18.835938 13.195312 18.855469 13.191406 18.875 C 13.164062 18.652344 12.972656 18.476562 12.742188 18.476562 C 12.507812 18.476562 12.316406 18.652344 12.289062 18.875 C 12.289062 18.855469 12.285156 18.835938 12.285156 18.820312 C 12.285156 18.566406 12.488281 18.363281 12.742188 18.363281 Z M 12.742188 18.363281 "/>
<path style=" stroke:none;fill-rule:nonzero;fill:rgb(0%,0%,0%);fill-opacity:0.196078;" d="M 5.003906 20.636719 C 4.75 20.636719 4.546875 20.433594 4.546875 20.183594 L 4.546875 19.957031 C 4.546875 20.207031 4.75 20.410156 5.003906 20.410156 L 16.828125 20.410156 C 17.078125 20.410156 17.28125 20.207031 17.28125 19.957031 L 17.28125 20.183594 C 17.28125 20.433594 17.078125 20.636719 16.828125 20.636719 Z M 5.003906 20.636719 "/>
<path style=" stroke:none;fill-rule:nonzero;fill:rgb(100%,100%,100%);fill-opacity:0.196078;" d="M 5.003906 1.992188 C 4.75 1.992188 4.546875 2.195312 4.546875 2.445312 L 4.546875 2.671875 C 4.546875 2.421875 4.75 2.21875 5.003906 2.21875 L 16.828125 2.21875 C 17.078125 2.21875 17.28125 2.421875 17.28125 2.671875 L 17.28125 2.445312 C 17.28125 2.195312 17.078125 1.992188 16.828125 1.992188 Z M 5.003906 1.992188 "/>
<path style=" stroke:none;fill-rule:nonzero;fill:rgb(0%,0%,0%);fill-opacity:0.196078;" d="M 4.546875 6.765625 L 17.28125 6.765625 L 17.28125 6.992188 L 4.546875 6.992188 Z M 4.546875 6.765625 "/>
<path style=" stroke:none;fill-rule:nonzero;fill:rgb(100%,100%,100%);fill-opacity:0.196078;" d="M 4.546875 7.902344 L 17.28125 7.902344 L 17.28125 8.128906 L 4.546875 8.128906 Z M 4.546875 7.902344 "/>
<path style=" stroke:none;fill-rule:nonzero;fill:rgb(32.549021%,33.333334%,36.470589%);fill-opacity:1;" d="M 8.640625 9.722656 L 13.1875 9.722656 L 13.1875 10.632812 L 8.640625 10.632812 Z M 8.640625 9.722656 "/>
<path style=" stroke:none;fill-rule:nonzero;fill:rgb(32.549021%,33.333334%,36.470589%);fill-opacity:1;" d="M 9.097656 11.542969 L 12.734375 11.542969 L 12.734375 12.453125 L 9.097656 12.453125 Z M 9.097656 11.542969 "/>
<path style=" stroke:none;fill-rule:nonzero;fill:rgb(32.549021%,33.333334%,36.470589%);fill-opacity:1;" d="M 9.550781 13.359375 L 12.28125 13.359375 L 12.28125 14.269531 L 9.550781 14.269531 Z M 9.550781 13.359375 "/>
<path style=" stroke:none;fill-rule:nonzero;fill:rgb(32.549021%,33.333334%,36.470589%);fill-opacity:1;" d="M 10.003906 15.179688 L 11.824219 15.179688 L 11.824219 16.089844 L 10.003906 16.089844 Z M 10.003906 15.179688 "/>
</g>
</svg>
