<?xml version="1.0" encoding="UTF-8"?>
<svg xmlns="http://www.w3.org/2000/svg" xmlns:xlink="http://www.w3.org/1999/xlink" width="24pt" height="24pt" viewBox="0 0 24 24" version="1.1">
<defs>
<linearGradient id="linear0" gradientUnits="userSpaceOnUse" x1="254" y1="233.5" x2="254" y2="254.666672" gradientTransform="matrix(0.0468795,0,0,0.0468795,0,10.079087)">
<stop offset="0" style="stop-color:rgb(0%,0%,0%);stop-opacity:0.27451;"/>
<stop offset="1" style="stop-color:rgb(0%,0%,0%);stop-opacity:0;"/>
</linearGradient>
<radialGradient id="radial0" gradientUnits="userSpaceOnUse" cx="456.200623" cy="186.933533" fx="456.200623" fy="186.933533" r="21.166656" gradientTransform="matrix(0.0000000663883,0.093759,-0.093759,0.0000000645758,38.364594,-22.739756)">
<stop offset="0" style="stop-color:rgb(0%,0%,0%);stop-opacity:0.313725;"/>
<stop offset="0.499999" style="stop-color:rgb(0%,0%,0%);stop-opacity:0.27451;"/>
<stop offset="1" style="stop-color:rgb(0%,0%,0%);stop-opacity:0;"/>
</radialGradient>
<radialGradient id="radial1" gradientUnits="userSpaceOnUse" cx="63.5" cy="212.333359" fx="63.5" fy="212.333359" r="21.166666" gradientTransform="matrix(-0.093759,0.000000027852,-0.000000027852,-0.093759,8.930547,39.94132)">
<stop offset="0" style="stop-color:rgb(0%,0%,0%);stop-opacity:0.313725;"/>
<stop offset="0.499999" style="stop-color:rgb(0%,0%,0%);stop-opacity:0.27451;"/>
<stop offset="1" style="stop-color:rgb(0%,0%,0%);stop-opacity:0;"/>
</radialGradient>
<linearGradient id="linear1" gradientUnits="userSpaceOnUse" x1="359.833313" y1="-94.583336" x2="359.833344" y2="-115.75" gradientTransform="matrix(0.0468795,0,0,0.0468795,-0.000000645928,9.582948)">
<stop offset="0" style="stop-color:rgb(0%,0%,0%);stop-opacity:0.196078;"/>
<stop offset="1" style="stop-color:rgb(0%,0%,0%);stop-opacity:0;"/>
</linearGradient>
<linearGradient id="linear2" gradientUnits="userSpaceOnUse" x1="254" y1="233.5" x2="254" y2="-105.166656" gradientTransform="matrix(1,0,0,1,0,0)">
<stop offset="0" style="stop-color:rgb(71.764706%,73.333333%,77.647059%);stop-opacity:1;"/>
<stop offset="1" style="stop-color:rgb(80%,81.568627%,84.313725%);stop-opacity:1;"/>
</linearGradient>
<linearGradient id="linear3" gradientUnits="userSpaceOnUse" x1="365.125" y1="-105.166672" x2="365.125" y2="-136.916672" gradientTransform="matrix(1,0,0,1,0,0)">
<stop offset="0" style="stop-color:rgb(32.54902%,33.333333%,36.470588%);stop-opacity:1;"/>
<stop offset="1" style="stop-color:rgb(36.470588%,37.647059%,40.784314%);stop-opacity:1;"/>
</linearGradient>
</defs>
<g id="surface1">
<path style=" stroke:none;fill-rule:nonzero;fill:url(#linear0);" d="M 2.976562 21.027344 L 20.839844 21.027344 L 20.839844 22.019531 L 2.976562 22.019531 Z M 2.976562 21.027344 "/>
<path style=" stroke:none;fill-rule:nonzero;fill:url(#radial0);" d="M 20.839844 20.03125 L 22.824219 20.03125 L 22.824219 22.019531 L 20.839844 22.019531 Z M 20.839844 20.03125 "/>
<path style=" stroke:none;fill-rule:nonzero;fill:url(#radial1);" d="M 0.992188 20.03125 L 2.976562 20.03125 L 2.976562 22.019531 L 0.992188 22.019531 Z M 0.992188 20.03125 "/>
<path style=" stroke:none;fill-rule:nonzero;fill:url(#linear1);" d="M 10.914062 4.15625 L 21.832031 4.15625 L 21.832031 5.148438 L 10.914062 5.148438 Z M 10.914062 4.15625 "/>
<path style="fill-rule:nonzero;fill:url(#linear2);stroke-width:2;stroke-linecap:butt;stroke-linejoin:miter;stroke:rgb(30.19608%,30.19608%,30.19608%);stroke-opacity:1;stroke-miterlimit:4;" d="M 31.746968 -105.177154 L 476.28785 -105.177154 C 482.120626 -105.177154 486.870173 -100.427608 486.870173 -94.594831 L 486.870173 222.958177 C 486.870173 228.790953 482.120626 233.5405 476.28785 233.5405 L 31.746968 233.5405 C 25.914192 233.5405 21.164646 228.790953 21.164646 222.958177 L 21.164646 -94.594831 C 21.164646 -100.427608 25.914192 -105.177154 31.746968 -105.177154 Z M 31.746968 -105.177154 " transform="matrix(0.0468795,0,0,0.0468795,0,10.079087)"/>
<path style=" stroke:none;fill-rule:nonzero;fill:rgb(100%,100%,100%);fill-opacity:0.196078;" d="M 1.488281 5.148438 C 1.214844 5.148438 0.992188 5.371094 0.992188 5.644531 L 0.992188 5.894531 C 0.992188 5.617188 1.214844 5.398438 1.488281 5.398438 L 22.328125 5.398438 C 22.601562 5.398438 22.824219 5.617188 22.824219 5.894531 L 22.824219 5.644531 C 22.824219 5.371094 22.601562 5.148438 22.328125 5.148438 Z M 1.488281 5.148438 "/>
<path style=" stroke:none;fill-rule:nonzero;fill:rgb(0%,0%,0%);fill-opacity:0.196078;" d="M 1.488281 21.027344 C 1.214844 21.027344 0.992188 20.804688 0.992188 20.53125 L 0.992188 20.28125 C 0.992188 20.554688 1.214844 20.777344 1.488281 20.777344 L 22.328125 20.777344 C 22.601562 20.777344 22.824219 20.554688 22.824219 20.28125 L 22.824219 20.53125 C 22.824219 20.804688 22.601562 21.027344 22.328125 21.027344 Z M 1.488281 21.027344 "/>
<path style=" stroke:none;fill-rule:nonzero;fill:rgb(100%,100%,100%);fill-opacity:0.27451;" d="M 11.410156 3.660156 C 11.136719 3.660156 10.914062 3.882812 10.914062 4.15625 L 10.914062 4.40625 C 10.914062 4.128906 11.136719 3.910156 11.410156 3.910156 L 21.335938 3.910156 C 21.609375 3.910156 21.832031 4.128906 21.832031 4.40625 L 21.832031 4.15625 C 21.832031 3.882812 21.609375 3.660156 21.335938 3.660156 Z M 11.410156 3.660156 "/>
<path style="fill-rule:nonzero;fill:url(#linear3);stroke-width:0.264583;stroke-linecap:butt;stroke-linejoin:miter;stroke:rgb(74.509805%,78.431374%,71.764708%);stroke-opacity:1;stroke-miterlimit:4;" d="M 243.393424 -136.924123 C 237.560647 -136.924123 232.811101 -132.174576 232.811101 -126.3418 L 232.811101 -105.177154 L 465.705527 -105.177154 L 465.705527 -126.3418 C 465.705527 -132.174576 460.955981 -136.924123 455.123205 -136.924123 Z M 243.393424 -136.924123 " transform="matrix(0.0468795,0,0,0.0468795,0,10.079087)"/>
<path style=" stroke:none;fill-rule:nonzero;fill:rgb(20%,20%,20%);fill-opacity:1;" d="M 11.90625 18.542969 C 12.179688 18.542969 12.402344 18.765625 12.402344 19.039062 C 12.402344 19.316406 12.179688 19.535156 11.90625 19.535156 C 11.632812 19.535156 11.410156 19.316406 11.410156 19.039062 C 11.410156 18.765625 11.632812 18.542969 11.90625 18.542969 Z M 11.90625 18.542969 "/>
<path style=" stroke:none;fill-rule:nonzero;fill:rgb(20%,20%,20%);fill-opacity:1;" d="M 13.890625 18.542969 C 14.164062 18.542969 14.386719 18.765625 14.386719 19.039062 C 14.386719 19.316406 14.164062 19.535156 13.890625 19.535156 C 13.617188 19.535156 13.394531 19.316406 13.394531 19.039062 C 13.394531 18.765625 13.617188 18.542969 13.890625 18.542969 Z M 13.890625 18.542969 "/>
<path style=" stroke:none;fill-rule:nonzero;fill:rgb(20%,20%,20%);fill-opacity:1;" d="M 9.921875 18.542969 C 10.195312 18.542969 10.417969 18.765625 10.417969 19.039062 C 10.417969 19.316406 10.195312 19.535156 9.921875 19.535156 C 9.648438 19.535156 9.425781 19.316406 9.425781 19.039062 C 9.425781 18.765625 9.648438 18.542969 9.921875 18.542969 Z M 9.921875 18.542969 "/>
<path style=" stroke:none;fill-rule:nonzero;fill:rgb(57.647061%,67.450982%,61.56863%);fill-opacity:1;" d="M 13.890625 19.660156 C 13.617188 19.660156 13.394531 19.441406 13.394531 19.164062 C 13.394531 19.144531 13.398438 19.125 13.398438 19.101562 C 13.429688 19.347656 13.636719 19.535156 13.890625 19.535156 C 14.144531 19.535156 14.355469 19.347656 14.382812 19.101562 C 14.386719 19.125 14.386719 19.144531 14.386719 19.164062 C 14.386719 19.441406 14.167969 19.660156 13.890625 19.660156 Z M 13.890625 19.660156 "/>
<path style=" stroke:none;fill-rule:nonzero;fill:rgb(100%,100%,100%);fill-opacity:0.196078;" d="M 13.890625 19.660156 C 13.617188 19.660156 13.394531 19.441406 13.394531 19.164062 C 13.394531 19.144531 13.398438 19.125 13.398438 19.101562 C 13.429688 19.347656 13.636719 19.535156 13.890625 19.535156 C 14.144531 19.535156 14.355469 19.347656 14.382812 19.101562 C 14.386719 19.125 14.386719 19.144531 14.386719 19.164062 C 14.386719 19.441406 14.167969 19.660156 13.890625 19.660156 Z M 13.890625 19.660156 "/>
<path style=" stroke:none;fill-rule:nonzero;fill:rgb(100%,100%,100%);fill-opacity:0.196078;" d="M 11.910156 19.660156 C 11.636719 19.660156 11.414062 19.441406 11.414062 19.164062 C 11.414062 19.144531 11.417969 19.125 11.417969 19.101562 C 11.449219 19.347656 11.65625 19.535156 11.910156 19.535156 C 12.164062 19.535156 12.375 19.347656 12.402344 19.101562 C 12.40625 19.125 12.40625 19.144531 12.40625 19.164062 C 12.40625 19.441406 12.1875 19.660156 11.910156 19.660156 Z M 11.910156 19.660156 "/>
<path style=" stroke:none;fill-rule:nonzero;fill:rgb(100%,100%,100%);fill-opacity:0.196078;" d="M 9.921875 19.660156 C 9.648438 19.660156 9.425781 19.441406 9.425781 19.164062 C 9.425781 19.144531 9.429688 19.125 9.429688 19.101562 C 9.460938 19.347656 9.667969 19.535156 9.921875 19.535156 C 10.175781 19.535156 10.382812 19.347656 10.414062 19.101562 C 10.417969 19.125 10.417969 19.144531 10.417969 19.164062 C 10.417969 19.441406 10.199219 19.660156 9.921875 19.660156 Z M 9.921875 19.660156 "/>
<path style=" stroke:none;fill-rule:nonzero;fill:rgb(0%,0%,0%);fill-opacity:0.196078;" d="M 9.921875 18.542969 C 10.199219 18.542969 10.417969 18.765625 10.417969 19.039062 C 10.417969 19.0625 10.417969 19.082031 10.414062 19.101562 C 10.382812 18.859375 10.175781 18.667969 9.921875 18.667969 C 9.667969 18.667969 9.460938 18.859375 9.429688 19.101562 C 9.429688 19.082031 9.425781 19.0625 9.425781 19.039062 C 9.425781 18.765625 9.648438 18.542969 9.921875 18.542969 Z M 9.921875 18.542969 "/>
<path style=" stroke:none;fill-rule:nonzero;fill:rgb(0%,0%,0%);fill-opacity:0.196078;" d="M 11.902344 18.542969 C 12.179688 18.542969 12.398438 18.765625 12.398438 19.039062 C 12.398438 19.0625 12.398438 19.082031 12.394531 19.101562 C 12.367188 18.859375 12.15625 18.667969 11.902344 18.667969 C 11.648438 18.667969 11.441406 18.859375 11.410156 19.101562 C 11.410156 19.082031 11.40625 19.0625 11.40625 19.039062 C 11.40625 18.765625 11.628906 18.542969 11.902344 18.542969 Z M 11.902344 18.542969 "/>
<path style=" stroke:none;fill-rule:nonzero;fill:rgb(0%,0%,0%);fill-opacity:0.196078;" d="M 13.890625 18.542969 C 14.167969 18.542969 14.386719 18.765625 14.386719 19.039062 C 14.386719 19.0625 14.386719 19.082031 14.382812 19.101562 C 14.355469 18.859375 14.144531 18.667969 13.890625 18.667969 C 13.636719 18.667969 13.429688 18.859375 13.398438 19.101562 C 13.398438 19.082031 13.394531 19.0625 13.394531 19.039062 C 13.394531 18.765625 13.617188 18.542969 13.890625 18.542969 Z M 13.890625 18.542969 "/>
<path style=" stroke:none;fill-rule:nonzero;fill:rgb(100%,100%,100%);fill-opacity:0.196078;" d="M 11.410156 3.660156 C 11.136719 3.660156 10.914062 3.882812 10.914062 4.15625 L 10.914062 4.40625 C 10.914062 4.128906 11.136719 3.910156 11.410156 3.910156 L 21.335938 3.910156 C 21.609375 3.910156 21.832031 4.128906 21.832031 4.40625 L 21.832031 4.15625 C 21.832031 3.882812 21.609375 3.660156 21.335938 3.660156 Z M 11.410156 3.660156 "/>
<path style=" stroke:none;fill-rule:nonzero;fill:rgb(32.549021%,33.333334%,36.470589%);fill-opacity:1;" d="M 12.457031 9.746094 C 11.871094 9.722656 11.296875 9.886719 10.8125 10.199219 L 11.394531 11.003906 C 11.867188 10.722656 12.457031 10.648438 13.015625 10.855469 C 13.570312 11.066406 13.96875 11.511719 14.132812 12.035156 L 15.105469 11.8125 C 14.945312 11.257812 14.621094 10.757812 14.164062 10.386719 C 13.898438 10.660156 13.484375 10.769531 13.101562 10.625 C 12.71875 10.480469 12.476562 10.128906 12.457031 9.746094 Z M 15.199219 12.296875 L 14.21875 12.523438 C 14.230469 12.765625 14.191406 13.011719 14.101562 13.253906 C 13.769531 14.140625 12.839844 14.621094 11.945312 14.414062 L 11.59375 15.347656 C 12.285156 15.539062 12.996094 15.464844 13.601562 15.167969 C 13.539062 14.96875 13.542969 14.742188 13.621094 14.53125 C 13.8125 14.023438 14.367188 13.765625 14.878906 13.941406 C 14.933594 13.832031 14.988281 13.71875 15.03125 13.601562 C 15.191406 13.171875 15.246094 12.726562 15.199219 12.296875 Z M 10.417969 10.503906 C 10.105469 10.796875 9.851562 11.164062 9.6875 11.597656 C 9.644531 11.714844 9.609375 11.832031 9.582031 11.953125 C 10.082031 12.152344 10.328125 12.714844 10.140625 13.222656 C 10.058594 13.4375 9.914062 13.605469 9.734375 13.71875 C 9.996094 14.335938 10.480469 14.863281 11.128906 15.171875 L 11.480469 14.238281 C 10.667969 13.804688 10.285156 12.832031 10.617188 11.945312 C 10.707031 11.703125 10.84375 11.492188 11.007812 11.316406 Z M 10.417969 10.503906 "/>
<path style=" stroke:none;fill-rule:nonzero;fill:rgb(32.549021%,33.333334%,36.470589%);fill-opacity:1;" d="M 13.667969 9.113281 C 13.988281 9.234375 14.152344 9.59375 14.03125 9.914062 C 13.910156 10.234375 13.554688 10.398438 13.230469 10.277344 C 12.910156 10.15625 12.75 9.796875 12.871094 9.476562 C 12.988281 9.15625 13.347656 8.996094 13.667969 9.113281 Z M 13.667969 9.113281 "/>
<path style=" stroke:none;fill-rule:nonzero;fill:rgb(32.549021%,33.333334%,36.470589%);fill-opacity:1;" d="M 9.429688 12.292969 C 9.75 12.414062 9.910156 12.769531 9.789062 13.089844 C 9.671875 13.410156 9.3125 13.574219 8.992188 13.453125 C 8.671875 13.332031 8.507812 12.976562 8.628906 12.65625 C 8.75 12.335938 9.105469 12.171875 9.429688 12.292969 Z M 9.429688 12.292969 "/>
<path style=" stroke:none;fill-rule:nonzero;fill:rgb(32.549021%,33.333334%,36.470589%);fill-opacity:1;" d="M 14.769531 14.296875 C 15.089844 14.417969 15.253906 14.777344 15.132812 15.097656 C 15.011719 15.417969 14.652344 15.578125 14.332031 15.460938 C 14.011719 15.339844 13.851562 14.980469 13.972656 14.660156 C 14.089844 14.339844 14.449219 14.175781 14.769531 14.296875 Z M 14.769531 14.296875 "/>
</g>
</svg>
