<?xml version="1.0" encoding="UTF-8"?>
<svg xmlns="http://www.w3.org/2000/svg" xmlns:xlink="http://www.w3.org/1999/xlink" width="24pt" height="24pt" viewBox="0 0 24 24" version="1.1">
<defs>
<linearGradient id="linear0" gradientUnits="userSpaceOnUse" x1="254" y1="233.5" x2="254" y2="254.666672" gradientTransform="matrix(0.0468795,0,0,0.0468795,0,10.079087)">
<stop offset="0" style="stop-color:rgb(0%,0%,0%);stop-opacity:0.27451;"/>
<stop offset="1" style="stop-color:rgb(0%,0%,0%);stop-opacity:0;"/>
</linearGradient>
<radialGradient id="radial0" gradientUnits="userSpaceOnUse" cx="456.200623" cy="186.933533" fx="456.200623" fy="186.933533" r="21.166656" gradientTransform="matrix(0.0000000663883,0.093759,-0.093759,0.0000000645758,38.364594,-22.739757)">
<stop offset="0" style="stop-color:rgb(0%,0%,0%);stop-opacity:0.313725;"/>
<stop offset="0.499999" style="stop-color:rgb(0%,0%,0%);stop-opacity:0.27451;"/>
<stop offset="1" style="stop-color:rgb(0%,0%,0%);stop-opacity:0;"/>
</radialGradient>
<radialGradient id="radial1" gradientUnits="userSpaceOnUse" cx="63.5" cy="212.333359" fx="63.5" fy="212.333359" r="21.166666" gradientTransform="matrix(-0.093759,0.000000027852,-0.000000027852,-0.093759,8.930547,39.941319)">
<stop offset="0" style="stop-color:rgb(0%,0%,0%);stop-opacity:0.313725;"/>
<stop offset="0.499999" style="stop-color:rgb(0%,0%,0%);stop-opacity:0.27451;"/>
<stop offset="1" style="stop-color:rgb(0%,0%,0%);stop-opacity:0;"/>
</radialGradient>
<linearGradient id="linear1" gradientUnits="userSpaceOnUse" x1="254" y1="233.5" x2="254" y2="254.666672" gradientTransform="matrix(0.0468795,0,0,0.0468795,0,8.094522)">
<stop offset="0" style="stop-color:rgb(0%,0%,0%);stop-opacity:0.196078;"/>
<stop offset="1" style="stop-color:rgb(0%,0%,0%);stop-opacity:0;"/>
</linearGradient>
<radialGradient id="radial2" gradientUnits="userSpaceOnUse" cx="63.5" cy="212.333359" fx="63.5" fy="212.333359" r="21.166666" gradientTransform="matrix(-0.093759,0.000000027852,-0.000000027852,-0.093759,8.930547,37.956753)">
<stop offset="0" style="stop-color:rgb(0%,0%,0%);stop-opacity:0.313725;"/>
<stop offset="0.499999" style="stop-color:rgb(0%,0%,0%);stop-opacity:0.196078;"/>
<stop offset="1" style="stop-color:rgb(0%,0%,0%);stop-opacity:0;"/>
</radialGradient>
<linearGradient id="linear2" gradientUnits="userSpaceOnUse" x1="254" y1="233.5" x2="254" y2="-105.166656" gradientTransform="matrix(1,0,0,1,-0.0000138509,-63.50013)">
<stop offset="0" style="stop-color:rgb(71.764706%,73.333333%,77.647059%);stop-opacity:1;"/>
<stop offset="1" style="stop-color:rgb(80%,81.568627%,84.313725%);stop-opacity:1;"/>
</linearGradient>
</defs>
<g id="surface1">
<path style=" stroke:none;fill-rule:nonzero;fill:url(#linear0);" d="M 2.976562 21.027344 L 20.839844 21.027344 L 20.839844 22.019531 L 2.976562 22.019531 Z M 2.976562 21.027344 "/>
<path style=" stroke:none;fill-rule:nonzero;fill:url(#radial0);" d="M 20.839844 20.03125 L 22.824219 20.03125 L 22.824219 22.019531 L 20.839844 22.019531 Z M 20.839844 20.03125 "/>
<path style=" stroke:none;fill-rule:nonzero;fill:url(#radial1);" d="M 0.992188 20.03125 L 2.976562 20.03125 L 2.976562 22.019531 L 0.992188 22.019531 Z M 0.992188 20.03125 "/>
<path style=" stroke:none;fill-rule:nonzero;fill:url(#linear1);" d="M 2.976562 19.039062 L 20.839844 19.039062 L 20.839844 20.03125 L 2.976562 20.03125 Z M 2.976562 19.039062 "/>
<path style=" stroke:none;fill-rule:nonzero;fill:url(#radial2);" d="M 0.992188 18.046875 L 2.976562 18.046875 L 2.976562 20.03125 L 0.992188 20.03125 Z M 0.992188 18.046875 "/>
<path style="fill-rule:nonzero;fill:url(#linear2);stroke-width:2;stroke-linecap:butt;stroke-linejoin:miter;stroke:rgb(30.19608%,30.19608%,30.19608%);stroke-opacity:1;stroke-miterlimit:4;" d="M 42.329291 -168.671091 L 465.705527 -168.671091 C 477.37108 -168.671091 486.870173 -159.171998 486.870173 -147.506445 L 486.870173 212.292529 C 486.870173 224.041407 477.37108 233.5405 465.705527 233.5405 L 42.329291 233.5405 C 30.663738 233.5405 21.164646 224.041407 21.164646 212.292529 L 21.164646 -147.506445 C 21.164646 -159.171998 30.663738 -168.671091 42.329291 -168.671091 Z M 42.329291 -168.671091 " transform="matrix(0.0468795,0,0,0.0468795,0,10.079087)"/>
<path style=" stroke:none;fill-rule:nonzero;fill:rgb(100%,100%,100%);fill-opacity:0.196078;" d="M 1.984375 2.171875 C 1.433594 2.171875 0.992188 2.613281 0.992188 3.164062 L 0.992188 3.414062 C 0.992188 2.863281 1.433594 2.421875 1.984375 2.421875 L 21.832031 2.421875 C 22.378906 2.421875 22.824219 2.863281 22.824219 3.414062 L 22.824219 3.164062 C 22.824219 2.613281 22.378906 2.171875 21.832031 2.171875 Z M 1.984375 2.171875 "/>
<path style=" stroke:none;fill-rule:nonzero;fill:rgb(0%,0%,0%);fill-opacity:0.0784314;" d="M 21.832031 21.027344 C 22.378906 21.027344 22.824219 20.582031 22.824219 20.03125 L 22.824219 19.039062 C 22.824219 19.726562 22.378906 20.53125 21.832031 20.53125 L 1.984375 20.53125 C 1.433594 20.53125 0.992188 19.726562 0.992188 19.039062 L 0.992188 20.03125 C 0.992188 20.582031 1.433594 21.027344 1.984375 21.027344 Z M 21.832031 21.027344 "/>
<path style=" stroke:none;fill-rule:nonzero;fill:rgb(100%,100%,100%);fill-opacity:0.196078;" d="M 5.953125 -0.308594 C 5.402344 -0.308594 4.960938 0.132812 4.960938 0.683594 L 4.960938 1.675781 C 4.960938 0.988281 5.402344 0.1875 5.953125 0.1875 L 25.800781 0.1875 C 26.347656 0.1875 26.792969 0.988281 26.792969 1.675781 L 26.792969 0.683594 C 26.792969 0.132812 26.347656 -0.308594 25.800781 -0.308594 Z M 5.953125 -0.308594 "/>
<path style=" stroke:none;fill-rule:nonzero;fill:rgb(32.549021%,33.333334%,36.470589%);fill-opacity:1;" d="M 8.433594 11.261719 C 8.433594 12.867188 9.472656 14.21875 10.914062 14.683594 L 10.914062 13.648438 C 10.035156 13.226562 9.425781 12.320312 9.425781 11.261719 C 9.425781 9.800781 10.585938 8.625 12.03125 8.625 C 13.472656 8.625 14.632812 9.800781 14.632812 11.261719 C 14.632812 12.105469 14.246094 12.851562 13.644531 13.335938 L 13.644531 14.480469 C 14.824219 13.890625 15.628906 12.675781 15.628906 11.261719 C 15.628906 9.269531 14.023438 7.667969 12.03125 7.667969 C 10.039062 7.667969 8.433594 9.269531 8.433594 11.261719 Z M 8.433594 11.261719 "/>
<path style=" stroke:none;fill-rule:nonzero;fill:rgb(32.549021%,33.333334%,36.470589%);fill-opacity:1;" d="M 11.660156 14.734375 L 10.792969 13 L 9.675781 14.734375 Z M 11.660156 14.734375 "/>
<path style=" stroke:none;fill-rule:nonzero;fill:rgb(32.549021%,33.333334%,36.470589%);fill-opacity:1;" d="M 2.730469 4.652344 C 3.140625 4.652344 3.472656 4.984375 3.472656 5.398438 C 3.472656 5.808594 3.140625 6.140625 2.730469 6.140625 C 2.316406 6.140625 1.984375 5.808594 1.984375 5.398438 C 1.984375 4.984375 2.316406 4.652344 2.730469 4.652344 Z M 2.730469 4.652344 "/>
<path style=" stroke:none;fill-rule:nonzero;fill:rgb(32.549021%,33.333334%,36.470589%);fill-opacity:1;" d="M 2.730469 17.054688 C 3.140625 17.054688 3.472656 17.390625 3.472656 17.800781 C 3.472656 18.210938 3.140625 18.542969 2.730469 18.542969 C 2.316406 18.542969 1.984375 18.210938 1.984375 17.800781 C 1.984375 17.390625 2.316406 17.054688 2.730469 17.054688 Z M 2.730469 17.054688 "/>
<path style=" stroke:none;fill-rule:nonzero;fill:rgb(32.549021%,33.333334%,36.470589%);fill-opacity:1;" d="M 2.730469 7.132812 C 3.140625 7.132812 3.472656 7.464844 3.472656 7.878906 C 3.472656 8.289062 3.140625 8.621094 2.730469 8.621094 C 2.316406 8.621094 1.984375 8.289062 1.984375 7.878906 C 1.984375 7.464844 2.316406 7.132812 2.730469 7.132812 Z M 2.730469 7.132812 "/>
<path style=" stroke:none;fill-rule:nonzero;fill:rgb(32.549021%,33.333334%,36.470589%);fill-opacity:1;" d="M 2.730469 14.574219 C 3.140625 14.574219 3.472656 14.910156 3.472656 15.320312 C 3.472656 15.730469 3.140625 16.0625 2.730469 16.0625 C 2.316406 16.0625 1.984375 15.730469 1.984375 15.320312 C 1.984375 14.910156 2.316406 14.574219 2.730469 14.574219 Z M 2.730469 14.574219 "/>
<path style=" stroke:none;fill-rule:nonzero;fill:rgb(32.549021%,33.333334%,36.470589%);fill-opacity:1;" d="M 2.730469 12.09375 C 3.140625 12.09375 3.472656 12.429688 3.472656 12.839844 C 3.472656 13.25 3.140625 13.582031 2.730469 13.582031 C 2.316406 13.582031 1.984375 13.25 1.984375 12.839844 C 1.984375 12.429688 2.316406 12.09375 2.730469 12.09375 Z M 2.730469 12.09375 "/>
<path style=" stroke:none;fill-rule:nonzero;fill:rgb(32.549021%,33.333334%,36.470589%);fill-opacity:1;" d="M 2.730469 9.613281 C 3.140625 9.613281 3.472656 9.949219 3.472656 10.359375 C 3.472656 10.769531 3.140625 11.101562 2.730469 11.101562 C 2.316406 11.101562 1.984375 10.769531 1.984375 10.359375 C 1.984375 9.949219 2.316406 9.613281 2.730469 9.613281 Z M 2.730469 9.613281 "/>
<path style=" stroke:none;fill-rule:nonzero;fill:rgb(32.549021%,33.333334%,36.470589%);fill-opacity:1;" d="M 21.085938 4.652344 C 21.496094 4.652344 21.832031 4.984375 21.832031 5.398438 C 21.832031 5.808594 21.496094 6.140625 21.085938 6.140625 C 20.675781 6.140625 20.339844 5.808594 20.339844 5.398438 C 20.339844 4.984375 20.675781 4.652344 21.085938 4.652344 Z M 21.085938 4.652344 "/>
<path style=" stroke:none;fill-rule:nonzero;fill:rgb(32.549021%,33.333334%,36.470589%);fill-opacity:1;" d="M 21.085938 17.054688 C 21.496094 17.054688 21.832031 17.390625 21.832031 17.800781 C 21.832031 18.210938 21.496094 18.542969 21.085938 18.542969 C 20.675781 18.542969 20.339844 18.210938 20.339844 17.800781 C 20.339844 17.390625 20.675781 17.054688 21.085938 17.054688 Z M 21.085938 17.054688 "/>
<path style=" stroke:none;fill-rule:nonzero;fill:rgb(32.549021%,33.333334%,36.470589%);fill-opacity:1;" d="M 21.085938 7.132812 C 21.496094 7.132812 21.832031 7.464844 21.832031 7.878906 C 21.832031 8.289062 21.496094 8.621094 21.085938 8.621094 C 20.675781 8.621094 20.339844 8.289062 20.339844 7.878906 C 20.339844 7.464844 20.675781 7.132812 21.085938 7.132812 Z M 21.085938 7.132812 "/>
<path style=" stroke:none;fill-rule:nonzero;fill:rgb(32.549021%,33.333334%,36.470589%);fill-opacity:1;" d="M 21.085938 14.574219 C 21.496094 14.574219 21.832031 14.910156 21.832031 15.320312 C 21.832031 15.730469 21.496094 16.0625 21.085938 16.0625 C 20.675781 16.0625 20.339844 15.730469 20.339844 15.320312 C 20.339844 14.910156 20.675781 14.574219 21.085938 14.574219 Z M 21.085938 14.574219 "/>
<path style=" stroke:none;fill-rule:nonzero;fill:rgb(32.549021%,33.333334%,36.470589%);fill-opacity:1;" d="M 21.085938 12.09375 C 21.496094 12.09375 21.832031 12.429688 21.832031 12.839844 C 21.832031 13.25 21.496094 13.582031 21.085938 13.582031 C 20.675781 13.582031 20.339844 13.25 20.339844 12.839844 C 20.339844 12.429688 20.675781 12.09375 21.085938 12.09375 Z M 21.085938 12.09375 "/>
<path style=" stroke:none;fill-rule:nonzero;fill:rgb(32.549021%,33.333334%,36.470589%);fill-opacity:1;" d="M 21.085938 9.613281 C 21.496094 9.613281 21.832031 9.949219 21.832031 10.359375 C 21.832031 10.769531 21.496094 11.101562 21.085938 11.101562 C 20.675781 11.101562 20.339844 10.769531 20.339844 10.359375 C 20.339844 9.949219 20.675781 9.613281 21.085938 9.613281 Z M 21.085938 9.613281 "/>
</g>
</svg>
