<?xml version="1.0" encoding="UTF-8"?>
<svg xmlns="http://www.w3.org/2000/svg" xmlns:xlink="http://www.w3.org/1999/xlink" width="24pt" height="24pt" viewBox="0 0 24 24" version="1.1">
<defs>
<linearGradient id="linear0" gradientUnits="userSpaceOnUse" x1="365.125" y1="-105.166672" x2="365.125" y2="-136.916672" gradientTransform="matrix(1.818182,0,0,1,-381,227.477417)">
<stop offset="0" style="stop-color:rgb(32.54902%,33.333333%,36.470588%);stop-opacity:1;"/>
<stop offset="1" style="stop-color:rgb(36.470588%,37.647059%,40.784314%);stop-opacity:1;"/>
</linearGradient>
<linearGradient id="linear1" gradientUnits="userSpaceOnUse" x1="254" y1="233.5" x2="254" y2="254.666672" gradientTransform="matrix(0.0468795,0,0,0.0468795,0,10.079087)">
<stop offset="0" style="stop-color:rgb(0%,0%,0%);stop-opacity:0.27451;"/>
<stop offset="1" style="stop-color:rgb(0%,0%,0%);stop-opacity:0;"/>
</linearGradient>
<radialGradient id="radial0" gradientUnits="userSpaceOnUse" cx="456.200623" cy="186.933533" fx="456.200623" fy="186.933533" r="21.166656" gradientTransform="matrix(0.0000000663883,0.093759,-0.093759,0.0000000645758,38.364594,-22.739756)">
<stop offset="0" style="stop-color:rgb(0%,0%,0%);stop-opacity:0.313725;"/>
<stop offset="0.499999" style="stop-color:rgb(0%,0%,0%);stop-opacity:0.27451;"/>
<stop offset="1" style="stop-color:rgb(0%,0%,0%);stop-opacity:0;"/>
</radialGradient>
<radialGradient id="radial1" gradientUnits="userSpaceOnUse" cx="63.5" cy="212.333359" fx="63.5" fy="212.333359" r="21.166666" gradientTransform="matrix(-0.093759,0.000000027852,-0.000000027852,-0.093759,8.930547,39.94132)">
<stop offset="0" style="stop-color:rgb(0%,0%,0%);stop-opacity:0.313725;"/>
<stop offset="0.499999" style="stop-color:rgb(0%,0%,0%);stop-opacity:0.27451;"/>
<stop offset="1" style="stop-color:rgb(0%,0%,0%);stop-opacity:0;"/>
</radialGradient>
<linearGradient id="linear2" gradientUnits="userSpaceOnUse" x1="254" y1="233.5" x2="254" y2="-105.166656" gradientTransform="matrix(1,0,0,1,0.000019443,-0.0000178019)">
<stop offset="0" style="stop-color:rgb(71.764706%,73.333333%,77.647059%);stop-opacity:1;"/>
<stop offset="1" style="stop-color:rgb(80%,81.568627%,84.313725%);stop-opacity:1;"/>
</linearGradient>
<linearGradient id="linear3" gradientUnits="userSpaceOnUse" x1="365.125" y1="-105.166672" x2="365.125" y2="-136.916672" gradientTransform="matrix(1.818182,0,0,1,-381,79.375008)">
<stop offset="0" style="stop-color:rgb(32.54902%,33.333333%,36.470588%);stop-opacity:1;"/>
<stop offset="1" style="stop-color:rgb(36.470588%,37.647059%,40.784314%);stop-opacity:1;"/>
</linearGradient>
<linearGradient id="linear4" gradientUnits="userSpaceOnUse" x1="254" y1="233.5" x2="254" y2="254.666672" gradientTransform="matrix(0.0468795,0,0,0.0468795,0,-4.060935)">
<stop offset="0" style="stop-color:rgb(0%,0%,0%);stop-opacity:0.27451;"/>
<stop offset="1" style="stop-color:rgb(0%,0%,0%);stop-opacity:0;"/>
</linearGradient>
<radialGradient id="radial2" gradientUnits="userSpaceOnUse" cx="456.200623" cy="186.933533" fx="456.200623" fy="186.933533" r="21.166656" gradientTransform="matrix(0.0000000663883,0.093759,-0.093759,0.0000000645758,38.364594,-36.879778)">
<stop offset="0" style="stop-color:rgb(0%,0%,0%);stop-opacity:0.313725;"/>
<stop offset="0.499999" style="stop-color:rgb(0%,0%,0%);stop-opacity:0.27451;"/>
<stop offset="1" style="stop-color:rgb(0%,0%,0%);stop-opacity:0;"/>
</radialGradient>
<radialGradient id="radial3" gradientUnits="userSpaceOnUse" cx="63.5" cy="212.333359" fx="63.5" fy="212.333359" r="21.166666" gradientTransform="matrix(-0.093759,0.000000027852,-0.000000027852,-0.093759,8.930547,25.801298)">
<stop offset="0" style="stop-color:rgb(0%,0%,0%);stop-opacity:0.313725;"/>
<stop offset="0.499999" style="stop-color:rgb(0%,0%,0%);stop-opacity:0.27451;"/>
<stop offset="1" style="stop-color:rgb(0%,0%,0%);stop-opacity:0;"/>
</radialGradient>
<linearGradient id="linear5" gradientUnits="userSpaceOnUse" x1="254" y1="233.5" x2="254" y2="-105.166656" gradientTransform="matrix(1,0,0,1,0.000019443,-0.0000178019)">
<stop offset="0" style="stop-color:rgb(71.764706%,73.333333%,77.647059%);stop-opacity:1;"/>
<stop offset="1" style="stop-color:rgb(80%,81.568627%,84.313725%);stop-opacity:1;"/>
</linearGradient>
<linearGradient id="linear6" gradientUnits="userSpaceOnUse" x1="254" y1="233.5" x2="254" y2="254.666672" gradientTransform="matrix(0.0468795,0,0,0.0468795,0,3.133111)">
<stop offset="0" style="stop-color:rgb(0%,0%,0%);stop-opacity:0.27451;"/>
<stop offset="1" style="stop-color:rgb(0%,0%,0%);stop-opacity:0;"/>
</linearGradient>
<radialGradient id="radial4" gradientUnits="userSpaceOnUse" cx="456.200623" cy="186.933533" fx="456.200623" fy="186.933533" r="21.166656" gradientTransform="matrix(0.0000000663883,0.093759,-0.093759,0.0000000645758,38.364594,-29.685732)">
<stop offset="0" style="stop-color:rgb(0%,0%,0%);stop-opacity:0.313725;"/>
<stop offset="0.499999" style="stop-color:rgb(0%,0%,0%);stop-opacity:0.27451;"/>
<stop offset="1" style="stop-color:rgb(0%,0%,0%);stop-opacity:0;"/>
</radialGradient>
<radialGradient id="radial5" gradientUnits="userSpaceOnUse" cx="63.5" cy="212.333359" fx="63.5" fy="212.333359" r="21.166666" gradientTransform="matrix(-0.093759,0.000000027852,-0.000000027852,-0.093759,8.930547,32.995344)">
<stop offset="0" style="stop-color:rgb(0%,0%,0%);stop-opacity:0.313725;"/>
<stop offset="0.499999" style="stop-color:rgb(0%,0%,0%);stop-opacity:0.27451;"/>
<stop offset="1" style="stop-color:rgb(0%,0%,0%);stop-opacity:0;"/>
</radialGradient>
<linearGradient id="linear7" gradientUnits="userSpaceOnUse" x1="254" y1="233.5" x2="254" y2="-105.166656" gradientTransform="matrix(1,0,0,1,0.000019443,-0.0000178019)">
<stop offset="0" style="stop-color:rgb(71.764706%,73.333333%,77.647059%);stop-opacity:1;"/>
<stop offset="1" style="stop-color:rgb(80%,81.568627%,84.313725%);stop-opacity:1;"/>
</linearGradient>
</defs>
<g id="surface1">
<path style="fill-rule:nonzero;fill:url(#linear0);stroke-width:0.356764;stroke-linecap:butt;stroke-linejoin:miter;stroke:rgb(74.509805%,78.431374%,71.764708%);stroke-opacity:1;stroke-miterlimit:4;" d="M 61.577453 64.14001 C 50.911805 64.14001 42.329291 68.889557 42.329291 74.722333 L 42.329291 122.301123 L 465.705527 122.301123 L 465.705527 74.722333 C 465.705527 68.889557 457.123014 64.14001 446.457365 64.14001 Z M 61.577453 64.14001 " transform="matrix(0.0468795,0,0,0.0468795,0,10.079087)"/>
<path style=" stroke:none;fill-rule:nonzero;fill:url(#linear1);" d="M 2.976562 21.027344 L 20.839844 21.027344 L 20.839844 22.019531 L 2.976562 22.019531 Z M 2.976562 21.027344 "/>
<path style=" stroke:none;fill-rule:nonzero;fill:url(#radial0);" d="M 20.839844 20.03125 L 22.824219 20.03125 L 22.824219 22.019531 L 20.839844 22.019531 Z M 20.839844 20.03125 "/>
<path style=" stroke:none;fill-rule:nonzero;fill:url(#radial1);" d="M 0.992188 20.03125 L 2.976562 20.03125 L 2.976562 22.019531 L 0.992188 22.019531 Z M 0.992188 20.03125 "/>
<path style="fill-rule:nonzero;fill:url(#linear2);stroke-width:2;stroke-linecap:butt;stroke-linejoin:miter;stroke:rgb(30.19608%,30.19608%,30.19608%);stroke-opacity:1;stroke-miterlimit:4;" d="M 31.746968 122.384448 L 476.28785 122.384448 C 482.120626 122.384448 486.870173 127.133995 486.870173 132.966771 L 486.870173 222.958177 C 486.870173 228.790953 482.120626 233.5405 476.28785 233.5405 L 31.746968 233.5405 C 25.914192 233.5405 21.164646 228.790953 21.164646 222.958177 L 21.164646 132.966771 C 21.164646 127.133995 25.914192 122.384448 31.746968 122.384448 Z M 31.746968 122.384448 " transform="matrix(0.0468795,0,0,0.0468795,0,10.079087)"/>
<path style=" stroke:none;fill-rule:nonzero;fill:rgb(100%,100%,100%);fill-opacity:0.196078;" d="M 1.488281 15.816406 C 1.214844 15.816406 0.992188 16.039062 0.992188 16.3125 L 0.992188 16.558594 C 0.992188 16.285156 1.214844 16.0625 1.488281 16.0625 L 22.328125 16.0625 C 22.601562 16.0625 22.824219 16.285156 22.824219 16.558594 L 22.824219 16.3125 C 22.824219 16.039062 22.601562 15.816406 22.328125 15.816406 Z M 1.488281 15.816406 "/>
<path style=" stroke:none;fill-rule:nonzero;fill:rgb(0%,0%,0%);fill-opacity:0.196078;" d="M 1.488281 21.027344 C 1.214844 21.027344 0.992188 20.804688 0.992188 20.53125 L 0.992188 20.28125 C 0.992188 20.554688 1.214844 20.777344 1.488281 20.777344 L 22.328125 20.777344 C 22.601562 20.777344 22.824219 20.554688 22.824219 20.28125 L 22.824219 20.53125 C 22.824219 20.804688 22.601562 21.027344 22.328125 21.027344 Z M 1.488281 21.027344 "/>
<path style=" stroke:none;fill-rule:nonzero;fill:rgb(100%,100%,100%);fill-opacity:0.27451;" d="M 11.410156 3.660156 C 11.136719 3.660156 10.914062 3.882812 10.914062 4.15625 L 10.914062 4.40625 C 10.914062 4.128906 11.136719 3.910156 11.410156 3.910156 L 21.335938 3.910156 C 21.609375 3.910156 21.832031 4.128906 21.832031 4.40625 L 21.832031 4.15625 C 21.832031 3.882812 21.609375 3.660156 21.335938 3.660156 Z M 11.410156 3.660156 "/>
<path style="fill-rule:nonzero;fill:url(#linear3);stroke-width:0.356764;stroke-linecap:butt;stroke-linejoin:miter;stroke:rgb(74.509805%,78.431374%,71.764708%);stroke-opacity:1;stroke-miterlimit:4;" d="M 61.577453 -83.929183 C 50.911805 -83.929183 42.329291 -79.179637 42.329291 -73.346861 L 42.329291 -25.768071 L 465.705527 -25.768071 L 465.705527 -73.346861 C 465.705527 -79.179637 457.123014 -83.929183 446.457365 -83.929183 Z M 61.577453 -83.929183 " transform="matrix(0.0468795,0,0,0.0468795,0,10.079087)"/>
<path style=" stroke:none;fill-rule:nonzero;fill:url(#linear4);" d="M 2.976562 6.886719 L 20.839844 6.886719 L 20.839844 7.878906 L 2.976562 7.878906 Z M 2.976562 6.886719 "/>
<path style=" stroke:none;fill-rule:nonzero;fill:url(#radial2);" d="M 20.839844 5.894531 L 22.824219 5.894531 L 22.824219 7.878906 L 20.839844 7.878906 Z M 20.839844 5.894531 "/>
<path style=" stroke:none;fill-rule:nonzero;fill:url(#radial3);" d="M 0.992188 5.894531 L 2.976562 5.894531 L 2.976562 7.878906 L 0.992188 7.878906 Z M 0.992188 5.894531 "/>
<path style="fill-rule:nonzero;fill:url(#linear5);stroke-width:2;stroke-linecap:butt;stroke-linejoin:miter;stroke:rgb(30.19608%,30.19608%,30.19608%);stroke-opacity:1;stroke-miterlimit:4;" d="M 31.746968 122.371586 L 476.28785 122.371586 C 482.120626 122.371586 486.870173 127.121133 486.870173 132.953909 L 486.870173 222.945315 C 486.870173 228.778092 482.120626 233.527638 476.28785 233.527638 L 31.746968 233.527638 C 25.914192 233.527638 21.164646 228.778092 21.164646 222.945315 L 21.164646 132.953909 C 21.164646 127.121133 25.914192 122.371586 31.746968 122.371586 Z M 31.746968 122.371586 " transform="matrix(0.0468795,0,0,0.0468795,0,-4.060935)"/>
<path style=" stroke:none;fill-rule:nonzero;fill:rgb(100%,100%,100%);fill-opacity:0.196078;" d="M 1.488281 1.675781 C 1.214844 1.675781 0.992188 1.898438 0.992188 2.171875 L 0.992188 2.421875 C 0.992188 2.144531 1.214844 1.925781 1.488281 1.925781 L 22.328125 1.925781 C 22.601562 1.925781 22.824219 2.144531 22.824219 2.421875 L 22.824219 2.171875 C 22.824219 1.898438 22.601562 1.675781 22.328125 1.675781 Z M 1.488281 1.675781 "/>
<path style=" stroke:none;fill-rule:nonzero;fill:rgb(0%,0%,0%);fill-opacity:0.196078;" d="M 1.488281 6.886719 C 1.214844 6.886719 0.992188 6.664062 0.992188 6.390625 L 0.992188 6.140625 C 0.992188 6.417969 1.214844 6.636719 1.488281 6.636719 L 22.328125 6.636719 C 22.601562 6.636719 22.824219 6.417969 22.824219 6.140625 L 22.824219 6.390625 C 22.824219 6.664062 22.601562 6.886719 22.328125 6.886719 Z M 1.488281 6.886719 "/>
<path style=" stroke:none;fill-rule:nonzero;fill:url(#linear6);" d="M 2.976562 14.078125 L 20.839844 14.078125 L 20.839844 15.070312 L 2.976562 15.070312 Z M 2.976562 14.078125 "/>
<path style=" stroke:none;fill-rule:nonzero;fill:url(#radial4);" d="M 20.839844 13.085938 L 22.824219 13.085938 L 22.824219 15.070312 L 20.839844 15.070312 Z M 20.839844 13.085938 "/>
<path style=" stroke:none;fill-rule:nonzero;fill:url(#radial5);" d="M 0.992188 13.085938 L 2.976562 13.085938 L 2.976562 15.070312 L 0.992188 15.070312 Z M 0.992188 13.085938 "/>
<path style="fill-rule:nonzero;fill:url(#linear7);stroke-width:2;stroke-linecap:butt;stroke-linejoin:miter;stroke:rgb(30.19608%,30.19608%,30.19608%);stroke-opacity:1;stroke-miterlimit:4;" d="M 31.746968 122.398601 L 476.28785 122.398601 C 482.120626 122.398601 486.870173 127.148147 486.870173 132.980924 L 486.870173 222.889005 C 486.870173 228.721781 482.120626 233.471327 476.28785 233.471327 L 31.746968 233.471327 C 25.914192 233.471327 21.164646 228.721781 21.164646 222.889005 L 21.164646 132.980924 C 21.164646 127.148147 25.914192 122.398601 31.746968 122.398601 Z M 31.746968 122.398601 " transform="matrix(0.0468795,0,0,0.0468795,0,3.133111)"/>
<path style=" stroke:none;fill-rule:nonzero;fill:rgb(100%,100%,100%);fill-opacity:0.196078;" d="M 1.488281 8.871094 C 1.214844 8.871094 0.992188 9.089844 0.992188 9.367188 L 0.992188 9.613281 C 0.992188 9.339844 1.214844 9.117188 1.488281 9.117188 L 22.328125 9.117188 C 22.601562 9.117188 22.824219 9.339844 22.824219 9.613281 L 22.824219 9.367188 C 22.824219 9.089844 22.601562 8.871094 22.328125 8.871094 Z M 1.488281 8.871094 "/>
<path style=" stroke:none;fill-rule:nonzero;fill:rgb(0%,0%,0%);fill-opacity:0.196078;" d="M 1.488281 14.078125 C 1.214844 14.078125 0.992188 13.859375 0.992188 13.582031 L 0.992188 13.335938 C 0.992188 13.609375 1.214844 13.832031 1.488281 13.832031 L 22.328125 13.832031 C 22.601562 13.832031 22.824219 13.609375 22.824219 13.335938 L 22.824219 13.582031 C 22.824219 13.859375 22.601562 14.078125 22.328125 14.078125 Z M 1.488281 14.078125 "/>
<path style=" stroke:none;fill-rule:nonzero;fill:rgb(20%,20%,20%);fill-opacity:1;" d="M 4.472656 10.980469 C 4.746094 10.980469 4.96875 11.199219 4.96875 11.476562 C 4.96875 11.75 4.746094 11.972656 4.472656 11.972656 C 4.199219 11.972656 3.976562 11.75 3.976562 11.476562 C 3.976562 11.199219 4.199219 10.980469 4.472656 10.980469 Z M 4.472656 10.980469 "/>
<path style=" stroke:none;fill-rule:nonzero;fill:rgb(20%,20%,20%);fill-opacity:1;" d="M 6.457031 10.980469 C 6.730469 10.980469 6.953125 11.199219 6.953125 11.476562 C 6.953125 11.75 6.730469 11.972656 6.457031 11.972656 C 6.183594 11.972656 5.960938 11.75 5.960938 11.476562 C 5.960938 11.199219 6.183594 10.980469 6.457031 10.980469 Z M 6.457031 10.980469 "/>
<path style=" stroke:none;fill-rule:nonzero;fill:rgb(20%,20%,20%);fill-opacity:1;" d="M 2.488281 10.980469 C 2.761719 10.980469 2.984375 11.199219 2.984375 11.476562 C 2.984375 11.75 2.761719 11.972656 2.488281 11.972656 C 2.214844 11.972656 1.992188 11.75 1.992188 11.476562 C 1.992188 11.199219 2.214844 10.980469 2.488281 10.980469 Z M 2.488281 10.980469 "/>
<path style=" stroke:none;fill-rule:nonzero;fill:rgb(57.647061%,67.450982%,61.56863%);fill-opacity:1;" d="M 6.457031 12.09375 C 6.183594 12.09375 5.960938 11.875 5.960938 11.597656 C 5.960938 11.578125 5.964844 11.558594 5.964844 11.535156 C 5.996094 11.78125 6.203125 11.972656 6.457031 11.972656 C 6.710938 11.972656 6.917969 11.78125 6.949219 11.535156 C 6.953125 11.558594 6.953125 11.578125 6.953125 11.597656 C 6.953125 11.875 6.734375 12.09375 6.457031 12.09375 Z M 6.457031 12.09375 "/>
<path style=" stroke:none;fill-rule:nonzero;fill:rgb(100%,100%,100%);fill-opacity:0.196078;" d="M 6.457031 12.09375 C 6.183594 12.09375 5.960938 11.875 5.960938 11.597656 C 5.960938 11.578125 5.964844 11.558594 5.964844 11.535156 C 5.996094 11.78125 6.203125 11.972656 6.457031 11.972656 C 6.710938 11.972656 6.917969 11.78125 6.949219 11.535156 C 6.953125 11.558594 6.953125 11.578125 6.953125 11.597656 C 6.953125 11.875 6.734375 12.09375 6.457031 12.09375 Z M 6.457031 12.09375 "/>
<path style=" stroke:none;fill-rule:nonzero;fill:rgb(100%,100%,100%);fill-opacity:0.196078;" d="M 4.476562 12.09375 C 4.203125 12.09375 3.980469 11.875 3.980469 11.597656 C 3.980469 11.578125 3.980469 11.558594 3.984375 11.535156 C 4.015625 11.78125 4.222656 11.972656 4.476562 11.972656 C 4.730469 11.972656 4.9375 11.78125 4.96875 11.535156 C 4.972656 11.558594 4.972656 11.578125 4.972656 11.597656 C 4.972656 11.875 4.753906 12.09375 4.476562 12.09375 Z M 4.476562 12.09375 "/>
<path style=" stroke:none;fill-rule:nonzero;fill:rgb(100%,100%,100%);fill-opacity:0.196078;" d="M 2.488281 12.09375 C 2.214844 12.09375 1.992188 11.875 1.992188 11.597656 C 1.992188 11.578125 1.992188 11.558594 1.996094 11.535156 C 2.027344 11.78125 2.234375 11.972656 2.488281 11.972656 C 2.742188 11.972656 2.949219 11.78125 2.980469 11.535156 C 2.984375 11.558594 2.984375 11.578125 2.984375 11.597656 C 2.984375 11.875 2.761719 12.09375 2.488281 12.09375 Z M 2.488281 12.09375 "/>
<path style=" stroke:none;fill-rule:nonzero;fill:rgb(0%,0%,0%);fill-opacity:0.196078;" d="M 2.488281 10.980469 C 2.761719 10.980469 2.984375 11.199219 2.984375 11.476562 C 2.984375 11.496094 2.984375 11.515625 2.980469 11.535156 C 2.949219 11.292969 2.742188 11.101562 2.488281 11.101562 C 2.234375 11.101562 2.027344 11.292969 1.996094 11.535156 C 1.992188 11.515625 1.992188 11.496094 1.992188 11.476562 C 1.992188 11.199219 2.214844 10.980469 2.488281 10.980469 Z M 2.488281 10.980469 "/>
<path style=" stroke:none;fill-rule:nonzero;fill:rgb(0%,0%,0%);fill-opacity:0.196078;" d="M 4.46875 10.980469 C 4.742188 10.980469 4.964844 11.199219 4.964844 11.476562 C 4.964844 11.496094 4.964844 11.515625 4.960938 11.535156 C 4.929688 11.292969 4.722656 11.101562 4.46875 11.101562 C 4.214844 11.101562 4.007812 11.292969 3.976562 11.535156 C 3.972656 11.515625 3.972656 11.496094 3.972656 11.476562 C 3.972656 11.199219 4.195312 10.980469 4.46875 10.980469 Z M 4.46875 10.980469 "/>
<path style=" stroke:none;fill-rule:nonzero;fill:rgb(0%,0%,0%);fill-opacity:0.196078;" d="M 6.457031 10.980469 C 6.734375 10.980469 6.953125 11.199219 6.953125 11.476562 C 6.953125 11.496094 6.953125 11.515625 6.949219 11.535156 C 6.917969 11.292969 6.710938 11.101562 6.457031 11.101562 C 6.203125 11.101562 5.996094 11.292969 5.964844 11.535156 C 5.964844 11.515625 5.960938 11.496094 5.960938 11.476562 C 5.960938 11.199219 6.183594 10.980469 6.457031 10.980469 Z M 6.457031 10.980469 "/>
<path style=" stroke:none;fill-rule:nonzero;fill:rgb(20%,20%,20%);fill-opacity:1;" d="M 4.472656 3.660156 C 4.746094 3.660156 4.96875 3.882812 4.96875 4.15625 C 4.96875 4.429688 4.746094 4.652344 4.472656 4.652344 C 4.199219 4.652344 3.976562 4.429688 3.976562 4.15625 C 3.976562 3.882812 4.199219 3.660156 4.472656 3.660156 Z M 4.472656 3.660156 "/>
<path style=" stroke:none;fill-rule:nonzero;fill:rgb(20%,20%,20%);fill-opacity:1;" d="M 6.457031 3.660156 C 6.730469 3.660156 6.953125 3.882812 6.953125 4.15625 C 6.953125 4.429688 6.730469 4.652344 6.457031 4.652344 C 6.183594 4.652344 5.960938 4.429688 5.960938 4.15625 C 5.960938 3.882812 6.183594 3.660156 6.457031 3.660156 Z M 6.457031 3.660156 "/>
<path style=" stroke:none;fill-rule:nonzero;fill:rgb(20%,20%,20%);fill-opacity:1;" d="M 2.488281 3.660156 C 2.761719 3.660156 2.984375 3.882812 2.984375 4.15625 C 2.984375 4.429688 2.761719 4.652344 2.488281 4.652344 C 2.214844 4.652344 1.992188 4.429688 1.992188 4.15625 C 1.992188 3.882812 2.214844 3.660156 2.488281 3.660156 Z M 2.488281 3.660156 "/>
<path style=" stroke:none;fill-rule:nonzero;fill:rgb(57.647061%,67.450982%,61.56863%);fill-opacity:1;" d="M 6.457031 4.777344 C 6.183594 4.777344 5.960938 4.554688 5.960938 4.28125 C 5.960938 4.257812 5.964844 4.238281 5.964844 4.21875 C 5.996094 4.464844 6.203125 4.652344 6.457031 4.652344 C 6.710938 4.652344 6.917969 4.464844 6.949219 4.21875 C 6.953125 4.238281 6.953125 4.257812 6.953125 4.28125 C 6.953125 4.554688 6.734375 4.777344 6.457031 4.777344 Z M 6.457031 4.777344 "/>
<path style=" stroke:none;fill-rule:nonzero;fill:rgb(100%,100%,100%);fill-opacity:0.196078;" d="M 6.457031 4.777344 C 6.183594 4.777344 5.960938 4.554688 5.960938 4.28125 C 5.960938 4.257812 5.964844 4.238281 5.964844 4.21875 C 5.996094 4.464844 6.203125 4.652344 6.457031 4.652344 C 6.710938 4.652344 6.917969 4.464844 6.949219 4.21875 C 6.953125 4.238281 6.953125 4.257812 6.953125 4.28125 C 6.953125 4.554688 6.734375 4.777344 6.457031 4.777344 Z M 6.457031 4.777344 "/>
<path style=" stroke:none;fill-rule:nonzero;fill:rgb(100%,100%,100%);fill-opacity:0.196078;" d="M 4.476562 4.777344 C 4.203125 4.777344 3.980469 4.554688 3.980469 4.28125 C 3.980469 4.257812 3.980469 4.238281 3.984375 4.21875 C 4.015625 4.464844 4.222656 4.652344 4.476562 4.652344 C 4.730469 4.652344 4.9375 4.464844 4.96875 4.21875 C 4.972656 4.238281 4.972656 4.257812 4.972656 4.28125 C 4.972656 4.554688 4.753906 4.777344 4.476562 4.777344 Z M 4.476562 4.777344 "/>
<path style=" stroke:none;fill-rule:nonzero;fill:rgb(100%,100%,100%);fill-opacity:0.196078;" d="M 2.488281 4.777344 C 2.214844 4.777344 1.992188 4.554688 1.992188 4.28125 C 1.992188 4.257812 1.992188 4.238281 1.996094 4.21875 C 2.027344 4.464844 2.234375 4.652344 2.488281 4.652344 C 2.742188 4.652344 2.949219 4.464844 2.980469 4.21875 C 2.984375 4.238281 2.984375 4.257812 2.984375 4.28125 C 2.984375 4.554688 2.761719 4.777344 2.488281 4.777344 Z M 2.488281 4.777344 "/>
<path style=" stroke:none;fill-rule:nonzero;fill:rgb(0%,0%,0%);fill-opacity:0.196078;" d="M 2.488281 3.660156 C 2.761719 3.660156 2.984375 3.882812 2.984375 4.15625 C 2.984375 4.175781 2.984375 4.199219 2.980469 4.21875 C 2.949219 3.972656 2.742188 3.785156 2.488281 3.785156 C 2.234375 3.785156 2.027344 3.972656 1.996094 4.21875 C 1.992188 4.199219 1.992188 4.175781 1.992188 4.15625 C 1.992188 3.882812 2.214844 3.660156 2.488281 3.660156 Z M 2.488281 3.660156 "/>
<path style=" stroke:none;fill-rule:nonzero;fill:rgb(0%,0%,0%);fill-opacity:0.196078;" d="M 4.46875 3.660156 C 4.742188 3.660156 4.964844 3.882812 4.964844 4.15625 C 4.964844 4.175781 4.964844 4.199219 4.960938 4.21875 C 4.929688 3.972656 4.722656 3.785156 4.46875 3.785156 C 4.214844 3.785156 4.007812 3.972656 3.976562 4.21875 C 3.972656 4.199219 3.972656 4.175781 3.972656 4.15625 C 3.972656 3.882812 4.195312 3.660156 4.46875 3.660156 Z M 4.46875 3.660156 "/>
<path style=" stroke:none;fill-rule:nonzero;fill:rgb(0%,0%,0%);fill-opacity:0.196078;" d="M 6.457031 3.660156 C 6.734375 3.660156 6.953125 3.882812 6.953125 4.15625 C 6.953125 4.175781 6.953125 4.199219 6.949219 4.21875 C 6.917969 3.972656 6.710938 3.785156 6.457031 3.785156 C 6.203125 3.785156 5.996094 3.972656 5.964844 4.21875 C 5.964844 4.199219 5.960938 4.175781 5.960938 4.15625 C 5.960938 3.882812 6.183594 3.660156 6.457031 3.660156 Z M 6.457031 3.660156 "/>
<path style=" stroke:none;fill-rule:nonzero;fill:rgb(20%,20%,20%);fill-opacity:1;" d="M 4.472656 18.046875 C 4.746094 18.046875 4.96875 18.269531 4.96875 18.542969 C 4.96875 18.820312 4.746094 19.039062 4.472656 19.039062 C 4.199219 19.039062 3.976562 18.820312 3.976562 18.542969 C 3.976562 18.269531 4.199219 18.046875 4.472656 18.046875 Z M 4.472656 18.046875 "/>
<path style=" stroke:none;fill-rule:nonzero;fill:rgb(20%,20%,20%);fill-opacity:1;" d="M 6.457031 18.046875 C 6.730469 18.046875 6.953125 18.269531 6.953125 18.542969 C 6.953125 18.820312 6.730469 19.039062 6.457031 19.039062 C 6.183594 19.039062 5.960938 18.820312 5.960938 18.542969 C 5.960938 18.269531 6.183594 18.046875 6.457031 18.046875 Z M 6.457031 18.046875 "/>
<path style=" stroke:none;fill-rule:nonzero;fill:rgb(20%,20%,20%);fill-opacity:1;" d="M 2.488281 18.046875 C 2.761719 18.046875 2.984375 18.269531 2.984375 18.542969 C 2.984375 18.820312 2.761719 19.039062 2.488281 19.039062 C 2.214844 19.039062 1.992188 18.820312 1.992188 18.542969 C 1.992188 18.269531 2.214844 18.046875 2.488281 18.046875 Z M 2.488281 18.046875 "/>
<path style=" stroke:none;fill-rule:nonzero;fill:rgb(57.647061%,67.450982%,61.56863%);fill-opacity:1;" d="M 6.457031 19.164062 C 6.183594 19.164062 5.960938 18.945312 5.960938 18.667969 C 5.960938 18.648438 5.964844 18.628906 5.964844 18.605469 C 5.996094 18.851562 6.203125 19.039062 6.457031 19.039062 C 6.710938 19.039062 6.917969 18.851562 6.949219 18.605469 C 6.953125 18.628906 6.953125 18.648438 6.953125 18.667969 C 6.953125 18.945312 6.734375 19.164062 6.457031 19.164062 Z M 6.457031 19.164062 "/>
<path style=" stroke:none;fill-rule:nonzero;fill:rgb(100%,100%,100%);fill-opacity:0.196078;" d="M 6.457031 19.164062 C 6.183594 19.164062 5.960938 18.945312 5.960938 18.667969 C 5.960938 18.648438 5.964844 18.628906 5.964844 18.605469 C 5.996094 18.851562 6.203125 19.039062 6.457031 19.039062 C 6.710938 19.039062 6.917969 18.851562 6.949219 18.605469 C 6.953125 18.628906 6.953125 18.648438 6.953125 18.667969 C 6.953125 18.945312 6.734375 19.164062 6.457031 19.164062 Z M 6.457031 19.164062 "/>
<path style=" stroke:none;fill-rule:nonzero;fill:rgb(100%,100%,100%);fill-opacity:0.196078;" d="M 4.476562 19.164062 C 4.203125 19.164062 3.980469 18.945312 3.980469 18.667969 C 3.980469 18.648438 3.980469 18.628906 3.984375 18.605469 C 4.015625 18.851562 4.222656 19.039062 4.476562 19.039062 C 4.730469 19.039062 4.9375 18.851562 4.96875 18.605469 C 4.972656 18.628906 4.972656 18.648438 4.972656 18.667969 C 4.972656 18.945312 4.753906 19.164062 4.476562 19.164062 Z M 4.476562 19.164062 "/>
<path style=" stroke:none;fill-rule:nonzero;fill:rgb(100%,100%,100%);fill-opacity:0.196078;" d="M 2.488281 19.164062 C 2.214844 19.164062 1.992188 18.945312 1.992188 18.667969 C 1.992188 18.648438 1.992188 18.628906 1.996094 18.605469 C 2.027344 18.851562 2.234375 19.039062 2.488281 19.039062 C 2.742188 19.039062 2.949219 18.851562 2.980469 18.605469 C 2.984375 18.628906 2.984375 18.648438 2.984375 18.667969 C 2.984375 18.945312 2.761719 19.164062 2.488281 19.164062 Z M 2.488281 19.164062 "/>
<path style=" stroke:none;fill-rule:nonzero;fill:rgb(0%,0%,0%);fill-opacity:0.196078;" d="M 2.488281 18.046875 C 2.761719 18.046875 2.984375 18.269531 2.984375 18.542969 C 2.984375 18.566406 2.984375 18.585938 2.980469 18.605469 C 2.949219 18.363281 2.742188 18.171875 2.488281 18.171875 C 2.234375 18.171875 2.027344 18.363281 1.996094 18.605469 C 1.992188 18.585938 1.992188 18.566406 1.992188 18.542969 C 1.992188 18.269531 2.214844 18.046875 2.488281 18.046875 Z M 2.488281 18.046875 "/>
<path style=" stroke:none;fill-rule:nonzero;fill:rgb(0%,0%,0%);fill-opacity:0.196078;" d="M 4.46875 18.046875 C 4.742188 18.046875 4.964844 18.269531 4.964844 18.542969 C 4.964844 18.566406 4.964844 18.585938 4.960938 18.605469 C 4.929688 18.363281 4.722656 18.171875 4.46875 18.171875 C 4.214844 18.171875 4.007812 18.363281 3.976562 18.605469 C 3.972656 18.585938 3.972656 18.566406 3.972656 18.542969 C 3.972656 18.269531 4.195312 18.046875 4.46875 18.046875 Z M 4.46875 18.046875 "/>
<path style=" stroke:none;fill-rule:nonzero;fill:rgb(0%,0%,0%);fill-opacity:0.196078;" d="M 6.457031 18.046875 C 6.734375 18.046875 6.953125 18.269531 6.953125 18.542969 C 6.953125 18.566406 6.953125 18.585938 6.949219 18.605469 C 6.917969 18.363281 6.710938 18.171875 6.457031 18.171875 C 6.203125 18.171875 5.996094 18.363281 5.964844 18.605469 C 5.964844 18.585938 5.960938 18.566406 5.960938 18.542969 C 5.960938 18.269531 6.183594 18.046875 6.457031 18.046875 Z M 6.457031 18.046875 "/>
</g>
</svg>
