<?xml version="1.0" encoding="UTF-8"?>
<svg xmlns="http://www.w3.org/2000/svg" xmlns:xlink="http://www.w3.org/1999/xlink" width="24pt" height="24pt" viewBox="0 0 24 24" version="1.1">
<defs>
<linearGradient id="linear0" gradientUnits="userSpaceOnUse" x1="254" y1="275.833344" x2="254" y2="-189.833328" gradientTransform="matrix(0.0468795,0,0,0.0468795,0,10.079087)">
<stop offset="0" style="stop-color:rgb(71.764706%,73.333333%,77.647059%);stop-opacity:1;"/>
<stop offset="1" style="stop-color:rgb(80%,81.568627%,84.313725%);stop-opacity:1;"/>
</linearGradient>
</defs>
<g id="surface1">
<path style=" stroke:none;fill-rule:nonzero;fill:url(#linear0);" d="M 3.96875 1.179688 C 2.320312 1.179688 0.992188 2.507812 0.992188 4.15625 C 0.992188 5.804688 2.320312 7.132812 3.96875 7.132812 C 5.617188 7.132812 6.945312 5.804688 6.945312 4.15625 C 6.945312 2.507812 5.617188 1.179688 3.96875 1.179688 Z M 11.90625 1.179688 C 10.257812 1.179688 8.929688 2.507812 8.929688 4.15625 C 8.929688 5.804688 10.257812 7.132812 11.90625 7.132812 C 13.554688 7.132812 14.882812 5.804688 14.882812 4.15625 C 14.882812 2.507812 13.554688 1.179688 11.90625 1.179688 Z M 19.84375 1.179688 C 18.195312 1.179688 16.867188 2.507812 16.867188 4.15625 C 16.867188 5.804688 18.195312 7.132812 19.84375 7.132812 C 21.496094 7.132812 22.824219 5.804688 22.824219 4.15625 C 22.824219 2.507812 21.496094 1.179688 19.84375 1.179688 Z M 3.96875 9.117188 C 2.320312 9.117188 0.992188 10.445312 0.992188 12.09375 C 0.992188 13.742188 2.320312 15.070312 3.96875 15.070312 C 5.617188 15.070312 6.945312 13.742188 6.945312 12.09375 C 6.945312 10.445312 5.617188 9.117188 3.96875 9.117188 Z M 11.90625 9.117188 C 10.257812 9.117188 8.929688 10.445312 8.929688 12.09375 C 8.929688 13.742188 10.257812 15.070312 11.90625 15.070312 C 13.554688 15.070312 14.882812 13.742188 14.882812 12.09375 C 14.882812 10.445312 13.554688 9.117188 11.90625 9.117188 Z M 19.84375 9.117188 C 18.195312 9.117188 16.867188 10.445312 16.867188 12.09375 C 16.867188 13.742188 18.195312 15.070312 19.84375 15.070312 C 21.496094 15.070312 22.824219 13.742188 22.824219 12.09375 C 22.824219 10.445312 21.496094 9.117188 19.84375 9.117188 Z M 3.96875 17.054688 C 2.320312 17.054688 0.992188 18.382812 0.992188 20.03125 C 0.992188 21.683594 2.320312 23.011719 3.96875 23.011719 C 5.617188 23.011719 6.945312 21.683594 6.945312 20.03125 C 6.945312 18.382812 5.617188 17.054688 3.96875 17.054688 Z M 11.90625 17.054688 C 10.257812 17.054688 8.929688 18.382812 8.929688 20.03125 C 8.929688 21.683594 10.257812 23.011719 11.90625 23.011719 C 13.554688 23.011719 14.882812 21.683594 14.882812 20.03125 C 14.882812 18.382812 13.554688 17.054688 11.90625 17.054688 Z M 19.84375 17.054688 C 18.195312 17.054688 16.867188 18.382812 16.867188 20.03125 C 16.867188 21.683594 18.195312 23.011719 19.84375 23.011719 C 21.496094 23.011719 22.824219 21.683594 22.824219 20.03125 C 22.824219 18.382812 21.496094 17.054688 19.84375 17.054688 Z M 19.84375 17.054688 "/>
</g>
</svg>
