<?xml version="1.0" encoding="UTF-8"?>
<svg xmlns="http://www.w3.org/2000/svg" xmlns:xlink="http://www.w3.org/1999/xlink" width="24pt" height="24pt" viewBox="0 0 24 24" version="1.1">
<defs>
<radialGradient id="radial0" gradientUnits="userSpaceOnUse" cx="63.5" cy="212.333359" fx="63.5" fy="212.333359" r="21.166666" gradientTransform="matrix(0.093759,0.000000027852,0.000000027852,-0.093759,10.915097,41.42974)">
<stop offset="0" style="stop-color:rgb(0%,0%,0%);stop-opacity:0.313725;"/>
<stop offset="0.499999" style="stop-color:rgb(0%,0%,0%);stop-opacity:0.27451;"/>
<stop offset="1" style="stop-color:rgb(0%,0%,0%);stop-opacity:0;"/>
</radialGradient>
<linearGradient id="linear0" gradientUnits="userSpaceOnUse" x1="254" y1="233.5" x2="254" y2="254.666672" gradientTransform="matrix(0.0468795,0,0,0.0468795,3.969131,11.56751)">
<stop offset="0" style="stop-color:rgb(0%,0%,0%);stop-opacity:0.27451;"/>
<stop offset="1" style="stop-color:rgb(0%,0%,0%);stop-opacity:0;"/>
</linearGradient>
<radialGradient id="radial1" gradientUnits="userSpaceOnUse" cx="63.5" cy="212.333359" fx="63.5" fy="212.333359" r="21.166666" gradientTransform="matrix(-0.093759,0.000000027852,-0.000000027852,-0.093759,12.899677,41.42974)">
<stop offset="0" style="stop-color:rgb(0%,0%,0%);stop-opacity:0.313725;"/>
<stop offset="0.499999" style="stop-color:rgb(0%,0%,0%);stop-opacity:0.27451;"/>
<stop offset="1" style="stop-color:rgb(0%,0%,0%);stop-opacity:0;"/>
</radialGradient>
<linearGradient id="linear1" gradientUnits="userSpaceOnUse" x1="960" y1="615.118103" x2="960" y2="175.118134" gradientTransform="matrix(0.0124035,0,0,0.0124035,0,0)">
<stop offset="0" style="stop-color:rgb(71.764706%,73.333333%,77.647059%);stop-opacity:1;"/>
<stop offset="1" style="stop-color:rgb(80%,81.568627%,84.313725%);stop-opacity:1;"/>
</linearGradient>
<linearGradient id="linear2" gradientUnits="userSpaceOnUse" x1="254" y1="265.25" x2="254" y2="-31.083334" gradientTransform="matrix(0.0468795,0,0,0.0468795,0,10.079087)">
<stop offset="0" style="stop-color:rgb(71.764706%,73.333333%,77.647059%);stop-opacity:1;"/>
<stop offset="1" style="stop-color:rgb(80%,81.568627%,84.313725%);stop-opacity:1;"/>
</linearGradient>
</defs>
<g id="surface1">
<path style=" stroke:none;fill-rule:nonzero;fill:url(#radial0);" d="M 18.851562 21.523438 L 16.867188 21.523438 L 16.867188 23.507812 L 18.851562 23.507812 Z M 18.851562 21.523438 "/>
<path style=" stroke:none;fill-rule:nonzero;fill:url(#linear0);" d="M 6.945312 22.515625 L 16.867188 22.515625 L 16.867188 23.507812 L 6.945312 23.507812 Z M 6.945312 22.515625 "/>
<path style=" stroke:none;fill-rule:nonzero;fill:url(#radial1);" d="M 4.960938 21.523438 L 6.945312 21.523438 L 6.945312 23.507812 L 4.960938 23.507812 Z M 4.960938 21.523438 "/>
<path style=" stroke:none;fill-rule:nonzero;fill:url(#linear1);" d="M 5.457031 2.171875 C 5.183594 2.171875 4.960938 2.394531 4.960938 2.667969 L 4.960938 7.628906 L 18.851562 7.628906 L 18.851562 2.667969 C 18.851562 2.394531 18.632812 2.171875 18.355469 2.171875 Z M 5.457031 2.171875 "/>
<path style=" stroke:none;fill-rule:nonzero;fill:rgb(32.549021%,33.333334%,36.470589%);fill-opacity:1;" d="M 5.457031 7.628906 L 18.355469 7.628906 L 18.355469 8.621094 L 5.457031 8.621094 Z M 5.457031 7.628906 "/>
<path style=" stroke:none;fill-rule:nonzero;fill:url(#linear2);" d="M 18.355469 22.515625 C 18.632812 22.515625 18.851562 22.292969 18.851562 22.019531 L 18.851562 8.621094 L 4.960938 8.621094 L 4.960938 22.019531 C 4.960938 22.292969 5.183594 22.515625 5.457031 22.515625 Z M 18.355469 22.515625 "/>
<path style=" stroke:none;fill-rule:nonzero;fill:rgb(20%,20%,20%);fill-opacity:1;" d="M 11.914062 20.03125 C 12.1875 20.03125 12.410156 20.253906 12.410156 20.53125 C 12.410156 20.804688 12.1875 21.027344 11.914062 21.027344 C 11.640625 21.027344 11.417969 20.804688 11.417969 20.53125 C 11.417969 20.253906 11.640625 20.03125 11.914062 20.03125 Z M 11.914062 20.03125 "/>
<path style=" stroke:none;fill-rule:nonzero;fill:rgb(20%,20%,20%);fill-opacity:1;" d="M 13.898438 20.03125 C 14.175781 20.03125 14.394531 20.253906 14.394531 20.53125 C 14.394531 20.804688 14.175781 21.027344 13.898438 21.027344 C 13.625 21.027344 13.402344 20.804688 13.402344 20.53125 C 13.402344 20.253906 13.625 20.03125 13.898438 20.03125 Z M 13.898438 20.03125 "/>
<path style=" stroke:none;fill-rule:nonzero;fill:rgb(20%,20%,20%);fill-opacity:1;" d="M 9.929688 20.03125 C 10.203125 20.03125 10.425781 20.253906 10.425781 20.53125 C 10.425781 20.804688 10.203125 21.027344 9.929688 21.027344 C 9.65625 21.027344 9.433594 20.804688 9.433594 20.53125 C 9.433594 20.253906 9.65625 20.03125 9.929688 20.03125 Z M 9.929688 20.03125 "/>
<path style=" stroke:none;fill-rule:nonzero;fill:rgb(100%,100%,100%);fill-opacity:0.196078;" d="M 13.898438 21.148438 C 13.625 21.148438 13.402344 20.929688 13.402344 20.652344 C 13.402344 20.632812 13.40625 20.613281 13.40625 20.589844 C 13.4375 20.835938 13.644531 21.027344 13.898438 21.027344 C 14.152344 21.027344 14.363281 20.835938 14.390625 20.589844 C 14.394531 20.613281 14.394531 20.632812 14.394531 20.652344 C 14.394531 20.929688 14.175781 21.148438 13.898438 21.148438 Z M 13.898438 21.148438 "/>
<path style=" stroke:none;fill-rule:nonzero;fill:rgb(100%,100%,100%);fill-opacity:0.196078;" d="M 11.917969 21.148438 C 11.644531 21.148438 11.421875 20.929688 11.421875 20.652344 C 11.421875 20.632812 11.425781 20.613281 11.425781 20.589844 C 11.457031 20.835938 11.664062 21.027344 11.917969 21.027344 C 12.171875 21.027344 12.382812 20.835938 12.410156 20.589844 C 12.414062 20.613281 12.414062 20.632812 12.414062 20.652344 C 12.414062 20.929688 12.195312 21.148438 11.917969 21.148438 Z M 11.917969 21.148438 "/>
<path style=" stroke:none;fill-rule:nonzero;fill:rgb(100%,100%,100%);fill-opacity:0.196078;" d="M 9.929688 21.148438 C 9.65625 21.148438 9.433594 20.929688 9.433594 20.652344 C 9.433594 20.632812 9.4375 20.613281 9.4375 20.589844 C 9.46875 20.835938 9.675781 21.027344 9.929688 21.027344 C 10.183594 21.027344 10.390625 20.835938 10.421875 20.589844 C 10.425781 20.613281 10.425781 20.632812 10.425781 20.652344 C 10.425781 20.929688 10.207031 21.148438 9.929688 21.148438 Z M 9.929688 21.148438 "/>
<path style=" stroke:none;fill-rule:nonzero;fill:rgb(0%,0%,0%);fill-opacity:0.196078;" d="M 9.929688 20.03125 C 10.207031 20.03125 10.425781 20.253906 10.425781 20.53125 C 10.425781 20.550781 10.425781 20.570312 10.421875 20.589844 C 10.390625 20.347656 10.183594 20.15625 9.929688 20.15625 C 9.675781 20.15625 9.46875 20.347656 9.4375 20.589844 C 9.4375 20.570312 9.433594 20.550781 9.433594 20.53125 C 9.433594 20.253906 9.65625 20.03125 9.929688 20.03125 Z M 9.929688 20.03125 "/>
<path style=" stroke:none;fill-rule:nonzero;fill:rgb(0%,0%,0%);fill-opacity:0.196078;" d="M 11.910156 20.03125 C 12.1875 20.03125 12.40625 20.253906 12.40625 20.53125 C 12.40625 20.550781 12.40625 20.570312 12.402344 20.589844 C 12.375 20.347656 12.164062 20.15625 11.910156 20.15625 C 11.65625 20.15625 11.449219 20.347656 11.417969 20.589844 C 11.417969 20.570312 11.414062 20.550781 11.414062 20.53125 C 11.414062 20.253906 11.636719 20.03125 11.910156 20.03125 Z M 11.910156 20.03125 "/>
<path style=" stroke:none;fill-rule:nonzero;fill:rgb(0%,0%,0%);fill-opacity:0.196078;" d="M 13.898438 20.03125 C 14.175781 20.03125 14.394531 20.253906 14.394531 20.53125 C 14.394531 20.550781 14.394531 20.570312 14.390625 20.589844 C 14.363281 20.347656 14.152344 20.15625 13.898438 20.15625 C 13.644531 20.15625 13.4375 20.347656 13.40625 20.589844 C 13.40625 20.570312 13.402344 20.550781 13.402344 20.53125 C 13.402344 20.253906 13.625 20.03125 13.898438 20.03125 Z M 13.898438 20.03125 "/>
<path style=" stroke:none;fill-rule:nonzero;fill:rgb(0%,0%,0%);fill-opacity:0.196078;" d="M 5.457031 22.515625 C 5.183594 22.515625 4.960938 22.292969 4.960938 22.019531 L 4.960938 21.769531 C 4.960938 22.042969 5.183594 22.265625 5.457031 22.265625 L 18.355469 22.265625 C 18.632812 22.265625 18.851562 22.042969 18.851562 21.769531 L 18.851562 22.019531 C 18.851562 22.292969 18.632812 22.515625 18.355469 22.515625 Z M 5.457031 22.515625 "/>
<path style=" stroke:none;fill-rule:nonzero;fill:rgb(100%,100%,100%);fill-opacity:0.196078;" d="M 5.457031 2.171875 C 5.183594 2.171875 4.960938 2.394531 4.960938 2.667969 L 4.960938 2.917969 C 4.960938 2.640625 5.183594 2.421875 5.457031 2.421875 L 18.355469 2.421875 C 18.632812 2.421875 18.851562 2.640625 18.851562 2.917969 L 18.851562 2.667969 C 18.851562 2.394531 18.632812 2.171875 18.355469 2.171875 Z M 5.457031 2.171875 "/>
<path style=" stroke:none;fill-rule:nonzero;fill:rgb(0%,0%,0%);fill-opacity:0.196078;" d="M 4.960938 7.382812 L 18.851562 7.382812 L 18.851562 7.628906 L 4.960938 7.628906 Z M 4.960938 7.382812 "/>
<path style=" stroke:none;fill-rule:nonzero;fill:rgb(100%,100%,100%);fill-opacity:0.196078;" d="M 4.960938 8.621094 L 18.851562 8.621094 L 18.851562 8.871094 L 4.960938 8.871094 Z M 4.960938 8.621094 "/>
<path style=" stroke:none;fill-rule:nonzero;fill:rgb(32.549021%,33.333334%,36.470589%);fill-opacity:1;" d="M 9.425781 10.605469 L 14.386719 10.605469 L 14.386719 11.597656 L 9.425781 11.597656 Z M 9.425781 10.605469 "/>
<path style=" stroke:none;fill-rule:nonzero;fill:rgb(32.549021%,33.333334%,36.470589%);fill-opacity:1;" d="M 9.921875 12.589844 L 13.890625 12.589844 L 13.890625 13.582031 L 9.921875 13.582031 Z M 9.921875 12.589844 "/>
<path style=" stroke:none;fill-rule:nonzero;fill:rgb(32.549021%,33.333334%,36.470589%);fill-opacity:1;" d="M 10.417969 14.574219 L 13.394531 14.574219 L 13.394531 15.566406 L 10.417969 15.566406 Z M 10.417969 14.574219 "/>
<path style=" stroke:none;fill-rule:nonzero;fill:rgb(32.549021%,33.333334%,36.470589%);fill-opacity:1;" d="M 10.914062 16.558594 L 12.898438 16.558594 L 12.898438 17.550781 L 10.914062 17.550781 Z M 10.914062 16.558594 "/>
</g>
</svg>
