<?xml version="1.0" encoding="UTF-8"?>
<svg xmlns="http://www.w3.org/2000/svg" xmlns:xlink="http://www.w3.org/1999/xlink" width="128pt" height="128pt" viewBox="0 0 128 128" version="1.1">
<defs>
<linearGradient id="linear0" gradientUnits="userSpaceOnUse" x1="254" y1="233.5" x2="254" y2="254.666672" gradientTransform="matrix(0.138537,0,0,0.250024,1.787268,6.12558)">
<stop offset="0" style="stop-color:rgb(0%,0%,0%);stop-opacity:0.27451;"/>
<stop offset="1" style="stop-color:rgb(0%,0%,0%);stop-opacity:0;"/>
</linearGradient>
<radialGradient id="radial0" gradientUnits="userSpaceOnUse" cx="456.200623" cy="186.933533" fx="456.200623" fy="186.933533" r="21.166656" gradientTransform="matrix(0.000000177035,0.375036,-0.250024,0.000000258303,110.243834,-109.231596)">
<stop offset="0" style="stop-color:rgb(0%,0%,0%);stop-opacity:0.313725;"/>
<stop offset="0.499999" style="stop-color:rgb(0%,0%,0%);stop-opacity:0.27451;"/>
<stop offset="1" style="stop-color:rgb(0%,0%,0%);stop-opacity:0;"/>
</radialGradient>
<radialGradient id="radial1" gradientUnits="userSpaceOnUse" cx="63.5" cy="212.333359" fx="63.5" fy="212.333359" r="21.166666" gradientTransform="matrix(-0.250024,0.000000111408,-0.000000074272,-0.375036,26.460876,141.492693)">
<stop offset="0" style="stop-color:rgb(0%,0%,0%);stop-opacity:0.313725;"/>
<stop offset="0.499999" style="stop-color:rgb(0%,0%,0%);stop-opacity:0.27451;"/>
<stop offset="1" style="stop-color:rgb(0%,0%,0%);stop-opacity:0;"/>
</radialGradient>
<linearGradient id="linear1" gradientUnits="userSpaceOnUse" x1="359.833344" y1="-105.16671" x2="359.833344" y2="-126.333382" gradientTransform="matrix(0.125012,0,0,0.250024,7.938262,43.170802)">
<stop offset="0" style="stop-color:rgb(0%,0%,0%);stop-opacity:0.196078;"/>
<stop offset="1" style="stop-color:rgb(0%,0%,0%);stop-opacity:0;"/>
</linearGradient>
<linearGradient id="linear2" gradientUnits="userSpaceOnUse" x1="254" y1="85.333336" x2="254" y2="-105.166656" >
<stop offset="0" style="stop-color:rgb(46.27451%,49.411765%,57.647059%);stop-opacity:1;"/>
<stop offset="1" style="stop-color:rgb(56.078431%,59.607843%,65.490196%);stop-opacity:1;"/>
</linearGradient>
<linearGradient id="linear3" gradientUnits="userSpaceOnUse" x1="365.125" y1="-105.166672" x2="365.125" y2="-136.916672" gradientTransform="matrix(1,0,0,1,-84.666672,10.583337)">
<stop offset="0" style="stop-color:rgb(32.54902%,33.333333%,36.470588%);stop-opacity:1;"/>
<stop offset="1" style="stop-color:rgb(36.470588%,37.647059%,40.784314%);stop-opacity:1;"/>
</linearGradient>
<linearGradient id="linear4" gradientUnits="userSpaceOnUse" x1="254" y1="233.5" x2="254" y2="254.666672" gradientTransform="matrix(0.138537,0,0,0.250024,54.70899,59.047299)">
<stop offset="0" style="stop-color:rgb(0%,0%,0%);stop-opacity:0.27451;"/>
<stop offset="1" style="stop-color:rgb(0%,0%,0%);stop-opacity:0;"/>
</linearGradient>
<radialGradient id="radial2" gradientUnits="userSpaceOnUse" cx="456.200623" cy="186.933533" fx="456.200623" fy="186.933533" r="21.166656" gradientTransform="matrix(0.000000177035,0.375036,-0.250024,0.000000258303,163.165555,-56.309877)">
<stop offset="0" style="stop-color:rgb(0%,0%,0%);stop-opacity:0.313725;"/>
<stop offset="0.499999" style="stop-color:rgb(0%,0%,0%);stop-opacity:0.27451;"/>
<stop offset="1" style="stop-color:rgb(0%,0%,0%);stop-opacity:0;"/>
</radialGradient>
<radialGradient id="radial3" gradientUnits="userSpaceOnUse" cx="63.5" cy="212.333359" fx="63.5" fy="212.333359" r="21.166666" gradientTransform="matrix(-0.250024,0.000000111408,-0.000000074272,-0.375036,79.382597,194.414411)">
<stop offset="0" style="stop-color:rgb(0%,0%,0%);stop-opacity:0.313725;"/>
<stop offset="0.499999" style="stop-color:rgb(0%,0%,0%);stop-opacity:0.27451;"/>
<stop offset="1" style="stop-color:rgb(0%,0%,0%);stop-opacity:0;"/>
</radialGradient>
<linearGradient id="linear5" gradientUnits="userSpaceOnUse" x1="359.833344" y1="-105.16671" x2="359.833344" y2="-126.333382" gradientTransform="matrix(0.125012,0,0,0.250024,60.859983,96.09252)">
<stop offset="0" style="stop-color:rgb(0%,0%,0%);stop-opacity:0.196078;"/>
<stop offset="1" style="stop-color:rgb(0%,0%,0%);stop-opacity:0;"/>
</linearGradient>
<linearGradient id="linear6" gradientUnits="userSpaceOnUse" x1="254" y1="233.5" x2="254" y2="-105.166656" >
<stop offset="0" style="stop-color:rgb(71.764706%,73.333333%,77.647059%);stop-opacity:1;"/>
<stop offset="1" style="stop-color:rgb(80%,81.568627%,84.313725%);stop-opacity:1;"/>
</linearGradient>
<linearGradient id="linear7" gradientUnits="userSpaceOnUse" x1="365.125" y1="-105.166672" x2="365.125" y2="-136.916672" gradientTransform="matrix(1,0,0,1,-84.666672,10.583337)">
<stop offset="0" style="stop-color:rgb(32.54902%,33.333333%,36.470588%);stop-opacity:1;"/>
<stop offset="1" style="stop-color:rgb(36.470588%,37.647059%,40.784314%);stop-opacity:1;"/>
</linearGradient>
</defs>
<g id="surface1">
<path style=" stroke:none;fill-rule:nonzero;fill:rgb(100%,100%,100%);fill-opacity:0.27451;" d="M 60.859375 19.523438 C 59.394531 19.523438 58.214844 20.703125 58.214844 22.167969 L 58.214844 23.492188 C 58.214844 22.027344 59.394531 20.84375 60.859375 20.84375 L 113.78125 20.84375 C 115.246094 20.84375 116.429688 22.027344 116.429688 23.492188 L 116.429688 22.167969 C 116.429688 20.703125 115.246094 19.523438 113.78125 19.523438 Z M 60.859375 19.523438 "/>
<path style=" stroke:none;fill-rule:nonzero;fill:url(#linear0);" d="M 10.585938 64.507812 L 63.367188 64.507812 L 63.367188 69.796875 L 10.585938 69.796875 Z M 10.585938 64.507812 "/>
<path style=" stroke:none;fill-rule:nonzero;fill:url(#radial0);" d="M 63.507812 61.859375 L 68.796875 61.859375 L 68.796875 69.796875 L 63.507812 69.796875 Z M 63.507812 61.859375 "/>
<path style=" stroke:none;fill-rule:nonzero;fill:url(#radial1);" d="M 5.292969 61.859375 L 10.585938 61.859375 L 10.585938 69.796875 L 5.292969 69.796875 Z M 5.292969 61.859375 "/>
<path style=" stroke:none;fill-rule:nonzero;fill:url(#linear1);" d="M 37.046875 11.585938 L 66.152344 11.585938 L 66.152344 16.875 L 37.046875 16.875 Z M 37.046875 11.585938 "/>
<path style="fill-rule:nonzero;fill:url(#linear2);stroke-width:2;stroke-linecap:butt;stroke-linejoin:miter;stroke:rgb(26.274511%,26.274511%,26.274511%);stroke-opacity:1;stroke-miterlimit:4;" d="M 31.746968 -105.173113 L 264.584108 -105.173113 C 270.4273 -105.173113 275.161223 -100.423567 275.161223 -94.580375 L 275.161223 74.747205 C 275.161223 80.590397 270.4273 85.339944 264.584108 85.339944 L 31.746968 85.339944 C 25.903776 85.339944 21.169853 80.590397 21.169853 74.747205 L 21.169853 -94.580375 C 21.169853 -100.423567 25.903776 -105.173113 31.746968 -105.173113 Z M 31.746968 -105.173113 " transform="matrix(0.250024,0,0,0.250024,0,43.170789)"/>
<path style=" stroke:none;fill-rule:nonzero;fill:rgb(100%,100%,100%);fill-opacity:0.196078;" d="M 7.9375 16.875 C 6.472656 16.875 5.292969 18.058594 5.292969 19.523438 L 5.292969 20.84375 C 5.292969 19.378906 6.472656 18.199219 7.9375 18.199219 L 66.152344 18.199219 C 67.617188 18.199219 68.796875 19.378906 68.796875 20.84375 L 68.796875 19.523438 C 68.796875 18.058594 67.617188 16.875 66.152344 16.875 Z M 7.9375 16.875 "/>
<path style=" stroke:none;fill-rule:nonzero;fill:rgb(0%,0%,0%);fill-opacity:0.196078;" d="M 7.9375 64.507812 C 6.472656 64.507812 5.292969 63.324219 5.292969 61.859375 L 5.292969 60.539062 C 5.292969 62.003906 6.472656 63.183594 7.9375 63.183594 L 66.152344 63.183594 C 67.617188 63.183594 68.796875 62.003906 68.796875 60.539062 L 68.796875 61.859375 C 68.796875 63.324219 67.617188 64.507812 66.152344 64.507812 Z M 7.9375 64.507812 "/>
<path style="fill-rule:nonzero;fill:url(#linear3);stroke-width:0.264583;stroke-linecap:butt;stroke-linejoin:miter;stroke:rgb(74.509805%,78.431374%,71.764708%);stroke-opacity:1;stroke-miterlimit:4;" d="M 158.750465 -126.327343 C 152.89165 -126.327343 148.17335 -121.609044 148.17335 -115.750228 L 148.17335 -105.173113 L 264.584108 -105.173113 L 264.584108 -115.750228 C 264.584108 -121.609044 259.865809 -126.327343 254.006994 -126.327343 Z M 158.750465 -126.327343 " transform="matrix(0.250024,0,0,0.250024,0,43.170789)"/>
<path style=" stroke:none;fill-rule:nonzero;fill:rgb(20%,20%,20%);fill-opacity:1;" d="M 37.046875 55.246094 C 38.140625 55.246094 39.03125 56.132812 39.03125 57.230469 C 39.03125 58.324219 38.140625 59.214844 37.046875 59.214844 C 35.949219 59.214844 35.0625 58.324219 35.0625 57.230469 C 35.0625 56.132812 35.949219 55.246094 37.046875 55.246094 Z M 37.046875 55.246094 "/>
<path style=" stroke:none;fill-rule:nonzero;fill:rgb(100%,100%,100%);fill-opacity:0.196078;" d="M 39.691406 11.585938 C 38.226562 11.585938 37.046875 12.765625 37.046875 14.230469 L 37.046875 15.554688 C 37.046875 14.085938 38.226562 12.90625 39.691406 12.90625 L 63.507812 12.90625 C 64.972656 12.90625 66.152344 14.085938 66.152344 15.554688 L 66.152344 14.230469 C 66.152344 12.765625 64.972656 11.585938 63.507812 11.585938 Z M 39.691406 11.585938 "/>
<path style=" stroke:none;fill-rule:nonzero;fill:rgb(20%,20%,20%);fill-opacity:1;" d="M 44.984375 55.246094 C 46.078125 55.246094 46.96875 56.132812 46.96875 57.230469 C 46.96875 58.324219 46.078125 59.214844 44.984375 59.214844 C 43.886719 59.214844 43 58.324219 43 57.230469 C 43 56.132812 43.886719 55.246094 44.984375 55.246094 Z M 44.984375 55.246094 "/>
<path style=" stroke:none;fill-rule:nonzero;fill:rgb(20%,20%,20%);fill-opacity:1;" d="M 29.105469 55.246094 C 30.203125 55.246094 31.089844 56.132812 31.089844 57.230469 C 31.089844 58.324219 30.203125 59.214844 29.105469 59.214844 C 28.011719 59.214844 27.121094 58.324219 27.121094 57.230469 C 27.121094 56.132812 28.011719 55.246094 29.105469 55.246094 Z M 29.105469 55.246094 "/>
<path style=" stroke:none;fill-rule:nonzero;fill:url(#linear4);" d="M 63.507812 117.429688 L 116.289062 117.429688 L 116.289062 122.71875 L 63.507812 122.71875 Z M 63.507812 117.429688 "/>
<path style=" stroke:none;fill-rule:nonzero;fill:url(#radial2);" d="M 116.429688 114.78125 L 121.71875 114.78125 L 121.71875 122.71875 L 116.429688 122.71875 Z M 116.429688 114.78125 "/>
<path style=" stroke:none;fill-rule:nonzero;fill:url(#radial3);" d="M 58.214844 114.78125 L 63.507812 114.78125 L 63.507812 122.71875 L 58.214844 122.71875 Z M 58.214844 114.78125 "/>
<path style=" stroke:none;fill-rule:nonzero;fill:url(#linear5);" d="M 89.96875 64.507812 L 119.074219 64.507812 L 119.074219 69.796875 L 89.96875 69.796875 Z M 89.96875 64.507812 "/>
<path style="fill-rule:nonzero;fill:url(#linear6);stroke-width:2;stroke-linecap:butt;stroke-linejoin:miter;stroke:rgb(30.19608%,30.19608%,30.19608%);stroke-opacity:1;stroke-miterlimit:4;" d="M 31.747583 -105.172487 L 264.584724 -105.172487 C 270.427916 -105.172487 275.161838 -100.42294 275.161838 -94.579748 L 275.161838 74.747832 C 275.161838 80.591024 270.427916 85.34057 264.584724 85.34057 L 31.747583 85.34057 C 25.904391 85.34057 21.170468 80.591024 21.170468 74.747832 L 21.170468 -94.579748 C 21.170468 -100.42294 25.904391 -105.172487 31.747583 -105.172487 Z M 31.747583 -105.172487 " transform="matrix(0.250024,0,0,0.250024,52.921721,96.092508)"/>
<path style=" stroke:none;fill-rule:nonzero;fill:rgb(100%,100%,100%);fill-opacity:0.196078;" d="M 60.859375 69.796875 C 59.394531 69.796875 58.214844 70.976562 58.214844 72.445312 L 58.214844 73.765625 C 58.214844 72.300781 59.394531 71.121094 60.859375 71.121094 L 119.074219 71.121094 C 120.539062 71.121094 121.71875 72.300781 121.71875 73.765625 L 121.71875 72.445312 C 121.71875 70.976562 120.539062 69.796875 119.074219 69.796875 Z M 60.859375 69.796875 "/>
<path style=" stroke:none;fill-rule:nonzero;fill:rgb(0%,0%,0%);fill-opacity:0.196078;" d="M 60.859375 117.429688 C 59.394531 117.429688 58.214844 116.246094 58.214844 114.78125 L 58.214844 113.457031 C 58.214844 114.925781 59.394531 116.105469 60.859375 116.105469 L 119.074219 116.105469 C 120.539062 116.105469 121.71875 114.925781 121.71875 113.457031 L 121.71875 114.78125 C 121.71875 116.246094 120.539062 117.429688 119.074219 117.429688 Z M 60.859375 117.429688 "/>
<path style="fill-rule:nonzero;fill:url(#linear7);stroke-width:0.264583;stroke-linecap:butt;stroke-linejoin:miter;stroke:rgb(74.509805%,78.431374%,71.764708%);stroke-opacity:1;stroke-miterlimit:4;" d="M 158.75108 -126.326717 C 152.892265 -126.326717 148.173965 -121.608417 148.173965 -115.749602 L 148.173965 -105.172487 L 264.584724 -105.172487 L 264.584724 -115.749602 C 264.584724 -121.608417 259.866424 -126.326717 254.007609 -126.326717 Z M 158.75108 -126.326717 " transform="matrix(0.250024,0,0,0.250024,52.921721,96.092508)"/>
<path style=" stroke:none;fill-rule:nonzero;fill:rgb(20%,20%,20%);fill-opacity:1;" d="M 89.96875 108.167969 C 91.0625 108.167969 91.953125 109.054688 91.953125 110.152344 C 91.953125 111.246094 91.0625 112.136719 89.96875 112.136719 C 88.871094 112.136719 87.980469 111.246094 87.980469 110.152344 C 87.980469 109.054688 88.871094 108.167969 89.96875 108.167969 Z M 89.96875 108.167969 "/>
<path style=" stroke:none;fill-rule:nonzero;fill:rgb(100%,100%,100%);fill-opacity:0.196078;" d="M 92.613281 64.507812 C 91.148438 64.507812 89.96875 65.6875 89.96875 67.152344 L 89.96875 68.476562 C 89.96875 67.007812 91.148438 65.828125 92.613281 65.828125 L 116.429688 65.828125 C 117.894531 65.828125 119.074219 67.007812 119.074219 68.476562 L 119.074219 67.152344 C 119.074219 65.6875 117.894531 64.507812 116.429688 64.507812 Z M 92.613281 64.507812 "/>
<path style=" stroke:none;fill-rule:nonzero;fill:rgb(20%,20%,20%);fill-opacity:1;" d="M 97.90625 108.167969 C 99 108.167969 99.890625 109.054688 99.890625 110.152344 C 99.890625 111.246094 99 112.136719 97.90625 112.136719 C 96.808594 112.136719 95.921875 111.246094 95.921875 110.152344 C 95.921875 109.054688 96.808594 108.167969 97.90625 108.167969 Z M 97.90625 108.167969 "/>
<path style=" stroke:none;fill-rule:nonzero;fill:rgb(20%,20%,20%);fill-opacity:1;" d="M 82.027344 108.167969 C 83.125 108.167969 84.011719 109.054688 84.011719 110.152344 C 84.011719 111.246094 83.125 112.136719 82.027344 112.136719 C 80.933594 112.136719 80.042969 111.246094 80.042969 110.152344 C 80.042969 109.054688 80.933594 108.167969 82.027344 108.167969 Z M 82.027344 108.167969 "/>
</g>
</svg>
