<?xml version="1.0" encoding="UTF-8"?>
<svg xmlns="http://www.w3.org/2000/svg" xmlns:xlink="http://www.w3.org/1999/xlink" width="128pt" height="128pt" viewBox="0 0 128 128" version="1.1">
<defs>
<linearGradient id="linear0" gradientUnits="userSpaceOnUse" x1="254" y1="233.5" x2="254" y2="254.666672" gradientTransform="matrix(0.250024,0,0,0.250024,0,53.755133)">
<stop offset="0" style="stop-color:rgb(0%,0%,0%);stop-opacity:0.27451;"/>
<stop offset="1" style="stop-color:rgb(0%,0%,0%);stop-opacity:0;"/>
</linearGradient>
<radialGradient id="radial0" gradientUnits="userSpaceOnUse" cx="456.200623" cy="186.933533" fx="456.200623" fy="186.933533" r="21.166656" gradientTransform="matrix(0.000000354071,0.500048,-0.500048,0.000000344404,204.611167,-121.278701)">
<stop offset="0" style="stop-color:rgb(0%,0%,0%);stop-opacity:0.313725;"/>
<stop offset="0.499999" style="stop-color:rgb(0%,0%,0%);stop-opacity:0.27451;"/>
<stop offset="1" style="stop-color:rgb(0%,0%,0%);stop-opacity:0;"/>
</radialGradient>
<radialGradient id="radial1" gradientUnits="userSpaceOnUse" cx="63.5" cy="212.333359" fx="63.5" fy="212.333359" r="21.166666" gradientTransform="matrix(-0.500048,0.000000148544,-0.000000148544,-0.500048,47.629582,213.020371)">
<stop offset="0" style="stop-color:rgb(0%,0%,0%);stop-opacity:0.313725;"/>
<stop offset="0.499999" style="stop-color:rgb(0%,0%,0%);stop-opacity:0.27451;"/>
<stop offset="1" style="stop-color:rgb(0%,0%,0%);stop-opacity:0;"/>
</radialGradient>
<linearGradient id="linear1" gradientUnits="userSpaceOnUse" x1="359.833313" y1="-94.583336" x2="359.833344" y2="-115.75" gradientTransform="matrix(0.250024,0,0,0.250024,-0.00000344495,51.109058)">
<stop offset="0" style="stop-color:rgb(0%,0%,0%);stop-opacity:0.196078;"/>
<stop offset="1" style="stop-color:rgb(0%,0%,0%);stop-opacity:0;"/>
</linearGradient>
<linearGradient id="linear2" gradientUnits="userSpaceOnUse" x1="254" y1="233.5" x2="254" y2="-105.166656" >
<stop offset="0" style="stop-color:rgb(71.764706%,73.333333%,77.647059%);stop-opacity:1;"/>
<stop offset="1" style="stop-color:rgb(80%,81.568627%,84.313725%);stop-opacity:1;"/>
</linearGradient>
<linearGradient id="linear3" gradientUnits="userSpaceOnUse" x1="365.125" y1="-105.166672" x2="365.125" y2="-136.916672" >
<stop offset="0" style="stop-color:rgb(32.54902%,33.333333%,36.470588%);stop-opacity:1;"/>
<stop offset="1" style="stop-color:rgb(36.470588%,37.647059%,40.784314%);stop-opacity:1;"/>
</linearGradient>
</defs>
<g id="surface1">
<path style=" stroke:none;fill-rule:nonzero;fill:url(#linear0);" d="M 15.875 112.136719 L 111.136719 112.136719 L 111.136719 117.429688 L 15.875 117.429688 Z M 15.875 112.136719 "/>
<path style=" stroke:none;fill-rule:nonzero;fill:url(#radial0);" d="M 111.136719 106.84375 L 121.71875 106.84375 L 121.71875 117.429688 L 111.136719 117.429688 Z M 111.136719 106.84375 "/>
<path style=" stroke:none;fill-rule:nonzero;fill:url(#radial1);" d="M 5.292969 106.84375 L 15.875 106.84375 L 15.875 117.429688 L 5.292969 117.429688 Z M 5.292969 106.84375 "/>
<path style=" stroke:none;fill-rule:nonzero;fill:url(#linear1);" d="M 58.214844 22.167969 L 116.429688 22.167969 L 116.429688 27.460938 L 58.214844 27.460938 Z M 58.214844 22.167969 "/>
<path style="fill-rule:nonzero;fill:url(#linear2);stroke-width:2;stroke-linecap:butt;stroke-linejoin:miter;stroke:rgb(30.19608%,30.19608%,30.19608%);stroke-opacity:1;stroke-miterlimit:4;" d="M 31.746968 -105.166739 L 476.251395 -105.166739 C 482.094587 -105.166739 486.82851 -100.432816 486.82851 -94.589624 L 486.82851 222.911307 C 486.82851 228.754499 482.094587 233.504045 476.251395 233.504045 L 31.746968 233.504045 C 25.903776 233.504045 21.169853 228.754499 21.169853 222.911307 L 21.169853 -94.589624 C 21.169853 -100.432816 25.903776 -105.166739 31.746968 -105.166739 Z M 31.746968 -105.166739 " transform="matrix(0.250024,0,0,0.250024,0,53.755133)"/>
<path style=" stroke:none;fill-rule:nonzero;fill:rgb(100%,100%,100%);fill-opacity:0.196078;" d="M 7.9375 27.460938 C 6.472656 27.460938 5.292969 28.640625 5.292969 30.105469 L 5.292969 31.429688 C 5.292969 29.964844 6.472656 28.785156 7.9375 28.785156 L 119.074219 28.785156 C 120.539062 28.785156 121.71875 29.964844 121.71875 31.429688 L 121.71875 30.105469 C 121.71875 28.640625 120.539062 27.460938 119.074219 27.460938 Z M 7.9375 27.460938 "/>
<path style=" stroke:none;fill-rule:nonzero;fill:rgb(0%,0%,0%);fill-opacity:0.196078;" d="M 7.9375 112.136719 C 6.472656 112.136719 5.292969 110.957031 5.292969 109.488281 L 5.292969 108.167969 C 5.292969 109.632812 6.472656 110.8125 7.9375 110.8125 L 119.074219 110.8125 C 120.539062 110.8125 121.71875 109.632812 121.71875 108.167969 L 121.71875 109.488281 C 121.71875 110.957031 120.539062 112.136719 119.074219 112.136719 Z M 7.9375 112.136719 "/>
<path style=" stroke:none;fill-rule:nonzero;fill:rgb(100%,100%,100%);fill-opacity:0.27451;" d="M 60.859375 19.523438 C 59.394531 19.523438 58.214844 20.703125 58.214844 22.167969 L 58.214844 23.492188 C 58.214844 22.027344 59.394531 20.84375 60.859375 20.84375 L 113.78125 20.84375 C 115.246094 20.84375 116.429688 22.027344 116.429688 23.492188 L 116.429688 22.167969 C 116.429688 20.703125 115.246094 19.523438 113.78125 19.523438 Z M 60.859375 19.523438 "/>
<path style="fill-rule:nonzero;fill:url(#linear3);stroke-width:0.264583;stroke-linecap:butt;stroke-linejoin:miter;stroke:rgb(74.509805%,78.431374%,71.764708%);stroke-opacity:1;stroke-miterlimit:4;" d="M 243.414255 -136.913707 C 237.55544 -136.913707 232.83714 -132.195407 232.83714 -126.336592 L 232.83714 -105.166739 L 465.67428 -105.166739 L 465.67428 -126.336592 C 465.67428 -132.195407 460.940357 -136.913707 455.081542 -136.913707 Z M 243.414255 -136.913707 " transform="matrix(0.250024,0,0,0.250024,0,53.755133)"/>
<path style=" stroke:none;fill-rule:nonzero;fill:rgb(20%,20%,20%);fill-opacity:1;" d="M 63.507812 98.90625 C 64.96875 98.90625 66.152344 100.089844 66.152344 101.550781 C 66.152344 103.011719 64.96875 104.199219 63.507812 104.199219 C 62.042969 104.199219 60.859375 103.011719 60.859375 101.550781 C 60.859375 100.089844 62.042969 98.90625 63.507812 98.90625 Z M 63.507812 98.90625 "/>
<path style=" stroke:none;fill-rule:nonzero;fill:rgb(20%,20%,20%);fill-opacity:1;" d="M 74.089844 98.90625 C 75.550781 98.90625 76.738281 100.089844 76.738281 101.550781 C 76.738281 103.011719 75.550781 104.199219 74.089844 104.199219 C 72.628906 104.199219 71.445312 103.011719 71.445312 101.550781 C 71.445312 100.089844 72.628906 98.90625 74.089844 98.90625 Z M 74.089844 98.90625 "/>
<path style=" stroke:none;fill-rule:nonzero;fill:rgb(20%,20%,20%);fill-opacity:1;" d="M 52.921875 98.90625 C 54.382812 98.90625 55.566406 100.089844 55.566406 101.550781 C 55.566406 103.011719 54.382812 104.199219 52.921875 104.199219 C 51.460938 104.199219 50.277344 103.011719 50.277344 101.550781 C 50.277344 100.089844 51.460938 98.90625 52.921875 98.90625 Z M 52.921875 98.90625 "/>
<path style=" stroke:none;fill-rule:nonzero;fill:rgb(57.647061%,67.450982%,61.56863%);fill-opacity:1;" d="M 74.089844 104.859375 C 72.625 104.859375 71.445312 103.679688 71.445312 102.210938 C 71.445312 102.101562 71.453125 101.992188 71.464844 101.882812 C 71.628906 103.191406 72.738281 104.199219 74.089844 104.199219 C 75.445312 104.199219 76.554688 103.191406 76.714844 101.882812 C 76.730469 101.992188 76.738281 102.101562 76.738281 102.210938 C 76.738281 103.679688 75.554688 104.859375 74.089844 104.859375 Z M 74.089844 104.859375 "/>
<path style=" stroke:none;fill-rule:nonzero;fill:rgb(100%,100%,100%);fill-opacity:0.196078;" d="M 74.089844 104.859375 C 72.625 104.859375 71.445312 103.679688 71.445312 102.210938 C 71.445312 102.101562 71.453125 101.992188 71.464844 101.882812 C 71.628906 103.191406 72.738281 104.199219 74.089844 104.199219 C 75.445312 104.199219 76.554688 103.191406 76.714844 101.882812 C 76.730469 101.992188 76.738281 102.101562 76.738281 102.210938 C 76.738281 103.679688 75.554688 104.859375 74.089844 104.859375 Z M 74.089844 104.859375 "/>
<path style=" stroke:none;fill-rule:nonzero;fill:rgb(100%,100%,100%);fill-opacity:0.196078;" d="M 63.527344 104.859375 C 62.0625 104.859375 60.882812 103.679688 60.882812 102.210938 C 60.882812 102.101562 60.890625 101.992188 60.902344 101.882812 C 61.0625 103.191406 62.171875 104.199219 63.527344 104.199219 C 64.882812 104.199219 65.988281 103.191406 66.152344 101.882812 C 66.164062 101.992188 66.171875 102.101562 66.171875 102.210938 C 66.171875 103.679688 64.992188 104.859375 63.527344 104.859375 Z M 63.527344 104.859375 "/>
<path style=" stroke:none;fill-rule:nonzero;fill:rgb(100%,100%,100%);fill-opacity:0.196078;" d="M 52.921875 104.859375 C 51.457031 104.859375 50.277344 103.679688 50.277344 102.210938 C 50.277344 102.101562 50.285156 101.992188 50.296875 101.882812 C 50.457031 103.191406 51.566406 104.199219 52.921875 104.199219 C 54.277344 104.199219 55.386719 103.191406 55.546875 101.882812 C 55.558594 101.992188 55.566406 102.101562 55.566406 102.210938 C 55.566406 103.679688 54.386719 104.859375 52.921875 104.859375 Z M 52.921875 104.859375 "/>
<path style=" stroke:none;fill-rule:nonzero;fill:rgb(0%,0%,0%);fill-opacity:0.196078;" d="M 52.921875 98.90625 C 54.386719 98.90625 55.566406 100.085938 55.566406 101.550781 C 55.566406 101.664062 55.558594 101.773438 55.546875 101.882812 C 55.386719 100.574219 54.277344 99.566406 52.921875 99.566406 C 51.566406 99.566406 50.457031 100.574219 50.296875 101.882812 C 50.285156 101.773438 50.277344 101.664062 50.277344 101.550781 C 50.277344 100.085938 51.457031 98.90625 52.921875 98.90625 Z M 52.921875 98.90625 "/>
<path style=" stroke:none;fill-rule:nonzero;fill:rgb(0%,0%,0%);fill-opacity:0.196078;" d="M 63.484375 98.90625 C 64.949219 98.90625 66.132812 100.085938 66.132812 101.550781 C 66.132812 101.664062 66.125 101.773438 66.109375 101.882812 C 65.949219 100.574219 64.839844 99.566406 63.484375 99.566406 C 62.132812 99.566406 61.023438 100.574219 60.859375 101.882812 C 60.847656 101.773438 60.839844 101.664062 60.839844 101.550781 C 60.839844 100.085938 62.019531 98.90625 63.484375 98.90625 Z M 63.484375 98.90625 "/>
<path style=" stroke:none;fill-rule:nonzero;fill:rgb(0%,0%,0%);fill-opacity:0.196078;" d="M 74.089844 98.90625 C 75.554688 98.90625 76.738281 100.085938 76.738281 101.550781 C 76.738281 101.664062 76.730469 101.773438 76.714844 101.882812 C 76.554688 100.574219 75.445312 99.566406 74.089844 99.566406 C 72.738281 99.566406 71.628906 100.574219 71.464844 101.882812 C 71.453125 101.773438 71.445312 101.664062 71.445312 101.550781 C 71.445312 100.085938 72.625 98.90625 74.089844 98.90625 Z M 74.089844 98.90625 "/>
<path style=" stroke:none;fill-rule:nonzero;fill:rgb(100%,100%,100%);fill-opacity:0.196078;" d="M 60.859375 19.523438 C 59.394531 19.523438 58.214844 20.703125 58.214844 22.167969 L 58.214844 23.492188 C 58.214844 22.027344 59.394531 20.84375 60.859375 20.84375 L 113.78125 20.84375 C 115.246094 20.84375 116.429688 22.027344 116.429688 23.492188 L 116.429688 22.167969 C 116.429688 20.703125 115.246094 19.523438 113.78125 19.523438 Z M 60.859375 19.523438 "/>
<path style=" stroke:none;fill-rule:nonzero;fill:rgb(32.549021%,33.333334%,36.470589%);fill-opacity:1;" d="M 42.335938 84.351562 L 52.921875 68.476562 L 60.859375 75.089844 L 70.121094 59.214844 L 84.675781 84.351562 Z M 42.335938 84.351562 "/>
<path style=" stroke:none;fill-rule:nonzero;fill:rgb(32.549021%,33.333334%,36.470589%);fill-opacity:1;" d="M 54.90625 48.628906 C 58.195312 48.628906 60.859375 51.296875 60.859375 54.582031 C 60.859375 57.871094 58.195312 60.535156 54.90625 60.535156 C 51.617188 60.535156 48.953125 57.871094 48.953125 54.582031 C 48.953125 51.296875 51.617188 48.628906 54.90625 48.628906 Z M 54.90625 48.628906 "/>
</g>
</svg>
