<?xml version="1.0" encoding="UTF-8"?>
<svg xmlns="http://www.w3.org/2000/svg" xmlns:xlink="http://www.w3.org/1999/xlink" width="128pt" height="128pt" viewBox="0 0 128 128" version="1.1">
<defs>
<linearGradient id="linear0" gradientUnits="userSpaceOnUse" x1="254" y1="233.5" x2="254" y2="254.666672" gradientTransform="matrix(0.250024,0,0,0.250024,0,53.755129)">
<stop offset="0" style="stop-color:rgb(0%,0%,0%);stop-opacity:0.27451;"/>
<stop offset="1" style="stop-color:rgb(0%,0%,0%);stop-opacity:0;"/>
</linearGradient>
<radialGradient id="radial0" gradientUnits="userSpaceOnUse" cx="456.200623" cy="186.933533" fx="456.200623" fy="186.933533" r="21.166656" gradientTransform="matrix(0.000000354071,0.500048,-0.500048,0.000000344404,204.611167,-121.278705)">
<stop offset="0" style="stop-color:rgb(0%,0%,0%);stop-opacity:0.313725;"/>
<stop offset="0.499999" style="stop-color:rgb(0%,0%,0%);stop-opacity:0.27451;"/>
<stop offset="1" style="stop-color:rgb(0%,0%,0%);stop-opacity:0;"/>
</radialGradient>
<radialGradient id="radial1" gradientUnits="userSpaceOnUse" cx="63.5" cy="212.333359" fx="63.5" fy="212.333359" r="21.166666" gradientTransform="matrix(-0.500048,0.000000148544,-0.000000148544,-0.500048,47.629582,213.020367)">
<stop offset="0" style="stop-color:rgb(0%,0%,0%);stop-opacity:0.313725;"/>
<stop offset="0.499999" style="stop-color:rgb(0%,0%,0%);stop-opacity:0.27451;"/>
<stop offset="1" style="stop-color:rgb(0%,0%,0%);stop-opacity:0;"/>
</radialGradient>
<linearGradient id="linear1" gradientUnits="userSpaceOnUse" x1="254" y1="233.5" x2="254" y2="254.666672" gradientTransform="matrix(0.250024,0,0,0.250024,0,43.170786)">
<stop offset="0" style="stop-color:rgb(0%,0%,0%);stop-opacity:0.196078;"/>
<stop offset="1" style="stop-color:rgb(0%,0%,0%);stop-opacity:0;"/>
</linearGradient>
<radialGradient id="radial2" gradientUnits="userSpaceOnUse" cx="63.5" cy="212.333359" fx="63.5" fy="212.333359" r="21.166666" gradientTransform="matrix(-0.500048,0.000000148544,-0.000000148544,-0.500048,47.629582,202.436017)">
<stop offset="0" style="stop-color:rgb(0%,0%,0%);stop-opacity:0.313725;"/>
<stop offset="0.499999" style="stop-color:rgb(0%,0%,0%);stop-opacity:0.196078;"/>
<stop offset="1" style="stop-color:rgb(0%,0%,0%);stop-opacity:0;"/>
</radialGradient>
<linearGradient id="linear2" gradientUnits="userSpaceOnUse" x1="254" y1="233.5" x2="254" y2="-105.166656" gradientTransform="matrix(1,0,0,1,-0.0000138509,-63.50013)">
<stop offset="0" style="stop-color:rgb(71.764706%,73.333333%,77.647059%);stop-opacity:1;"/>
<stop offset="1" style="stop-color:rgb(80%,81.568627%,84.313725%);stop-opacity:1;"/>
</linearGradient>
</defs>
<g id="surface1">
<path style=" stroke:none;fill-rule:nonzero;fill:url(#linear0);" d="M 15.875 112.136719 L 111.136719 112.136719 L 111.136719 117.429688 L 15.875 117.429688 Z M 15.875 112.136719 "/>
<path style=" stroke:none;fill-rule:nonzero;fill:url(#radial0);" d="M 111.136719 106.84375 L 121.71875 106.84375 L 121.71875 117.429688 L 111.136719 117.429688 Z M 111.136719 106.84375 "/>
<path style=" stroke:none;fill-rule:nonzero;fill:url(#radial1);" d="M 5.292969 106.84375 L 15.875 106.84375 L 15.875 117.429688 L 5.292969 117.429688 Z M 5.292969 106.84375 "/>
<path style=" stroke:none;fill-rule:nonzero;fill:url(#linear1);" d="M 15.875 101.550781 L 111.136719 101.550781 L 111.136719 106.84375 L 15.875 106.84375 Z M 15.875 101.550781 "/>
<path style=" stroke:none;fill-rule:nonzero;fill:url(#radial2);" d="M 5.292969 96.257812 L 15.875 96.257812 L 15.875 106.84375 L 5.292969 106.84375 Z M 5.292969 96.257812 "/>
<path style="fill-rule:nonzero;fill:url(#linear2);stroke-width:2;stroke-linecap:butt;stroke-linejoin:miter;stroke:rgb(30.19608%,30.19608%,30.19608%);stroke-opacity:1;stroke-miterlimit:4;" d="M 42.339707 -168.660675 L 465.67428 -168.660675 C 477.360664 -168.660675 486.82851 -159.192829 486.82851 -147.506445 L 486.82851 212.334192 C 486.82851 224.020576 477.360664 233.504045 465.67428 233.504045 L 42.339707 233.504045 C 30.637699 233.504045 21.169853 224.020576 21.169853 212.334192 L 21.169853 -147.506445 C 21.169853 -159.192829 30.637699 -168.660675 42.339707 -168.660675 Z M 42.339707 -168.660675 " transform="matrix(0.250024,0,0,0.250024,0,53.755133)"/>
<path style=" stroke:none;fill-rule:nonzero;fill:rgb(100%,100%,100%);fill-opacity:0.196078;" d="M 10.585938 11.585938 C 7.652344 11.585938 5.292969 13.945312 5.292969 16.875 L 5.292969 18.199219 C 5.292969 15.269531 7.652344 12.90625 10.585938 12.90625 L 116.429688 12.90625 C 119.359375 12.90625 121.71875 15.269531 121.71875 18.199219 L 121.71875 16.875 C 121.71875 13.945312 119.359375 11.585938 116.429688 11.585938 Z M 10.585938 11.585938 "/>
<path style=" stroke:none;fill-rule:nonzero;fill:rgb(0%,0%,0%);fill-opacity:0.0784314;" d="M 116.429688 112.136719 C 119.359375 112.136719 121.71875 109.777344 121.71875 106.84375 L 121.71875 101.550781 C 121.71875 105.214844 119.359375 109.488281 116.429688 109.488281 L 10.585938 109.488281 C 7.652344 109.488281 5.292969 105.214844 5.292969 101.550781 L 5.292969 106.84375 C 5.292969 109.777344 7.652344 112.136719 10.585938 112.136719 Z M 116.429688 112.136719 "/>
<path style=" stroke:none;fill-rule:nonzero;fill:rgb(100%,100%,100%);fill-opacity:0.196078;" d="M 31.753906 -1.644531 C 28.820312 -1.644531 26.460938 0.714844 26.460938 3.644531 L 26.460938 8.9375 C 26.460938 5.273438 28.820312 1 31.753906 1 L 137.597656 1 C 140.527344 1 142.886719 5.273438 142.886719 8.9375 L 142.886719 3.644531 C 142.886719 0.714844 140.527344 -1.644531 137.597656 -1.644531 Z M 31.753906 -1.644531 "/>
<path style=" stroke:none;fill-rule:nonzero;fill:rgb(32.549021%,33.333334%,36.470589%);fill-opacity:1;" d="M 44.984375 60.070312 C 44.984375 68.617188 50.519531 75.824219 58.214844 78.316406 L 58.214844 72.792969 C 53.511719 70.542969 50.277344 65.703125 50.277344 60.070312 C 50.277344 52.277344 56.46875 46.003906 64.160156 46.003906 C 71.851562 46.003906 78.042969 52.277344 78.042969 60.070312 C 78.042969 64.5625 75.984375 68.550781 72.765625 71.121094 L 72.765625 77.234375 C 79.054688 74.09375 83.351562 67.601562 83.351562 60.070312 C 83.351562 49.441406 74.796875 40.886719 64.167969 40.886719 C 53.539062 40.886719 44.984375 49.441406 44.984375 60.070312 Z M 44.984375 60.070312 "/>
<path style=" stroke:none;fill-rule:nonzero;fill:rgb(32.549021%,33.333334%,36.470589%);fill-opacity:1;" d="M 62.183594 78.59375 L 57.550781 69.332031 L 51.597656 78.59375 Z M 62.183594 78.59375 "/>
<path style=" stroke:none;fill-rule:nonzero;fill:rgb(32.549021%,33.333334%,36.470589%);fill-opacity:1;" d="M 14.554688 24.816406 C 16.746094 24.816406 18.523438 26.59375 18.523438 28.785156 C 18.523438 30.976562 16.746094 32.753906 14.554688 32.753906 C 12.363281 32.753906 10.585938 30.976562 10.585938 28.785156 C 10.585938 26.59375 12.363281 24.816406 14.554688 24.816406 Z M 14.554688 24.816406 "/>
<path style=" stroke:none;fill-rule:nonzero;fill:rgb(32.549021%,33.333334%,36.470589%);fill-opacity:1;" d="M 14.554688 90.96875 C 16.746094 90.96875 18.523438 92.742188 18.523438 94.9375 C 18.523438 97.128906 16.746094 98.90625 14.554688 98.90625 C 12.363281 98.90625 10.585938 97.128906 10.585938 94.9375 C 10.585938 92.742188 12.363281 90.96875 14.554688 90.96875 Z M 14.554688 90.96875 "/>
<path style=" stroke:none;fill-rule:nonzero;fill:rgb(32.549021%,33.333334%,36.470589%);fill-opacity:1;" d="M 14.554688 38.046875 C 16.746094 38.046875 18.523438 39.824219 18.523438 42.015625 C 18.523438 44.207031 16.746094 45.984375 14.554688 45.984375 C 12.363281 45.984375 10.585938 44.207031 10.585938 42.015625 C 10.585938 39.824219 12.363281 38.046875 14.554688 38.046875 Z M 14.554688 38.046875 "/>
<path style=" stroke:none;fill-rule:nonzero;fill:rgb(32.549021%,33.333334%,36.470589%);fill-opacity:1;" d="M 14.554688 77.738281 C 16.746094 77.738281 18.523438 79.511719 18.523438 81.707031 C 18.523438 83.898438 16.746094 85.675781 14.554688 85.675781 C 12.363281 85.675781 10.585938 83.898438 10.585938 81.707031 C 10.585938 79.511719 12.363281 77.738281 14.554688 77.738281 Z M 14.554688 77.738281 "/>
<path style=" stroke:none;fill-rule:nonzero;fill:rgb(32.549021%,33.333334%,36.470589%);fill-opacity:1;" d="M 14.554688 64.507812 C 16.746094 64.507812 18.523438 66.28125 18.523438 68.476562 C 18.523438 70.667969 16.746094 72.445312 14.554688 72.445312 C 12.363281 72.445312 10.585938 70.667969 10.585938 68.476562 C 10.585938 66.28125 12.363281 64.507812 14.554688 64.507812 Z M 14.554688 64.507812 "/>
<path style=" stroke:none;fill-rule:nonzero;fill:rgb(32.549021%,33.333334%,36.470589%);fill-opacity:1;" d="M 14.554688 51.277344 C 16.746094 51.277344 18.523438 53.054688 18.523438 55.246094 C 18.523438 57.4375 16.746094 59.214844 14.554688 59.214844 C 12.363281 59.214844 10.585938 57.4375 10.585938 55.246094 C 10.585938 53.054688 12.363281 51.277344 14.554688 51.277344 Z M 14.554688 51.277344 "/>
<path style=" stroke:none;fill-rule:nonzero;fill:rgb(32.549021%,33.333334%,36.470589%);fill-opacity:1;" d="M 112.457031 24.816406 C 114.652344 24.816406 116.429688 26.59375 116.429688 28.785156 C 116.429688 30.976562 114.652344 32.753906 112.457031 32.753906 C 110.265625 32.753906 108.488281 30.976562 108.488281 28.785156 C 108.488281 26.59375 110.265625 24.816406 112.457031 24.816406 Z M 112.457031 24.816406 "/>
<path style=" stroke:none;fill-rule:nonzero;fill:rgb(32.549021%,33.333334%,36.470589%);fill-opacity:1;" d="M 112.457031 90.96875 C 114.652344 90.96875 116.429688 92.742188 116.429688 94.9375 C 116.429688 97.128906 114.652344 98.90625 112.457031 98.90625 C 110.265625 98.90625 108.488281 97.128906 108.488281 94.9375 C 108.488281 92.742188 110.265625 90.96875 112.457031 90.96875 Z M 112.457031 90.96875 "/>
<path style=" stroke:none;fill-rule:nonzero;fill:rgb(32.549021%,33.333334%,36.470589%);fill-opacity:1;" d="M 112.457031 38.046875 C 114.652344 38.046875 116.429688 39.824219 116.429688 42.015625 C 116.429688 44.207031 114.652344 45.984375 112.457031 45.984375 C 110.265625 45.984375 108.488281 44.207031 108.488281 42.015625 C 108.488281 39.824219 110.265625 38.046875 112.457031 38.046875 Z M 112.457031 38.046875 "/>
<path style=" stroke:none;fill-rule:nonzero;fill:rgb(32.549021%,33.333334%,36.470589%);fill-opacity:1;" d="M 112.457031 77.738281 C 114.652344 77.738281 116.429688 79.511719 116.429688 81.707031 C 116.429688 83.898438 114.652344 85.675781 112.457031 85.675781 C 110.265625 85.675781 108.488281 83.898438 108.488281 81.707031 C 108.488281 79.511719 110.265625 77.738281 112.457031 77.738281 Z M 112.457031 77.738281 "/>
<path style=" stroke:none;fill-rule:nonzero;fill:rgb(32.549021%,33.333334%,36.470589%);fill-opacity:1;" d="M 112.457031 64.507812 C 114.652344 64.507812 116.429688 66.28125 116.429688 68.476562 C 116.429688 70.667969 114.652344 72.445312 112.457031 72.445312 C 110.265625 72.445312 108.488281 70.667969 108.488281 68.476562 C 108.488281 66.28125 110.265625 64.507812 112.457031 64.507812 Z M 112.457031 64.507812 "/>
<path style=" stroke:none;fill-rule:nonzero;fill:rgb(32.549021%,33.333334%,36.470589%);fill-opacity:1;" d="M 112.457031 51.277344 C 114.652344 51.277344 116.429688 53.054688 116.429688 55.246094 C 116.429688 57.4375 114.652344 59.214844 112.457031 59.214844 C 110.265625 59.214844 108.488281 57.4375 108.488281 55.246094 C 108.488281 53.054688 110.265625 51.277344 112.457031 51.277344 Z M 112.457031 51.277344 "/>
</g>
</svg>
