<?xml version="1.0" encoding="UTF-8"?>
<svg xmlns="http://www.w3.org/2000/svg" xmlns:xlink="http://www.w3.org/1999/xlink" width="128pt" height="128pt" viewBox="0 0 128 128" version="1.1">
<defs>
<linearGradient id="linear0" gradientUnits="userSpaceOnUse" x1="365.125" y1="-105.166672" x2="365.125" y2="-136.916672" gradientTransform="matrix(1.818182,0,0,1,-381,227.477417)">
<stop offset="0" style="stop-color:rgb(32.54902%,33.333333%,36.470588%);stop-opacity:1;"/>
<stop offset="1" style="stop-color:rgb(36.470588%,37.647059%,40.784314%);stop-opacity:1;"/>
</linearGradient>
<linearGradient id="linear1" gradientUnits="userSpaceOnUse" x1="254" y1="233.5" x2="254" y2="254.666672" gradientTransform="matrix(0.250024,0,0,0.250024,0,53.755133)">
<stop offset="0" style="stop-color:rgb(0%,0%,0%);stop-opacity:0.27451;"/>
<stop offset="1" style="stop-color:rgb(0%,0%,0%);stop-opacity:0;"/>
</linearGradient>
<radialGradient id="radial0" gradientUnits="userSpaceOnUse" cx="456.200623" cy="186.933533" fx="456.200623" fy="186.933533" r="21.166656" gradientTransform="matrix(0.000000354071,0.500048,-0.500048,0.000000344404,204.611167,-121.278701)">
<stop offset="0" style="stop-color:rgb(0%,0%,0%);stop-opacity:0.313725;"/>
<stop offset="0.499999" style="stop-color:rgb(0%,0%,0%);stop-opacity:0.27451;"/>
<stop offset="1" style="stop-color:rgb(0%,0%,0%);stop-opacity:0;"/>
</radialGradient>
<radialGradient id="radial1" gradientUnits="userSpaceOnUse" cx="63.5" cy="212.333359" fx="63.5" fy="212.333359" r="21.166666" gradientTransform="matrix(-0.500048,0.000000148544,-0.000000148544,-0.500048,47.629582,213.020371)">
<stop offset="0" style="stop-color:rgb(0%,0%,0%);stop-opacity:0.313725;"/>
<stop offset="0.499999" style="stop-color:rgb(0%,0%,0%);stop-opacity:0.27451;"/>
<stop offset="1" style="stop-color:rgb(0%,0%,0%);stop-opacity:0;"/>
</radialGradient>
<linearGradient id="linear2" gradientUnits="userSpaceOnUse" x1="254" y1="233.5" x2="254" y2="-105.166656" gradientTransform="matrix(1,0,0,1,0.000019443,-0.0000178019)">
<stop offset="0" style="stop-color:rgb(71.764706%,73.333333%,77.647059%);stop-opacity:1;"/>
<stop offset="1" style="stop-color:rgb(80%,81.568627%,84.313725%);stop-opacity:1;"/>
</linearGradient>
<linearGradient id="linear3" gradientUnits="userSpaceOnUse" x1="365.125" y1="-105.166672" x2="365.125" y2="-136.916672" gradientTransform="matrix(1.818182,0,0,1,-381,79.375008)">
<stop offset="0" style="stop-color:rgb(32.54902%,33.333333%,36.470588%);stop-opacity:1;"/>
<stop offset="1" style="stop-color:rgb(36.470588%,37.647059%,40.784314%);stop-opacity:1;"/>
</linearGradient>
<linearGradient id="linear4" gradientUnits="userSpaceOnUse" x1="254" y1="233.5" x2="254" y2="254.666672" gradientTransform="matrix(0.250024,0,0,0.250024,0,-21.658318)">
<stop offset="0" style="stop-color:rgb(0%,0%,0%);stop-opacity:0.27451;"/>
<stop offset="1" style="stop-color:rgb(0%,0%,0%);stop-opacity:0;"/>
</linearGradient>
<radialGradient id="radial2" gradientUnits="userSpaceOnUse" cx="456.200623" cy="186.933533" fx="456.200623" fy="186.933533" r="21.166656" gradientTransform="matrix(0.000000354071,0.500048,-0.500048,0.000000344404,204.611167,-196.692152)">
<stop offset="0" style="stop-color:rgb(0%,0%,0%);stop-opacity:0.313725;"/>
<stop offset="0.499999" style="stop-color:rgb(0%,0%,0%);stop-opacity:0.27451;"/>
<stop offset="1" style="stop-color:rgb(0%,0%,0%);stop-opacity:0;"/>
</radialGradient>
<radialGradient id="radial3" gradientUnits="userSpaceOnUse" cx="63.5" cy="212.333359" fx="63.5" fy="212.333359" r="21.166666" gradientTransform="matrix(-0.500048,0.000000148544,-0.000000148544,-0.500048,47.629582,137.60692)">
<stop offset="0" style="stop-color:rgb(0%,0%,0%);stop-opacity:0.313725;"/>
<stop offset="0.499999" style="stop-color:rgb(0%,0%,0%);stop-opacity:0.27451;"/>
<stop offset="1" style="stop-color:rgb(0%,0%,0%);stop-opacity:0;"/>
</radialGradient>
<linearGradient id="linear5" gradientUnits="userSpaceOnUse" x1="254" y1="233.5" x2="254" y2="-105.166656" gradientTransform="matrix(1,0,0,1,0.000019443,-0.0000178019)">
<stop offset="0" style="stop-color:rgb(71.764706%,73.333333%,77.647059%);stop-opacity:1;"/>
<stop offset="1" style="stop-color:rgb(80%,81.568627%,84.313725%);stop-opacity:1;"/>
</linearGradient>
<linearGradient id="linear6" gradientUnits="userSpaceOnUse" x1="254" y1="233.5" x2="254" y2="254.666672" gradientTransform="matrix(0.250024,0,0,0.250024,0,16.709928)">
<stop offset="0" style="stop-color:rgb(0%,0%,0%);stop-opacity:0.27451;"/>
<stop offset="1" style="stop-color:rgb(0%,0%,0%);stop-opacity:0;"/>
</linearGradient>
<radialGradient id="radial4" gradientUnits="userSpaceOnUse" cx="456.200623" cy="186.933533" fx="456.200623" fy="186.933533" r="21.166656" gradientTransform="matrix(0.000000354071,0.500048,-0.500048,0.000000344404,204.611167,-158.323906)">
<stop offset="0" style="stop-color:rgb(0%,0%,0%);stop-opacity:0.313725;"/>
<stop offset="0.499999" style="stop-color:rgb(0%,0%,0%);stop-opacity:0.27451;"/>
<stop offset="1" style="stop-color:rgb(0%,0%,0%);stop-opacity:0;"/>
</radialGradient>
<radialGradient id="radial5" gradientUnits="userSpaceOnUse" cx="63.5" cy="212.333359" fx="63.5" fy="212.333359" r="21.166666" gradientTransform="matrix(-0.500048,0.000000148544,-0.000000148544,-0.500048,47.629582,175.975166)">
<stop offset="0" style="stop-color:rgb(0%,0%,0%);stop-opacity:0.313725;"/>
<stop offset="0.499999" style="stop-color:rgb(0%,0%,0%);stop-opacity:0.27451;"/>
<stop offset="1" style="stop-color:rgb(0%,0%,0%);stop-opacity:0;"/>
</radialGradient>
<linearGradient id="linear7" gradientUnits="userSpaceOnUse" x1="254" y1="233.5" x2="254" y2="-105.166656" gradientTransform="matrix(1,0,0,1,0.000019443,-0.0000178019)">
<stop offset="0" style="stop-color:rgb(71.764706%,73.333333%,77.647059%);stop-opacity:1;"/>
<stop offset="1" style="stop-color:rgb(80%,81.568627%,84.313725%);stop-opacity:1;"/>
</linearGradient>
</defs>
<g id="surface1">
<path style="fill-rule:nonzero;fill:url(#linear0);stroke-width:0.356764;stroke-linecap:butt;stroke-linejoin:miter;stroke:rgb(74.509805%,78.431374%,71.764708%);stroke-opacity:1;stroke-miterlimit:4;" d="M 61.572245 64.160841 C 50.917013 64.160841 42.339707 68.879141 42.339707 74.75358 L 42.339707 122.311538 L 465.67428 122.311538 L 465.67428 74.75358 C 465.67428 68.879141 457.081351 64.160841 446.426118 64.160841 Z M 61.572245 64.160841 " transform="matrix(0.250024,0,0,0.250024,0,53.755133)"/>
<path style=" stroke:none;fill-rule:nonzero;fill:url(#linear1);" d="M 15.875 112.136719 L 111.136719 112.136719 L 111.136719 117.429688 L 15.875 117.429688 Z M 15.875 112.136719 "/>
<path style=" stroke:none;fill-rule:nonzero;fill:url(#radial0);" d="M 111.136719 106.84375 L 121.71875 106.84375 L 121.71875 117.429688 L 111.136719 117.429688 Z M 111.136719 106.84375 "/>
<path style=" stroke:none;fill-rule:nonzero;fill:url(#radial1);" d="M 5.292969 106.84375 L 15.875 106.84375 L 15.875 117.429688 L 5.292969 117.429688 Z M 5.292969 106.84375 "/>
<path style="fill-rule:nonzero;fill:url(#linear2);stroke-width:2;stroke-linecap:butt;stroke-linejoin:miter;stroke:rgb(30.19608%,30.19608%,30.19608%);stroke-opacity:1;stroke-miterlimit:4;" d="M 31.746968 122.374032 L 476.251395 122.374032 C 482.094587 122.374032 486.82851 127.107955 486.82851 132.951147 L 486.82851 222.911307 C 486.82851 228.754499 482.094587 233.504045 476.251395 233.504045 L 31.746968 233.504045 C 25.903776 233.504045 21.169853 228.754499 21.169853 222.911307 L 21.169853 132.951147 C 21.169853 127.107955 25.903776 122.374032 31.746968 122.374032 Z M 31.746968 122.374032 " transform="matrix(0.250024,0,0,0.250024,0,53.755133)"/>
<path style=" stroke:none;fill-rule:nonzero;fill:rgb(100%,100%,100%);fill-opacity:0.196078;" d="M 7.9375 84.351562 C 6.472656 84.351562 5.292969 85.53125 5.292969 86.996094 L 5.292969 88.320312 C 5.292969 86.855469 6.472656 85.675781 7.9375 85.675781 L 119.074219 85.675781 C 120.539062 85.675781 121.71875 86.855469 121.71875 88.320312 L 121.71875 86.996094 C 121.71875 85.53125 120.539062 84.351562 119.074219 84.351562 Z M 7.9375 84.351562 "/>
<path style=" stroke:none;fill-rule:nonzero;fill:rgb(0%,0%,0%);fill-opacity:0.196078;" d="M 7.9375 112.136719 C 6.472656 112.136719 5.292969 110.957031 5.292969 109.488281 L 5.292969 108.167969 C 5.292969 109.632812 6.472656 110.8125 7.9375 110.8125 L 119.074219 110.8125 C 120.539062 110.8125 121.71875 109.632812 121.71875 108.167969 L 121.71875 109.488281 C 121.71875 110.957031 120.539062 112.136719 119.074219 112.136719 Z M 7.9375 112.136719 "/>
<path style=" stroke:none;fill-rule:nonzero;fill:rgb(100%,100%,100%);fill-opacity:0.27451;" d="M 60.859375 19.523438 C 59.394531 19.523438 58.214844 20.703125 58.214844 22.167969 L 58.214844 23.492188 C 58.214844 22.027344 59.394531 20.84375 60.859375 20.84375 L 113.78125 20.84375 C 115.246094 20.84375 116.429688 22.027344 116.429688 23.492188 L 116.429688 22.167969 C 116.429688 20.703125 115.246094 19.523438 113.78125 19.523438 Z M 60.859375 19.523438 "/>
<path style="fill-rule:nonzero;fill:url(#linear3);stroke-width:0.356764;stroke-linecap:butt;stroke-linejoin:miter;stroke:rgb(74.509805%,78.431374%,71.764708%);stroke-opacity:1;stroke-miterlimit:4;" d="M 61.572245 -83.934391 C 50.917013 -83.934391 42.339707 -79.216092 42.339707 -73.357276 L 42.339707 -25.799318 L 465.67428 -25.799318 L 465.67428 -73.357276 C 465.67428 -79.216092 457.081351 -83.934391 446.426118 -83.934391 Z M 61.572245 -83.934391 " transform="matrix(0.250024,0,0,0.250024,0,53.755133)"/>
<path style=" stroke:none;fill-rule:nonzero;fill:url(#linear4);" d="M 15.875 36.722656 L 111.136719 36.722656 L 111.136719 42.015625 L 15.875 42.015625 Z M 15.875 36.722656 "/>
<path style=" stroke:none;fill-rule:nonzero;fill:url(#radial2);" d="M 111.136719 31.429688 L 121.71875 31.429688 L 121.71875 42.015625 L 111.136719 42.015625 Z M 111.136719 31.429688 "/>
<path style=" stroke:none;fill-rule:nonzero;fill:url(#radial3);" d="M 5.292969 31.429688 L 15.875 31.429688 L 15.875 42.015625 L 5.292969 42.015625 Z M 5.292969 31.429688 "/>
<path style="fill-rule:nonzero;fill:url(#linear5);stroke-width:2;stroke-linecap:butt;stroke-linejoin:miter;stroke:rgb(30.19608%,30.19608%,30.19608%);stroke-opacity:1;stroke-miterlimit:4;" d="M 31.746968 122.371586 L 476.251395 122.371586 C 482.094587 122.371586 486.82851 127.105509 486.82851 132.964325 L 486.82851 222.908861 C 486.82851 228.767676 482.094587 233.501599 476.251395 233.501599 L 31.746968 233.501599 C 25.903776 233.501599 21.169853 228.767676 21.169853 222.908861 L 21.169853 132.964325 C 21.169853 127.105509 25.903776 122.371586 31.746968 122.371586 Z M 31.746968 122.371586 " transform="matrix(0.250024,0,0,0.250024,0,-21.658318)"/>
<path style=" stroke:none;fill-rule:nonzero;fill:rgb(100%,100%,100%);fill-opacity:0.196078;" d="M 7.9375 8.9375 C 6.472656 8.9375 5.292969 10.117188 5.292969 11.585938 L 5.292969 12.90625 C 5.292969 11.441406 6.472656 10.261719 7.9375 10.261719 L 119.074219 10.261719 C 120.539062 10.261719 121.71875 11.441406 121.71875 12.90625 L 121.71875 11.585938 C 121.71875 10.117188 120.539062 8.9375 119.074219 8.9375 Z M 7.9375 8.9375 "/>
<path style=" stroke:none;fill-rule:nonzero;fill:rgb(0%,0%,0%);fill-opacity:0.196078;" d="M 7.9375 36.722656 C 6.472656 36.722656 5.292969 35.542969 5.292969 34.078125 L 5.292969 32.753906 C 5.292969 34.21875 6.472656 35.398438 7.9375 35.398438 L 119.074219 35.398438 C 120.539062 35.398438 121.71875 34.21875 121.71875 32.753906 L 121.71875 34.078125 C 121.71875 35.542969 120.539062 36.722656 119.074219 36.722656 Z M 7.9375 36.722656 "/>
<path style=" stroke:none;fill-rule:nonzero;fill:url(#linear6);" d="M 15.875 75.089844 L 111.136719 75.089844 L 111.136719 80.382812 L 15.875 80.382812 Z M 15.875 75.089844 "/>
<path style=" stroke:none;fill-rule:nonzero;fill:url(#radial4);" d="M 111.136719 69.796875 L 121.71875 69.796875 L 121.71875 80.382812 L 111.136719 80.382812 Z M 111.136719 69.796875 "/>
<path style=" stroke:none;fill-rule:nonzero;fill:url(#radial5);" d="M 5.292969 69.796875 L 15.875 69.796875 L 15.875 80.382812 L 5.292969 80.382812 Z M 5.292969 69.796875 "/>
<path style="fill-rule:nonzero;fill:url(#linear7);stroke-width:2;stroke-linecap:butt;stroke-linejoin:miter;stroke:rgb(30.19608%,30.19608%,30.19608%);stroke-opacity:1;stroke-miterlimit:4;" d="M 31.746968 122.367354 L 476.251395 122.367354 C 482.094587 122.367354 486.82851 127.1169 486.82851 132.960092 L 486.82851 222.920252 C 486.82851 228.763444 482.094587 233.497367 476.251395 233.497367 L 31.746968 233.497367 C 25.903776 233.497367 21.169853 228.763444 21.169853 222.920252 L 21.169853 132.960092 C 21.169853 127.1169 25.903776 122.367354 31.746968 122.367354 Z M 31.746968 122.367354 " transform="matrix(0.250024,0,0,0.250024,0,16.709928)"/>
<path style=" stroke:none;fill-rule:nonzero;fill:rgb(100%,100%,100%);fill-opacity:0.196078;" d="M 7.9375 47.308594 C 6.472656 47.308594 5.292969 48.488281 5.292969 49.953125 L 5.292969 51.277344 C 5.292969 49.808594 6.472656 48.628906 7.9375 48.628906 L 119.074219 48.628906 C 120.539062 48.628906 121.71875 49.808594 121.71875 51.277344 L 121.71875 49.953125 C 121.71875 48.488281 120.539062 47.308594 119.074219 47.308594 Z M 7.9375 47.308594 "/>
<path style=" stroke:none;fill-rule:nonzero;fill:rgb(0%,0%,0%);fill-opacity:0.196078;" d="M 7.9375 75.089844 C 6.472656 75.089844 5.292969 73.910156 5.292969 72.445312 L 5.292969 71.121094 C 5.292969 72.585938 6.472656 73.769531 7.9375 73.769531 L 119.074219 73.769531 C 120.539062 73.769531 121.71875 72.585938 121.71875 71.121094 L 121.71875 72.445312 C 121.71875 73.910156 120.539062 75.089844 119.074219 75.089844 Z M 7.9375 75.089844 "/>
<path style=" stroke:none;fill-rule:nonzero;fill:rgb(20%,20%,20%);fill-opacity:1;" d="M 23.855469 58.550781 C 25.316406 58.550781 26.503906 59.738281 26.503906 61.199219 C 26.503906 62.660156 25.316406 63.84375 23.855469 63.84375 C 22.394531 63.84375 21.210938 62.660156 21.210938 61.199219 C 21.210938 59.738281 22.394531 58.550781 23.855469 58.550781 Z M 23.855469 58.550781 "/>
<path style=" stroke:none;fill-rule:nonzero;fill:rgb(20%,20%,20%);fill-opacity:1;" d="M 34.441406 58.550781 C 35.902344 58.550781 37.085938 59.738281 37.085938 61.199219 C 37.085938 62.660156 35.902344 63.84375 34.441406 63.84375 C 32.980469 63.84375 31.796875 62.660156 31.796875 61.199219 C 31.796875 59.738281 32.980469 58.550781 34.441406 58.550781 Z M 34.441406 58.550781 "/>
<path style=" stroke:none;fill-rule:nonzero;fill:rgb(20%,20%,20%);fill-opacity:1;" d="M 13.273438 58.550781 C 14.734375 58.550781 15.917969 59.738281 15.917969 61.199219 C 15.917969 62.660156 14.734375 63.84375 13.273438 63.84375 C 11.8125 63.84375 10.625 62.660156 10.625 61.199219 C 10.625 59.738281 11.8125 58.550781 13.273438 58.550781 Z M 13.273438 58.550781 "/>
<path style=" stroke:none;fill-rule:nonzero;fill:rgb(57.647061%,67.450982%,61.56863%);fill-opacity:1;" d="M 34.441406 64.507812 C 32.976562 64.507812 31.796875 63.324219 31.796875 61.859375 C 31.796875 61.746094 31.804688 61.636719 31.816406 61.53125 C 31.976562 62.835938 33.085938 63.84375 34.441406 63.84375 C 35.796875 63.84375 36.90625 62.835938 37.066406 61.53125 C 37.078125 61.636719 37.085938 61.746094 37.085938 61.859375 C 37.085938 63.324219 35.90625 64.507812 34.441406 64.507812 Z M 34.441406 64.507812 "/>
<path style=" stroke:none;fill-rule:nonzero;fill:rgb(100%,100%,100%);fill-opacity:0.196078;" d="M 34.441406 64.507812 C 32.976562 64.507812 31.796875 63.324219 31.796875 61.859375 C 31.796875 61.746094 31.804688 61.636719 31.816406 61.53125 C 31.976562 62.835938 33.085938 63.84375 34.441406 63.84375 C 35.796875 63.84375 36.90625 62.835938 37.066406 61.53125 C 37.078125 61.636719 37.085938 61.746094 37.085938 61.859375 C 37.085938 63.324219 35.90625 64.507812 34.441406 64.507812 Z M 34.441406 64.507812 "/>
<path style=" stroke:none;fill-rule:nonzero;fill:rgb(100%,100%,100%);fill-opacity:0.196078;" d="M 23.878906 64.507812 C 22.410156 64.507812 21.230469 63.324219 21.230469 61.859375 C 21.230469 61.746094 21.238281 61.636719 21.253906 61.53125 C 21.414062 62.835938 22.523438 63.84375 23.878906 63.84375 C 25.230469 63.84375 26.339844 62.835938 26.503906 61.53125 C 26.515625 61.636719 26.523438 61.746094 26.523438 61.859375 C 26.523438 63.324219 25.34375 64.507812 23.878906 64.507812 Z M 23.878906 64.507812 "/>
<path style=" stroke:none;fill-rule:nonzero;fill:rgb(100%,100%,100%);fill-opacity:0.196078;" d="M 13.273438 64.507812 C 11.808594 64.507812 10.625 63.324219 10.625 61.859375 C 10.625 61.746094 10.632812 61.636719 10.648438 61.53125 C 10.808594 62.835938 11.917969 63.84375 13.273438 63.84375 C 14.625 63.84375 15.734375 62.835938 15.898438 61.53125 C 15.910156 61.636719 15.917969 61.746094 15.917969 61.859375 C 15.917969 63.324219 14.738281 64.507812 13.273438 64.507812 Z M 13.273438 64.507812 "/>
<path style=" stroke:none;fill-rule:nonzero;fill:rgb(0%,0%,0%);fill-opacity:0.196078;" d="M 13.273438 58.550781 C 14.738281 58.550781 15.917969 59.734375 15.917969 61.199219 C 15.917969 61.3125 15.910156 61.421875 15.898438 61.53125 C 15.734375 60.222656 14.625 59.214844 13.273438 59.214844 C 11.917969 59.214844 10.808594 60.222656 10.648438 61.53125 C 10.632812 61.421875 10.625 61.3125 10.625 61.199219 C 10.625 59.734375 11.808594 58.550781 13.273438 58.550781 Z M 13.273438 58.550781 "/>
<path style=" stroke:none;fill-rule:nonzero;fill:rgb(0%,0%,0%);fill-opacity:0.196078;" d="M 23.835938 58.550781 C 25.300781 58.550781 26.480469 59.734375 26.480469 61.199219 C 26.480469 61.3125 26.472656 61.421875 26.460938 61.53125 C 26.300781 60.222656 25.191406 59.214844 23.835938 59.214844 C 22.480469 59.214844 21.371094 60.222656 21.210938 61.53125 C 21.199219 61.421875 21.191406 61.3125 21.191406 61.199219 C 21.191406 59.734375 22.371094 58.550781 23.835938 58.550781 Z M 23.835938 58.550781 "/>
<path style=" stroke:none;fill-rule:nonzero;fill:rgb(0%,0%,0%);fill-opacity:0.196078;" d="M 34.441406 58.550781 C 35.90625 58.550781 37.085938 59.734375 37.085938 61.199219 C 37.085938 61.3125 37.078125 61.421875 37.066406 61.53125 C 36.90625 60.222656 35.796875 59.214844 34.441406 59.214844 C 33.085938 59.214844 31.976562 60.222656 31.816406 61.53125 C 31.804688 61.421875 31.796875 61.3125 31.796875 61.199219 C 31.796875 59.734375 32.976562 58.550781 34.441406 58.550781 Z M 34.441406 58.550781 "/>
<path style=" stroke:none;fill-rule:nonzero;fill:rgb(20%,20%,20%);fill-opacity:1;" d="M 23.855469 19.523438 C 25.316406 19.523438 26.503906 20.707031 26.503906 22.167969 C 26.503906 23.628906 25.316406 24.816406 23.855469 24.816406 C 22.394531 24.816406 21.210938 23.628906 21.210938 22.167969 C 21.210938 20.707031 22.394531 19.523438 23.855469 19.523438 Z M 23.855469 19.523438 "/>
<path style=" stroke:none;fill-rule:nonzero;fill:rgb(20%,20%,20%);fill-opacity:1;" d="M 34.441406 19.523438 C 35.902344 19.523438 37.085938 20.707031 37.085938 22.167969 C 37.085938 23.628906 35.902344 24.816406 34.441406 24.816406 C 32.980469 24.816406 31.796875 23.628906 31.796875 22.167969 C 31.796875 20.707031 32.980469 19.523438 34.441406 19.523438 Z M 34.441406 19.523438 "/>
<path style=" stroke:none;fill-rule:nonzero;fill:rgb(20%,20%,20%);fill-opacity:1;" d="M 13.273438 19.523438 C 14.734375 19.523438 15.917969 20.707031 15.917969 22.167969 C 15.917969 23.628906 14.734375 24.816406 13.273438 24.816406 C 11.8125 24.816406 10.625 23.628906 10.625 22.167969 C 10.625 20.707031 11.8125 19.523438 13.273438 19.523438 Z M 13.273438 19.523438 "/>
<path style=" stroke:none;fill-rule:nonzero;fill:rgb(57.647061%,67.450982%,61.56863%);fill-opacity:1;" d="M 34.441406 25.476562 C 32.976562 25.476562 31.796875 24.296875 31.796875 22.832031 C 31.796875 22.71875 31.804688 22.609375 31.816406 22.5 C 31.976562 23.808594 33.085938 24.816406 34.441406 24.816406 C 35.796875 24.816406 36.90625 23.808594 37.066406 22.5 C 37.078125 22.609375 37.085938 22.71875 37.085938 22.832031 C 37.085938 24.296875 35.90625 25.476562 34.441406 25.476562 Z M 34.441406 25.476562 "/>
<path style=" stroke:none;fill-rule:nonzero;fill:rgb(100%,100%,100%);fill-opacity:0.196078;" d="M 34.441406 25.476562 C 32.976562 25.476562 31.796875 24.296875 31.796875 22.832031 C 31.796875 22.71875 31.804688 22.609375 31.816406 22.5 C 31.976562 23.808594 33.085938 24.816406 34.441406 24.816406 C 35.796875 24.816406 36.90625 23.808594 37.066406 22.5 C 37.078125 22.609375 37.085938 22.71875 37.085938 22.832031 C 37.085938 24.296875 35.90625 25.476562 34.441406 25.476562 Z M 34.441406 25.476562 "/>
<path style=" stroke:none;fill-rule:nonzero;fill:rgb(100%,100%,100%);fill-opacity:0.196078;" d="M 23.878906 25.476562 C 22.410156 25.476562 21.230469 24.296875 21.230469 22.832031 C 21.230469 22.71875 21.238281 22.609375 21.253906 22.5 C 21.414062 23.808594 22.523438 24.816406 23.878906 24.816406 C 25.230469 24.816406 26.339844 23.808594 26.503906 22.5 C 26.515625 22.609375 26.523438 22.71875 26.523438 22.832031 C 26.523438 24.296875 25.34375 25.476562 23.878906 25.476562 Z M 23.878906 25.476562 "/>
<path style=" stroke:none;fill-rule:nonzero;fill:rgb(100%,100%,100%);fill-opacity:0.196078;" d="M 13.273438 25.476562 C 11.808594 25.476562 10.625 24.296875 10.625 22.832031 C 10.625 22.71875 10.632812 22.609375 10.648438 22.5 C 10.808594 23.808594 11.917969 24.816406 13.273438 24.816406 C 14.625 24.816406 15.734375 23.808594 15.898438 22.5 C 15.910156 22.609375 15.917969 22.71875 15.917969 22.832031 C 15.917969 24.296875 14.738281 25.476562 13.273438 25.476562 Z M 13.273438 25.476562 "/>
<path style=" stroke:none;fill-rule:nonzero;fill:rgb(0%,0%,0%);fill-opacity:0.196078;" d="M 13.273438 19.523438 C 14.738281 19.523438 15.917969 20.703125 15.917969 22.167969 C 15.917969 22.28125 15.910156 22.390625 15.898438 22.5 C 15.734375 21.191406 14.625 20.183594 13.273438 20.183594 C 11.917969 20.183594 10.808594 21.191406 10.648438 22.5 C 10.632812 22.390625 10.625 22.28125 10.625 22.167969 C 10.625 20.703125 11.808594 19.523438 13.273438 19.523438 Z M 13.273438 19.523438 "/>
<path style=" stroke:none;fill-rule:nonzero;fill:rgb(0%,0%,0%);fill-opacity:0.196078;" d="M 23.835938 19.523438 C 25.300781 19.523438 26.480469 20.703125 26.480469 22.167969 C 26.480469 22.28125 26.472656 22.390625 26.460938 22.5 C 26.300781 21.191406 25.191406 20.183594 23.835938 20.183594 C 22.480469 20.183594 21.371094 21.191406 21.210938 22.5 C 21.199219 22.390625 21.191406 22.28125 21.191406 22.167969 C 21.191406 20.703125 22.371094 19.523438 23.835938 19.523438 Z M 23.835938 19.523438 "/>
<path style=" stroke:none;fill-rule:nonzero;fill:rgb(0%,0%,0%);fill-opacity:0.196078;" d="M 34.441406 19.523438 C 35.90625 19.523438 37.085938 20.703125 37.085938 22.167969 C 37.085938 22.28125 37.078125 22.390625 37.066406 22.5 C 36.90625 21.191406 35.796875 20.183594 34.441406 20.183594 C 33.085938 20.183594 31.976562 21.191406 31.816406 22.5 C 31.804688 22.390625 31.796875 22.28125 31.796875 22.167969 C 31.796875 20.703125 32.976562 19.523438 34.441406 19.523438 Z M 34.441406 19.523438 "/>
<path style=" stroke:none;fill-rule:nonzero;fill:rgb(20%,20%,20%);fill-opacity:1;" d="M 23.855469 96.257812 C 25.316406 96.257812 26.503906 97.445312 26.503906 98.90625 C 26.503906 100.367188 25.316406 101.550781 23.855469 101.550781 C 22.394531 101.550781 21.210938 100.367188 21.210938 98.90625 C 21.210938 97.445312 22.394531 96.257812 23.855469 96.257812 Z M 23.855469 96.257812 "/>
<path style=" stroke:none;fill-rule:nonzero;fill:rgb(20%,20%,20%);fill-opacity:1;" d="M 34.441406 96.257812 C 35.902344 96.257812 37.085938 97.445312 37.085938 98.90625 C 37.085938 100.367188 35.902344 101.550781 34.441406 101.550781 C 32.980469 101.550781 31.796875 100.367188 31.796875 98.90625 C 31.796875 97.445312 32.980469 96.257812 34.441406 96.257812 Z M 34.441406 96.257812 "/>
<path style=" stroke:none;fill-rule:nonzero;fill:rgb(20%,20%,20%);fill-opacity:1;" d="M 13.273438 96.257812 C 14.734375 96.257812 15.917969 97.445312 15.917969 98.90625 C 15.917969 100.367188 14.734375 101.550781 13.273438 101.550781 C 11.8125 101.550781 10.625 100.367188 10.625 98.90625 C 10.625 97.445312 11.8125 96.257812 13.273438 96.257812 Z M 13.273438 96.257812 "/>
<path style=" stroke:none;fill-rule:nonzero;fill:rgb(57.647061%,67.450982%,61.56863%);fill-opacity:1;" d="M 34.441406 102.210938 C 32.976562 102.210938 31.796875 101.03125 31.796875 99.566406 C 31.796875 99.453125 31.804688 99.34375 31.816406 99.234375 C 31.976562 100.542969 33.085938 101.550781 34.441406 101.550781 C 35.796875 101.550781 36.90625 100.542969 37.066406 99.234375 C 37.078125 99.34375 37.085938 99.453125 37.085938 99.566406 C 37.085938 101.03125 35.90625 102.210938 34.441406 102.210938 Z M 34.441406 102.210938 "/>
<path style=" stroke:none;fill-rule:nonzero;fill:rgb(100%,100%,100%);fill-opacity:0.196078;" d="M 34.441406 102.210938 C 32.976562 102.210938 31.796875 101.03125 31.796875 99.566406 C 31.796875 99.453125 31.804688 99.34375 31.816406 99.234375 C 31.976562 100.542969 33.085938 101.550781 34.441406 101.550781 C 35.796875 101.550781 36.90625 100.542969 37.066406 99.234375 C 37.078125 99.34375 37.085938 99.453125 37.085938 99.566406 C 37.085938 101.03125 35.90625 102.210938 34.441406 102.210938 Z M 34.441406 102.210938 "/>
<path style=" stroke:none;fill-rule:nonzero;fill:rgb(100%,100%,100%);fill-opacity:0.196078;" d="M 23.878906 102.210938 C 22.410156 102.210938 21.230469 101.03125 21.230469 99.566406 C 21.230469 99.453125 21.238281 99.34375 21.253906 99.234375 C 21.414062 100.542969 22.523438 101.550781 23.878906 101.550781 C 25.230469 101.550781 26.339844 100.542969 26.503906 99.234375 C 26.515625 99.34375 26.523438 99.453125 26.523438 99.566406 C 26.523438 101.03125 25.34375 102.210938 23.878906 102.210938 Z M 23.878906 102.210938 "/>
<path style=" stroke:none;fill-rule:nonzero;fill:rgb(100%,100%,100%);fill-opacity:0.196078;" d="M 13.273438 102.210938 C 11.808594 102.210938 10.625 101.03125 10.625 99.566406 C 10.625 99.453125 10.632812 99.34375 10.648438 99.234375 C 10.808594 100.542969 11.917969 101.550781 13.273438 101.550781 C 14.625 101.550781 15.734375 100.542969 15.898438 99.234375 C 15.910156 99.34375 15.917969 99.453125 15.917969 99.566406 C 15.917969 101.03125 14.738281 102.210938 13.273438 102.210938 Z M 13.273438 102.210938 "/>
<path style=" stroke:none;fill-rule:nonzero;fill:rgb(0%,0%,0%);fill-opacity:0.196078;" d="M 13.273438 96.257812 C 14.738281 96.257812 15.917969 97.4375 15.917969 98.90625 C 15.917969 99.015625 15.910156 99.128906 15.898438 99.234375 C 15.734375 97.925781 14.625 96.921875 13.273438 96.921875 C 11.917969 96.921875 10.808594 97.925781 10.648438 99.234375 C 10.632812 99.128906 10.625 99.015625 10.625 98.90625 C 10.625 97.4375 11.808594 96.257812 13.273438 96.257812 Z M 13.273438 96.257812 "/>
<path style=" stroke:none;fill-rule:nonzero;fill:rgb(0%,0%,0%);fill-opacity:0.196078;" d="M 23.835938 96.257812 C 25.300781 96.257812 26.480469 97.4375 26.480469 98.90625 C 26.480469 99.015625 26.472656 99.128906 26.460938 99.234375 C 26.300781 97.925781 25.191406 96.921875 23.835938 96.921875 C 22.480469 96.921875 21.371094 97.925781 21.210938 99.234375 C 21.199219 99.128906 21.191406 99.015625 21.191406 98.90625 C 21.191406 97.4375 22.371094 96.257812 23.835938 96.257812 Z M 23.835938 96.257812 "/>
<path style=" stroke:none;fill-rule:nonzero;fill:rgb(0%,0%,0%);fill-opacity:0.196078;" d="M 34.441406 96.257812 C 35.90625 96.257812 37.085938 97.4375 37.085938 98.90625 C 37.085938 99.015625 37.078125 99.128906 37.066406 99.234375 C 36.90625 97.925781 35.796875 96.921875 34.441406 96.921875 C 33.085938 96.921875 31.976562 97.925781 31.816406 99.234375 C 31.804688 99.128906 31.796875 99.015625 31.796875 98.90625 C 31.796875 97.4375 32.976562 96.257812 34.441406 96.257812 Z M 34.441406 96.257812 "/>
</g>
</svg>
