<?xml version="1.0" encoding="UTF-8"?>
<svg xmlns="http://www.w3.org/2000/svg" xmlns:xlink="http://www.w3.org/1999/xlink" width="128pt" height="128pt" viewBox="0 0 128 128" version="1.1">
<defs>
<linearGradient id="linear0" gradientUnits="userSpaceOnUse" x1="254" y1="275.833344" x2="254" y2="-189.833328" gradientTransform="matrix(0.250024,0,0,0.250024,0,53.755132)">
<stop offset="0" style="stop-color:rgb(71.764706%,73.333333%,77.647059%);stop-opacity:1;"/>
<stop offset="1" style="stop-color:rgb(80%,81.568627%,84.313725%);stop-opacity:1;"/>
</linearGradient>
</defs>
<g id="surface1">
<path style=" stroke:none;fill-rule:nonzero;fill:url(#linear0);" d="M 21.167969 6.292969 C 12.375 6.292969 5.292969 13.375 5.292969 22.167969 C 5.292969 30.964844 12.375 38.046875 21.167969 38.046875 C 29.964844 38.046875 37.046875 30.964844 37.046875 22.167969 C 37.046875 13.375 29.964844 6.292969 21.167969 6.292969 Z M 63.507812 6.292969 C 54.710938 6.292969 47.628906 13.375 47.628906 22.167969 C 47.628906 30.964844 54.710938 38.046875 63.507812 38.046875 C 72.300781 38.046875 79.382812 30.964844 79.382812 22.167969 C 79.382812 13.375 72.300781 6.292969 63.507812 6.292969 Z M 105.84375 6.292969 C 97.046875 6.292969 89.96875 13.375 89.96875 22.167969 C 89.96875 30.964844 97.046875 38.046875 105.84375 38.046875 C 114.640625 38.046875 121.71875 30.964844 121.71875 22.167969 C 121.71875 13.375 114.640625 6.292969 105.84375 6.292969 Z M 21.167969 48.628906 C 12.375 48.628906 5.292969 55.710938 5.292969 64.507812 C 5.292969 73.300781 12.375 80.382812 21.167969 80.382812 C 29.964844 80.382812 37.046875 73.300781 37.046875 64.507812 C 37.046875 55.710938 29.964844 48.628906 21.167969 48.628906 Z M 63.507812 48.628906 C 54.710938 48.628906 47.628906 55.710938 47.628906 64.507812 C 47.628906 73.300781 54.710938 80.382812 63.507812 80.382812 C 72.300781 80.382812 79.382812 73.300781 79.382812 64.507812 C 79.382812 55.710938 72.300781 48.628906 63.507812 48.628906 Z M 105.84375 48.628906 C 97.046875 48.628906 89.96875 55.710938 89.96875 64.507812 C 89.96875 73.300781 97.046875 80.382812 105.84375 80.382812 C 114.640625 80.382812 121.71875 73.300781 121.71875 64.507812 C 121.71875 55.710938 114.640625 48.628906 105.84375 48.628906 Z M 21.167969 90.96875 C 12.375 90.96875 5.292969 98.046875 5.292969 106.84375 C 5.292969 115.640625 12.375 122.71875 21.167969 122.71875 C 29.964844 122.71875 37.046875 115.640625 37.046875 106.84375 C 37.046875 98.046875 29.964844 90.96875 21.167969 90.96875 Z M 63.507812 90.96875 C 54.710938 90.96875 47.628906 98.046875 47.628906 106.84375 C 47.628906 115.640625 54.710938 122.71875 63.507812 122.71875 C 72.300781 122.71875 79.382812 115.640625 79.382812 106.84375 C 79.382812 98.046875 72.300781 90.96875 63.507812 90.96875 Z M 105.84375 90.96875 C 97.046875 90.96875 89.96875 98.046875 89.96875 106.84375 C 89.96875 115.640625 97.046875 122.71875 105.84375 122.71875 C 114.640625 122.71875 121.71875 115.640625 121.71875 106.84375 C 121.71875 98.046875 114.640625 90.96875 105.84375 90.96875 Z M 105.84375 90.96875 "/>
</g>
</svg>
