<?xml version="1.0" encoding="UTF-8"?>
<svg xmlns="http://www.w3.org/2000/svg" xmlns:xlink="http://www.w3.org/1999/xlink" width="128pt" height="128pt" viewBox="0 0 128 128" version="1.1">
<defs>
<radialGradient id="radial0" gradientUnits="userSpaceOnUse" cx="63.5" cy="212.333359" fx="63.5" fy="212.333359" r="21.166666" gradientTransform="matrix(0.500048,0.000000148544,0.000000148544,-0.500048,58.213853,220.958614)">
<stop offset="0" style="stop-color:rgb(0%,0%,0%);stop-opacity:0.313725;"/>
<stop offset="0.499999" style="stop-color:rgb(0%,0%,0%);stop-opacity:0.27451;"/>
<stop offset="1" style="stop-color:rgb(0%,0%,0%);stop-opacity:0;"/>
</radialGradient>
<linearGradient id="linear0" gradientUnits="userSpaceOnUse" x1="254" y1="233.5" x2="254" y2="254.666672" gradientTransform="matrix(0.250024,0,0,0.250024,21.168699,61.693386)">
<stop offset="0" style="stop-color:rgb(0%,0%,0%);stop-opacity:0.27451;"/>
<stop offset="1" style="stop-color:rgb(0%,0%,0%);stop-opacity:0;"/>
</linearGradient>
<radialGradient id="radial1" gradientUnits="userSpaceOnUse" cx="63.5" cy="212.333359" fx="63.5" fy="212.333359" r="21.166666" gradientTransform="matrix(-0.500048,0.000000148544,-0.000000148544,-0.500048,68.798279,220.958614)">
<stop offset="0" style="stop-color:rgb(0%,0%,0%);stop-opacity:0.313725;"/>
<stop offset="0.499999" style="stop-color:rgb(0%,0%,0%);stop-opacity:0.27451;"/>
<stop offset="1" style="stop-color:rgb(0%,0%,0%);stop-opacity:0;"/>
</radialGradient>
<linearGradient id="linear1" gradientUnits="userSpaceOnUse" x1="960" y1="615.118103" x2="960" y2="175.118134" gradientTransform="matrix(0.0661521,0,0,0.0661521,0,0)">
<stop offset="0" style="stop-color:rgb(71.764706%,73.333333%,77.647059%);stop-opacity:1;"/>
<stop offset="1" style="stop-color:rgb(80%,81.568627%,84.313725%);stop-opacity:1;"/>
</linearGradient>
<linearGradient id="linear2" gradientUnits="userSpaceOnUse" x1="254" y1="265.25" x2="254" y2="-31.083334" gradientTransform="matrix(0.250024,0,0,0.250024,0,53.755133)">
<stop offset="0" style="stop-color:rgb(71.764706%,73.333333%,77.647059%);stop-opacity:1;"/>
<stop offset="1" style="stop-color:rgb(80%,81.568627%,84.313725%);stop-opacity:1;"/>
</linearGradient>
</defs>
<g id="surface1">
<path style=" stroke:none;fill-rule:nonzero;fill:url(#radial0);" d="M 100.550781 114.78125 L 89.96875 114.78125 L 89.96875 125.367188 L 100.550781 125.367188 Z M 100.550781 114.78125 "/>
<path style=" stroke:none;fill-rule:nonzero;fill:url(#linear0);" d="M 37.046875 120.074219 L 89.96875 120.074219 L 89.96875 125.367188 L 37.046875 125.367188 Z M 37.046875 120.074219 "/>
<path style=" stroke:none;fill-rule:nonzero;fill:url(#radial1);" d="M 26.460938 114.78125 L 37.046875 114.78125 L 37.046875 125.367188 L 26.460938 125.367188 Z M 26.460938 114.78125 "/>
<path style=" stroke:none;fill-rule:nonzero;fill:url(#linear1);" d="M 29.105469 11.585938 C 27.640625 11.585938 26.460938 12.765625 26.460938 14.230469 L 26.460938 40.691406 L 100.550781 40.691406 L 100.550781 14.230469 C 100.550781 12.765625 99.371094 11.585938 97.90625 11.585938 Z M 29.105469 11.585938 "/>
<path style=" stroke:none;fill-rule:nonzero;fill:rgb(32.549021%,33.333334%,36.470589%);fill-opacity:1;" d="M 29.105469 40.691406 L 97.90625 40.691406 L 97.90625 45.984375 L 29.105469 45.984375 Z M 29.105469 40.691406 "/>
<path style=" stroke:none;fill-rule:nonzero;fill:url(#linear2);" d="M 97.90625 120.074219 C 99.371094 120.074219 100.550781 118.894531 100.550781 117.429688 L 100.550781 45.984375 L 26.460938 45.984375 L 26.460938 117.429688 C 26.460938 118.894531 27.640625 120.074219 29.105469 120.074219 Z M 97.90625 120.074219 "/>
<path style=" stroke:none;fill-rule:nonzero;fill:rgb(20%,20%,20%);fill-opacity:1;" d="M 63.546875 106.84375 C 65.007812 106.84375 66.195312 108.027344 66.195312 109.488281 C 66.195312 110.949219 65.007812 112.136719 63.546875 112.136719 C 62.085938 112.136719 60.902344 110.949219 60.902344 109.488281 C 60.902344 108.027344 62.085938 106.84375 63.546875 106.84375 Z M 63.546875 106.84375 "/>
<path style=" stroke:none;fill-rule:nonzero;fill:rgb(20%,20%,20%);fill-opacity:1;" d="M 74.132812 106.84375 C 75.59375 106.84375 76.777344 108.027344 76.777344 109.488281 C 76.777344 110.949219 75.59375 112.136719 74.132812 112.136719 C 72.671875 112.136719 71.488281 110.949219 71.488281 109.488281 C 71.488281 108.027344 72.671875 106.84375 74.132812 106.84375 Z M 74.132812 106.84375 "/>
<path style=" stroke:none;fill-rule:nonzero;fill:rgb(20%,20%,20%);fill-opacity:1;" d="M 52.964844 106.84375 C 54.425781 106.84375 55.609375 108.027344 55.609375 109.488281 C 55.609375 110.949219 54.425781 112.136719 52.964844 112.136719 C 51.503906 112.136719 50.316406 110.949219 50.316406 109.488281 C 50.316406 108.027344 51.503906 106.84375 52.964844 106.84375 Z M 52.964844 106.84375 "/>
<path style=" stroke:none;fill-rule:nonzero;fill:rgb(100%,100%,100%);fill-opacity:0.196078;" d="M 74.132812 112.796875 C 72.667969 112.796875 71.488281 111.617188 71.488281 110.152344 C 71.488281 110.039062 71.492188 109.929688 71.507812 109.820312 C 71.667969 111.128906 72.777344 112.136719 74.132812 112.136719 C 75.484375 112.136719 76.59375 111.128906 76.757812 109.820312 C 76.769531 109.929688 76.777344 110.039062 76.777344 110.152344 C 76.777344 111.617188 75.597656 112.796875 74.132812 112.796875 Z M 74.132812 112.796875 "/>
<path style=" stroke:none;fill-rule:nonzero;fill:rgb(100%,100%,100%);fill-opacity:0.196078;" d="M 63.570312 112.796875 C 62.101562 112.796875 60.921875 111.617188 60.921875 110.152344 C 60.921875 110.039062 60.929688 109.929688 60.945312 109.820312 C 61.105469 111.128906 62.214844 112.136719 63.570312 112.136719 C 64.921875 112.136719 66.03125 111.128906 66.195312 109.820312 C 66.207031 109.929688 66.214844 110.039062 66.214844 110.152344 C 66.214844 111.617188 65.035156 112.796875 63.570312 112.796875 Z M 63.570312 112.796875 "/>
<path style=" stroke:none;fill-rule:nonzero;fill:rgb(100%,100%,100%);fill-opacity:0.196078;" d="M 52.964844 112.796875 C 51.496094 112.796875 50.316406 111.617188 50.316406 110.152344 C 50.316406 110.039062 50.324219 109.929688 50.339844 109.820312 C 50.5 111.128906 51.609375 112.136719 52.964844 112.136719 C 54.316406 112.136719 55.425781 111.128906 55.589844 109.820312 C 55.601562 109.929688 55.609375 110.039062 55.609375 110.152344 C 55.609375 111.617188 54.429688 112.796875 52.964844 112.796875 Z M 52.964844 112.796875 "/>
<path style=" stroke:none;fill-rule:nonzero;fill:rgb(0%,0%,0%);fill-opacity:0.196078;" d="M 52.964844 106.84375 C 54.429688 106.84375 55.609375 108.023438 55.609375 109.488281 C 55.609375 109.601562 55.601562 109.710938 55.589844 109.820312 C 55.425781 108.511719 54.316406 107.503906 52.964844 107.503906 C 51.609375 107.503906 50.5 108.511719 50.339844 109.820312 C 50.324219 109.710938 50.316406 109.601562 50.316406 109.488281 C 50.316406 108.023438 51.496094 106.84375 52.964844 106.84375 Z M 52.964844 106.84375 "/>
<path style=" stroke:none;fill-rule:nonzero;fill:rgb(0%,0%,0%);fill-opacity:0.196078;" d="M 63.527344 106.84375 C 64.992188 106.84375 66.171875 108.023438 66.171875 109.488281 C 66.171875 109.601562 66.164062 109.710938 66.152344 109.820312 C 65.988281 108.511719 64.882812 107.503906 63.527344 107.503906 C 62.171875 107.503906 61.0625 108.511719 60.902344 109.820312 C 60.890625 109.710938 60.882812 109.601562 60.882812 109.488281 C 60.882812 108.023438 62.0625 106.84375 63.527344 106.84375 Z M 63.527344 106.84375 "/>
<path style=" stroke:none;fill-rule:nonzero;fill:rgb(0%,0%,0%);fill-opacity:0.196078;" d="M 74.132812 106.84375 C 75.597656 106.84375 76.777344 108.023438 76.777344 109.488281 C 76.777344 109.601562 76.769531 109.710938 76.757812 109.820312 C 76.59375 108.511719 75.484375 107.503906 74.132812 107.503906 C 72.777344 107.503906 71.667969 108.511719 71.507812 109.820312 C 71.492188 109.710938 71.488281 109.601562 71.488281 109.488281 C 71.488281 108.023438 72.667969 106.84375 74.132812 106.84375 Z M 74.132812 106.84375 "/>
<path style=" stroke:none;fill-rule:nonzero;fill:rgb(0%,0%,0%);fill-opacity:0.196078;" d="M 29.105469 120.074219 C 27.640625 120.074219 26.460938 118.894531 26.460938 117.429688 L 26.460938 116.105469 C 26.460938 117.570312 27.640625 118.75 29.105469 118.75 L 97.90625 118.75 C 99.371094 118.75 100.550781 117.570312 100.550781 116.105469 L 100.550781 117.429688 C 100.550781 118.894531 99.371094 120.074219 97.90625 120.074219 Z M 29.105469 120.074219 "/>
<path style=" stroke:none;fill-rule:nonzero;fill:rgb(100%,100%,100%);fill-opacity:0.196078;" d="M 29.105469 11.585938 C 27.640625 11.585938 26.460938 12.765625 26.460938 14.230469 L 26.460938 15.554688 C 26.460938 14.085938 27.640625 12.90625 29.105469 12.90625 L 97.90625 12.90625 C 99.371094 12.90625 100.550781 14.085938 100.550781 15.554688 L 100.550781 14.230469 C 100.550781 12.765625 99.371094 11.585938 97.90625 11.585938 Z M 29.105469 11.585938 "/>
<path style=" stroke:none;fill-rule:nonzero;fill:rgb(0%,0%,0%);fill-opacity:0.196078;" d="M 26.460938 39.367188 L 100.550781 39.367188 L 100.550781 40.691406 L 26.460938 40.691406 Z M 26.460938 39.367188 "/>
<path style=" stroke:none;fill-rule:nonzero;fill:rgb(100%,100%,100%);fill-opacity:0.196078;" d="M 26.460938 45.984375 L 100.550781 45.984375 L 100.550781 47.304688 L 26.460938 47.304688 Z M 26.460938 45.984375 "/>
<path style=" stroke:none;fill-rule:nonzero;fill:rgb(32.549021%,33.333334%,36.470589%);fill-opacity:1;" d="M 50.277344 56.566406 L 76.738281 56.566406 L 76.738281 61.859375 L 50.277344 61.859375 Z M 50.277344 56.566406 "/>
<path style=" stroke:none;fill-rule:nonzero;fill:rgb(32.549021%,33.333334%,36.470589%);fill-opacity:1;" d="M 52.921875 67.152344 L 74.089844 67.152344 L 74.089844 72.445312 L 52.921875 72.445312 Z M 52.921875 67.152344 "/>
<path style=" stroke:none;fill-rule:nonzero;fill:rgb(32.549021%,33.333334%,36.470589%);fill-opacity:1;" d="M 55.566406 77.738281 L 71.445312 77.738281 L 71.445312 83.027344 L 55.566406 83.027344 Z M 55.566406 77.738281 "/>
<path style=" stroke:none;fill-rule:nonzero;fill:rgb(32.549021%,33.333334%,36.470589%);fill-opacity:1;" d="M 58.214844 88.320312 L 68.796875 88.320312 L 68.796875 93.613281 L 58.214844 93.613281 Z M 58.214844 88.320312 "/>
</g>
</svg>
