<?xml version="1.0" encoding="UTF-8"?>
<svg xmlns="http://www.w3.org/2000/svg" xmlns:xlink="http://www.w3.org/1999/xlink" width="32pt" height="32pt" viewBox="0 0 32 32" version="1.1">
<defs>
<linearGradient id="linear0" gradientUnits="userSpaceOnUse" x1="254" y1="233.5" x2="254" y2="254.666672" gradientTransform="matrix(0.062506,0,0,0.062506,0,13.438783)">
<stop offset="0" style="stop-color:rgb(0%,0%,0%);stop-opacity:0.27451;"/>
<stop offset="1" style="stop-color:rgb(0%,0%,0%);stop-opacity:0;"/>
</linearGradient>
<radialGradient id="radial0" gradientUnits="userSpaceOnUse" cx="456.200623" cy="186.933533" fx="456.200623" fy="186.933533" r="21.166656" gradientTransform="matrix(0.0000000885177,0.125012,-0.125012,0.0000000861011,51.152792,-30.319675)">
<stop offset="0" style="stop-color:rgb(0%,0%,0%);stop-opacity:0.313725;"/>
<stop offset="0.499999" style="stop-color:rgb(0%,0%,0%);stop-opacity:0.27451;"/>
<stop offset="1" style="stop-color:rgb(0%,0%,0%);stop-opacity:0;"/>
</radialGradient>
<radialGradient id="radial1" gradientUnits="userSpaceOnUse" cx="63.5" cy="212.333359" fx="63.5" fy="212.333359" r="21.166666" gradientTransform="matrix(-0.125012,0.000000037136,-0.000000037136,-0.125012,11.907396,53.255093)">
<stop offset="0" style="stop-color:rgb(0%,0%,0%);stop-opacity:0.313725;"/>
<stop offset="0.499999" style="stop-color:rgb(0%,0%,0%);stop-opacity:0.27451;"/>
<stop offset="1" style="stop-color:rgb(0%,0%,0%);stop-opacity:0;"/>
</radialGradient>
<linearGradient id="linear1" gradientUnits="userSpaceOnUse" x1="359.833313" y1="-94.583336" x2="359.833344" y2="-115.75" gradientTransform="matrix(0.062506,0,0,0.062506,-0.000000861237,12.777265)">
<stop offset="0" style="stop-color:rgb(0%,0%,0%);stop-opacity:0.196078;"/>
<stop offset="1" style="stop-color:rgb(0%,0%,0%);stop-opacity:0;"/>
</linearGradient>
<linearGradient id="linear2" gradientUnits="userSpaceOnUse" x1="254" y1="233.5" x2="254" y2="-105.166656" >
<stop offset="0" style="stop-color:rgb(71.764706%,73.333333%,77.647059%);stop-opacity:1;"/>
<stop offset="1" style="stop-color:rgb(80%,81.568627%,84.313725%);stop-opacity:1;"/>
</linearGradient>
<linearGradient id="linear3" gradientUnits="userSpaceOnUse" x1="365.125" y1="-105.166672" x2="365.125" y2="-136.916672" >
<stop offset="0" style="stop-color:rgb(32.54902%,33.333333%,36.470588%);stop-opacity:1;"/>
<stop offset="1" style="stop-color:rgb(36.470588%,37.647059%,40.784314%);stop-opacity:1;"/>
</linearGradient>
</defs>
<g id="surface1">
<path style=" stroke:none;fill-rule:nonzero;fill:url(#linear0);" d="M 3.96875 28.035156 L 27.785156 28.035156 L 27.785156 29.355469 L 3.96875 29.355469 Z M 3.96875 28.035156 "/>
<path style=" stroke:none;fill-rule:nonzero;fill:url(#radial0);" d="M 27.785156 26.710938 L 30.429688 26.710938 L 30.429688 29.355469 L 27.785156 29.355469 Z M 27.785156 26.710938 "/>
<path style=" stroke:none;fill-rule:nonzero;fill:url(#radial1);" d="M 1.324219 26.710938 L 3.96875 26.710938 L 3.96875 29.355469 L 1.324219 29.355469 Z M 1.324219 26.710938 "/>
<path style=" stroke:none;fill-rule:nonzero;fill:url(#linear1);" d="M 14.554688 5.542969 L 29.105469 5.542969 L 29.105469 6.867188 L 14.554688 6.867188 Z M 14.554688 5.542969 "/>
<path style="fill-rule:nonzero;fill:url(#linear2);stroke-width:2;stroke-linecap:butt;stroke-linejoin:miter;stroke:rgb(30.19608%,30.19608%,30.19608%);stroke-opacity:1;stroke-miterlimit:4;" d="M 31.746968 -105.135492 L 476.267019 -105.135492 C 482.078964 -105.135492 486.82851 -100.448439 486.82851 -94.574 L 486.82851 222.895683 C 486.82851 228.770122 482.078964 233.519669 476.267019 233.519669 L 31.746968 233.519669 C 25.935023 233.519669 21.185477 228.770122 21.185477 222.895683 L 21.185477 -94.574 C 21.185477 -100.448439 25.935023 -105.135492 31.746968 -105.135492 Z M 31.746968 -105.135492 " transform="matrix(0.062506,0,0,0.062506,0,13.438783)"/>
<path style=" stroke:none;fill-rule:nonzero;fill:rgb(100%,100%,100%);fill-opacity:0.196078;" d="M 1.984375 6.867188 C 1.617188 6.867188 1.324219 7.160156 1.324219 7.527344 L 1.324219 7.859375 C 1.324219 7.492188 1.617188 7.195312 1.984375 7.195312 L 29.769531 7.195312 C 30.136719 7.195312 30.429688 7.492188 30.429688 7.859375 L 30.429688 7.527344 C 30.429688 7.160156 30.136719 6.867188 29.769531 6.867188 Z M 1.984375 6.867188 "/>
<path style=" stroke:none;fill-rule:nonzero;fill:rgb(0%,0%,0%);fill-opacity:0.196078;" d="M 1.984375 28.035156 C 1.617188 28.035156 1.324219 27.738281 1.324219 27.371094 L 1.324219 27.042969 C 1.324219 27.40625 1.617188 27.703125 1.984375 27.703125 L 29.769531 27.703125 C 30.136719 27.703125 30.429688 27.40625 30.429688 27.042969 L 30.429688 27.371094 C 30.429688 27.738281 30.136719 28.035156 29.769531 28.035156 Z M 1.984375 28.035156 "/>
<path style=" stroke:none;fill-rule:nonzero;fill:rgb(100%,100%,100%);fill-opacity:0.27451;" d="M 15.214844 4.878906 C 14.847656 4.878906 14.554688 5.175781 14.554688 5.542969 L 14.554688 5.871094 C 14.554688 5.507812 14.847656 5.210938 15.214844 5.210938 L 28.445312 5.210938 C 28.8125 5.210938 29.105469 5.507812 29.105469 5.871094 L 29.105469 5.542969 C 29.105469 5.175781 28.8125 4.878906 28.445312 4.878906 Z M 15.214844 4.878906 "/>
<path style="fill-rule:nonzero;fill:url(#linear3);stroke-width:0.264583;stroke-linecap:butt;stroke-linejoin:miter;stroke:rgb(74.509805%,78.431374%,71.764708%);stroke-opacity:1;stroke-miterlimit:4;" d="M 243.414255 -136.944954 C 237.539816 -136.944954 232.852764 -132.195407 232.852764 -126.320968 L 232.852764 -105.135492 L 465.643033 -105.135492 L 465.643033 -126.320968 C 465.643033 -132.195407 460.955981 -136.944954 455.081542 -136.944954 Z M 243.414255 -136.944954 " transform="matrix(0.062506,0,0,0.062506,0,13.438783)"/>
<path style=" stroke:none;fill-rule:nonzero;fill:rgb(20%,20%,20%);fill-opacity:1;" d="M 15.875 24.726562 C 16.242188 24.726562 16.539062 25.023438 16.539062 25.386719 C 16.539062 25.753906 16.242188 26.050781 15.875 26.050781 C 15.511719 26.050781 15.214844 25.753906 15.214844 25.386719 C 15.214844 25.023438 15.511719 24.726562 15.875 24.726562 Z M 15.875 24.726562 "/>
<path style=" stroke:none;fill-rule:nonzero;fill:rgb(20%,20%,20%);fill-opacity:1;" d="M 18.523438 24.726562 C 18.886719 24.726562 19.183594 25.023438 19.183594 25.386719 C 19.183594 25.753906 18.886719 26.050781 18.523438 26.050781 C 18.15625 26.050781 17.859375 25.753906 17.859375 25.386719 C 17.859375 25.023438 18.15625 24.726562 18.523438 24.726562 Z M 18.523438 24.726562 "/>
<path style=" stroke:none;fill-rule:nonzero;fill:rgb(20%,20%,20%);fill-opacity:1;" d="M 13.230469 24.726562 C 13.597656 24.726562 13.890625 25.023438 13.890625 25.386719 C 13.890625 25.753906 13.597656 26.050781 13.230469 26.050781 C 12.863281 26.050781 12.570312 25.753906 12.570312 25.386719 C 12.570312 25.023438 12.863281 24.726562 13.230469 24.726562 Z M 13.230469 24.726562 "/>
<path style=" stroke:none;fill-rule:nonzero;fill:rgb(57.647061%,67.450982%,61.56863%);fill-opacity:1;" d="M 18.523438 26.214844 C 18.15625 26.214844 17.859375 25.917969 17.859375 25.554688 C 17.859375 25.523438 17.863281 25.496094 17.867188 25.46875 C 17.90625 25.796875 18.183594 26.050781 18.523438 26.050781 C 18.859375 26.050781 19.136719 25.796875 19.179688 25.46875 C 19.183594 25.496094 19.183594 25.523438 19.183594 25.554688 C 19.183594 25.917969 18.890625 26.214844 18.523438 26.214844 Z M 18.523438 26.214844 "/>
<path style=" stroke:none;fill-rule:nonzero;fill:rgb(100%,100%,100%);fill-opacity:0.196078;" d="M 18.523438 26.214844 C 18.15625 26.214844 17.859375 25.917969 17.859375 25.554688 C 17.859375 25.523438 17.863281 25.496094 17.867188 25.46875 C 17.90625 25.796875 18.183594 26.050781 18.523438 26.050781 C 18.859375 26.050781 19.136719 25.796875 19.179688 25.46875 C 19.183594 25.496094 19.183594 25.523438 19.183594 25.554688 C 19.183594 25.917969 18.890625 26.214844 18.523438 26.214844 Z M 18.523438 26.214844 "/>
<path style=" stroke:none;fill-rule:nonzero;fill:rgb(100%,100%,100%);fill-opacity:0.196078;" d="M 15.882812 26.214844 C 15.515625 26.214844 15.21875 25.917969 15.21875 25.554688 C 15.21875 25.523438 15.222656 25.496094 15.226562 25.46875 C 15.265625 25.796875 15.542969 26.050781 15.882812 26.050781 C 16.21875 26.050781 16.496094 25.796875 16.539062 25.46875 C 16.542969 25.496094 16.542969 25.523438 16.542969 25.554688 C 16.542969 25.917969 16.25 26.214844 15.882812 26.214844 Z M 15.882812 26.214844 "/>
<path style=" stroke:none;fill-rule:nonzero;fill:rgb(100%,100%,100%);fill-opacity:0.196078;" d="M 13.230469 26.214844 C 12.863281 26.214844 12.570312 25.917969 12.570312 25.554688 C 12.570312 25.523438 12.570312 25.496094 12.574219 25.46875 C 12.613281 25.796875 12.890625 26.050781 13.230469 26.050781 C 13.570312 26.050781 13.847656 25.796875 13.886719 25.46875 C 13.890625 25.496094 13.890625 25.523438 13.890625 25.554688 C 13.890625 25.917969 13.597656 26.214844 13.230469 26.214844 Z M 13.230469 26.214844 "/>
<path style=" stroke:none;fill-rule:nonzero;fill:rgb(0%,0%,0%);fill-opacity:0.196078;" d="M 13.230469 24.726562 C 13.597656 24.726562 13.890625 25.019531 13.890625 25.386719 C 13.890625 25.414062 13.890625 25.445312 13.886719 25.46875 C 13.847656 25.144531 13.570312 24.890625 13.230469 24.890625 C 12.890625 24.890625 12.613281 25.144531 12.574219 25.46875 C 12.570312 25.445312 12.570312 25.414062 12.570312 25.386719 C 12.570312 25.019531 12.863281 24.726562 13.230469 24.726562 Z M 13.230469 24.726562 "/>
<path style=" stroke:none;fill-rule:nonzero;fill:rgb(0%,0%,0%);fill-opacity:0.196078;" d="M 15.871094 24.726562 C 16.238281 24.726562 16.53125 25.019531 16.53125 25.386719 C 16.53125 25.414062 16.53125 25.445312 16.527344 25.46875 C 16.488281 25.144531 16.210938 24.890625 15.871094 24.890625 C 15.53125 24.890625 15.253906 25.144531 15.214844 25.46875 C 15.210938 25.445312 15.210938 25.414062 15.210938 25.386719 C 15.210938 25.019531 15.503906 24.726562 15.871094 24.726562 Z M 15.871094 24.726562 "/>
<path style=" stroke:none;fill-rule:nonzero;fill:rgb(0%,0%,0%);fill-opacity:0.196078;" d="M 18.523438 24.726562 C 18.890625 24.726562 19.183594 25.019531 19.183594 25.386719 C 19.183594 25.414062 19.183594 25.445312 19.179688 25.46875 C 19.136719 25.144531 18.859375 24.890625 18.523438 24.890625 C 18.183594 24.890625 17.90625 25.144531 17.867188 25.46875 C 17.863281 25.445312 17.859375 25.414062 17.859375 25.386719 C 17.859375 25.019531 18.15625 24.726562 18.523438 24.726562 Z M 18.523438 24.726562 "/>
<path style=" stroke:none;fill-rule:nonzero;fill:rgb(100%,100%,100%);fill-opacity:0.196078;" d="M 15.214844 4.878906 C 14.847656 4.878906 14.554688 5.175781 14.554688 5.542969 L 14.554688 5.871094 C 14.554688 5.507812 14.847656 5.210938 15.214844 5.210938 L 28.445312 5.210938 C 28.8125 5.210938 29.105469 5.507812 29.105469 5.871094 L 29.105469 5.542969 C 29.105469 5.175781 28.8125 4.878906 28.445312 4.878906 Z M 15.214844 4.878906 "/>
<path style=" stroke:none;fill-rule:nonzero;fill:rgb(32.549021%,33.333334%,36.470589%);fill-opacity:1;" d="M 16.613281 12.996094 C 15.828125 12.964844 15.0625 13.183594 14.414062 13.597656 L 15.195312 14.675781 C 15.820312 14.292969 16.609375 14.195312 17.351562 14.476562 C 18.09375 14.753906 18.625 15.347656 18.847656 16.046875 L 20.140625 15.746094 C 19.929688 15.011719 19.496094 14.34375 18.886719 13.847656 C 18.53125 14.214844 17.980469 14.359375 17.46875 14.164062 C 16.957031 13.972656 16.636719 13.503906 16.613281 12.996094 Z M 20.265625 16.398438 L 18.960938 16.699219 C 18.972656 17.019531 18.921875 17.347656 18.800781 17.671875 C 18.359375 18.851562 17.121094 19.492188 15.925781 19.214844 L 15.457031 20.460938 C 16.378906 20.722656 17.324219 20.617188 18.136719 20.226562 C 18.054688 19.957031 18.054688 19.660156 18.164062 19.375 C 18.417969 18.695312 19.160156 18.351562 19.835938 18.589844 C 19.914062 18.445312 19.980469 18.292969 20.042969 18.136719 C 20.257812 17.558594 20.324219 16.96875 20.265625 16.398438 Z M 13.894531 14.003906 C 13.472656 14.394531 13.136719 14.886719 12.917969 15.460938 C 12.859375 15.617188 12.8125 15.777344 12.773438 15.9375 C 13.441406 16.207031 13.773438 16.953125 13.519531 17.628906 C 13.410156 17.914062 13.21875 18.140625 12.976562 18.289062 C 13.328125 19.117188 13.976562 19.816406 14.839844 20.230469 L 15.304688 18.984375 C 14.222656 18.40625 13.714844 17.109375 14.15625 15.925781 C 14.277344 15.605469 14.457031 15.324219 14.679688 15.089844 Z M 13.894531 14.003906 "/>
<path style=" stroke:none;fill-rule:nonzero;fill:rgb(32.549021%,33.333334%,36.470589%);fill-opacity:1;" d="M 18.222656 12.152344 C 18.652344 12.3125 18.867188 12.789062 18.707031 13.21875 C 18.546875 13.644531 18.070312 13.863281 17.644531 13.703125 C 17.214844 13.539062 17 13.0625 17.160156 12.636719 C 17.320312 12.210938 17.796875 11.992188 18.222656 12.152344 Z M 18.222656 12.152344 "/>
<path style=" stroke:none;fill-rule:nonzero;fill:rgb(32.549021%,33.333334%,36.470589%);fill-opacity:1;" d="M 12.570312 16.390625 C 12.996094 16.550781 13.214844 17.027344 13.054688 17.453125 C 12.894531 17.882812 12.417969 18.097656 11.988281 17.9375 C 11.5625 17.777344 11.34375 17.300781 11.503906 16.875 C 11.667969 16.445312 12.144531 16.230469 12.570312 16.390625 Z M 12.570312 16.390625 "/>
<path style=" stroke:none;fill-rule:nonzero;fill:rgb(32.549021%,33.333334%,36.470589%);fill-opacity:1;" d="M 19.691406 19.0625 C 20.121094 19.226562 20.335938 19.703125 20.175781 20.128906 C 20.015625 20.554688 19.539062 20.773438 19.109375 20.613281 C 18.683594 20.453125 18.46875 19.976562 18.628906 19.546875 C 18.789062 19.121094 19.265625 18.902344 19.691406 19.0625 Z M 19.691406 19.0625 "/>
</g>
</svg>
