<?xml version="1.0" encoding="UTF-8"?>
<svg xmlns="http://www.w3.org/2000/svg" xmlns:xlink="http://www.w3.org/1999/xlink" width="32pt" height="32pt" viewBox="0 0 32 32" version="1.1">
<defs>
<linearGradient id="linear0" gradientUnits="userSpaceOnUse" x1="254" y1="233.5" x2="254" y2="254.666672" gradientTransform="matrix(0.062506,0,0,0.062506,0,13.438782)">
<stop offset="0" style="stop-color:rgb(0%,0%,0%);stop-opacity:0.27451;"/>
<stop offset="1" style="stop-color:rgb(0%,0%,0%);stop-opacity:0;"/>
</linearGradient>
<radialGradient id="radial0" gradientUnits="userSpaceOnUse" cx="456.200623" cy="186.933533" fx="456.200623" fy="186.933533" r="21.166656" gradientTransform="matrix(0.0000000885177,0.125012,-0.125012,0.0000000861011,51.152792,-30.319676)">
<stop offset="0" style="stop-color:rgb(0%,0%,0%);stop-opacity:0.313725;"/>
<stop offset="0.499999" style="stop-color:rgb(0%,0%,0%);stop-opacity:0.27451;"/>
<stop offset="1" style="stop-color:rgb(0%,0%,0%);stop-opacity:0;"/>
</radialGradient>
<radialGradient id="radial1" gradientUnits="userSpaceOnUse" cx="63.5" cy="212.333359" fx="63.5" fy="212.333359" r="21.166666" gradientTransform="matrix(-0.125012,0.000000037136,-0.000000037136,-0.125012,11.907396,53.255092)">
<stop offset="0" style="stop-color:rgb(0%,0%,0%);stop-opacity:0.313725;"/>
<stop offset="0.499999" style="stop-color:rgb(0%,0%,0%);stop-opacity:0.27451;"/>
<stop offset="1" style="stop-color:rgb(0%,0%,0%);stop-opacity:0;"/>
</radialGradient>
<linearGradient id="linear1" gradientUnits="userSpaceOnUse" x1="254" y1="233.5" x2="254" y2="254.666672" gradientTransform="matrix(0.062506,0,0,0.062506,0,10.792697)">
<stop offset="0" style="stop-color:rgb(0%,0%,0%);stop-opacity:0.196078;"/>
<stop offset="1" style="stop-color:rgb(0%,0%,0%);stop-opacity:0;"/>
</linearGradient>
<radialGradient id="radial2" gradientUnits="userSpaceOnUse" cx="63.5" cy="212.333359" fx="63.5" fy="212.333359" r="21.166666" gradientTransform="matrix(-0.125012,0.000000037136,-0.000000037136,-0.125012,11.907396,50.609004)">
<stop offset="0" style="stop-color:rgb(0%,0%,0%);stop-opacity:0.313725;"/>
<stop offset="0.499999" style="stop-color:rgb(0%,0%,0%);stop-opacity:0.196078;"/>
<stop offset="1" style="stop-color:rgb(0%,0%,0%);stop-opacity:0;"/>
</radialGradient>
<linearGradient id="linear2" gradientUnits="userSpaceOnUse" x1="254" y1="233.5" x2="254" y2="-105.166656" gradientTransform="matrix(1,0,0,1,-0.0000138509,-63.50013)">
<stop offset="0" style="stop-color:rgb(71.764706%,73.333333%,77.647059%);stop-opacity:1;"/>
<stop offset="1" style="stop-color:rgb(80%,81.568627%,84.313725%);stop-opacity:1;"/>
</linearGradient>
</defs>
<g id="surface1">
<path style=" stroke:none;fill-rule:nonzero;fill:url(#linear0);" d="M 3.96875 28.035156 L 27.785156 28.035156 L 27.785156 29.355469 L 3.96875 29.355469 Z M 3.96875 28.035156 "/>
<path style=" stroke:none;fill-rule:nonzero;fill:url(#radial0);" d="M 27.785156 26.710938 L 30.429688 26.710938 L 30.429688 29.355469 L 27.785156 29.355469 Z M 27.785156 26.710938 "/>
<path style=" stroke:none;fill-rule:nonzero;fill:url(#radial1);" d="M 1.324219 26.710938 L 3.96875 26.710938 L 3.96875 29.355469 L 1.324219 29.355469 Z M 1.324219 26.710938 "/>
<path style=" stroke:none;fill-rule:nonzero;fill:url(#linear1);" d="M 3.96875 25.386719 L 27.785156 25.386719 L 27.785156 26.710938 L 3.96875 26.710938 Z M 3.96875 25.386719 "/>
<path style=" stroke:none;fill-rule:nonzero;fill:url(#radial2);" d="M 1.324219 24.066406 L 3.96875 24.066406 L 3.96875 26.710938 L 1.324219 26.710938 Z M 1.324219 24.066406 "/>
<path style="fill-rule:nonzero;fill:url(#linear2);stroke-width:2;stroke-linecap:butt;stroke-linejoin:miter;stroke:rgb(30.19608%,30.19608%,30.19608%);stroke-opacity:1;stroke-miterlimit:4;" d="M 42.30846 -168.691922 L 465.643033 -168.691922 C 477.329417 -168.691922 486.82851 -159.192829 486.82851 -147.506445 L 486.82851 212.334192 C 486.82851 224.020576 477.329417 233.519669 465.643033 233.519669 L 42.30846 233.519669 C 30.622076 233.519669 21.185477 224.020576 21.185477 212.334192 L 21.185477 -147.506445 C 21.185477 -159.192829 30.622076 -168.691922 42.30846 -168.691922 Z M 42.30846 -168.691922 " transform="matrix(0.062506,0,0,0.062506,0,13.438783)"/>
<path style=" stroke:none;fill-rule:nonzero;fill:rgb(20%,20%,20%);fill-opacity:1;" d="M 2.644531 2.894531 C 1.914062 2.894531 1.324219 3.484375 1.324219 4.21875 L 1.324219 5.542969 L 30.429688 5.542969 L 30.429688 4.21875 C 30.429688 3.484375 29.839844 2.894531 29.105469 2.894531 Z M 2.644531 2.894531 "/>
<path style=" stroke:none;fill-rule:nonzero;fill:rgb(100%,100%,100%);fill-opacity:0.196078;" d="M 2.644531 2.894531 C 1.914062 2.894531 1.324219 3.484375 1.324219 4.21875 L 1.324219 4.550781 C 1.324219 3.816406 1.914062 3.226562 2.644531 3.226562 L 29.105469 3.226562 C 29.839844 3.226562 30.429688 3.816406 30.429688 4.550781 L 30.429688 4.21875 C 30.429688 3.484375 29.839844 2.894531 29.105469 2.894531 Z M 2.644531 2.894531 "/>
<path style=" stroke:none;fill-rule:nonzero;fill:rgb(0%,0%,0%);fill-opacity:0.0784314;" d="M 29.105469 28.035156 C 29.839844 28.035156 30.429688 27.445312 30.429688 26.710938 L 30.429688 25.386719 C 30.429688 26.304688 29.839844 27.371094 29.105469 27.371094 L 2.644531 27.371094 C 1.914062 27.371094 1.324219 26.304688 1.324219 25.386719 L 1.324219 26.710938 C 1.324219 27.445312 1.914062 28.035156 2.644531 28.035156 Z M 29.105469 28.035156 "/>
<path style=" stroke:none;fill-rule:nonzero;fill:rgb(20%,20%,20%);fill-opacity:1;" d="M 3.96875 7.527344 L 5.292969 7.527344 L 5.292969 8.851562 L 3.96875 8.851562 Z M 3.96875 7.527344 "/>
<path style=" stroke:none;fill-rule:nonzero;fill:rgb(20%,20%,20%);fill-opacity:1;" d="M 3.96875 10.835938 L 5.292969 10.835938 L 5.292969 12.15625 L 3.96875 12.15625 Z M 3.96875 10.835938 "/>
<path style=" stroke:none;fill-rule:nonzero;fill:rgb(20%,20%,20%);fill-opacity:1;" d="M 25.800781 23.402344 L 27.121094 23.402344 L 27.121094 24.726562 L 25.800781 24.726562 Z M 25.800781 23.402344 "/>
<path style=" stroke:none;fill-rule:nonzero;fill:rgb(100%,100%,100%);fill-opacity:0.196078;" d="M 7.9375 -0.410156 C 7.207031 -0.410156 6.613281 0.179688 6.613281 0.910156 L 6.613281 2.234375 C 6.613281 1.320312 7.207031 0.25 7.9375 0.25 L 34.398438 0.25 C 35.132812 0.25 35.722656 1.320312 35.722656 2.234375 L 35.722656 0.910156 C 35.722656 0.179688 35.132812 -0.410156 34.398438 -0.410156 Z M 7.9375 -0.410156 "/>
</g>
</svg>
