<?xml version="1.0" encoding="UTF-8"?>
<svg xmlns="http://www.w3.org/2000/svg" xmlns:xlink="http://www.w3.org/1999/xlink" width="32pt" height="32pt" viewBox="0 0 32 32" version="1.1">
<defs>
<linearGradient id="linear0" gradientUnits="userSpaceOnUse" x1="254" y1="233.5" x2="254" y2="254.666672" gradientTransform="matrix(0.062506,0,0,0.062506,0,13.438782)">
<stop offset="0" style="stop-color:rgb(0%,0%,0%);stop-opacity:0.27451;"/>
<stop offset="1" style="stop-color:rgb(0%,0%,0%);stop-opacity:0;"/>
</linearGradient>
<radialGradient id="radial0" gradientUnits="userSpaceOnUse" cx="456.200623" cy="186.933533" fx="456.200623" fy="186.933533" r="21.166656" gradientTransform="matrix(0.0000000885177,0.125012,-0.125012,0.0000000861011,51.152792,-30.319676)">
<stop offset="0" style="stop-color:rgb(0%,0%,0%);stop-opacity:0.313725;"/>
<stop offset="0.499999" style="stop-color:rgb(0%,0%,0%);stop-opacity:0.27451;"/>
<stop offset="1" style="stop-color:rgb(0%,0%,0%);stop-opacity:0;"/>
</radialGradient>
<radialGradient id="radial1" gradientUnits="userSpaceOnUse" cx="63.5" cy="212.333359" fx="63.5" fy="212.333359" r="21.166666" gradientTransform="matrix(-0.125012,0.000000037136,-0.000000037136,-0.125012,11.907396,53.255092)">
<stop offset="0" style="stop-color:rgb(0%,0%,0%);stop-opacity:0.313725;"/>
<stop offset="0.499999" style="stop-color:rgb(0%,0%,0%);stop-opacity:0.27451;"/>
<stop offset="1" style="stop-color:rgb(0%,0%,0%);stop-opacity:0;"/>
</radialGradient>
<linearGradient id="linear1" gradientUnits="userSpaceOnUse" x1="254" y1="233.5" x2="254" y2="254.666672" gradientTransform="matrix(0.062506,0,0,0.062506,0,10.792697)">
<stop offset="0" style="stop-color:rgb(0%,0%,0%);stop-opacity:0.196078;"/>
<stop offset="1" style="stop-color:rgb(0%,0%,0%);stop-opacity:0;"/>
</linearGradient>
<radialGradient id="radial2" gradientUnits="userSpaceOnUse" cx="63.5" cy="212.333359" fx="63.5" fy="212.333359" r="21.166666" gradientTransform="matrix(-0.125012,0.000000037136,-0.000000037136,-0.125012,11.907396,50.609004)">
<stop offset="0" style="stop-color:rgb(0%,0%,0%);stop-opacity:0.313725;"/>
<stop offset="0.499999" style="stop-color:rgb(0%,0%,0%);stop-opacity:0.196078;"/>
<stop offset="1" style="stop-color:rgb(0%,0%,0%);stop-opacity:0;"/>
</radialGradient>
<linearGradient id="linear2" gradientUnits="userSpaceOnUse" x1="254" y1="233.5" x2="254" y2="-105.166656" gradientTransform="matrix(1,0,0,1,-0.0000138509,-63.50013)">
<stop offset="0" style="stop-color:rgb(71.764706%,73.333333%,77.647059%);stop-opacity:1;"/>
<stop offset="1" style="stop-color:rgb(80%,81.568627%,84.313725%);stop-opacity:1;"/>
</linearGradient>
</defs>
<g id="surface1">
<path style=" stroke:none;fill-rule:nonzero;fill:url(#linear0);" d="M 3.96875 28.035156 L 27.785156 28.035156 L 27.785156 29.355469 L 3.96875 29.355469 Z M 3.96875 28.035156 "/>
<path style=" stroke:none;fill-rule:nonzero;fill:url(#radial0);" d="M 27.785156 26.710938 L 30.429688 26.710938 L 30.429688 29.355469 L 27.785156 29.355469 Z M 27.785156 26.710938 "/>
<path style=" stroke:none;fill-rule:nonzero;fill:url(#radial1);" d="M 1.324219 26.710938 L 3.96875 26.710938 L 3.96875 29.355469 L 1.324219 29.355469 Z M 1.324219 26.710938 "/>
<path style=" stroke:none;fill-rule:nonzero;fill:url(#linear1);" d="M 3.96875 25.386719 L 27.785156 25.386719 L 27.785156 26.710938 L 3.96875 26.710938 Z M 3.96875 25.386719 "/>
<path style=" stroke:none;fill-rule:nonzero;fill:url(#radial2);" d="M 1.324219 24.066406 L 3.96875 24.066406 L 3.96875 26.710938 L 1.324219 26.710938 Z M 1.324219 24.066406 "/>
<path style="fill-rule:nonzero;fill:url(#linear2);stroke-width:2;stroke-linecap:butt;stroke-linejoin:miter;stroke:rgb(30.19608%,30.19608%,30.19608%);stroke-opacity:1;stroke-miterlimit:4;" d="M 42.30846 -168.691922 L 465.643033 -168.691922 C 477.329417 -168.691922 486.82851 -159.192829 486.82851 -147.506445 L 486.82851 212.334192 C 486.82851 224.020576 477.329417 233.519669 465.643033 233.519669 L 42.30846 233.519669 C 30.622076 233.519669 21.185477 224.020576 21.185477 212.334192 L 21.185477 -147.506445 C 21.185477 -159.192829 30.622076 -168.691922 42.30846 -168.691922 Z M 42.30846 -168.691922 " transform="matrix(0.062506,0,0,0.062506,0,13.438783)"/>
<path style=" stroke:none;fill-rule:nonzero;fill:rgb(100%,100%,100%);fill-opacity:0.196078;" d="M 2.644531 2.894531 C 1.914062 2.894531 1.324219 3.484375 1.324219 4.21875 L 1.324219 4.550781 C 1.324219 3.816406 1.914062 3.226562 2.644531 3.226562 L 29.105469 3.226562 C 29.839844 3.226562 30.429688 3.816406 30.429688 4.550781 L 30.429688 4.21875 C 30.429688 3.484375 29.839844 2.894531 29.105469 2.894531 Z M 2.644531 2.894531 "/>
<path style=" stroke:none;fill-rule:nonzero;fill:rgb(0%,0%,0%);fill-opacity:0.0784314;" d="M 29.105469 28.035156 C 29.839844 28.035156 30.429688 27.445312 30.429688 26.710938 L 30.429688 25.386719 C 30.429688 26.304688 29.839844 27.371094 29.105469 27.371094 L 2.644531 27.371094 C 1.914062 27.371094 1.324219 26.304688 1.324219 25.386719 L 1.324219 26.710938 C 1.324219 27.445312 1.914062 28.035156 2.644531 28.035156 Z M 29.105469 28.035156 "/>
<path style=" stroke:none;fill-rule:nonzero;fill:rgb(100%,100%,100%);fill-opacity:0.196078;" d="M 7.9375 -0.410156 C 7.207031 -0.410156 6.613281 0.179688 6.613281 0.910156 L 6.613281 2.234375 C 6.613281 1.320312 7.207031 0.25 7.9375 0.25 L 34.398438 0.25 C 35.132812 0.25 35.722656 1.320312 35.722656 2.234375 L 35.722656 0.910156 C 35.722656 0.179688 35.132812 -0.410156 34.398438 -0.410156 Z M 7.9375 -0.410156 "/>
<path style=" stroke:none;fill-rule:nonzero;fill:rgb(32.549021%,33.333334%,36.470589%);fill-opacity:1;" d="M 11.246094 15.015625 C 11.246094 17.15625 12.628906 18.957031 14.554688 19.578125 L 14.554688 18.199219 C 13.378906 17.636719 12.570312 16.425781 12.570312 15.015625 C 12.570312 13.070312 14.117188 11.5 16.039062 11.5 C 17.960938 11.5 19.511719 13.070312 19.511719 15.015625 C 19.511719 16.140625 18.996094 17.136719 18.191406 17.78125 L 18.191406 19.308594 C 19.761719 18.523438 20.839844 16.902344 20.839844 15.015625 C 20.839844 12.359375 18.699219 10.222656 16.042969 10.222656 C 13.386719 10.222656 11.246094 12.359375 11.246094 15.015625 Z M 11.246094 15.015625 "/>
<path style=" stroke:none;fill-rule:nonzero;fill:rgb(32.549021%,33.333334%,36.470589%);fill-opacity:1;" d="M 15.546875 19.648438 L 14.386719 17.332031 L 12.898438 19.648438 Z M 15.546875 19.648438 "/>
<path style=" stroke:none;fill-rule:nonzero;fill:rgb(32.549021%,33.333334%,36.470589%);fill-opacity:1;" d="M 3.636719 6.203125 C 4.1875 6.203125 4.628906 6.648438 4.628906 7.195312 C 4.628906 7.742188 4.1875 8.1875 3.636719 8.1875 C 3.089844 8.1875 2.644531 7.742188 2.644531 7.195312 C 2.644531 6.648438 3.089844 6.203125 3.636719 6.203125 Z M 3.636719 6.203125 "/>
<path style=" stroke:none;fill-rule:nonzero;fill:rgb(32.549021%,33.333334%,36.470589%);fill-opacity:1;" d="M 3.636719 22.742188 C 4.1875 22.742188 4.628906 23.1875 4.628906 23.734375 C 4.628906 24.28125 4.1875 24.726562 3.636719 24.726562 C 3.089844 24.726562 2.644531 24.28125 2.644531 23.734375 C 2.644531 23.1875 3.089844 22.742188 3.636719 22.742188 Z M 3.636719 22.742188 "/>
<path style=" stroke:none;fill-rule:nonzero;fill:rgb(32.549021%,33.333334%,36.470589%);fill-opacity:1;" d="M 3.636719 9.511719 C 4.1875 9.511719 4.628906 9.957031 4.628906 10.503906 C 4.628906 11.050781 4.1875 11.496094 3.636719 11.496094 C 3.089844 11.496094 2.644531 11.050781 2.644531 10.503906 C 2.644531 9.957031 3.089844 9.511719 3.636719 9.511719 Z M 3.636719 9.511719 "/>
<path style=" stroke:none;fill-rule:nonzero;fill:rgb(32.549021%,33.333334%,36.470589%);fill-opacity:1;" d="M 3.636719 19.433594 C 4.1875 19.433594 4.628906 19.878906 4.628906 20.425781 C 4.628906 20.972656 4.1875 21.417969 3.636719 21.417969 C 3.089844 21.417969 2.644531 20.972656 2.644531 20.425781 C 2.644531 19.878906 3.089844 19.433594 3.636719 19.433594 Z M 3.636719 19.433594 "/>
<path style=" stroke:none;fill-rule:nonzero;fill:rgb(32.549021%,33.333334%,36.470589%);fill-opacity:1;" d="M 3.636719 16.125 C 4.1875 16.125 4.628906 16.570312 4.628906 17.117188 C 4.628906 17.667969 4.1875 18.109375 3.636719 18.109375 C 3.089844 18.109375 2.644531 17.667969 2.644531 17.117188 C 2.644531 16.570312 3.089844 16.125 3.636719 16.125 Z M 3.636719 16.125 "/>
<path style=" stroke:none;fill-rule:nonzero;fill:rgb(32.549021%,33.333334%,36.470589%);fill-opacity:1;" d="M 3.636719 12.820312 C 4.1875 12.820312 4.628906 13.261719 4.628906 13.8125 C 4.628906 14.359375 4.1875 14.804688 3.636719 14.804688 C 3.089844 14.804688 2.644531 14.359375 2.644531 13.8125 C 2.644531 13.261719 3.089844 12.820312 3.636719 12.820312 Z M 3.636719 12.820312 "/>
<path style=" stroke:none;fill-rule:nonzero;fill:rgb(32.549021%,33.333334%,36.470589%);fill-opacity:1;" d="M 28.113281 6.203125 C 28.664062 6.203125 29.105469 6.648438 29.105469 7.195312 C 29.105469 7.742188 28.664062 8.1875 28.113281 8.1875 C 27.566406 8.1875 27.121094 7.742188 27.121094 7.195312 C 27.121094 6.648438 27.566406 6.203125 28.113281 6.203125 Z M 28.113281 6.203125 "/>
<path style=" stroke:none;fill-rule:nonzero;fill:rgb(32.549021%,33.333334%,36.470589%);fill-opacity:1;" d="M 28.113281 22.742188 C 28.664062 22.742188 29.105469 23.1875 29.105469 23.734375 C 29.105469 24.28125 28.664062 24.726562 28.113281 24.726562 C 27.566406 24.726562 27.121094 24.28125 27.121094 23.734375 C 27.121094 23.1875 27.566406 22.742188 28.113281 22.742188 Z M 28.113281 22.742188 "/>
<path style=" stroke:none;fill-rule:nonzero;fill:rgb(32.549021%,33.333334%,36.470589%);fill-opacity:1;" d="M 28.113281 9.511719 C 28.664062 9.511719 29.105469 9.957031 29.105469 10.503906 C 29.105469 11.050781 28.664062 11.496094 28.113281 11.496094 C 27.566406 11.496094 27.121094 11.050781 27.121094 10.503906 C 27.121094 9.957031 27.566406 9.511719 28.113281 9.511719 Z M 28.113281 9.511719 "/>
<path style=" stroke:none;fill-rule:nonzero;fill:rgb(32.549021%,33.333334%,36.470589%);fill-opacity:1;" d="M 28.113281 19.433594 C 28.664062 19.433594 29.105469 19.878906 29.105469 20.425781 C 29.105469 20.972656 28.664062 21.417969 28.113281 21.417969 C 27.566406 21.417969 27.121094 20.972656 27.121094 20.425781 C 27.121094 19.878906 27.566406 19.433594 28.113281 19.433594 Z M 28.113281 19.433594 "/>
<path style=" stroke:none;fill-rule:nonzero;fill:rgb(32.549021%,33.333334%,36.470589%);fill-opacity:1;" d="M 28.113281 16.125 C 28.664062 16.125 29.105469 16.570312 29.105469 17.117188 C 29.105469 17.667969 28.664062 18.109375 28.113281 18.109375 C 27.566406 18.109375 27.121094 17.667969 27.121094 17.117188 C 27.121094 16.570312 27.566406 16.125 28.113281 16.125 Z M 28.113281 16.125 "/>
<path style=" stroke:none;fill-rule:nonzero;fill:rgb(32.549021%,33.333334%,36.470589%);fill-opacity:1;" d="M 28.113281 12.820312 C 28.664062 12.820312 29.105469 13.261719 29.105469 13.8125 C 29.105469 14.359375 28.664062 14.804688 28.113281 14.804688 C 27.566406 14.804688 27.121094 14.359375 27.121094 13.8125 C 27.121094 13.261719 27.566406 12.820312 28.113281 12.820312 Z M 28.113281 12.820312 "/>
</g>
</svg>
