<?xml version="1.0" encoding="UTF-8"?>
<svg xmlns="http://www.w3.org/2000/svg" xmlns:xlink="http://www.w3.org/1999/xlink" width="32pt" height="32pt" viewBox="0 0 32 32" version="1.1">
<defs>
<linearGradient id="linear0" gradientUnits="userSpaceOnUse" x1="365.125" y1="-105.166672" x2="365.125" y2="-136.916672" gradientTransform="matrix(1.818182,0,0,1,-381,227.477417)">
<stop offset="0" style="stop-color:rgb(32.54902%,33.333333%,36.470588%);stop-opacity:1;"/>
<stop offset="1" style="stop-color:rgb(36.470588%,37.647059%,40.784314%);stop-opacity:1;"/>
</linearGradient>
<linearGradient id="linear1" gradientUnits="userSpaceOnUse" x1="254" y1="233.5" x2="254" y2="254.666672" gradientTransform="matrix(0.062506,0,0,0.062506,0,13.438783)">
<stop offset="0" style="stop-color:rgb(0%,0%,0%);stop-opacity:0.27451;"/>
<stop offset="1" style="stop-color:rgb(0%,0%,0%);stop-opacity:0;"/>
</linearGradient>
<radialGradient id="radial0" gradientUnits="userSpaceOnUse" cx="456.200623" cy="186.933533" fx="456.200623" fy="186.933533" r="21.166656" gradientTransform="matrix(0.0000000885177,0.125012,-0.125012,0.0000000861011,51.152792,-30.319675)">
<stop offset="0" style="stop-color:rgb(0%,0%,0%);stop-opacity:0.313725;"/>
<stop offset="0.499999" style="stop-color:rgb(0%,0%,0%);stop-opacity:0.27451;"/>
<stop offset="1" style="stop-color:rgb(0%,0%,0%);stop-opacity:0;"/>
</radialGradient>
<radialGradient id="radial1" gradientUnits="userSpaceOnUse" cx="63.5" cy="212.333359" fx="63.5" fy="212.333359" r="21.166666" gradientTransform="matrix(-0.125012,0.000000037136,-0.000000037136,-0.125012,11.907396,53.255093)">
<stop offset="0" style="stop-color:rgb(0%,0%,0%);stop-opacity:0.313725;"/>
<stop offset="0.499999" style="stop-color:rgb(0%,0%,0%);stop-opacity:0.27451;"/>
<stop offset="1" style="stop-color:rgb(0%,0%,0%);stop-opacity:0;"/>
</radialGradient>
<linearGradient id="linear2" gradientUnits="userSpaceOnUse" x1="254" y1="233.5" x2="254" y2="-105.166656" gradientTransform="matrix(1,0,0,1,0.000019443,-0.0000178019)">
<stop offset="0" style="stop-color:rgb(71.764706%,73.333333%,77.647059%);stop-opacity:1;"/>
<stop offset="1" style="stop-color:rgb(80%,81.568627%,84.313725%);stop-opacity:1;"/>
</linearGradient>
<linearGradient id="linear3" gradientUnits="userSpaceOnUse" x1="365.125" y1="-105.166672" x2="365.125" y2="-136.916672" gradientTransform="matrix(1.818182,0,0,1,-381,79.375008)">
<stop offset="0" style="stop-color:rgb(32.54902%,33.333333%,36.470588%);stop-opacity:1;"/>
<stop offset="1" style="stop-color:rgb(36.470588%,37.647059%,40.784314%);stop-opacity:1;"/>
</linearGradient>
<linearGradient id="linear4" gradientUnits="userSpaceOnUse" x1="254" y1="233.5" x2="254" y2="254.666672" gradientTransform="matrix(0.062506,0,0,0.062506,0,-5.41458)">
<stop offset="0" style="stop-color:rgb(0%,0%,0%);stop-opacity:0.27451;"/>
<stop offset="1" style="stop-color:rgb(0%,0%,0%);stop-opacity:0;"/>
</linearGradient>
<radialGradient id="radial2" gradientUnits="userSpaceOnUse" cx="456.200623" cy="186.933533" fx="456.200623" fy="186.933533" r="21.166656" gradientTransform="matrix(0.0000000885177,0.125012,-0.125012,0.0000000861011,51.152792,-49.173038)">
<stop offset="0" style="stop-color:rgb(0%,0%,0%);stop-opacity:0.313725;"/>
<stop offset="0.499999" style="stop-color:rgb(0%,0%,0%);stop-opacity:0.27451;"/>
<stop offset="1" style="stop-color:rgb(0%,0%,0%);stop-opacity:0;"/>
</radialGradient>
<radialGradient id="radial3" gradientUnits="userSpaceOnUse" cx="63.5" cy="212.333359" fx="63.5" fy="212.333359" r="21.166666" gradientTransform="matrix(-0.125012,0.000000037136,-0.000000037136,-0.125012,11.907396,34.40173)">
<stop offset="0" style="stop-color:rgb(0%,0%,0%);stop-opacity:0.313725;"/>
<stop offset="0.499999" style="stop-color:rgb(0%,0%,0%);stop-opacity:0.27451;"/>
<stop offset="1" style="stop-color:rgb(0%,0%,0%);stop-opacity:0;"/>
</radialGradient>
<linearGradient id="linear5" gradientUnits="userSpaceOnUse" x1="254" y1="233.5" x2="254" y2="-105.166656" gradientTransform="matrix(1,0,0,1,0.000019443,-0.0000178019)">
<stop offset="0" style="stop-color:rgb(71.764706%,73.333333%,77.647059%);stop-opacity:1;"/>
<stop offset="1" style="stop-color:rgb(80%,81.568627%,84.313725%);stop-opacity:1;"/>
</linearGradient>
<linearGradient id="linear6" gradientUnits="userSpaceOnUse" x1="254" y1="233.5" x2="254" y2="254.666672" gradientTransform="matrix(0.062506,0,0,0.062506,0,4.177482)">
<stop offset="0" style="stop-color:rgb(0%,0%,0%);stop-opacity:0.27451;"/>
<stop offset="1" style="stop-color:rgb(0%,0%,0%);stop-opacity:0;"/>
</linearGradient>
<radialGradient id="radial4" gradientUnits="userSpaceOnUse" cx="456.200623" cy="186.933533" fx="456.200623" fy="186.933533" r="21.166656" gradientTransform="matrix(0.0000000885177,0.125012,-0.125012,0.0000000861011,51.152792,-39.580977)">
<stop offset="0" style="stop-color:rgb(0%,0%,0%);stop-opacity:0.313725;"/>
<stop offset="0.499999" style="stop-color:rgb(0%,0%,0%);stop-opacity:0.27451;"/>
<stop offset="1" style="stop-color:rgb(0%,0%,0%);stop-opacity:0;"/>
</radialGradient>
<radialGradient id="radial5" gradientUnits="userSpaceOnUse" cx="63.5" cy="212.333359" fx="63.5" fy="212.333359" r="21.166666" gradientTransform="matrix(-0.125012,0.000000037136,-0.000000037136,-0.125012,11.907396,43.993791)">
<stop offset="0" style="stop-color:rgb(0%,0%,0%);stop-opacity:0.313725;"/>
<stop offset="0.499999" style="stop-color:rgb(0%,0%,0%);stop-opacity:0.27451;"/>
<stop offset="1" style="stop-color:rgb(0%,0%,0%);stop-opacity:0;"/>
</radialGradient>
<linearGradient id="linear7" gradientUnits="userSpaceOnUse" x1="254" y1="233.5" x2="254" y2="-105.166656" gradientTransform="matrix(1,0,0,1,0.000019443,-0.0000178019)">
<stop offset="0" style="stop-color:rgb(71.764706%,73.333333%,77.647059%);stop-opacity:1;"/>
<stop offset="1" style="stop-color:rgb(80%,81.568627%,84.313725%);stop-opacity:1;"/>
</linearGradient>
</defs>
<g id="surface1">
<path style="fill-rule:nonzero;fill:url(#linear0);stroke-width:0.356764;stroke-linecap:butt;stroke-linejoin:miter;stroke:rgb(74.509805%,78.431374%,71.764708%);stroke-opacity:1;stroke-miterlimit:4;" d="M 61.556622 64.160841 C 50.932636 64.160841 42.30846 68.910388 42.30846 74.722333 L 42.30846 122.280291 L 465.643033 122.280291 L 465.643033 74.722333 C 465.643033 68.910388 457.081351 64.160841 446.394871 64.160841 Z M 61.556622 64.160841 " transform="matrix(0.062506,0,0,0.062506,0,13.438783)"/>
<path style=" stroke:none;fill-rule:nonzero;fill:url(#linear1);" d="M 3.96875 28.035156 L 27.785156 28.035156 L 27.785156 29.355469 L 3.96875 29.355469 Z M 3.96875 28.035156 "/>
<path style=" stroke:none;fill-rule:nonzero;fill:url(#radial0);" d="M 27.785156 26.710938 L 30.429688 26.710938 L 30.429688 29.355469 L 27.785156 29.355469 Z M 27.785156 26.710938 "/>
<path style=" stroke:none;fill-rule:nonzero;fill:url(#radial1);" d="M 1.324219 26.710938 L 3.96875 26.710938 L 3.96875 29.355469 L 1.324219 29.355469 Z M 1.324219 26.710938 "/>
<path style="fill-rule:nonzero;fill:url(#linear2);stroke-width:2;stroke-linecap:butt;stroke-linejoin:miter;stroke:rgb(30.19608%,30.19608%,30.19608%);stroke-opacity:1;stroke-miterlimit:4;" d="M 31.746968 122.405279 L 476.267019 122.405279 C 482.078964 122.405279 486.82851 127.092332 486.82851 132.966771 L 486.82851 222.895683 C 486.82851 228.770122 482.078964 233.519669 476.267019 233.519669 L 31.746968 233.519669 C 25.935023 233.519669 21.185477 228.770122 21.185477 222.895683 L 21.185477 132.966771 C 21.185477 127.092332 25.935023 122.405279 31.746968 122.405279 Z M 31.746968 122.405279 " transform="matrix(0.062506,0,0,0.062506,0,13.438783)"/>
<path style=" stroke:none;fill-rule:nonzero;fill:rgb(100%,100%,100%);fill-opacity:0.196078;" d="M 1.984375 21.089844 C 1.617188 21.089844 1.324219 21.382812 1.324219 21.75 L 1.324219 22.082031 C 1.324219 21.714844 1.617188 21.417969 1.984375 21.417969 L 29.769531 21.417969 C 30.136719 21.417969 30.429688 21.714844 30.429688 22.082031 L 30.429688 21.75 C 30.429688 21.382812 30.136719 21.089844 29.769531 21.089844 Z M 1.984375 21.089844 "/>
<path style=" stroke:none;fill-rule:nonzero;fill:rgb(0%,0%,0%);fill-opacity:0.196078;" d="M 1.984375 28.035156 C 1.617188 28.035156 1.324219 27.738281 1.324219 27.371094 L 1.324219 27.042969 C 1.324219 27.40625 1.617188 27.703125 1.984375 27.703125 L 29.769531 27.703125 C 30.136719 27.703125 30.429688 27.40625 30.429688 27.042969 L 30.429688 27.371094 C 30.429688 27.738281 30.136719 28.035156 29.769531 28.035156 Z M 1.984375 28.035156 "/>
<path style=" stroke:none;fill-rule:nonzero;fill:rgb(100%,100%,100%);fill-opacity:0.27451;" d="M 15.214844 4.878906 C 14.847656 4.878906 14.554688 5.175781 14.554688 5.542969 L 14.554688 5.871094 C 14.554688 5.507812 14.847656 5.210938 15.214844 5.210938 L 28.445312 5.210938 C 28.8125 5.210938 29.105469 5.507812 29.105469 5.871094 L 29.105469 5.542969 C 29.105469 5.175781 28.8125 4.878906 28.445312 4.878906 Z M 15.214844 4.878906 "/>
<path style="fill-rule:nonzero;fill:url(#linear3);stroke-width:0.356764;stroke-linecap:butt;stroke-linejoin:miter;stroke:rgb(74.509805%,78.431374%,71.764708%);stroke-opacity:1;stroke-miterlimit:4;" d="M 61.556622 -83.950015 C 50.932636 -83.950015 42.30846 -79.200468 42.30846 -73.326029 L 42.30846 -25.768071 L 465.643033 -25.768071 L 465.643033 -73.326029 C 465.643033 -79.200468 457.081351 -83.950015 446.394871 -83.950015 Z M 61.556622 -83.950015 " transform="matrix(0.062506,0,0,0.062506,0,13.438783)"/>
<path style=" stroke:none;fill-rule:nonzero;fill:url(#linear4);" d="M 3.96875 9.179688 L 27.785156 9.179688 L 27.785156 10.503906 L 3.96875 10.503906 Z M 3.96875 9.179688 "/>
<path style=" stroke:none;fill-rule:nonzero;fill:url(#radial2);" d="M 27.785156 7.859375 L 30.429688 7.859375 L 30.429688 10.503906 L 27.785156 10.503906 Z M 27.785156 7.859375 "/>
<path style=" stroke:none;fill-rule:nonzero;fill:url(#radial3);" d="M 1.324219 7.859375 L 3.96875 7.859375 L 3.96875 10.503906 L 1.324219 10.503906 Z M 1.324219 7.859375 "/>
<path style="fill-rule:nonzero;fill:url(#linear5);stroke-width:2;stroke-linecap:butt;stroke-linejoin:miter;stroke:rgb(30.19608%,30.19608%,30.19608%);stroke-opacity:1;stroke-miterlimit:4;" d="M 31.746968 122.371586 L 476.267019 122.371586 C 482.078964 122.371586 486.82851 127.121133 486.82851 132.933078 L 486.82851 222.924484 C 486.82851 228.736429 482.078964 233.485975 476.267019 233.485975 L 31.746968 233.485975 C 25.935023 233.485975 21.185477 228.736429 21.185477 222.924484 L 21.185477 132.933078 C 21.185477 127.121133 25.935023 122.371586 31.746968 122.371586 Z M 31.746968 122.371586 " transform="matrix(0.062506,0,0,0.062506,0,-5.41458)"/>
<path style=" stroke:none;fill-rule:nonzero;fill:rgb(100%,100%,100%);fill-opacity:0.196078;" d="M 1.984375 2.234375 C 1.617188 2.234375 1.324219 2.53125 1.324219 2.894531 L 1.324219 3.226562 C 1.324219 2.859375 1.617188 2.566406 1.984375 2.566406 L 29.769531 2.566406 C 30.136719 2.566406 30.429688 2.859375 30.429688 3.226562 L 30.429688 2.894531 C 30.429688 2.53125 30.136719 2.234375 29.769531 2.234375 Z M 1.984375 2.234375 "/>
<path style=" stroke:none;fill-rule:nonzero;fill:rgb(0%,0%,0%);fill-opacity:0.196078;" d="M 1.984375 9.179688 C 1.617188 9.179688 1.324219 8.886719 1.324219 8.519531 L 1.324219 8.1875 C 1.324219 8.554688 1.617188 8.851562 1.984375 8.851562 L 29.769531 8.851562 C 30.136719 8.851562 30.429688 8.554688 30.429688 8.1875 L 30.429688 8.519531 C 30.429688 8.886719 30.136719 9.179688 29.769531 9.179688 Z M 1.984375 9.179688 "/>
<path style=" stroke:none;fill-rule:nonzero;fill:url(#linear6);" d="M 3.96875 18.773438 L 27.785156 18.773438 L 27.785156 20.09375 L 3.96875 20.09375 Z M 3.96875 18.773438 "/>
<path style=" stroke:none;fill-rule:nonzero;fill:url(#radial4);" d="M 27.785156 17.449219 L 30.429688 17.449219 L 30.429688 20.09375 L 27.785156 20.09375 Z M 27.785156 17.449219 "/>
<path style=" stroke:none;fill-rule:nonzero;fill:url(#radial5);" d="M 1.324219 17.449219 L 3.96875 17.449219 L 3.96875 20.09375 L 1.324219 20.09375 Z M 1.324219 17.449219 "/>
<path style="fill-rule:nonzero;fill:url(#linear7);stroke-width:2;stroke-linecap:butt;stroke-linejoin:miter;stroke:rgb(30.19608%,30.19608%,30.19608%);stroke-opacity:1;stroke-miterlimit:4;" d="M 31.746968 122.398601 L 476.267019 122.398601 C 482.078964 122.398601 486.82851 127.085653 486.82851 132.960092 L 486.82851 222.889005 C 486.82851 228.763444 482.078964 233.51299 476.267019 233.51299 L 31.746968 233.51299 C 25.935023 233.51299 21.185477 228.763444 21.185477 222.889005 L 21.185477 132.960092 C 21.185477 127.085653 25.935023 122.398601 31.746968 122.398601 Z M 31.746968 122.398601 " transform="matrix(0.062506,0,0,0.062506,0,4.177482)"/>
<path style=" stroke:none;fill-rule:nonzero;fill:rgb(100%,100%,100%);fill-opacity:0.196078;" d="M 1.984375 11.828125 C 1.617188 11.828125 1.324219 12.121094 1.324219 12.488281 L 1.324219 12.820312 C 1.324219 12.453125 1.617188 12.15625 1.984375 12.15625 L 29.769531 12.15625 C 30.136719 12.15625 30.429688 12.453125 30.429688 12.820312 L 30.429688 12.488281 C 30.429688 12.121094 30.136719 11.828125 29.769531 11.828125 Z M 1.984375 11.828125 "/>
<path style=" stroke:none;fill-rule:nonzero;fill:rgb(0%,0%,0%);fill-opacity:0.196078;" d="M 1.984375 18.773438 C 1.617188 18.773438 1.324219 18.476562 1.324219 18.109375 L 1.324219 17.78125 C 1.324219 18.148438 1.617188 18.441406 1.984375 18.441406 L 29.769531 18.441406 C 30.136719 18.441406 30.429688 18.148438 30.429688 17.78125 L 30.429688 18.109375 C 30.429688 18.476562 30.136719 18.773438 29.769531 18.773438 Z M 1.984375 18.773438 "/>
<path style=" stroke:none;fill-rule:nonzero;fill:rgb(20%,20%,20%);fill-opacity:1;" d="M 5.964844 14.636719 C 6.328125 14.636719 6.625 14.933594 6.625 15.300781 C 6.625 15.664062 6.328125 15.960938 5.964844 15.960938 C 5.597656 15.960938 5.300781 15.664062 5.300781 15.300781 C 5.300781 14.933594 5.597656 14.636719 5.964844 14.636719 Z M 5.964844 14.636719 "/>
<path style=" stroke:none;fill-rule:nonzero;fill:rgb(20%,20%,20%);fill-opacity:1;" d="M 8.609375 14.636719 C 8.976562 14.636719 9.273438 14.933594 9.273438 15.300781 C 9.273438 15.664062 8.976562 15.960938 8.609375 15.960938 C 8.246094 15.960938 7.949219 15.664062 7.949219 15.300781 C 7.949219 14.933594 8.246094 14.636719 8.609375 14.636719 Z M 8.609375 14.636719 "/>
<path style=" stroke:none;fill-rule:nonzero;fill:rgb(20%,20%,20%);fill-opacity:1;" d="M 3.316406 14.636719 C 3.683594 14.636719 3.980469 14.933594 3.980469 15.300781 C 3.980469 15.664062 3.683594 15.960938 3.316406 15.960938 C 2.953125 15.960938 2.65625 15.664062 2.65625 15.300781 C 2.65625 14.933594 2.953125 14.636719 3.316406 14.636719 Z M 3.316406 14.636719 "/>
<path style=" stroke:none;fill-rule:nonzero;fill:rgb(57.647061%,67.450982%,61.56863%);fill-opacity:1;" d="M 8.609375 16.125 C 8.242188 16.125 7.949219 15.832031 7.949219 15.464844 C 7.949219 15.4375 7.949219 15.410156 7.953125 15.382812 C 7.996094 15.710938 8.273438 15.960938 8.609375 15.960938 C 8.949219 15.960938 9.226562 15.710938 9.265625 15.382812 C 9.269531 15.410156 9.273438 15.4375 9.273438 15.464844 C 9.273438 15.832031 8.976562 16.125 8.609375 16.125 Z M 8.609375 16.125 "/>
<path style=" stroke:none;fill-rule:nonzero;fill:rgb(100%,100%,100%);fill-opacity:0.196078;" d="M 8.609375 16.125 C 8.242188 16.125 7.949219 15.832031 7.949219 15.464844 C 7.949219 15.4375 7.949219 15.410156 7.953125 15.382812 C 7.996094 15.710938 8.273438 15.960938 8.609375 15.960938 C 8.949219 15.960938 9.226562 15.710938 9.265625 15.382812 C 9.269531 15.410156 9.273438 15.4375 9.273438 15.464844 C 9.273438 15.832031 8.976562 16.125 8.609375 16.125 Z M 8.609375 16.125 "/>
<path style=" stroke:none;fill-rule:nonzero;fill:rgb(100%,100%,100%);fill-opacity:0.196078;" d="M 5.96875 16.125 C 5.601562 16.125 5.308594 15.832031 5.308594 15.464844 C 5.308594 15.4375 5.308594 15.410156 5.3125 15.382812 C 5.355469 15.710938 5.632812 15.960938 5.96875 15.960938 C 6.308594 15.960938 6.585938 15.710938 6.625 15.382812 C 6.628906 15.410156 6.632812 15.4375 6.632812 15.464844 C 6.632812 15.832031 6.335938 16.125 5.96875 16.125 Z M 5.96875 16.125 "/>
<path style=" stroke:none;fill-rule:nonzero;fill:rgb(100%,100%,100%);fill-opacity:0.196078;" d="M 3.316406 16.125 C 2.953125 16.125 2.65625 15.832031 2.65625 15.464844 C 2.65625 15.4375 2.660156 15.410156 2.660156 15.382812 C 2.703125 15.710938 2.980469 15.960938 3.316406 15.960938 C 3.65625 15.960938 3.933594 15.710938 3.972656 15.382812 C 3.976562 15.410156 3.980469 15.4375 3.980469 15.464844 C 3.980469 15.832031 3.683594 16.125 3.316406 16.125 Z M 3.316406 16.125 "/>
<path style=" stroke:none;fill-rule:nonzero;fill:rgb(0%,0%,0%);fill-opacity:0.196078;" d="M 3.316406 14.636719 C 3.683594 14.636719 3.980469 14.933594 3.980469 15.300781 C 3.980469 15.328125 3.976562 15.355469 3.972656 15.382812 C 3.933594 15.054688 3.65625 14.804688 3.316406 14.804688 C 2.980469 14.804688 2.703125 15.054688 2.660156 15.382812 C 2.660156 15.355469 2.65625 15.328125 2.65625 15.300781 C 2.65625 14.933594 2.953125 14.636719 3.316406 14.636719 Z M 3.316406 14.636719 "/>
<path style=" stroke:none;fill-rule:nonzero;fill:rgb(0%,0%,0%);fill-opacity:0.196078;" d="M 5.957031 14.636719 C 6.324219 14.636719 6.621094 14.933594 6.621094 15.300781 C 6.621094 15.328125 6.617188 15.355469 6.613281 15.382812 C 6.574219 15.054688 6.296875 14.804688 5.957031 14.804688 C 5.621094 14.804688 5.34375 15.054688 5.300781 15.382812 C 5.300781 15.355469 5.296875 15.328125 5.296875 15.300781 C 5.296875 14.933594 5.59375 14.636719 5.957031 14.636719 Z M 5.957031 14.636719 "/>
<path style=" stroke:none;fill-rule:nonzero;fill:rgb(0%,0%,0%);fill-opacity:0.196078;" d="M 8.609375 14.636719 C 8.976562 14.636719 9.273438 14.933594 9.273438 15.300781 C 9.273438 15.328125 9.269531 15.355469 9.265625 15.382812 C 9.226562 15.054688 8.949219 14.804688 8.609375 14.804688 C 8.273438 14.804688 7.996094 15.054688 7.953125 15.382812 C 7.949219 15.355469 7.949219 15.328125 7.949219 15.300781 C 7.949219 14.933594 8.242188 14.636719 8.609375 14.636719 Z M 8.609375 14.636719 "/>
<path style=" stroke:none;fill-rule:nonzero;fill:rgb(20%,20%,20%);fill-opacity:1;" d="M 5.964844 4.878906 C 6.328125 4.878906 6.625 5.175781 6.625 5.542969 C 6.625 5.90625 6.328125 6.203125 5.964844 6.203125 C 5.597656 6.203125 5.300781 5.90625 5.300781 5.542969 C 5.300781 5.175781 5.597656 4.878906 5.964844 4.878906 Z M 5.964844 4.878906 "/>
<path style=" stroke:none;fill-rule:nonzero;fill:rgb(20%,20%,20%);fill-opacity:1;" d="M 8.609375 4.878906 C 8.976562 4.878906 9.273438 5.175781 9.273438 5.542969 C 9.273438 5.90625 8.976562 6.203125 8.609375 6.203125 C 8.246094 6.203125 7.949219 5.90625 7.949219 5.542969 C 7.949219 5.175781 8.246094 4.878906 8.609375 4.878906 Z M 8.609375 4.878906 "/>
<path style=" stroke:none;fill-rule:nonzero;fill:rgb(20%,20%,20%);fill-opacity:1;" d="M 3.316406 4.878906 C 3.683594 4.878906 3.980469 5.175781 3.980469 5.542969 C 3.980469 5.90625 3.683594 6.203125 3.316406 6.203125 C 2.953125 6.203125 2.65625 5.90625 2.65625 5.542969 C 2.65625 5.175781 2.953125 4.878906 3.316406 4.878906 Z M 3.316406 4.878906 "/>
<path style=" stroke:none;fill-rule:nonzero;fill:rgb(57.647061%,67.450982%,61.56863%);fill-opacity:1;" d="M 8.609375 6.367188 C 8.242188 6.367188 7.949219 6.074219 7.949219 5.707031 C 7.949219 5.679688 7.949219 5.652344 7.953125 5.625 C 7.996094 5.953125 8.273438 6.203125 8.609375 6.203125 C 8.949219 6.203125 9.226562 5.953125 9.265625 5.625 C 9.269531 5.652344 9.273438 5.679688 9.273438 5.707031 C 9.273438 6.074219 8.976562 6.367188 8.609375 6.367188 Z M 8.609375 6.367188 "/>
<path style=" stroke:none;fill-rule:nonzero;fill:rgb(100%,100%,100%);fill-opacity:0.196078;" d="M 8.609375 6.367188 C 8.242188 6.367188 7.949219 6.074219 7.949219 5.707031 C 7.949219 5.679688 7.949219 5.652344 7.953125 5.625 C 7.996094 5.953125 8.273438 6.203125 8.609375 6.203125 C 8.949219 6.203125 9.226562 5.953125 9.265625 5.625 C 9.269531 5.652344 9.273438 5.679688 9.273438 5.707031 C 9.273438 6.074219 8.976562 6.367188 8.609375 6.367188 Z M 8.609375 6.367188 "/>
<path style=" stroke:none;fill-rule:nonzero;fill:rgb(100%,100%,100%);fill-opacity:0.196078;" d="M 5.96875 6.367188 C 5.601562 6.367188 5.308594 6.074219 5.308594 5.707031 C 5.308594 5.679688 5.308594 5.652344 5.3125 5.625 C 5.355469 5.953125 5.632812 6.203125 5.96875 6.203125 C 6.308594 6.203125 6.585938 5.953125 6.625 5.625 C 6.628906 5.652344 6.632812 5.679688 6.632812 5.707031 C 6.632812 6.074219 6.335938 6.367188 5.96875 6.367188 Z M 5.96875 6.367188 "/>
<path style=" stroke:none;fill-rule:nonzero;fill:rgb(100%,100%,100%);fill-opacity:0.196078;" d="M 3.316406 6.367188 C 2.953125 6.367188 2.65625 6.074219 2.65625 5.707031 C 2.65625 5.679688 2.660156 5.652344 2.660156 5.625 C 2.703125 5.953125 2.980469 6.203125 3.316406 6.203125 C 3.65625 6.203125 3.933594 5.953125 3.972656 5.625 C 3.976562 5.652344 3.980469 5.679688 3.980469 5.707031 C 3.980469 6.074219 3.683594 6.367188 3.316406 6.367188 Z M 3.316406 6.367188 "/>
<path style=" stroke:none;fill-rule:nonzero;fill:rgb(0%,0%,0%);fill-opacity:0.196078;" d="M 3.316406 4.878906 C 3.683594 4.878906 3.980469 5.175781 3.980469 5.542969 C 3.980469 5.570312 3.976562 5.597656 3.972656 5.625 C 3.933594 5.296875 3.65625 5.046875 3.316406 5.046875 C 2.980469 5.046875 2.703125 5.296875 2.660156 5.625 C 2.660156 5.597656 2.65625 5.570312 2.65625 5.542969 C 2.65625 5.175781 2.953125 4.878906 3.316406 4.878906 Z M 3.316406 4.878906 "/>
<path style=" stroke:none;fill-rule:nonzero;fill:rgb(0%,0%,0%);fill-opacity:0.196078;" d="M 5.957031 4.878906 C 6.324219 4.878906 6.621094 5.175781 6.621094 5.542969 C 6.621094 5.570312 6.617188 5.597656 6.613281 5.625 C 6.574219 5.296875 6.296875 5.046875 5.957031 5.046875 C 5.621094 5.046875 5.34375 5.296875 5.300781 5.625 C 5.300781 5.597656 5.296875 5.570312 5.296875 5.542969 C 5.296875 5.175781 5.59375 4.878906 5.957031 4.878906 Z M 5.957031 4.878906 "/>
<path style=" stroke:none;fill-rule:nonzero;fill:rgb(0%,0%,0%);fill-opacity:0.196078;" d="M 8.609375 4.878906 C 8.976562 4.878906 9.273438 5.175781 9.273438 5.542969 C 9.273438 5.570312 9.269531 5.597656 9.265625 5.625 C 9.226562 5.296875 8.949219 5.046875 8.609375 5.046875 C 8.273438 5.046875 7.996094 5.296875 7.953125 5.625 C 7.949219 5.597656 7.949219 5.570312 7.949219 5.542969 C 7.949219 5.175781 8.242188 4.878906 8.609375 4.878906 Z M 8.609375 4.878906 "/>
<path style=" stroke:none;fill-rule:nonzero;fill:rgb(20%,20%,20%);fill-opacity:1;" d="M 5.964844 24.066406 C 6.328125 24.066406 6.625 24.359375 6.625 24.726562 C 6.625 25.089844 6.328125 25.386719 5.964844 25.386719 C 5.597656 25.386719 5.300781 25.089844 5.300781 24.726562 C 5.300781 24.359375 5.597656 24.066406 5.964844 24.066406 Z M 5.964844 24.066406 "/>
<path style=" stroke:none;fill-rule:nonzero;fill:rgb(20%,20%,20%);fill-opacity:1;" d="M 8.609375 24.066406 C 8.976562 24.066406 9.273438 24.359375 9.273438 24.726562 C 9.273438 25.089844 8.976562 25.386719 8.609375 25.386719 C 8.246094 25.386719 7.949219 25.089844 7.949219 24.726562 C 7.949219 24.359375 8.246094 24.066406 8.609375 24.066406 Z M 8.609375 24.066406 "/>
<path style=" stroke:none;fill-rule:nonzero;fill:rgb(20%,20%,20%);fill-opacity:1;" d="M 3.316406 24.066406 C 3.683594 24.066406 3.980469 24.359375 3.980469 24.726562 C 3.980469 25.089844 3.683594 25.386719 3.316406 25.386719 C 2.953125 25.386719 2.65625 25.089844 2.65625 24.726562 C 2.65625 24.359375 2.953125 24.066406 3.316406 24.066406 Z M 3.316406 24.066406 "/>
<path style=" stroke:none;fill-rule:nonzero;fill:rgb(57.647061%,67.450982%,61.56863%);fill-opacity:1;" d="M 8.609375 25.554688 C 8.242188 25.554688 7.949219 25.257812 7.949219 24.890625 C 7.949219 24.863281 7.949219 24.835938 7.953125 24.808594 C 7.996094 25.136719 8.273438 25.386719 8.609375 25.386719 C 8.949219 25.386719 9.226562 25.136719 9.265625 24.808594 C 9.269531 24.835938 9.273438 24.863281 9.273438 24.890625 C 9.273438 25.257812 8.976562 25.554688 8.609375 25.554688 Z M 8.609375 25.554688 "/>
<path style=" stroke:none;fill-rule:nonzero;fill:rgb(100%,100%,100%);fill-opacity:0.196078;" d="M 8.609375 25.554688 C 8.242188 25.554688 7.949219 25.257812 7.949219 24.890625 C 7.949219 24.863281 7.949219 24.835938 7.953125 24.808594 C 7.996094 25.136719 8.273438 25.386719 8.609375 25.386719 C 8.949219 25.386719 9.226562 25.136719 9.265625 24.808594 C 9.269531 24.835938 9.273438 24.863281 9.273438 24.890625 C 9.273438 25.257812 8.976562 25.554688 8.609375 25.554688 Z M 8.609375 25.554688 "/>
<path style=" stroke:none;fill-rule:nonzero;fill:rgb(100%,100%,100%);fill-opacity:0.196078;" d="M 5.96875 25.554688 C 5.601562 25.554688 5.308594 25.257812 5.308594 24.890625 C 5.308594 24.863281 5.308594 24.835938 5.3125 24.808594 C 5.355469 25.136719 5.632812 25.386719 5.96875 25.386719 C 6.308594 25.386719 6.585938 25.136719 6.625 24.808594 C 6.628906 24.835938 6.632812 24.863281 6.632812 24.890625 C 6.632812 25.257812 6.335938 25.554688 5.96875 25.554688 Z M 5.96875 25.554688 "/>
<path style=" stroke:none;fill-rule:nonzero;fill:rgb(100%,100%,100%);fill-opacity:0.196078;" d="M 3.316406 25.554688 C 2.953125 25.554688 2.65625 25.257812 2.65625 24.890625 C 2.65625 24.863281 2.660156 24.835938 2.660156 24.808594 C 2.703125 25.136719 2.980469 25.386719 3.316406 25.386719 C 3.65625 25.386719 3.933594 25.136719 3.972656 24.808594 C 3.976562 24.835938 3.980469 24.863281 3.980469 24.890625 C 3.980469 25.257812 3.683594 25.554688 3.316406 25.554688 Z M 3.316406 25.554688 "/>
<path style=" stroke:none;fill-rule:nonzero;fill:rgb(0%,0%,0%);fill-opacity:0.196078;" d="M 3.316406 24.066406 C 3.683594 24.066406 3.980469 24.359375 3.980469 24.726562 C 3.980469 24.753906 3.976562 24.78125 3.972656 24.808594 C 3.933594 24.480469 3.65625 24.230469 3.316406 24.230469 C 2.980469 24.230469 2.703125 24.480469 2.660156 24.808594 C 2.660156 24.78125 2.65625 24.753906 2.65625 24.726562 C 2.65625 24.359375 2.953125 24.066406 3.316406 24.066406 Z M 3.316406 24.066406 "/>
<path style=" stroke:none;fill-rule:nonzero;fill:rgb(0%,0%,0%);fill-opacity:0.196078;" d="M 5.957031 24.066406 C 6.324219 24.066406 6.621094 24.359375 6.621094 24.726562 C 6.621094 24.753906 6.617188 24.78125 6.613281 24.808594 C 6.574219 24.480469 6.296875 24.230469 5.957031 24.230469 C 5.621094 24.230469 5.34375 24.480469 5.300781 24.808594 C 5.300781 24.78125 5.296875 24.753906 5.296875 24.726562 C 5.296875 24.359375 5.59375 24.066406 5.957031 24.066406 Z M 5.957031 24.066406 "/>
<path style=" stroke:none;fill-rule:nonzero;fill:rgb(0%,0%,0%);fill-opacity:0.196078;" d="M 8.609375 24.066406 C 8.976562 24.066406 9.273438 24.359375 9.273438 24.726562 C 9.273438 24.753906 9.269531 24.78125 9.265625 24.808594 C 9.226562 24.480469 8.949219 24.230469 8.609375 24.230469 C 8.273438 24.230469 7.996094 24.480469 7.953125 24.808594 C 7.949219 24.78125 7.949219 24.753906 7.949219 24.726562 C 7.949219 24.359375 8.242188 24.066406 8.609375 24.066406 Z M 8.609375 24.066406 "/>
</g>
</svg>
