<?xml version="1.0" encoding="UTF-8"?>
<svg xmlns="http://www.w3.org/2000/svg" xmlns:xlink="http://www.w3.org/1999/xlink" width="32pt" height="32pt" viewBox="0 0 32 32" version="1.1">
<defs>
<linearGradient id="linear0" gradientUnits="userSpaceOnUse" x1="254" y1="275.833344" x2="254" y2="-189.833328" gradientTransform="matrix(0.062506,0,0,0.062506,0,13.438783)">
<stop offset="0" style="stop-color:rgb(71.764706%,73.333333%,77.647059%);stop-opacity:1;"/>
<stop offset="1" style="stop-color:rgb(80%,81.568627%,84.313725%);stop-opacity:1;"/>
</linearGradient>
</defs>
<g id="surface1">
<path style=" stroke:none;fill-rule:nonzero;fill:url(#linear0);" d="M 5.292969 1.574219 C 3.09375 1.574219 1.324219 3.34375 1.324219 5.542969 C 1.324219 7.742188 3.09375 9.511719 5.292969 9.511719 C 7.492188 9.511719 9.261719 7.742188 9.261719 5.542969 C 9.261719 3.34375 7.492188 1.574219 5.292969 1.574219 Z M 15.875 1.574219 C 13.675781 1.574219 11.90625 3.34375 11.90625 5.542969 C 11.90625 7.742188 13.675781 9.511719 15.875 9.511719 C 18.074219 9.511719 19.84375 7.742188 19.84375 5.542969 C 19.84375 3.34375 18.074219 1.574219 15.875 1.574219 Z M 26.460938 1.574219 C 24.261719 1.574219 22.492188 3.34375 22.492188 5.542969 C 22.492188 7.742188 24.261719 9.511719 26.460938 9.511719 C 28.660156 9.511719 30.429688 7.742188 30.429688 5.542969 C 30.429688 3.34375 28.660156 1.574219 26.460938 1.574219 Z M 5.292969 12.15625 C 3.09375 12.15625 1.324219 13.925781 1.324219 16.125 C 1.324219 18.324219 3.09375 20.09375 5.292969 20.09375 C 7.492188 20.09375 9.261719 18.324219 9.261719 16.125 C 9.261719 13.925781 7.492188 12.15625 5.292969 12.15625 Z M 15.875 12.15625 C 13.675781 12.15625 11.90625 13.925781 11.90625 16.125 C 11.90625 18.324219 13.675781 20.09375 15.875 20.09375 C 18.074219 20.09375 19.84375 18.324219 19.84375 16.125 C 19.84375 13.925781 18.074219 12.15625 15.875 12.15625 Z M 26.460938 12.15625 C 24.261719 12.15625 22.492188 13.925781 22.492188 16.125 C 22.492188 18.324219 24.261719 20.09375 26.460938 20.09375 C 28.660156 20.09375 30.429688 18.324219 30.429688 16.125 C 30.429688 13.925781 28.660156 12.15625 26.460938 12.15625 Z M 5.292969 22.742188 C 3.09375 22.742188 1.324219 24.511719 1.324219 26.710938 C 1.324219 28.910156 3.09375 30.679688 5.292969 30.679688 C 7.492188 30.679688 9.261719 28.910156 9.261719 26.710938 C 9.261719 24.511719 7.492188 22.742188 5.292969 22.742188 Z M 15.875 22.742188 C 13.675781 22.742188 11.90625 24.511719 11.90625 26.710938 C 11.90625 28.910156 13.675781 30.679688 15.875 30.679688 C 18.074219 30.679688 19.84375 28.910156 19.84375 26.710938 C 19.84375 24.511719 18.074219 22.742188 15.875 22.742188 Z M 26.460938 22.742188 C 24.261719 22.742188 22.492188 24.511719 22.492188 26.710938 C 22.492188 28.910156 24.261719 30.679688 26.460938 30.679688 C 28.660156 30.679688 30.429688 28.910156 30.429688 26.710938 C 30.429688 24.511719 28.660156 22.742188 26.460938 22.742188 Z M 26.460938 22.742188 "/>
</g>
</svg>
