<?xml version="1.0" encoding="UTF-8"?>
<svg xmlns="http://www.w3.org/2000/svg" xmlns:xlink="http://www.w3.org/1999/xlink" width="32pt" height="32pt" viewBox="0 0 32 32" version="1.1">
<defs>
<radialGradient id="radial0" gradientUnits="userSpaceOnUse" cx="63.5" cy="212.333359" fx="63.5" fy="212.333359" r="21.166666" gradientTransform="matrix(0.125012,0.000000037136,0.000000037136,-0.125012,14.553463,55.239653)">
<stop offset="0" style="stop-color:rgb(0%,0%,0%);stop-opacity:0.313725;"/>
<stop offset="0.499999" style="stop-color:rgb(0%,0%,0%);stop-opacity:0.27451;"/>
<stop offset="1" style="stop-color:rgb(0%,0%,0%);stop-opacity:0;"/>
</radialGradient>
<linearGradient id="linear0" gradientUnits="userSpaceOnUse" x1="254" y1="233.5" x2="254" y2="254.666672" gradientTransform="matrix(0.062506,0,0,0.062506,5.292175,15.423347)">
<stop offset="0" style="stop-color:rgb(0%,0%,0%);stop-opacity:0.27451;"/>
<stop offset="1" style="stop-color:rgb(0%,0%,0%);stop-opacity:0;"/>
</linearGradient>
<radialGradient id="radial1" gradientUnits="userSpaceOnUse" cx="63.5" cy="212.333359" fx="63.5" fy="212.333359" r="21.166666" gradientTransform="matrix(-0.125012,0.000000037136,-0.000000037136,-0.125012,17.19957,55.239653)">
<stop offset="0" style="stop-color:rgb(0%,0%,0%);stop-opacity:0.313725;"/>
<stop offset="0.499999" style="stop-color:rgb(0%,0%,0%);stop-opacity:0.27451;"/>
<stop offset="1" style="stop-color:rgb(0%,0%,0%);stop-opacity:0;"/>
</radialGradient>
<linearGradient id="linear1" gradientUnits="userSpaceOnUse" x1="960" y1="615.118103" x2="960" y2="175.118134" gradientTransform="matrix(0.016538,0,0,0.016538,0,0)">
<stop offset="0" style="stop-color:rgb(71.764706%,73.333333%,77.647059%);stop-opacity:1;"/>
<stop offset="1" style="stop-color:rgb(80%,81.568627%,84.313725%);stop-opacity:1;"/>
</linearGradient>
<linearGradient id="linear2" gradientUnits="userSpaceOnUse" x1="254" y1="265.25" x2="254" y2="-31.083334" gradientTransform="matrix(0.062506,0,0,0.062506,0,13.438783)">
<stop offset="0" style="stop-color:rgb(71.764706%,73.333333%,77.647059%);stop-opacity:1;"/>
<stop offset="1" style="stop-color:rgb(80%,81.568627%,84.313725%);stop-opacity:1;"/>
</linearGradient>
</defs>
<g id="surface1">
<path style=" stroke:none;fill-rule:nonzero;fill:url(#radial0);" d="M 25.136719 28.695312 L 22.492188 28.695312 L 22.492188 31.339844 L 25.136719 31.339844 Z M 25.136719 28.695312 "/>
<path style=" stroke:none;fill-rule:nonzero;fill:url(#linear0);" d="M 9.261719 30.019531 L 22.492188 30.019531 L 22.492188 31.339844 L 9.261719 31.339844 Z M 9.261719 30.019531 "/>
<path style=" stroke:none;fill-rule:nonzero;fill:url(#radial1);" d="M 6.613281 28.695312 L 9.261719 28.695312 L 9.261719 31.339844 L 6.613281 31.339844 Z M 6.613281 28.695312 "/>
<path style=" stroke:none;fill-rule:nonzero;fill:url(#linear1);" d="M 7.277344 2.894531 C 6.910156 2.894531 6.613281 3.191406 6.613281 3.558594 L 6.613281 10.171875 L 25.136719 10.171875 L 25.136719 3.558594 C 25.136719 3.191406 24.84375 2.894531 24.476562 2.894531 Z M 7.277344 2.894531 "/>
<path style=" stroke:none;fill-rule:nonzero;fill:rgb(32.549021%,33.333334%,36.470589%);fill-opacity:1;" d="M 7.277344 10.171875 L 24.476562 10.171875 L 24.476562 11.496094 L 7.277344 11.496094 Z M 7.277344 10.171875 "/>
<path style=" stroke:none;fill-rule:nonzero;fill:url(#linear2);" d="M 24.476562 30.019531 C 24.84375 30.019531 25.136719 29.722656 25.136719 29.355469 L 25.136719 11.496094 L 6.613281 11.496094 L 6.613281 29.355469 C 6.613281 29.722656 6.910156 30.019531 7.277344 30.019531 Z M 24.476562 30.019531 "/>
<path style=" stroke:none;fill-rule:nonzero;fill:rgb(20%,20%,20%);fill-opacity:1;" d="M 15.886719 26.710938 C 16.253906 26.710938 16.546875 27.007812 16.546875 27.371094 C 16.546875 27.738281 16.253906 28.035156 15.886719 28.035156 C 15.523438 28.035156 15.226562 27.738281 15.226562 27.371094 C 15.226562 27.007812 15.523438 26.710938 15.886719 26.710938 Z M 15.886719 26.710938 "/>
<path style=" stroke:none;fill-rule:nonzero;fill:rgb(20%,20%,20%);fill-opacity:1;" d="M 18.53125 26.710938 C 18.898438 26.710938 19.195312 27.007812 19.195312 27.371094 C 19.195312 27.738281 18.898438 28.035156 18.53125 28.035156 C 18.167969 28.035156 17.871094 27.738281 17.871094 27.371094 C 17.871094 27.007812 18.167969 26.710938 18.53125 26.710938 Z M 18.53125 26.710938 "/>
<path style=" stroke:none;fill-rule:nonzero;fill:rgb(20%,20%,20%);fill-opacity:1;" d="M 13.242188 26.710938 C 13.605469 26.710938 13.902344 27.007812 13.902344 27.371094 C 13.902344 27.738281 13.605469 28.035156 13.242188 28.035156 C 12.875 28.035156 12.578125 27.738281 12.578125 27.371094 C 12.578125 27.007812 12.875 26.710938 13.242188 26.710938 Z M 13.242188 26.710938 "/>
<path style=" stroke:none;fill-rule:nonzero;fill:rgb(100%,100%,100%);fill-opacity:0.196078;" d="M 18.53125 28.199219 C 18.167969 28.199219 17.871094 27.902344 17.871094 27.539062 C 17.871094 27.507812 17.875 27.480469 17.875 27.457031 C 17.917969 27.78125 18.195312 28.035156 18.53125 28.035156 C 18.871094 28.035156 19.148438 27.78125 19.1875 27.457031 C 19.191406 27.480469 19.195312 27.507812 19.195312 27.539062 C 19.195312 27.902344 18.898438 28.199219 18.53125 28.199219 Z M 18.53125 28.199219 "/>
<path style=" stroke:none;fill-rule:nonzero;fill:rgb(100%,100%,100%);fill-opacity:0.196078;" d="M 15.890625 28.199219 C 15.527344 28.199219 15.230469 27.902344 15.230469 27.539062 C 15.230469 27.507812 15.234375 27.480469 15.234375 27.457031 C 15.277344 27.78125 15.554688 28.035156 15.890625 28.035156 C 16.230469 28.035156 16.507812 27.78125 16.546875 27.457031 C 16.550781 27.480469 16.554688 27.507812 16.554688 27.539062 C 16.554688 27.902344 16.257812 28.199219 15.890625 28.199219 Z M 15.890625 28.199219 "/>
<path style=" stroke:none;fill-rule:nonzero;fill:rgb(100%,100%,100%);fill-opacity:0.196078;" d="M 13.242188 28.199219 C 12.875 28.199219 12.578125 27.902344 12.578125 27.539062 C 12.578125 27.507812 12.582031 27.480469 12.585938 27.457031 C 12.625 27.78125 12.902344 28.035156 13.242188 28.035156 C 13.578125 28.035156 13.855469 27.78125 13.898438 27.457031 C 13.902344 27.480469 13.902344 27.507812 13.902344 27.539062 C 13.902344 27.902344 13.609375 28.199219 13.242188 28.199219 Z M 13.242188 28.199219 "/>
<path style=" stroke:none;fill-rule:nonzero;fill:rgb(0%,0%,0%);fill-opacity:0.196078;" d="M 13.242188 26.710938 C 13.609375 26.710938 13.902344 27.007812 13.902344 27.371094 C 13.902344 27.402344 13.902344 27.429688 13.898438 27.457031 C 13.855469 27.128906 13.578125 26.875 13.242188 26.875 C 12.902344 26.875 12.625 27.128906 12.585938 27.457031 C 12.582031 27.429688 12.578125 27.402344 12.578125 27.371094 C 12.578125 27.007812 12.875 26.710938 13.242188 26.710938 Z M 13.242188 26.710938 "/>
<path style=" stroke:none;fill-rule:nonzero;fill:rgb(0%,0%,0%);fill-opacity:0.196078;" d="M 15.882812 26.710938 C 16.25 26.710938 16.542969 27.007812 16.542969 27.371094 C 16.542969 27.402344 16.542969 27.429688 16.539062 27.457031 C 16.496094 27.128906 16.21875 26.875 15.882812 26.875 C 15.542969 26.875 15.265625 27.128906 15.226562 27.457031 C 15.222656 27.429688 15.21875 27.402344 15.21875 27.371094 C 15.21875 27.007812 15.515625 26.710938 15.882812 26.710938 Z M 15.882812 26.710938 "/>
<path style=" stroke:none;fill-rule:nonzero;fill:rgb(0%,0%,0%);fill-opacity:0.196078;" d="M 18.53125 26.710938 C 18.898438 26.710938 19.195312 27.007812 19.195312 27.371094 C 19.195312 27.402344 19.191406 27.429688 19.1875 27.457031 C 19.148438 27.128906 18.871094 26.875 18.53125 26.875 C 18.195312 26.875 17.917969 27.128906 17.875 27.457031 C 17.875 27.429688 17.871094 27.402344 17.871094 27.371094 C 17.871094 27.007812 18.167969 26.710938 18.53125 26.710938 Z M 18.53125 26.710938 "/>
<path style=" stroke:none;fill-rule:nonzero;fill:rgb(0%,0%,0%);fill-opacity:0.196078;" d="M 7.277344 30.019531 C 6.910156 30.019531 6.613281 29.722656 6.613281 29.355469 L 6.613281 29.027344 C 6.613281 29.394531 6.910156 29.6875 7.277344 29.6875 L 24.476562 29.6875 C 24.84375 29.6875 25.136719 29.394531 25.136719 29.027344 L 25.136719 29.355469 C 25.136719 29.722656 24.84375 30.019531 24.476562 30.019531 Z M 7.277344 30.019531 "/>
<path style=" stroke:none;fill-rule:nonzero;fill:rgb(100%,100%,100%);fill-opacity:0.196078;" d="M 7.277344 2.894531 C 6.910156 2.894531 6.613281 3.191406 6.613281 3.558594 L 6.613281 3.886719 C 6.613281 3.523438 6.910156 3.226562 7.277344 3.226562 L 24.476562 3.226562 C 24.84375 3.226562 25.136719 3.523438 25.136719 3.886719 L 25.136719 3.558594 C 25.136719 3.191406 24.84375 2.894531 24.476562 2.894531 Z M 7.277344 2.894531 "/>
<path style=" stroke:none;fill-rule:nonzero;fill:rgb(0%,0%,0%);fill-opacity:0.196078;" d="M 6.613281 9.84375 L 25.136719 9.84375 L 25.136719 10.171875 L 6.613281 10.171875 Z M 6.613281 9.84375 "/>
<path style=" stroke:none;fill-rule:nonzero;fill:rgb(100%,100%,100%);fill-opacity:0.196078;" d="M 6.613281 11.496094 L 25.136719 11.496094 L 25.136719 11.828125 L 6.613281 11.828125 Z M 6.613281 11.496094 "/>
<path style=" stroke:none;fill-rule:nonzero;fill:rgb(32.549021%,33.333334%,36.470589%);fill-opacity:1;" d="M 12.570312 14.140625 L 19.183594 14.140625 L 19.183594 15.464844 L 12.570312 15.464844 Z M 12.570312 14.140625 "/>
<path style=" stroke:none;fill-rule:nonzero;fill:rgb(32.549021%,33.333334%,36.470589%);fill-opacity:1;" d="M 13.230469 16.789062 L 18.523438 16.789062 L 18.523438 18.109375 L 13.230469 18.109375 Z M 13.230469 16.789062 "/>
<path style=" stroke:none;fill-rule:nonzero;fill:rgb(32.549021%,33.333334%,36.470589%);fill-opacity:1;" d="M 13.890625 19.433594 L 17.859375 19.433594 L 17.859375 20.757812 L 13.890625 20.757812 Z M 13.890625 19.433594 "/>
<path style=" stroke:none;fill-rule:nonzero;fill:rgb(32.549021%,33.333334%,36.470589%);fill-opacity:1;" d="M 14.554688 22.082031 L 17.199219 22.082031 L 17.199219 23.402344 L 14.554688 23.402344 Z M 14.554688 22.082031 "/>
</g>
</svg>
